%FSLAX45Y45*%
G04 Gerber Fmt 4.5, Leading zero omitted, Abs format (unit mm)*
G04 Created by KiCad (PCBNEW 5.99.0-unknown-6083c08~88~ubuntu18.04.1) date 2021-04-28 16:00:43*
%MOMM*%
%LPD*%
G01*
G04 APERTURE LIST*
%TA.AperFunction,Profile*%
%ADD10C,0.500000*%
%TD*%
%ADD11C,0.200000*%
%ADD12C,0.040000*%
%ADD13C,0.100000*%
%ADD14C,0.101600*%
G04 APERTURE END LIST*
D10*
X13436600Y-10464800D02*
X13436600Y-14071600D01*
X17576800Y-10464800D02*
X13436600Y-10464800D01*
X13436600Y-14071600D02*
X17576800Y-14071600D01*
X17576800Y-14071600D02*
X17576800Y-10464800D01*
X9296400Y-10464800D02*
X9296400Y-14071600D01*
X13436600Y-10464800D02*
X9296400Y-10464800D01*
X9296400Y-14071600D02*
X13436600Y-14071600D01*
X13436600Y-14071600D02*
X13436600Y-10464800D01*
X13436600Y-6858000D02*
X13436600Y-10464800D01*
X17576800Y-6858000D02*
X13436600Y-6858000D01*
X13436600Y-10464800D02*
X17576800Y-10464800D01*
X17576800Y-10464800D02*
X17576800Y-6858000D01*
X13436600Y-10464800D02*
X13436600Y-6858000D01*
X9296400Y-10464800D02*
X13436600Y-10464800D01*
X9296400Y-6858000D02*
X9296400Y-10464800D01*
X13436600Y-6858000D02*
X9296400Y-6858000D01*
D11*
D12*
X9469440Y-8260400D02*
X9509440Y-8300400D01*
X9509440Y-8260400D02*
X9469440Y-8300400D01*
X9469440Y-11867200D02*
X9509440Y-11907200D01*
X9509440Y-11867200D02*
X9469440Y-11907200D01*
X9505000Y-8609650D02*
X9545000Y-8649650D01*
X9545000Y-8609650D02*
X9505000Y-8649650D01*
X9505000Y-12216450D02*
X9545000Y-12256450D01*
X9545000Y-12216450D02*
X9505000Y-12256450D01*
X9536750Y-9682800D02*
X9576750Y-9722800D01*
X9576750Y-9682800D02*
X9536750Y-9722800D01*
X9536750Y-13289600D02*
X9576750Y-13329600D01*
X9576750Y-13289600D02*
X9536750Y-13329600D01*
X9708200Y-9358950D02*
X9748200Y-9398950D01*
X9748200Y-9358950D02*
X9708200Y-9398950D01*
X9708200Y-12965750D02*
X9748200Y-13005750D01*
X9748200Y-12965750D02*
X9708200Y-13005750D01*
X9854250Y-9617799D02*
X9894250Y-9657799D01*
X9894250Y-9617799D02*
X9854250Y-9657799D01*
X9854250Y-13224599D02*
X9894250Y-13264599D01*
X9894250Y-13224599D02*
X9854250Y-13264599D01*
X9977099Y-8861451D02*
X10017099Y-8901451D01*
X10017099Y-8861451D02*
X9977099Y-8901451D01*
X9977099Y-12468251D02*
X10017099Y-12508251D01*
X10017099Y-12468251D02*
X9977099Y-12508251D01*
X10030349Y-8577900D02*
X10070349Y-8617900D01*
X10070349Y-8577900D02*
X10030349Y-8617900D01*
X10030349Y-12184700D02*
X10070349Y-12224700D01*
X10070349Y-12184700D02*
X10030349Y-12224700D01*
X10070150Y-7485700D02*
X10110150Y-7525700D01*
X10110150Y-7485700D02*
X10070150Y-7525700D01*
X10070150Y-11092500D02*
X10110150Y-11132500D01*
X10110150Y-11092500D02*
X10070150Y-11132500D01*
X10895650Y-8158800D02*
X10935650Y-8198800D01*
X10935650Y-8158800D02*
X10895650Y-8198800D01*
X10895650Y-11765600D02*
X10935650Y-11805600D01*
X10935650Y-11765600D02*
X10895650Y-11805600D01*
X10933750Y-9270050D02*
X10973750Y-9310050D01*
X10973750Y-9270050D02*
X10933750Y-9310050D01*
X10933750Y-12876850D02*
X10973750Y-12916850D01*
X10973750Y-12876850D02*
X10933750Y-12916850D01*
X11022200Y-9532800D02*
X11062200Y-9572800D01*
X11062200Y-9532800D02*
X11022200Y-9572800D01*
X11022200Y-13139600D02*
X11062200Y-13179600D01*
X11062200Y-13139600D02*
X11022200Y-13179600D01*
X11092500Y-8165150D02*
X11132500Y-8205150D01*
X11132500Y-8165150D02*
X11092500Y-8205150D01*
X11092500Y-11771950D02*
X11132500Y-11811950D01*
X11132500Y-11771950D02*
X11092500Y-11811950D01*
X11259124Y-9676196D02*
X11299124Y-9716196D01*
X11299124Y-9676196D02*
X11259124Y-9716196D01*
X11259124Y-13282996D02*
X11299124Y-13322996D01*
X11299124Y-13282996D02*
X11259124Y-13322996D01*
X11283000Y-9886000D02*
X11323000Y-9926000D01*
X11323000Y-9886000D02*
X11283000Y-9926000D01*
X11283000Y-13492800D02*
X11323000Y-13532800D01*
X11323000Y-13492800D02*
X11283000Y-13532800D01*
X11548430Y-9909876D02*
X11588430Y-9949876D01*
X11588430Y-9909876D02*
X11548430Y-9949876D01*
X11548430Y-13516676D02*
X11588430Y-13556676D01*
X11588430Y-13516676D02*
X11548430Y-13556676D01*
X11680510Y-10340914D02*
X11720510Y-10380914D01*
X11720510Y-10340914D02*
X11680510Y-10380914D01*
X11680510Y-13947714D02*
X11720510Y-13987714D01*
X11720510Y-13947714D02*
X11680510Y-13987714D01*
X11829100Y-8539800D02*
X11869100Y-8579800D01*
X11869100Y-8539800D02*
X11829100Y-8579800D01*
X11829100Y-12146600D02*
X11869100Y-12186600D01*
X11869100Y-12146600D02*
X11829100Y-12186600D01*
X11943400Y-8057200D02*
X11983400Y-8097200D01*
X11983400Y-8057200D02*
X11943400Y-8097200D01*
X11943400Y-11664000D02*
X11983400Y-11704000D01*
X11983400Y-11664000D02*
X11943400Y-11704000D01*
X11962704Y-10011222D02*
X12002704Y-10051222D01*
X12002704Y-10011222D02*
X11962704Y-10051222D01*
X11962704Y-13618022D02*
X12002704Y-13658022D01*
X12002704Y-13618022D02*
X11962704Y-13658022D01*
X11994200Y-9530400D02*
X12034200Y-9570400D01*
X12034200Y-9530400D02*
X11994200Y-9570400D01*
X11994200Y-13137200D02*
X12034200Y-13177200D01*
X12034200Y-13137200D02*
X11994200Y-13177200D01*
X12045000Y-9155750D02*
X12085000Y-9195750D01*
X12085000Y-9155750D02*
X12045000Y-9195750D01*
X12045000Y-12762550D02*
X12085000Y-12802550D01*
X12085000Y-12762550D02*
X12045000Y-12802550D01*
X12095800Y-7612700D02*
X12135800Y-7652700D01*
X12135800Y-7612700D02*
X12095800Y-7652700D01*
X12095800Y-11219500D02*
X12135800Y-11259500D01*
X12135800Y-11219500D02*
X12095800Y-11259500D01*
X12121200Y-7282500D02*
X12161200Y-7322500D01*
X12161200Y-7282500D02*
X12121200Y-7322500D01*
X12121200Y-10889300D02*
X12161200Y-10929300D01*
X12161200Y-10889300D02*
X12121200Y-10929300D01*
X12553000Y-9428800D02*
X12593000Y-9468800D01*
X12593000Y-9428800D02*
X12553000Y-9468800D01*
X12553000Y-13035600D02*
X12593000Y-13075600D01*
X12593000Y-13035600D02*
X12553000Y-13075600D01*
X12654600Y-9428800D02*
X12694600Y-9468800D01*
X12694600Y-9428800D02*
X12654600Y-9468800D01*
X12654600Y-13035600D02*
X12694600Y-13075600D01*
X12694600Y-13035600D02*
X12654600Y-13075600D01*
X12705400Y-8933500D02*
X12745400Y-8973500D01*
X12745400Y-8933500D02*
X12705400Y-8973500D01*
X12705400Y-12540300D02*
X12745400Y-12580300D01*
X12745400Y-12540300D02*
X12705400Y-12580300D01*
X12718100Y-7904800D02*
X12758100Y-7944800D01*
X12758100Y-7904800D02*
X12718100Y-7944800D01*
X12718100Y-11511600D02*
X12758100Y-11551600D01*
X12758100Y-11511600D02*
X12718100Y-11551600D01*
X12832400Y-9162100D02*
X12872400Y-9202100D01*
X12872400Y-9162100D02*
X12832400Y-9202100D01*
X12832400Y-12768900D02*
X12872400Y-12808900D01*
X12872400Y-12768900D02*
X12832400Y-12808900D01*
X12978450Y-8933500D02*
X13018450Y-8973500D01*
X13018450Y-8933500D02*
X12978450Y-8973500D01*
X12978450Y-12540300D02*
X13018450Y-12580300D01*
X13018450Y-12540300D02*
X12978450Y-12580300D01*
X12991150Y-8603300D02*
X13031150Y-8643300D01*
X13031150Y-8603300D02*
X12991150Y-8643300D01*
X12991150Y-12210100D02*
X13031150Y-12250100D01*
X13031150Y-12210100D02*
X12991150Y-12250100D01*
X13016550Y-10241600D02*
X13056550Y-10281600D01*
X13056550Y-10241600D02*
X13016550Y-10281600D01*
X13016550Y-13848400D02*
X13056550Y-13888400D01*
X13056550Y-13848400D02*
X13016550Y-13888400D01*
X13061000Y-9225600D02*
X13101000Y-9265600D01*
X13101000Y-9225600D02*
X13061000Y-9265600D01*
X13061000Y-9327200D02*
X13101000Y-9367200D01*
X13101000Y-9327200D02*
X13061000Y-9367200D01*
X13061000Y-12832400D02*
X13101000Y-12872400D01*
X13101000Y-12832400D02*
X13061000Y-12872400D01*
X13061000Y-12934000D02*
X13101000Y-12974000D01*
X13101000Y-12934000D02*
X13061000Y-12974000D01*
X13194350Y-7600000D02*
X13234350Y-7640000D01*
X13234350Y-7600000D02*
X13194350Y-7640000D01*
X13194350Y-11206800D02*
X13234350Y-11246800D01*
X13234350Y-11206800D02*
X13194350Y-11246800D01*
X13276900Y-7739700D02*
X13316900Y-7779700D01*
X13316900Y-7739700D02*
X13276900Y-7779700D01*
X13276900Y-11346500D02*
X13316900Y-11386500D01*
X13316900Y-11346500D02*
X13276900Y-11386500D01*
X13609640Y-8260400D02*
X13649640Y-8300400D01*
X13649640Y-8260400D02*
X13609640Y-8300400D01*
X13609640Y-11867200D02*
X13649640Y-11907200D01*
X13649640Y-11867200D02*
X13609640Y-11907200D01*
X13645200Y-8609650D02*
X13685200Y-8649650D01*
X13685200Y-8609650D02*
X13645200Y-8649650D01*
X13645200Y-12216450D02*
X13685200Y-12256450D01*
X13685200Y-12216450D02*
X13645200Y-12256450D01*
X13676950Y-9682800D02*
X13716950Y-9722800D01*
X13716950Y-9682800D02*
X13676950Y-9722800D01*
X13676950Y-13289600D02*
X13716950Y-13329600D01*
X13716950Y-13289600D02*
X13676950Y-13329600D01*
X13848400Y-9358950D02*
X13888400Y-9398950D01*
X13888400Y-9358950D02*
X13848400Y-9398950D01*
X13848400Y-12965750D02*
X13888400Y-13005750D01*
X13888400Y-12965750D02*
X13848400Y-13005750D01*
X13994450Y-9617799D02*
X14034450Y-9657799D01*
X14034450Y-9617799D02*
X13994450Y-9657799D01*
X13994450Y-13224599D02*
X14034450Y-13264599D01*
X14034450Y-13224599D02*
X13994450Y-13264599D01*
X14117299Y-8861451D02*
X14157299Y-8901451D01*
X14157299Y-8861451D02*
X14117299Y-8901451D01*
X14117299Y-12468251D02*
X14157299Y-12508251D01*
X14157299Y-12468251D02*
X14117299Y-12508251D01*
X14170549Y-8577900D02*
X14210549Y-8617900D01*
X14210549Y-8577900D02*
X14170549Y-8617900D01*
X14170549Y-12184700D02*
X14210549Y-12224700D01*
X14210549Y-12184700D02*
X14170549Y-12224700D01*
X14210350Y-7485700D02*
X14250350Y-7525700D01*
X14250350Y-7485700D02*
X14210350Y-7525700D01*
X14210350Y-11092500D02*
X14250350Y-11132500D01*
X14250350Y-11092500D02*
X14210350Y-11132500D01*
X15035850Y-8158800D02*
X15075850Y-8198800D01*
X15075850Y-8158800D02*
X15035850Y-8198800D01*
X15035850Y-11765600D02*
X15075850Y-11805600D01*
X15075850Y-11765600D02*
X15035850Y-11805600D01*
X15073950Y-9270050D02*
X15113950Y-9310050D01*
X15113950Y-9270050D02*
X15073950Y-9310050D01*
X15073950Y-12876850D02*
X15113950Y-12916850D01*
X15113950Y-12876850D02*
X15073950Y-12916850D01*
X15162400Y-9532800D02*
X15202400Y-9572800D01*
X15202400Y-9532800D02*
X15162400Y-9572800D01*
X15162400Y-13139600D02*
X15202400Y-13179600D01*
X15202400Y-13139600D02*
X15162400Y-13179600D01*
X15232700Y-8165150D02*
X15272700Y-8205150D01*
X15272700Y-8165150D02*
X15232700Y-8205150D01*
X15232700Y-11771950D02*
X15272700Y-11811950D01*
X15272700Y-11771950D02*
X15232700Y-11811950D01*
X15399324Y-9676196D02*
X15439324Y-9716196D01*
X15439324Y-9676196D02*
X15399324Y-9716196D01*
X15399324Y-13282996D02*
X15439324Y-13322996D01*
X15439324Y-13282996D02*
X15399324Y-13322996D01*
X15423200Y-9886000D02*
X15463200Y-9926000D01*
X15463200Y-9886000D02*
X15423200Y-9926000D01*
X15423200Y-13492800D02*
X15463200Y-13532800D01*
X15463200Y-13492800D02*
X15423200Y-13532800D01*
X15688630Y-9909876D02*
X15728630Y-9949876D01*
X15728630Y-9909876D02*
X15688630Y-9949876D01*
X15688630Y-13516676D02*
X15728630Y-13556676D01*
X15728630Y-13516676D02*
X15688630Y-13556676D01*
X15820710Y-10340914D02*
X15860710Y-10380914D01*
X15860710Y-10340914D02*
X15820710Y-10380914D01*
X15820710Y-13947714D02*
X15860710Y-13987714D01*
X15860710Y-13947714D02*
X15820710Y-13987714D01*
X15969300Y-8539800D02*
X16009300Y-8579800D01*
X16009300Y-8539800D02*
X15969300Y-8579800D01*
X15969300Y-12146600D02*
X16009300Y-12186600D01*
X16009300Y-12146600D02*
X15969300Y-12186600D01*
X16083600Y-8057200D02*
X16123600Y-8097200D01*
X16123600Y-8057200D02*
X16083600Y-8097200D01*
X16083600Y-11664000D02*
X16123600Y-11704000D01*
X16123600Y-11664000D02*
X16083600Y-11704000D01*
X16102904Y-10011222D02*
X16142904Y-10051222D01*
X16142904Y-10011222D02*
X16102904Y-10051222D01*
X16102904Y-13618022D02*
X16142904Y-13658022D01*
X16142904Y-13618022D02*
X16102904Y-13658022D01*
X16134400Y-9530400D02*
X16174400Y-9570400D01*
X16174400Y-9530400D02*
X16134400Y-9570400D01*
X16134400Y-13137200D02*
X16174400Y-13177200D01*
X16174400Y-13137200D02*
X16134400Y-13177200D01*
X16185200Y-9155750D02*
X16225200Y-9195750D01*
X16225200Y-9155750D02*
X16185200Y-9195750D01*
X16185200Y-12762550D02*
X16225200Y-12802550D01*
X16225200Y-12762550D02*
X16185200Y-12802550D01*
X16236000Y-7612700D02*
X16276000Y-7652700D01*
X16276000Y-7612700D02*
X16236000Y-7652700D01*
X16236000Y-11219500D02*
X16276000Y-11259500D01*
X16276000Y-11219500D02*
X16236000Y-11259500D01*
X16261400Y-7282500D02*
X16301400Y-7322500D01*
X16301400Y-7282500D02*
X16261400Y-7322500D01*
X16261400Y-10889300D02*
X16301400Y-10929300D01*
X16301400Y-10889300D02*
X16261400Y-10929300D01*
X16693200Y-9428800D02*
X16733200Y-9468800D01*
X16733200Y-9428800D02*
X16693200Y-9468800D01*
X16693200Y-13035600D02*
X16733200Y-13075600D01*
X16733200Y-13035600D02*
X16693200Y-13075600D01*
X16794800Y-9428800D02*
X16834800Y-9468800D01*
X16834800Y-9428800D02*
X16794800Y-9468800D01*
X16794800Y-13035600D02*
X16834800Y-13075600D01*
X16834800Y-13035600D02*
X16794800Y-13075600D01*
X16845600Y-8933500D02*
X16885600Y-8973500D01*
X16885600Y-8933500D02*
X16845600Y-8973500D01*
X16845600Y-12540300D02*
X16885600Y-12580300D01*
X16885600Y-12540300D02*
X16845600Y-12580300D01*
X16858300Y-7904800D02*
X16898300Y-7944800D01*
X16898300Y-7904800D02*
X16858300Y-7944800D01*
X16858300Y-11511600D02*
X16898300Y-11551600D01*
X16898300Y-11511600D02*
X16858300Y-11551600D01*
X16972600Y-9162100D02*
X17012600Y-9202100D01*
X17012600Y-9162100D02*
X16972600Y-9202100D01*
X16972600Y-12768900D02*
X17012600Y-12808900D01*
X17012600Y-12768900D02*
X16972600Y-12808900D01*
X17118650Y-8933500D02*
X17158650Y-8973500D01*
X17158650Y-8933500D02*
X17118650Y-8973500D01*
X17118650Y-12540300D02*
X17158650Y-12580300D01*
X17158650Y-12540300D02*
X17118650Y-12580300D01*
X17131350Y-8603300D02*
X17171350Y-8643300D01*
X17171350Y-8603300D02*
X17131350Y-8643300D01*
X17131350Y-12210100D02*
X17171350Y-12250100D01*
X17171350Y-12210100D02*
X17131350Y-12250100D01*
X17156750Y-10241600D02*
X17196750Y-10281600D01*
X17196750Y-10241600D02*
X17156750Y-10281600D01*
X17156750Y-13848400D02*
X17196750Y-13888400D01*
X17196750Y-13848400D02*
X17156750Y-13888400D01*
X17201200Y-9225600D02*
X17241200Y-9265600D01*
X17241200Y-9225600D02*
X17201200Y-9265600D01*
X17201200Y-9327200D02*
X17241200Y-9367200D01*
X17241200Y-9327200D02*
X17201200Y-9367200D01*
X17201200Y-12832400D02*
X17241200Y-12872400D01*
X17241200Y-12832400D02*
X17201200Y-12872400D01*
X17201200Y-12934000D02*
X17241200Y-12974000D01*
X17241200Y-12934000D02*
X17201200Y-12974000D01*
X17334550Y-7600000D02*
X17374550Y-7640000D01*
X17374550Y-7600000D02*
X17334550Y-7640000D01*
X17334550Y-11206800D02*
X17374550Y-11246800D01*
X17374550Y-11206800D02*
X17334550Y-11246800D01*
X17417100Y-7739700D02*
X17457100Y-7779700D01*
X17457100Y-7739700D02*
X17417100Y-7779700D01*
X17417100Y-11346500D02*
X17457100Y-11386500D01*
X17457100Y-11346500D02*
X17417100Y-11386500D01*
D13*
X13719264Y-10671048D02*
G75*
G03*
X13719264Y-10671048I-50000J0D01*
G01*
X13973264Y-10671048D02*
G75*
G03*
X13973264Y-10671048I-50000J0D01*
G01*
X14227264Y-10671048D02*
G75*
G03*
X14227264Y-10671048I-50000J0D01*
G01*
X14481264Y-10671048D02*
G75*
G03*
X14481264Y-10671048I-50000J0D01*
G01*
X14735264Y-10671048D02*
G75*
G03*
X14735264Y-10671048I-50000J0D01*
G01*
X14989264Y-10671048D02*
G75*
G03*
X14989264Y-10671048I-50000J0D01*
G01*
X15243264Y-10671048D02*
G75*
G03*
X15243264Y-10671048I-50000J0D01*
G01*
X15497264Y-10671048D02*
G75*
G03*
X15497264Y-10671048I-50000J0D01*
G01*
X15751264Y-10671048D02*
G75*
G03*
X15751264Y-10671048I-50000J0D01*
G01*
X16005264Y-10671048D02*
G75*
G03*
X16005264Y-10671048I-50000J0D01*
G01*
X16259264Y-10671048D02*
G75*
G03*
X16259264Y-10671048I-50000J0D01*
G01*
X16513264Y-10671048D02*
G75*
G03*
X16513264Y-10671048I-50000J0D01*
G01*
X13719264Y-7064248D02*
G75*
G03*
X13719264Y-7064248I-50000J0D01*
G01*
X13973264Y-7064248D02*
G75*
G03*
X13973264Y-7064248I-50000J0D01*
G01*
X14227264Y-7064248D02*
G75*
G03*
X14227264Y-7064248I-50000J0D01*
G01*
X14481264Y-7064248D02*
G75*
G03*
X14481264Y-7064248I-50000J0D01*
G01*
X14735264Y-7064248D02*
G75*
G03*
X14735264Y-7064248I-50000J0D01*
G01*
X14989264Y-7064248D02*
G75*
G03*
X14989264Y-7064248I-50000J0D01*
G01*
X15243264Y-7064248D02*
G75*
G03*
X15243264Y-7064248I-50000J0D01*
G01*
X15497264Y-7064248D02*
G75*
G03*
X15497264Y-7064248I-50000J0D01*
G01*
X15751264Y-7064248D02*
G75*
G03*
X15751264Y-7064248I-50000J0D01*
G01*
X16005264Y-7064248D02*
G75*
G03*
X16005264Y-7064248I-50000J0D01*
G01*
X16259264Y-7064248D02*
G75*
G03*
X16259264Y-7064248I-50000J0D01*
G01*
X16513264Y-7064248D02*
G75*
G03*
X16513264Y-7064248I-50000J0D01*
G01*
X9579064Y-10671048D02*
G75*
G03*
X9579064Y-10671048I-50000J0D01*
G01*
X9833064Y-10671048D02*
G75*
G03*
X9833064Y-10671048I-50000J0D01*
G01*
X10087064Y-10671048D02*
G75*
G03*
X10087064Y-10671048I-50000J0D01*
G01*
X10341064Y-10671048D02*
G75*
G03*
X10341064Y-10671048I-50000J0D01*
G01*
X10595064Y-10671048D02*
G75*
G03*
X10595064Y-10671048I-50000J0D01*
G01*
X10849064Y-10671048D02*
G75*
G03*
X10849064Y-10671048I-50000J0D01*
G01*
X11103064Y-10671048D02*
G75*
G03*
X11103064Y-10671048I-50000J0D01*
G01*
X11357064Y-10671048D02*
G75*
G03*
X11357064Y-10671048I-50000J0D01*
G01*
X11611064Y-10671048D02*
G75*
G03*
X11611064Y-10671048I-50000J0D01*
G01*
X11865064Y-10671048D02*
G75*
G03*
X11865064Y-10671048I-50000J0D01*
G01*
X12119064Y-10671048D02*
G75*
G03*
X12119064Y-10671048I-50000J0D01*
G01*
X12373064Y-10671048D02*
G75*
G03*
X12373064Y-10671048I-50000J0D01*
G01*
X9579064Y-7064248D02*
G75*
G03*
X9579064Y-7064248I-50000J0D01*
G01*
X9833064Y-7064248D02*
G75*
G03*
X9833064Y-7064248I-50000J0D01*
G01*
X10087064Y-7064248D02*
G75*
G03*
X10087064Y-7064248I-50000J0D01*
G01*
X10341064Y-7064248D02*
G75*
G03*
X10341064Y-7064248I-50000J0D01*
G01*
X10595064Y-7064248D02*
G75*
G03*
X10595064Y-7064248I-50000J0D01*
G01*
X10849064Y-7064248D02*
G75*
G03*
X10849064Y-7064248I-50000J0D01*
G01*
X11103064Y-7064248D02*
G75*
G03*
X11103064Y-7064248I-50000J0D01*
G01*
X11357064Y-7064248D02*
G75*
G03*
X11357064Y-7064248I-50000J0D01*
G01*
X11611064Y-7064248D02*
G75*
G03*
X11611064Y-7064248I-50000J0D01*
G01*
X11865064Y-7064248D02*
G75*
G03*
X11865064Y-7064248I-50000J0D01*
G01*
X12119064Y-7064248D02*
G75*
G03*
X12119064Y-7064248I-50000J0D01*
G01*
X12373064Y-7064248D02*
G75*
G03*
X12373064Y-7064248I-50000J0D01*
G01*
D14*
X12115800Y-8026400D02*
X12115800Y-8128000D01*
X12065000Y-8077200D02*
X12166600Y-8077200D01*
X12369800Y-8026400D02*
X12369800Y-8128000D01*
X12319000Y-8077200D02*
X12420600Y-8077200D01*
X12623800Y-8026400D02*
X12623800Y-8128000D01*
X12573000Y-8077200D02*
X12674600Y-8077200D01*
X12877800Y-8026400D02*
X12877800Y-8128000D01*
X12827000Y-8077200D02*
X12928600Y-8077200D01*
X13131800Y-8026400D02*
X13131800Y-8128000D01*
X13081000Y-8077200D02*
X13182600Y-8077200D01*
X15697200Y-11931650D02*
X15697200Y-12033250D01*
X15646400Y-11982450D02*
X15748000Y-11982450D01*
X15697200Y-12185650D02*
X15697200Y-12287250D01*
X15646400Y-12236450D02*
X15748000Y-12236450D01*
X15697200Y-12439650D02*
X15697200Y-12541250D01*
X15646400Y-12490450D02*
X15748000Y-12490450D01*
X15697200Y-12693650D02*
X15697200Y-12795250D01*
X15646400Y-12744450D02*
X15748000Y-12744450D01*
X15697200Y-8324850D02*
X15697200Y-8426450D01*
X15646400Y-8375650D02*
X15748000Y-8375650D01*
X15697200Y-8578850D02*
X15697200Y-8680450D01*
X15646400Y-8629650D02*
X15748000Y-8629650D01*
X15697200Y-8832850D02*
X15697200Y-8934450D01*
X15646400Y-8883650D02*
X15748000Y-8883650D01*
X15697200Y-9086850D02*
X15697200Y-9188450D01*
X15646400Y-9137650D02*
X15748000Y-9137650D01*
X16256000Y-11633200D02*
X16256000Y-11734800D01*
X16205200Y-11684000D02*
X16306800Y-11684000D01*
X16510000Y-11633200D02*
X16510000Y-11734800D01*
X16459200Y-11684000D02*
X16560800Y-11684000D01*
X16764000Y-11633200D02*
X16764000Y-11734800D01*
X16713200Y-11684000D02*
X16814800Y-11684000D01*
X17018000Y-11633200D02*
X17018000Y-11734800D01*
X16967200Y-11684000D02*
X17068800Y-11684000D01*
X17272000Y-11633200D02*
X17272000Y-11734800D01*
X17221200Y-11684000D02*
X17322800Y-11684000D01*
X15702400Y-11060800D02*
X15702400Y-11162400D01*
X15651600Y-11111600D02*
X15753200Y-11111600D01*
X15702400Y-11314800D02*
X15702400Y-11416400D01*
X15651600Y-11365600D02*
X15753200Y-11365600D01*
X15702400Y-11568800D02*
X15702400Y-11670400D01*
X15651600Y-11619600D02*
X15753200Y-11619600D01*
X11562200Y-7454000D02*
X11562200Y-7555600D01*
X11511400Y-7504800D02*
X11613000Y-7504800D01*
X11562200Y-7708000D02*
X11562200Y-7809600D01*
X11511400Y-7758800D02*
X11613000Y-7758800D01*
X11562200Y-7962000D02*
X11562200Y-8063600D01*
X11511400Y-8012800D02*
X11613000Y-8012800D01*
X15702400Y-7454000D02*
X15702400Y-7555600D01*
X15651600Y-7504800D02*
X15753200Y-7504800D01*
X15702400Y-7708000D02*
X15702400Y-7809600D01*
X15651600Y-7758800D02*
X15753200Y-7758800D01*
X15702400Y-7962000D02*
X15702400Y-8063600D01*
X15651600Y-8012800D02*
X15753200Y-8012800D01*
X11557000Y-11931650D02*
X11557000Y-12033250D01*
X11506200Y-11982450D02*
X11607800Y-11982450D01*
X11557000Y-12185650D02*
X11557000Y-12287250D01*
X11506200Y-12236450D02*
X11607800Y-12236450D01*
X11557000Y-12439650D02*
X11557000Y-12541250D01*
X11506200Y-12490450D02*
X11607800Y-12490450D01*
X11557000Y-12693650D02*
X11557000Y-12795250D01*
X11506200Y-12744450D02*
X11607800Y-12744450D01*
X16256000Y-8026400D02*
X16256000Y-8128000D01*
X16205200Y-8077200D02*
X16306800Y-8077200D01*
X16510000Y-8026400D02*
X16510000Y-8128000D01*
X16459200Y-8077200D02*
X16560800Y-8077200D01*
X16764000Y-8026400D02*
X16764000Y-8128000D01*
X16713200Y-8077200D02*
X16814800Y-8077200D01*
X17018000Y-8026400D02*
X17018000Y-8128000D01*
X16967200Y-8077200D02*
X17068800Y-8077200D01*
X17272000Y-8026400D02*
X17272000Y-8128000D01*
X17221200Y-8077200D02*
X17322800Y-8077200D01*
X12115800Y-11633200D02*
X12115800Y-11734800D01*
X12065000Y-11684000D02*
X12166600Y-11684000D01*
X12369800Y-11633200D02*
X12369800Y-11734800D01*
X12319000Y-11684000D02*
X12420600Y-11684000D01*
X12623800Y-11633200D02*
X12623800Y-11734800D01*
X12573000Y-11684000D02*
X12674600Y-11684000D01*
X12877800Y-11633200D02*
X12877800Y-11734800D01*
X12827000Y-11684000D02*
X12928600Y-11684000D01*
X13131800Y-11633200D02*
X13131800Y-11734800D01*
X13081000Y-11684000D02*
X13182600Y-11684000D01*
X11562200Y-11060800D02*
X11562200Y-11162400D01*
X11511400Y-11111600D02*
X11613000Y-11111600D01*
X11562200Y-11314800D02*
X11562200Y-11416400D01*
X11511400Y-11365600D02*
X11613000Y-11365600D01*
X11562200Y-11568800D02*
X11562200Y-11670400D01*
X11511400Y-11619600D02*
X11613000Y-11619600D01*
X11557000Y-8324850D02*
X11557000Y-8426450D01*
X11506200Y-8375650D02*
X11607800Y-8375650D01*
X11557000Y-8578850D02*
X11557000Y-8680450D01*
X11506200Y-8629650D02*
X11607800Y-8629650D01*
X11557000Y-8832850D02*
X11557000Y-8934450D01*
X11506200Y-8883650D02*
X11607800Y-8883650D01*
X11557000Y-9086850D02*
X11557000Y-9188450D01*
X11506200Y-9137650D02*
X11607800Y-9137650D01*
D11*
X9529019Y-14407076D02*
X9529019Y-14207076D01*
X9576638Y-14207076D01*
X9605209Y-14216600D01*
X9624257Y-14235648D01*
X9633781Y-14254695D01*
X9643305Y-14292790D01*
X9643305Y-14321362D01*
X9633781Y-14359457D01*
X9624257Y-14378505D01*
X9605209Y-14397552D01*
X9576638Y-14407076D01*
X9529019Y-14407076D01*
X9729019Y-14407076D02*
X9729019Y-14273743D01*
X9729019Y-14311838D02*
X9738543Y-14292790D01*
X9748067Y-14283267D01*
X9767114Y-14273743D01*
X9786162Y-14273743D01*
X9852828Y-14407076D02*
X9852828Y-14273743D01*
X9852828Y-14207076D02*
X9843305Y-14216600D01*
X9852828Y-14226124D01*
X9862352Y-14216600D01*
X9852828Y-14207076D01*
X9852828Y-14226124D01*
X9976638Y-14407076D02*
X9957590Y-14397552D01*
X9948067Y-14378505D01*
X9948067Y-14207076D01*
X10081400Y-14407076D02*
X10062352Y-14397552D01*
X10052828Y-14378505D01*
X10052828Y-14207076D01*
X10309971Y-14407076D02*
X10309971Y-14207076D01*
X10376638Y-14349933D01*
X10443305Y-14207076D01*
X10443305Y-14407076D01*
X10624257Y-14407076D02*
X10624257Y-14302314D01*
X10614733Y-14283267D01*
X10595686Y-14273743D01*
X10557590Y-14273743D01*
X10538543Y-14283267D01*
X10624257Y-14397552D02*
X10605209Y-14407076D01*
X10557590Y-14407076D01*
X10538543Y-14397552D01*
X10529019Y-14378505D01*
X10529019Y-14359457D01*
X10538543Y-14340410D01*
X10557590Y-14330886D01*
X10605209Y-14330886D01*
X10624257Y-14321362D01*
X10719495Y-14273743D02*
X10719495Y-14473743D01*
X10719495Y-14283267D02*
X10738543Y-14273743D01*
X10776638Y-14273743D01*
X10795686Y-14283267D01*
X10805209Y-14292790D01*
X10814733Y-14311838D01*
X10814733Y-14368981D01*
X10805209Y-14388029D01*
X10795686Y-14397552D01*
X10776638Y-14407076D01*
X10738543Y-14407076D01*
X10719495Y-14397552D01*
X10900448Y-14388029D02*
X10909971Y-14397552D01*
X10900448Y-14407076D01*
X10890924Y-14397552D01*
X10900448Y-14388029D01*
X10900448Y-14407076D01*
X10900448Y-14283267D02*
X10909971Y-14292790D01*
X10900448Y-14302314D01*
X10890924Y-14292790D01*
X10900448Y-14283267D01*
X10900448Y-14302314D01*
D12*
X9231400Y-14716600D02*
X9271400Y-14756600D01*
X9271400Y-14716600D02*
X9231400Y-14756600D01*
D11*
X9567114Y-14627076D02*
X9586162Y-14627076D01*
X9605209Y-14636600D01*
X9614733Y-14646124D01*
X9624257Y-14665171D01*
X9633781Y-14703267D01*
X9633781Y-14750886D01*
X9624257Y-14788981D01*
X9614733Y-14808029D01*
X9605209Y-14817552D01*
X9586162Y-14827076D01*
X9567114Y-14827076D01*
X9548067Y-14817552D01*
X9538543Y-14808029D01*
X9529019Y-14788981D01*
X9519495Y-14750886D01*
X9519495Y-14703267D01*
X9529019Y-14665171D01*
X9538543Y-14646124D01*
X9548067Y-14636600D01*
X9567114Y-14627076D01*
X9719495Y-14808029D02*
X9729019Y-14817552D01*
X9719495Y-14827076D01*
X9709971Y-14817552D01*
X9719495Y-14808029D01*
X9719495Y-14827076D01*
X9900448Y-14693743D02*
X9900448Y-14827076D01*
X9852828Y-14617552D02*
X9805209Y-14760410D01*
X9929019Y-14760410D01*
X10043305Y-14627076D02*
X10062352Y-14627076D01*
X10081400Y-14636600D01*
X10090924Y-14646124D01*
X10100448Y-14665171D01*
X10109971Y-14703267D01*
X10109971Y-14750886D01*
X10100448Y-14788981D01*
X10090924Y-14808029D01*
X10081400Y-14817552D01*
X10062352Y-14827076D01*
X10043305Y-14827076D01*
X10024257Y-14817552D01*
X10014733Y-14808029D01*
X10005209Y-14788981D01*
X9995686Y-14750886D01*
X9995686Y-14703267D01*
X10005209Y-14665171D01*
X10014733Y-14646124D01*
X10024257Y-14636600D01*
X10043305Y-14627076D01*
X10233781Y-14627076D02*
X10252828Y-14627076D01*
X10271876Y-14636600D01*
X10281400Y-14646124D01*
X10290924Y-14665171D01*
X10300448Y-14703267D01*
X10300448Y-14750886D01*
X10290924Y-14788981D01*
X10281400Y-14808029D01*
X10271876Y-14817552D01*
X10252828Y-14827076D01*
X10233781Y-14827076D01*
X10214733Y-14817552D01*
X10205209Y-14808029D01*
X10195686Y-14788981D01*
X10186162Y-14750886D01*
X10186162Y-14703267D01*
X10195686Y-14665171D01*
X10205209Y-14646124D01*
X10214733Y-14636600D01*
X10233781Y-14627076D01*
X10386162Y-14827076D02*
X10386162Y-14693743D01*
X10386162Y-14712790D02*
X10395686Y-14703267D01*
X10414733Y-14693743D01*
X10443305Y-14693743D01*
X10462352Y-14703267D01*
X10471876Y-14722314D01*
X10471876Y-14827076D01*
X10471876Y-14722314D02*
X10481400Y-14703267D01*
X10500448Y-14693743D01*
X10529019Y-14693743D01*
X10548067Y-14703267D01*
X10557590Y-14722314D01*
X10557590Y-14827076D01*
X10652828Y-14827076D02*
X10652828Y-14693743D01*
X10652828Y-14712790D02*
X10662352Y-14703267D01*
X10681400Y-14693743D01*
X10709971Y-14693743D01*
X10729019Y-14703267D01*
X10738543Y-14722314D01*
X10738543Y-14827076D01*
X10738543Y-14722314D02*
X10748067Y-14703267D01*
X10767114Y-14693743D01*
X10795686Y-14693743D01*
X10814733Y-14703267D01*
X10824257Y-14722314D01*
X10824257Y-14827076D01*
X11214733Y-14617552D02*
X11043305Y-14874695D01*
X11471876Y-14627076D02*
X11490924Y-14627076D01*
X11509971Y-14636600D01*
X11519495Y-14646124D01*
X11529019Y-14665171D01*
X11538543Y-14703267D01*
X11538543Y-14750886D01*
X11529019Y-14788981D01*
X11519495Y-14808029D01*
X11509971Y-14817552D01*
X11490924Y-14827076D01*
X11471876Y-14827076D01*
X11452828Y-14817552D01*
X11443305Y-14808029D01*
X11433781Y-14788981D01*
X11424257Y-14750886D01*
X11424257Y-14703267D01*
X11433781Y-14665171D01*
X11443305Y-14646124D01*
X11452828Y-14636600D01*
X11471876Y-14627076D01*
X11624257Y-14808029D02*
X11633781Y-14817552D01*
X11624257Y-14827076D01*
X11614733Y-14817552D01*
X11624257Y-14808029D01*
X11624257Y-14827076D01*
X11757590Y-14627076D02*
X11776638Y-14627076D01*
X11795686Y-14636600D01*
X11805209Y-14646124D01*
X11814733Y-14665171D01*
X11824257Y-14703267D01*
X11824257Y-14750886D01*
X11814733Y-14788981D01*
X11805209Y-14808029D01*
X11795686Y-14817552D01*
X11776638Y-14827076D01*
X11757590Y-14827076D01*
X11738543Y-14817552D01*
X11729019Y-14808029D01*
X11719495Y-14788981D01*
X11709971Y-14750886D01*
X11709971Y-14703267D01*
X11719495Y-14665171D01*
X11729019Y-14646124D01*
X11738543Y-14636600D01*
X11757590Y-14627076D01*
X12014733Y-14827076D02*
X11900447Y-14827076D01*
X11957590Y-14827076D02*
X11957590Y-14627076D01*
X11938543Y-14655648D01*
X11919495Y-14674695D01*
X11900447Y-14684219D01*
X12195686Y-14627076D02*
X12100447Y-14627076D01*
X12090924Y-14722314D01*
X12100447Y-14712790D01*
X12119495Y-14703267D01*
X12167114Y-14703267D01*
X12186162Y-14712790D01*
X12195686Y-14722314D01*
X12205209Y-14741362D01*
X12205209Y-14788981D01*
X12195686Y-14808029D01*
X12186162Y-14817552D01*
X12167114Y-14827076D01*
X12119495Y-14827076D01*
X12100447Y-14817552D01*
X12090924Y-14808029D01*
X12271876Y-14627076D02*
X12405209Y-14627076D01*
X12319495Y-14827076D01*
X12471876Y-14627076D02*
X12471876Y-14665171D01*
X12548066Y-14627076D02*
X12548066Y-14665171D01*
X12843305Y-14903267D02*
X12833781Y-14893743D01*
X12814733Y-14865171D01*
X12805209Y-14846124D01*
X12795686Y-14817552D01*
X12786162Y-14769933D01*
X12786162Y-14731838D01*
X12795686Y-14684219D01*
X12805209Y-14655648D01*
X12814733Y-14636600D01*
X12833781Y-14608029D01*
X12843305Y-14598505D01*
X13024257Y-14827076D02*
X12909971Y-14827076D01*
X12967114Y-14827076D02*
X12967114Y-14627076D01*
X12948066Y-14655648D01*
X12929019Y-14674695D01*
X12909971Y-14684219D01*
X13195686Y-14693743D02*
X13195686Y-14827076D01*
X13148066Y-14617552D02*
X13100447Y-14760410D01*
X13224257Y-14760410D01*
X13338543Y-14627076D02*
X13357590Y-14627076D01*
X13376638Y-14636600D01*
X13386162Y-14646124D01*
X13395686Y-14665171D01*
X13405209Y-14703267D01*
X13405209Y-14750886D01*
X13395686Y-14788981D01*
X13386162Y-14808029D01*
X13376638Y-14817552D01*
X13357590Y-14827076D01*
X13338543Y-14827076D01*
X13319495Y-14817552D01*
X13309971Y-14808029D01*
X13300447Y-14788981D01*
X13290924Y-14750886D01*
X13290924Y-14703267D01*
X13300447Y-14665171D01*
X13309971Y-14646124D01*
X13319495Y-14636600D01*
X13338543Y-14627076D01*
X13643305Y-14827076D02*
X13643305Y-14627076D01*
X13729019Y-14827076D02*
X13729019Y-14722314D01*
X13719495Y-14703267D01*
X13700447Y-14693743D01*
X13671876Y-14693743D01*
X13652828Y-14703267D01*
X13643305Y-14712790D01*
X13852828Y-14827076D02*
X13833781Y-14817552D01*
X13824257Y-14808029D01*
X13814733Y-14788981D01*
X13814733Y-14731838D01*
X13824257Y-14712790D01*
X13833781Y-14703267D01*
X13852828Y-14693743D01*
X13881400Y-14693743D01*
X13900447Y-14703267D01*
X13909971Y-14712790D01*
X13919495Y-14731838D01*
X13919495Y-14788981D01*
X13909971Y-14808029D01*
X13900447Y-14817552D01*
X13881400Y-14827076D01*
X13852828Y-14827076D01*
X14033781Y-14827076D02*
X14014733Y-14817552D01*
X14005209Y-14798505D01*
X14005209Y-14627076D01*
X14186162Y-14817552D02*
X14167114Y-14827076D01*
X14129019Y-14827076D01*
X14109971Y-14817552D01*
X14100447Y-14798505D01*
X14100447Y-14722314D01*
X14109971Y-14703267D01*
X14129019Y-14693743D01*
X14167114Y-14693743D01*
X14186162Y-14703267D01*
X14195686Y-14722314D01*
X14195686Y-14741362D01*
X14100447Y-14760410D01*
X14271876Y-14817552D02*
X14290924Y-14827076D01*
X14329019Y-14827076D01*
X14348066Y-14817552D01*
X14357590Y-14798505D01*
X14357590Y-14788981D01*
X14348066Y-14769933D01*
X14329019Y-14760410D01*
X14300447Y-14760410D01*
X14281400Y-14750886D01*
X14271876Y-14731838D01*
X14271876Y-14722314D01*
X14281400Y-14703267D01*
X14300447Y-14693743D01*
X14329019Y-14693743D01*
X14348066Y-14703267D01*
X14424257Y-14903267D02*
X14433781Y-14893743D01*
X14452828Y-14865171D01*
X14462352Y-14846124D01*
X14471876Y-14817552D01*
X14481400Y-14769933D01*
X14481400Y-14731838D01*
X14471876Y-14684219D01*
X14462352Y-14655648D01*
X14452828Y-14636600D01*
X14433781Y-14608029D01*
X14424257Y-14598505D01*
D13*
X9271400Y-15000600D02*
G75*
G03*
X9271400Y-15000600I-50000J0D01*
G01*
D11*
X9633781Y-15091076D02*
X9519495Y-15091076D01*
X9576638Y-15091076D02*
X9576638Y-14891076D01*
X9557590Y-14919648D01*
X9538543Y-14938695D01*
X9519495Y-14948219D01*
X9719495Y-15072029D02*
X9729019Y-15081552D01*
X9719495Y-15091076D01*
X9709971Y-15081552D01*
X9719495Y-15072029D01*
X9719495Y-15091076D01*
X9852828Y-14891076D02*
X9871876Y-14891076D01*
X9890924Y-14900600D01*
X9900448Y-14910124D01*
X9909971Y-14929171D01*
X9919495Y-14967267D01*
X9919495Y-15014886D01*
X9909971Y-15052981D01*
X9900448Y-15072029D01*
X9890924Y-15081552D01*
X9871876Y-15091076D01*
X9852828Y-15091076D01*
X9833781Y-15081552D01*
X9824257Y-15072029D01*
X9814733Y-15052981D01*
X9805209Y-15014886D01*
X9805209Y-14967267D01*
X9814733Y-14929171D01*
X9824257Y-14910124D01*
X9833781Y-14900600D01*
X9852828Y-14891076D01*
X10043305Y-14891076D02*
X10062352Y-14891076D01*
X10081400Y-14900600D01*
X10090924Y-14910124D01*
X10100448Y-14929171D01*
X10109971Y-14967267D01*
X10109971Y-15014886D01*
X10100448Y-15052981D01*
X10090924Y-15072029D01*
X10081400Y-15081552D01*
X10062352Y-15091076D01*
X10043305Y-15091076D01*
X10024257Y-15081552D01*
X10014733Y-15072029D01*
X10005209Y-15052981D01*
X9995686Y-15014886D01*
X9995686Y-14967267D01*
X10005209Y-14929171D01*
X10014733Y-14910124D01*
X10024257Y-14900600D01*
X10043305Y-14891076D01*
X10233781Y-14891076D02*
X10252828Y-14891076D01*
X10271876Y-14900600D01*
X10281400Y-14910124D01*
X10290924Y-14929171D01*
X10300448Y-14967267D01*
X10300448Y-15014886D01*
X10290924Y-15052981D01*
X10281400Y-15072029D01*
X10271876Y-15081552D01*
X10252828Y-15091076D01*
X10233781Y-15091076D01*
X10214733Y-15081552D01*
X10205209Y-15072029D01*
X10195686Y-15052981D01*
X10186162Y-15014886D01*
X10186162Y-14967267D01*
X10195686Y-14929171D01*
X10205209Y-14910124D01*
X10214733Y-14900600D01*
X10233781Y-14891076D01*
X10386162Y-15091076D02*
X10386162Y-14957743D01*
X10386162Y-14976790D02*
X10395686Y-14967267D01*
X10414733Y-14957743D01*
X10443305Y-14957743D01*
X10462352Y-14967267D01*
X10471876Y-14986314D01*
X10471876Y-15091076D01*
X10471876Y-14986314D02*
X10481400Y-14967267D01*
X10500448Y-14957743D01*
X10529019Y-14957743D01*
X10548067Y-14967267D01*
X10557590Y-14986314D01*
X10557590Y-15091076D01*
X10652828Y-15091076D02*
X10652828Y-14957743D01*
X10652828Y-14976790D02*
X10662352Y-14967267D01*
X10681400Y-14957743D01*
X10709971Y-14957743D01*
X10729019Y-14967267D01*
X10738543Y-14986314D01*
X10738543Y-15091076D01*
X10738543Y-14986314D02*
X10748067Y-14967267D01*
X10767114Y-14957743D01*
X10795686Y-14957743D01*
X10814733Y-14967267D01*
X10824257Y-14986314D01*
X10824257Y-15091076D01*
X11214733Y-14881552D02*
X11043305Y-15138695D01*
X11471876Y-14891076D02*
X11490924Y-14891076D01*
X11509971Y-14900600D01*
X11519495Y-14910124D01*
X11529019Y-14929171D01*
X11538543Y-14967267D01*
X11538543Y-15014886D01*
X11529019Y-15052981D01*
X11519495Y-15072029D01*
X11509971Y-15081552D01*
X11490924Y-15091076D01*
X11471876Y-15091076D01*
X11452828Y-15081552D01*
X11443305Y-15072029D01*
X11433781Y-15052981D01*
X11424257Y-15014886D01*
X11424257Y-14967267D01*
X11433781Y-14929171D01*
X11443305Y-14910124D01*
X11452828Y-14900600D01*
X11471876Y-14891076D01*
X11624257Y-15072029D02*
X11633781Y-15081552D01*
X11624257Y-15091076D01*
X11614733Y-15081552D01*
X11624257Y-15072029D01*
X11624257Y-15091076D01*
X11757590Y-14891076D02*
X11776638Y-14891076D01*
X11795686Y-14900600D01*
X11805209Y-14910124D01*
X11814733Y-14929171D01*
X11824257Y-14967267D01*
X11824257Y-15014886D01*
X11814733Y-15052981D01*
X11805209Y-15072029D01*
X11795686Y-15081552D01*
X11776638Y-15091076D01*
X11757590Y-15091076D01*
X11738543Y-15081552D01*
X11729019Y-15072029D01*
X11719495Y-15052981D01*
X11709971Y-15014886D01*
X11709971Y-14967267D01*
X11719495Y-14929171D01*
X11729019Y-14910124D01*
X11738543Y-14900600D01*
X11757590Y-14891076D01*
X11890924Y-14891076D02*
X12014733Y-14891076D01*
X11948066Y-14967267D01*
X11976638Y-14967267D01*
X11995686Y-14976790D01*
X12005209Y-14986314D01*
X12014733Y-15005362D01*
X12014733Y-15052981D01*
X12005209Y-15072029D01*
X11995686Y-15081552D01*
X11976638Y-15091076D01*
X11919495Y-15091076D01*
X11900447Y-15081552D01*
X11890924Y-15072029D01*
X12109971Y-15091076D02*
X12148066Y-15091076D01*
X12167114Y-15081552D01*
X12176638Y-15072029D01*
X12195686Y-15043457D01*
X12205209Y-15005362D01*
X12205209Y-14929171D01*
X12195686Y-14910124D01*
X12186162Y-14900600D01*
X12167114Y-14891076D01*
X12129019Y-14891076D01*
X12109971Y-14900600D01*
X12100447Y-14910124D01*
X12090924Y-14929171D01*
X12090924Y-14976790D01*
X12100447Y-14995838D01*
X12109971Y-15005362D01*
X12129019Y-15014886D01*
X12167114Y-15014886D01*
X12186162Y-15005362D01*
X12195686Y-14995838D01*
X12205209Y-14976790D01*
X12376638Y-14957743D02*
X12376638Y-15091076D01*
X12329019Y-14881552D02*
X12281400Y-15024410D01*
X12405209Y-15024410D01*
X12471876Y-14891076D02*
X12471876Y-14929171D01*
X12548066Y-14891076D02*
X12548066Y-14929171D01*
X12843305Y-15167267D02*
X12833781Y-15157743D01*
X12814733Y-15129171D01*
X12805209Y-15110124D01*
X12795686Y-15081552D01*
X12786162Y-15033933D01*
X12786162Y-14995838D01*
X12795686Y-14948219D01*
X12805209Y-14919648D01*
X12814733Y-14900600D01*
X12833781Y-14872029D01*
X12843305Y-14862505D01*
X13005209Y-14957743D02*
X13005209Y-15091076D01*
X12957590Y-14881552D02*
X12909971Y-15024410D01*
X13033781Y-15024410D01*
X13138543Y-14976790D02*
X13119495Y-14967267D01*
X13109971Y-14957743D01*
X13100447Y-14938695D01*
X13100447Y-14929171D01*
X13109971Y-14910124D01*
X13119495Y-14900600D01*
X13138543Y-14891076D01*
X13176638Y-14891076D01*
X13195686Y-14900600D01*
X13205209Y-14910124D01*
X13214733Y-14929171D01*
X13214733Y-14938695D01*
X13205209Y-14957743D01*
X13195686Y-14967267D01*
X13176638Y-14976790D01*
X13138543Y-14976790D01*
X13119495Y-14986314D01*
X13109971Y-14995838D01*
X13100447Y-15014886D01*
X13100447Y-15052981D01*
X13109971Y-15072029D01*
X13119495Y-15081552D01*
X13138543Y-15091076D01*
X13176638Y-15091076D01*
X13195686Y-15081552D01*
X13205209Y-15072029D01*
X13214733Y-15052981D01*
X13214733Y-15014886D01*
X13205209Y-14995838D01*
X13195686Y-14986314D01*
X13176638Y-14976790D01*
X13452828Y-15091076D02*
X13452828Y-14891076D01*
X13538543Y-15091076D02*
X13538543Y-14986314D01*
X13529019Y-14967267D01*
X13509971Y-14957743D01*
X13481400Y-14957743D01*
X13462352Y-14967267D01*
X13452828Y-14976790D01*
X13662352Y-15091076D02*
X13643305Y-15081552D01*
X13633781Y-15072029D01*
X13624257Y-15052981D01*
X13624257Y-14995838D01*
X13633781Y-14976790D01*
X13643305Y-14967267D01*
X13662352Y-14957743D01*
X13690924Y-14957743D01*
X13709971Y-14967267D01*
X13719495Y-14976790D01*
X13729019Y-14995838D01*
X13729019Y-15052981D01*
X13719495Y-15072029D01*
X13709971Y-15081552D01*
X13690924Y-15091076D01*
X13662352Y-15091076D01*
X13843305Y-15091076D02*
X13824257Y-15081552D01*
X13814733Y-15062505D01*
X13814733Y-14891076D01*
X13995686Y-15081552D02*
X13976638Y-15091076D01*
X13938543Y-15091076D01*
X13919495Y-15081552D01*
X13909971Y-15062505D01*
X13909971Y-14986314D01*
X13919495Y-14967267D01*
X13938543Y-14957743D01*
X13976638Y-14957743D01*
X13995686Y-14967267D01*
X14005209Y-14986314D01*
X14005209Y-15005362D01*
X13909971Y-15024410D01*
X14081400Y-15081552D02*
X14100447Y-15091076D01*
X14138543Y-15091076D01*
X14157590Y-15081552D01*
X14167114Y-15062505D01*
X14167114Y-15052981D01*
X14157590Y-15033933D01*
X14138543Y-15024410D01*
X14109971Y-15024410D01*
X14090924Y-15014886D01*
X14081400Y-14995838D01*
X14081400Y-14986314D01*
X14090924Y-14967267D01*
X14109971Y-14957743D01*
X14138543Y-14957743D01*
X14157590Y-14967267D01*
X14233781Y-15167267D02*
X14243305Y-15157743D01*
X14262352Y-15129171D01*
X14271876Y-15110124D01*
X14281400Y-15081552D01*
X14290924Y-15033933D01*
X14290924Y-14995838D01*
X14281400Y-14948219D01*
X14271876Y-14919648D01*
X14262352Y-14900600D01*
X14243305Y-14872029D01*
X14233781Y-14862505D01*
D14*
X9220600Y-15213800D02*
X9220600Y-15315400D01*
X9169800Y-15264600D02*
X9271400Y-15264600D01*
D11*
X9633781Y-15355076D02*
X9519495Y-15355076D01*
X9576638Y-15355076D02*
X9576638Y-15155076D01*
X9557590Y-15183648D01*
X9538543Y-15202695D01*
X9519495Y-15212219D01*
X9719495Y-15336029D02*
X9729019Y-15345552D01*
X9719495Y-15355076D01*
X9709971Y-15345552D01*
X9719495Y-15336029D01*
X9719495Y-15355076D01*
X9852828Y-15155076D02*
X9871876Y-15155076D01*
X9890924Y-15164600D01*
X9900448Y-15174124D01*
X9909971Y-15193171D01*
X9919495Y-15231267D01*
X9919495Y-15278886D01*
X9909971Y-15316981D01*
X9900448Y-15336029D01*
X9890924Y-15345552D01*
X9871876Y-15355076D01*
X9852828Y-15355076D01*
X9833781Y-15345552D01*
X9824257Y-15336029D01*
X9814733Y-15316981D01*
X9805209Y-15278886D01*
X9805209Y-15231267D01*
X9814733Y-15193171D01*
X9824257Y-15174124D01*
X9833781Y-15164600D01*
X9852828Y-15155076D01*
X10109971Y-15355076D02*
X9995686Y-15355076D01*
X10052828Y-15355076D02*
X10052828Y-15155076D01*
X10033781Y-15183648D01*
X10014733Y-15202695D01*
X9995686Y-15212219D01*
X10281400Y-15155076D02*
X10243305Y-15155076D01*
X10224257Y-15164600D01*
X10214733Y-15174124D01*
X10195686Y-15202695D01*
X10186162Y-15240790D01*
X10186162Y-15316981D01*
X10195686Y-15336029D01*
X10205209Y-15345552D01*
X10224257Y-15355076D01*
X10262352Y-15355076D01*
X10281400Y-15345552D01*
X10290924Y-15336029D01*
X10300448Y-15316981D01*
X10300448Y-15269362D01*
X10290924Y-15250314D01*
X10281400Y-15240790D01*
X10262352Y-15231267D01*
X10224257Y-15231267D01*
X10205209Y-15240790D01*
X10195686Y-15250314D01*
X10186162Y-15269362D01*
X10386162Y-15355076D02*
X10386162Y-15221743D01*
X10386162Y-15240790D02*
X10395686Y-15231267D01*
X10414733Y-15221743D01*
X10443305Y-15221743D01*
X10462352Y-15231267D01*
X10471876Y-15250314D01*
X10471876Y-15355076D01*
X10471876Y-15250314D02*
X10481400Y-15231267D01*
X10500448Y-15221743D01*
X10529019Y-15221743D01*
X10548067Y-15231267D01*
X10557590Y-15250314D01*
X10557590Y-15355076D01*
X10652828Y-15355076D02*
X10652828Y-15221743D01*
X10652828Y-15240790D02*
X10662352Y-15231267D01*
X10681400Y-15221743D01*
X10709971Y-15221743D01*
X10729019Y-15231267D01*
X10738543Y-15250314D01*
X10738543Y-15355076D01*
X10738543Y-15250314D02*
X10748067Y-15231267D01*
X10767114Y-15221743D01*
X10795686Y-15221743D01*
X10814733Y-15231267D01*
X10824257Y-15250314D01*
X10824257Y-15355076D01*
X11214733Y-15145552D02*
X11043305Y-15402695D01*
X11471876Y-15155076D02*
X11490924Y-15155076D01*
X11509971Y-15164600D01*
X11519495Y-15174124D01*
X11529019Y-15193171D01*
X11538543Y-15231267D01*
X11538543Y-15278886D01*
X11529019Y-15316981D01*
X11519495Y-15336029D01*
X11509971Y-15345552D01*
X11490924Y-15355076D01*
X11471876Y-15355076D01*
X11452828Y-15345552D01*
X11443305Y-15336029D01*
X11433781Y-15316981D01*
X11424257Y-15278886D01*
X11424257Y-15231267D01*
X11433781Y-15193171D01*
X11443305Y-15174124D01*
X11452828Y-15164600D01*
X11471876Y-15155076D01*
X11624257Y-15336029D02*
X11633781Y-15345552D01*
X11624257Y-15355076D01*
X11614733Y-15345552D01*
X11624257Y-15336029D01*
X11624257Y-15355076D01*
X11757590Y-15155076D02*
X11776638Y-15155076D01*
X11795686Y-15164600D01*
X11805209Y-15174124D01*
X11814733Y-15193171D01*
X11824257Y-15231267D01*
X11824257Y-15278886D01*
X11814733Y-15316981D01*
X11805209Y-15336029D01*
X11795686Y-15345552D01*
X11776638Y-15355076D01*
X11757590Y-15355076D01*
X11738543Y-15345552D01*
X11729019Y-15336029D01*
X11719495Y-15316981D01*
X11709971Y-15278886D01*
X11709971Y-15231267D01*
X11719495Y-15193171D01*
X11729019Y-15174124D01*
X11738543Y-15164600D01*
X11757590Y-15155076D01*
X11995686Y-15221743D02*
X11995686Y-15355076D01*
X11948066Y-15145552D02*
X11900447Y-15288410D01*
X12024257Y-15288410D01*
X12138543Y-15155076D02*
X12157590Y-15155076D01*
X12176638Y-15164600D01*
X12186162Y-15174124D01*
X12195686Y-15193171D01*
X12205209Y-15231267D01*
X12205209Y-15278886D01*
X12195686Y-15316981D01*
X12186162Y-15336029D01*
X12176638Y-15345552D01*
X12157590Y-15355076D01*
X12138543Y-15355076D01*
X12119495Y-15345552D01*
X12109971Y-15336029D01*
X12100447Y-15316981D01*
X12090924Y-15278886D01*
X12090924Y-15231267D01*
X12100447Y-15193171D01*
X12109971Y-15174124D01*
X12119495Y-15164600D01*
X12138543Y-15155076D01*
X12329019Y-15155076D02*
X12348066Y-15155076D01*
X12367114Y-15164600D01*
X12376638Y-15174124D01*
X12386162Y-15193171D01*
X12395686Y-15231267D01*
X12395686Y-15278886D01*
X12386162Y-15316981D01*
X12376638Y-15336029D01*
X12367114Y-15345552D01*
X12348066Y-15355076D01*
X12329019Y-15355076D01*
X12309971Y-15345552D01*
X12300447Y-15336029D01*
X12290924Y-15316981D01*
X12281400Y-15278886D01*
X12281400Y-15231267D01*
X12290924Y-15193171D01*
X12300447Y-15174124D01*
X12309971Y-15164600D01*
X12329019Y-15155076D01*
X12471876Y-15155076D02*
X12471876Y-15193171D01*
X12548066Y-15155076D02*
X12548066Y-15193171D01*
X12843305Y-15431267D02*
X12833781Y-15421743D01*
X12814733Y-15393171D01*
X12805209Y-15374124D01*
X12795686Y-15345552D01*
X12786162Y-15297933D01*
X12786162Y-15259838D01*
X12795686Y-15212219D01*
X12805209Y-15183648D01*
X12814733Y-15164600D01*
X12833781Y-15136029D01*
X12843305Y-15126505D01*
X13005209Y-15221743D02*
X13005209Y-15355076D01*
X12957590Y-15145552D02*
X12909971Y-15288410D01*
X13033781Y-15288410D01*
X13138543Y-15240790D02*
X13119495Y-15231267D01*
X13109971Y-15221743D01*
X13100447Y-15202695D01*
X13100447Y-15193171D01*
X13109971Y-15174124D01*
X13119495Y-15164600D01*
X13138543Y-15155076D01*
X13176638Y-15155076D01*
X13195686Y-15164600D01*
X13205209Y-15174124D01*
X13214733Y-15193171D01*
X13214733Y-15202695D01*
X13205209Y-15221743D01*
X13195686Y-15231267D01*
X13176638Y-15240790D01*
X13138543Y-15240790D01*
X13119495Y-15250314D01*
X13109971Y-15259838D01*
X13100447Y-15278886D01*
X13100447Y-15316981D01*
X13109971Y-15336029D01*
X13119495Y-15345552D01*
X13138543Y-15355076D01*
X13176638Y-15355076D01*
X13195686Y-15345552D01*
X13205209Y-15336029D01*
X13214733Y-15316981D01*
X13214733Y-15278886D01*
X13205209Y-15259838D01*
X13195686Y-15250314D01*
X13176638Y-15240790D01*
X13452828Y-15355076D02*
X13452828Y-15155076D01*
X13538543Y-15355076D02*
X13538543Y-15250314D01*
X13529019Y-15231267D01*
X13509971Y-15221743D01*
X13481400Y-15221743D01*
X13462352Y-15231267D01*
X13452828Y-15240790D01*
X13662352Y-15355076D02*
X13643305Y-15345552D01*
X13633781Y-15336029D01*
X13624257Y-15316981D01*
X13624257Y-15259838D01*
X13633781Y-15240790D01*
X13643305Y-15231267D01*
X13662352Y-15221743D01*
X13690924Y-15221743D01*
X13709971Y-15231267D01*
X13719495Y-15240790D01*
X13729019Y-15259838D01*
X13729019Y-15316981D01*
X13719495Y-15336029D01*
X13709971Y-15345552D01*
X13690924Y-15355076D01*
X13662352Y-15355076D01*
X13843305Y-15355076D02*
X13824257Y-15345552D01*
X13814733Y-15326505D01*
X13814733Y-15155076D01*
X13995686Y-15345552D02*
X13976638Y-15355076D01*
X13938543Y-15355076D01*
X13919495Y-15345552D01*
X13909971Y-15326505D01*
X13909971Y-15250314D01*
X13919495Y-15231267D01*
X13938543Y-15221743D01*
X13976638Y-15221743D01*
X13995686Y-15231267D01*
X14005209Y-15250314D01*
X14005209Y-15269362D01*
X13909971Y-15288410D01*
X14081400Y-15345552D02*
X14100447Y-15355076D01*
X14138543Y-15355076D01*
X14157590Y-15345552D01*
X14167114Y-15326505D01*
X14167114Y-15316981D01*
X14157590Y-15297933D01*
X14138543Y-15288410D01*
X14109971Y-15288410D01*
X14090924Y-15278886D01*
X14081400Y-15259838D01*
X14081400Y-15250314D01*
X14090924Y-15231267D01*
X14109971Y-15221743D01*
X14138543Y-15221743D01*
X14157590Y-15231267D01*
X14233781Y-15431267D02*
X14243305Y-15421743D01*
X14262352Y-15393171D01*
X14271876Y-15374124D01*
X14281400Y-15345552D01*
X14290924Y-15297933D01*
X14290924Y-15259838D01*
X14281400Y-15212219D01*
X14271876Y-15183648D01*
X14262352Y-15164600D01*
X14243305Y-15136029D01*
X14233781Y-15126505D01*
M02*
