G04 #@! TF.GenerationSoftware,KiCad,Pcbnew,5.99.0-unknown-6083c08~88~ubuntu18.04.1*
G04 #@! TF.CreationDate,2021-04-28T16:00:33+02:00*
G04 #@! TF.ProjectId,vwcdpic_with_BT_panel,76776364-7069-4635-9f77-6974685f4254,rev?*
G04 #@! TF.SameCoordinates,Original*
G04 #@! TF.FileFunction,Legend,Top*
G04 #@! TF.FilePolarity,Positive*
%FSLAX46Y46*%
G04 Gerber Fmt 4.6, Leading zero omitted, Abs format (unit mm)*
G04 Created by KiCad (PCBNEW 5.99.0-unknown-6083c08~88~ubuntu18.04.1) date 2021-04-28 16:00:33*
%MOMM*%
%LPD*%
G01*
G04 APERTURE LIST*
%ADD10C,0.200000*%
%ADD11C,0.100000*%
%ADD12C,0.150000*%
%ADD13C,0.120000*%
%ADD14R,2.032000X1.727200*%
%ADD15O,2.032000X1.727200*%
G04 APERTURE END LIST*
D10*
X162641642Y-137051142D02*
X162859357Y-137123714D01*
X162931928Y-137196285D01*
X163004500Y-137341428D01*
X163004500Y-137559142D01*
X162931928Y-137704285D01*
X162859357Y-137776857D01*
X162714214Y-137849428D01*
X162133642Y-137849428D01*
X162133642Y-136325428D01*
X162641642Y-136325428D01*
X162786785Y-136398000D01*
X162859357Y-136470571D01*
X162931928Y-136615714D01*
X162931928Y-136760857D01*
X162859357Y-136906000D01*
X162786785Y-136978571D01*
X162641642Y-137051142D01*
X162133642Y-137051142D01*
X163657642Y-137849428D02*
X163657642Y-136325428D01*
X164528500Y-137849428D02*
X163875357Y-136978571D01*
X164528500Y-136325428D02*
X163657642Y-137196285D01*
X165399357Y-136978571D02*
X165254214Y-136906000D01*
X165181642Y-136833428D01*
X165109071Y-136688285D01*
X165109071Y-136615714D01*
X165181642Y-136470571D01*
X165254214Y-136398000D01*
X165399357Y-136325428D01*
X165689642Y-136325428D01*
X165834785Y-136398000D01*
X165907357Y-136470571D01*
X165979928Y-136615714D01*
X165979928Y-136688285D01*
X165907357Y-136833428D01*
X165834785Y-136906000D01*
X165689642Y-136978571D01*
X165399357Y-136978571D01*
X165254214Y-137051142D01*
X165181642Y-137123714D01*
X165109071Y-137268857D01*
X165109071Y-137559142D01*
X165181642Y-137704285D01*
X165254214Y-137776857D01*
X165399357Y-137849428D01*
X165689642Y-137849428D01*
X165834785Y-137776857D01*
X165907357Y-137704285D01*
X165979928Y-137559142D01*
X165979928Y-137268857D01*
X165907357Y-137123714D01*
X165834785Y-137051142D01*
X165689642Y-136978571D01*
X166923357Y-136325428D02*
X167068500Y-136325428D01*
X167213642Y-136398000D01*
X167286214Y-136470571D01*
X167358785Y-136615714D01*
X167431357Y-136906000D01*
X167431357Y-137268857D01*
X167358785Y-137559142D01*
X167286214Y-137704285D01*
X167213642Y-137776857D01*
X167068500Y-137849428D01*
X166923357Y-137849428D01*
X166778214Y-137776857D01*
X166705642Y-137704285D01*
X166633071Y-137559142D01*
X166560500Y-137268857D01*
X166560500Y-136906000D01*
X166633071Y-136615714D01*
X166705642Y-136470571D01*
X166778214Y-136398000D01*
X166923357Y-136325428D01*
X168374785Y-136325428D02*
X168519928Y-136325428D01*
X168665071Y-136398000D01*
X168737642Y-136470571D01*
X168810214Y-136615714D01*
X168882785Y-136906000D01*
X168882785Y-137268857D01*
X168810214Y-137559142D01*
X168737642Y-137704285D01*
X168665071Y-137776857D01*
X168519928Y-137849428D01*
X168374785Y-137849428D01*
X168229642Y-137776857D01*
X168157071Y-137704285D01*
X168084500Y-137559142D01*
X168011928Y-137268857D01*
X168011928Y-136906000D01*
X168084500Y-136615714D01*
X168157071Y-136470571D01*
X168229642Y-136398000D01*
X168374785Y-136325428D01*
X169826214Y-136325428D02*
X169971357Y-136325428D01*
X170116500Y-136398000D01*
X170189071Y-136470571D01*
X170261642Y-136615714D01*
X170334214Y-136906000D01*
X170334214Y-137268857D01*
X170261642Y-137559142D01*
X170189071Y-137704285D01*
X170116500Y-137776857D01*
X169971357Y-137849428D01*
X169826214Y-137849428D01*
X169681071Y-137776857D01*
X169608500Y-137704285D01*
X169535928Y-137559142D01*
X169463357Y-137268857D01*
X169463357Y-136906000D01*
X169535928Y-136615714D01*
X169608500Y-136470571D01*
X169681071Y-136398000D01*
X169826214Y-136325428D01*
X171713071Y-137849428D02*
X170987357Y-137849428D01*
X170987357Y-136325428D01*
D11*
X135826500Y-108077000D02*
X138811000Y-108331000D01*
X136144000Y-121729500D02*
X139065000Y-122301000D01*
D10*
X121239642Y-137051142D02*
X121457357Y-137123714D01*
X121529928Y-137196285D01*
X121602500Y-137341428D01*
X121602500Y-137559142D01*
X121529928Y-137704285D01*
X121457357Y-137776857D01*
X121312214Y-137849428D01*
X120731642Y-137849428D01*
X120731642Y-136325428D01*
X121239642Y-136325428D01*
X121384785Y-136398000D01*
X121457357Y-136470571D01*
X121529928Y-136615714D01*
X121529928Y-136760857D01*
X121457357Y-136906000D01*
X121384785Y-136978571D01*
X121239642Y-137051142D01*
X120731642Y-137051142D01*
X122255642Y-137849428D02*
X122255642Y-136325428D01*
X123126500Y-137849428D02*
X122473357Y-136978571D01*
X123126500Y-136325428D02*
X122255642Y-137196285D01*
X123997357Y-136978571D02*
X123852214Y-136906000D01*
X123779642Y-136833428D01*
X123707071Y-136688285D01*
X123707071Y-136615714D01*
X123779642Y-136470571D01*
X123852214Y-136398000D01*
X123997357Y-136325428D01*
X124287642Y-136325428D01*
X124432785Y-136398000D01*
X124505357Y-136470571D01*
X124577928Y-136615714D01*
X124577928Y-136688285D01*
X124505357Y-136833428D01*
X124432785Y-136906000D01*
X124287642Y-136978571D01*
X123997357Y-136978571D01*
X123852214Y-137051142D01*
X123779642Y-137123714D01*
X123707071Y-137268857D01*
X123707071Y-137559142D01*
X123779642Y-137704285D01*
X123852214Y-137776857D01*
X123997357Y-137849428D01*
X124287642Y-137849428D01*
X124432785Y-137776857D01*
X124505357Y-137704285D01*
X124577928Y-137559142D01*
X124577928Y-137268857D01*
X124505357Y-137123714D01*
X124432785Y-137051142D01*
X124287642Y-136978571D01*
X125521357Y-136325428D02*
X125666500Y-136325428D01*
X125811642Y-136398000D01*
X125884214Y-136470571D01*
X125956785Y-136615714D01*
X126029357Y-136906000D01*
X126029357Y-137268857D01*
X125956785Y-137559142D01*
X125884214Y-137704285D01*
X125811642Y-137776857D01*
X125666500Y-137849428D01*
X125521357Y-137849428D01*
X125376214Y-137776857D01*
X125303642Y-137704285D01*
X125231071Y-137559142D01*
X125158500Y-137268857D01*
X125158500Y-136906000D01*
X125231071Y-136615714D01*
X125303642Y-136470571D01*
X125376214Y-136398000D01*
X125521357Y-136325428D01*
X126972785Y-136325428D02*
X127117928Y-136325428D01*
X127263071Y-136398000D01*
X127335642Y-136470571D01*
X127408214Y-136615714D01*
X127480785Y-136906000D01*
X127480785Y-137268857D01*
X127408214Y-137559142D01*
X127335642Y-137704285D01*
X127263071Y-137776857D01*
X127117928Y-137849428D01*
X126972785Y-137849428D01*
X126827642Y-137776857D01*
X126755071Y-137704285D01*
X126682500Y-137559142D01*
X126609928Y-137268857D01*
X126609928Y-136906000D01*
X126682500Y-136615714D01*
X126755071Y-136470571D01*
X126827642Y-136398000D01*
X126972785Y-136325428D01*
X128424214Y-136325428D02*
X128569357Y-136325428D01*
X128714500Y-136398000D01*
X128787071Y-136470571D01*
X128859642Y-136615714D01*
X128932214Y-136906000D01*
X128932214Y-137268857D01*
X128859642Y-137559142D01*
X128787071Y-137704285D01*
X128714500Y-137776857D01*
X128569357Y-137849428D01*
X128424214Y-137849428D01*
X128279071Y-137776857D01*
X128206500Y-137704285D01*
X128133928Y-137559142D01*
X128061357Y-137268857D01*
X128061357Y-136906000D01*
X128133928Y-136615714D01*
X128206500Y-136470571D01*
X128279071Y-136398000D01*
X128424214Y-136325428D01*
X130311071Y-137849428D02*
X129585357Y-137849428D01*
X129585357Y-136325428D01*
D11*
X94424500Y-108077000D02*
X97409000Y-108331000D01*
X94742000Y-121729500D02*
X97663000Y-122301000D01*
D10*
X162641642Y-100983142D02*
X162859357Y-101055714D01*
X162931928Y-101128285D01*
X163004500Y-101273428D01*
X163004500Y-101491142D01*
X162931928Y-101636285D01*
X162859357Y-101708857D01*
X162714214Y-101781428D01*
X162133642Y-101781428D01*
X162133642Y-100257428D01*
X162641642Y-100257428D01*
X162786785Y-100330000D01*
X162859357Y-100402571D01*
X162931928Y-100547714D01*
X162931928Y-100692857D01*
X162859357Y-100838000D01*
X162786785Y-100910571D01*
X162641642Y-100983142D01*
X162133642Y-100983142D01*
X163657642Y-101781428D02*
X163657642Y-100257428D01*
X164528500Y-101781428D02*
X163875357Y-100910571D01*
X164528500Y-100257428D02*
X163657642Y-101128285D01*
X165399357Y-100910571D02*
X165254214Y-100838000D01*
X165181642Y-100765428D01*
X165109071Y-100620285D01*
X165109071Y-100547714D01*
X165181642Y-100402571D01*
X165254214Y-100330000D01*
X165399357Y-100257428D01*
X165689642Y-100257428D01*
X165834785Y-100330000D01*
X165907357Y-100402571D01*
X165979928Y-100547714D01*
X165979928Y-100620285D01*
X165907357Y-100765428D01*
X165834785Y-100838000D01*
X165689642Y-100910571D01*
X165399357Y-100910571D01*
X165254214Y-100983142D01*
X165181642Y-101055714D01*
X165109071Y-101200857D01*
X165109071Y-101491142D01*
X165181642Y-101636285D01*
X165254214Y-101708857D01*
X165399357Y-101781428D01*
X165689642Y-101781428D01*
X165834785Y-101708857D01*
X165907357Y-101636285D01*
X165979928Y-101491142D01*
X165979928Y-101200857D01*
X165907357Y-101055714D01*
X165834785Y-100983142D01*
X165689642Y-100910571D01*
X166923357Y-100257428D02*
X167068500Y-100257428D01*
X167213642Y-100330000D01*
X167286214Y-100402571D01*
X167358785Y-100547714D01*
X167431357Y-100838000D01*
X167431357Y-101200857D01*
X167358785Y-101491142D01*
X167286214Y-101636285D01*
X167213642Y-101708857D01*
X167068500Y-101781428D01*
X166923357Y-101781428D01*
X166778214Y-101708857D01*
X166705642Y-101636285D01*
X166633071Y-101491142D01*
X166560500Y-101200857D01*
X166560500Y-100838000D01*
X166633071Y-100547714D01*
X166705642Y-100402571D01*
X166778214Y-100330000D01*
X166923357Y-100257428D01*
X168374785Y-100257428D02*
X168519928Y-100257428D01*
X168665071Y-100330000D01*
X168737642Y-100402571D01*
X168810214Y-100547714D01*
X168882785Y-100838000D01*
X168882785Y-101200857D01*
X168810214Y-101491142D01*
X168737642Y-101636285D01*
X168665071Y-101708857D01*
X168519928Y-101781428D01*
X168374785Y-101781428D01*
X168229642Y-101708857D01*
X168157071Y-101636285D01*
X168084500Y-101491142D01*
X168011928Y-101200857D01*
X168011928Y-100838000D01*
X168084500Y-100547714D01*
X168157071Y-100402571D01*
X168229642Y-100330000D01*
X168374785Y-100257428D01*
X169826214Y-100257428D02*
X169971357Y-100257428D01*
X170116500Y-100330000D01*
X170189071Y-100402571D01*
X170261642Y-100547714D01*
X170334214Y-100838000D01*
X170334214Y-101200857D01*
X170261642Y-101491142D01*
X170189071Y-101636285D01*
X170116500Y-101708857D01*
X169971357Y-101781428D01*
X169826214Y-101781428D01*
X169681071Y-101708857D01*
X169608500Y-101636285D01*
X169535928Y-101491142D01*
X169463357Y-101200857D01*
X169463357Y-100838000D01*
X169535928Y-100547714D01*
X169608500Y-100402571D01*
X169681071Y-100330000D01*
X169826214Y-100257428D01*
X171713071Y-101781428D02*
X170987357Y-101781428D01*
X170987357Y-100257428D01*
D11*
X135826500Y-72009000D02*
X138811000Y-72263000D01*
X136144000Y-85661500D02*
X139065000Y-86233000D01*
D10*
X121239642Y-100983142D02*
X121457357Y-101055714D01*
X121529928Y-101128285D01*
X121602500Y-101273428D01*
X121602500Y-101491142D01*
X121529928Y-101636285D01*
X121457357Y-101708857D01*
X121312214Y-101781428D01*
X120731642Y-101781428D01*
X120731642Y-100257428D01*
X121239642Y-100257428D01*
X121384785Y-100330000D01*
X121457357Y-100402571D01*
X121529928Y-100547714D01*
X121529928Y-100692857D01*
X121457357Y-100838000D01*
X121384785Y-100910571D01*
X121239642Y-100983142D01*
X120731642Y-100983142D01*
X122255642Y-101781428D02*
X122255642Y-100257428D01*
X123126500Y-101781428D02*
X122473357Y-100910571D01*
X123126500Y-100257428D02*
X122255642Y-101128285D01*
X123997357Y-100910571D02*
X123852214Y-100838000D01*
X123779642Y-100765428D01*
X123707071Y-100620285D01*
X123707071Y-100547714D01*
X123779642Y-100402571D01*
X123852214Y-100330000D01*
X123997357Y-100257428D01*
X124287642Y-100257428D01*
X124432785Y-100330000D01*
X124505357Y-100402571D01*
X124577928Y-100547714D01*
X124577928Y-100620285D01*
X124505357Y-100765428D01*
X124432785Y-100838000D01*
X124287642Y-100910571D01*
X123997357Y-100910571D01*
X123852214Y-100983142D01*
X123779642Y-101055714D01*
X123707071Y-101200857D01*
X123707071Y-101491142D01*
X123779642Y-101636285D01*
X123852214Y-101708857D01*
X123997357Y-101781428D01*
X124287642Y-101781428D01*
X124432785Y-101708857D01*
X124505357Y-101636285D01*
X124577928Y-101491142D01*
X124577928Y-101200857D01*
X124505357Y-101055714D01*
X124432785Y-100983142D01*
X124287642Y-100910571D01*
X125521357Y-100257428D02*
X125666500Y-100257428D01*
X125811642Y-100330000D01*
X125884214Y-100402571D01*
X125956785Y-100547714D01*
X126029357Y-100838000D01*
X126029357Y-101200857D01*
X125956785Y-101491142D01*
X125884214Y-101636285D01*
X125811642Y-101708857D01*
X125666500Y-101781428D01*
X125521357Y-101781428D01*
X125376214Y-101708857D01*
X125303642Y-101636285D01*
X125231071Y-101491142D01*
X125158500Y-101200857D01*
X125158500Y-100838000D01*
X125231071Y-100547714D01*
X125303642Y-100402571D01*
X125376214Y-100330000D01*
X125521357Y-100257428D01*
X126972785Y-100257428D02*
X127117928Y-100257428D01*
X127263071Y-100330000D01*
X127335642Y-100402571D01*
X127408214Y-100547714D01*
X127480785Y-100838000D01*
X127480785Y-101200857D01*
X127408214Y-101491142D01*
X127335642Y-101636285D01*
X127263071Y-101708857D01*
X127117928Y-101781428D01*
X126972785Y-101781428D01*
X126827642Y-101708857D01*
X126755071Y-101636285D01*
X126682500Y-101491142D01*
X126609928Y-101200857D01*
X126609928Y-100838000D01*
X126682500Y-100547714D01*
X126755071Y-100402571D01*
X126827642Y-100330000D01*
X126972785Y-100257428D01*
X128424214Y-100257428D02*
X128569357Y-100257428D01*
X128714500Y-100330000D01*
X128787071Y-100402571D01*
X128859642Y-100547714D01*
X128932214Y-100838000D01*
X128932214Y-101200857D01*
X128859642Y-101491142D01*
X128787071Y-101636285D01*
X128714500Y-101708857D01*
X128569357Y-101781428D01*
X128424214Y-101781428D01*
X128279071Y-101708857D01*
X128206500Y-101636285D01*
X128133928Y-101491142D01*
X128061357Y-101200857D01*
X128061357Y-100838000D01*
X128133928Y-100547714D01*
X128206500Y-100402571D01*
X128279071Y-100330000D01*
X128424214Y-100257428D01*
X130311071Y-101781428D02*
X129585357Y-101781428D01*
X129585357Y-100257428D01*
D11*
X94424500Y-72009000D02*
X97409000Y-72263000D01*
X94742000Y-85661500D02*
X97663000Y-86233000D01*
D12*
X155138380Y-123674095D02*
X154138380Y-123674095D01*
X154138380Y-123293142D01*
X154186000Y-123197904D01*
X154233619Y-123150285D01*
X154328857Y-123102666D01*
X154471714Y-123102666D01*
X154566952Y-123150285D01*
X154614571Y-123197904D01*
X154662190Y-123293142D01*
X154662190Y-123674095D01*
X154138380Y-122769333D02*
X154138380Y-122150285D01*
X154519333Y-122483619D01*
X154519333Y-122340761D01*
X154566952Y-122245523D01*
X154614571Y-122197904D01*
X154709809Y-122150285D01*
X154947904Y-122150285D01*
X155043142Y-122197904D01*
X155090761Y-122245523D01*
X155138380Y-122340761D01*
X155138380Y-122626476D01*
X155090761Y-122721714D01*
X155043142Y-122769333D01*
X145962642Y-127515857D02*
X146010261Y-127563476D01*
X146057880Y-127706333D01*
X146057880Y-127801571D01*
X146010261Y-127944428D01*
X145915023Y-128039666D01*
X145819785Y-128087285D01*
X145629309Y-128134904D01*
X145486452Y-128134904D01*
X145295976Y-128087285D01*
X145200738Y-128039666D01*
X145105500Y-127944428D01*
X145057880Y-127801571D01*
X145057880Y-127706333D01*
X145105500Y-127563476D01*
X145153119Y-127515857D01*
X146057880Y-126563476D02*
X146057880Y-127134904D01*
X146057880Y-126849190D02*
X145057880Y-126849190D01*
X145200738Y-126944428D01*
X145295976Y-127039666D01*
X145343595Y-127134904D01*
X146057880Y-125611095D02*
X146057880Y-126182523D01*
X146057880Y-125896809D02*
X145057880Y-125896809D01*
X145200738Y-125992047D01*
X145295976Y-126087285D01*
X145343595Y-126182523D01*
X151419642Y-118911642D02*
X151372023Y-118959261D01*
X151229166Y-119006880D01*
X151133928Y-119006880D01*
X150991071Y-118959261D01*
X150895833Y-118864023D01*
X150848214Y-118768785D01*
X150800595Y-118578309D01*
X150800595Y-118435452D01*
X150848214Y-118244976D01*
X150895833Y-118149738D01*
X150991071Y-118054500D01*
X151133928Y-118006880D01*
X151229166Y-118006880D01*
X151372023Y-118054500D01*
X151419642Y-118102119D01*
X151800595Y-118102119D02*
X151848214Y-118054500D01*
X151943452Y-118006880D01*
X152181547Y-118006880D01*
X152276785Y-118054500D01*
X152324404Y-118102119D01*
X152372023Y-118197357D01*
X152372023Y-118292595D01*
X152324404Y-118435452D01*
X151752976Y-119006880D01*
X152372023Y-119006880D01*
X152943452Y-118435452D02*
X152848214Y-118387833D01*
X152800595Y-118340214D01*
X152752976Y-118244976D01*
X152752976Y-118197357D01*
X152800595Y-118102119D01*
X152848214Y-118054500D01*
X152943452Y-118006880D01*
X153133928Y-118006880D01*
X153229166Y-118054500D01*
X153276785Y-118102119D01*
X153324404Y-118197357D01*
X153324404Y-118244976D01*
X153276785Y-118340214D01*
X153229166Y-118387833D01*
X153133928Y-118435452D01*
X152943452Y-118435452D01*
X152848214Y-118483071D01*
X152800595Y-118530690D01*
X152752976Y-118625928D01*
X152752976Y-118816404D01*
X152800595Y-118911642D01*
X152848214Y-118959261D01*
X152943452Y-119006880D01*
X153133928Y-119006880D01*
X153229166Y-118959261D01*
X153276785Y-118911642D01*
X153324404Y-118816404D01*
X153324404Y-118625928D01*
X153276785Y-118530690D01*
X153229166Y-118483071D01*
X153133928Y-118435452D01*
X143073380Y-127452357D02*
X142597190Y-127785690D01*
X143073380Y-128023785D02*
X142073380Y-128023785D01*
X142073380Y-127642833D01*
X142121000Y-127547595D01*
X142168619Y-127499976D01*
X142263857Y-127452357D01*
X142406714Y-127452357D01*
X142501952Y-127499976D01*
X142549571Y-127547595D01*
X142597190Y-127642833D01*
X142597190Y-128023785D01*
X143073380Y-126499976D02*
X143073380Y-127071404D01*
X143073380Y-126785690D02*
X142073380Y-126785690D01*
X142216238Y-126880928D01*
X142311476Y-126976166D01*
X142359095Y-127071404D01*
X142073380Y-125642833D02*
X142073380Y-125833309D01*
X142121000Y-125928547D01*
X142168619Y-125976166D01*
X142311476Y-126071404D01*
X142501952Y-126119023D01*
X142882904Y-126119023D01*
X142978142Y-126071404D01*
X143025761Y-126023785D01*
X143073380Y-125928547D01*
X143073380Y-125738071D01*
X143025761Y-125642833D01*
X142978142Y-125595214D01*
X142882904Y-125547595D01*
X142644809Y-125547595D01*
X142549571Y-125595214D01*
X142501952Y-125642833D01*
X142454333Y-125738071D01*
X142454333Y-125928547D01*
X142501952Y-126023785D01*
X142549571Y-126071404D01*
X142644809Y-126119023D01*
X155678142Y-110116857D02*
X155725761Y-110164476D01*
X155773380Y-110307333D01*
X155773380Y-110402571D01*
X155725761Y-110545428D01*
X155630523Y-110640666D01*
X155535285Y-110688285D01*
X155344809Y-110735904D01*
X155201952Y-110735904D01*
X155011476Y-110688285D01*
X154916238Y-110640666D01*
X154821000Y-110545428D01*
X154773380Y-110402571D01*
X154773380Y-110307333D01*
X154821000Y-110164476D01*
X154868619Y-110116857D01*
X154868619Y-109735904D02*
X154821000Y-109688285D01*
X154773380Y-109593047D01*
X154773380Y-109354952D01*
X154821000Y-109259714D01*
X154868619Y-109212095D01*
X154963857Y-109164476D01*
X155059095Y-109164476D01*
X155201952Y-109212095D01*
X155773380Y-109783523D01*
X155773380Y-109164476D01*
X154773380Y-108831142D02*
X154773380Y-108164476D01*
X155773380Y-108593047D01*
X143613142Y-117800357D02*
X143660761Y-117847976D01*
X143708380Y-117990833D01*
X143708380Y-118086071D01*
X143660761Y-118228928D01*
X143565523Y-118324166D01*
X143470285Y-118371785D01*
X143279809Y-118419404D01*
X143136952Y-118419404D01*
X142946476Y-118371785D01*
X142851238Y-118324166D01*
X142756000Y-118228928D01*
X142708380Y-118086071D01*
X142708380Y-117990833D01*
X142756000Y-117847976D01*
X142803619Y-117800357D01*
X143708380Y-116847976D02*
X143708380Y-117419404D01*
X143708380Y-117133690D02*
X142708380Y-117133690D01*
X142851238Y-117228928D01*
X142946476Y-117324166D01*
X142994095Y-117419404D01*
X142803619Y-116467023D02*
X142756000Y-116419404D01*
X142708380Y-116324166D01*
X142708380Y-116086071D01*
X142756000Y-115990833D01*
X142803619Y-115943214D01*
X142898857Y-115895595D01*
X142994095Y-115895595D01*
X143136952Y-115943214D01*
X143708380Y-116514642D01*
X143708380Y-115895595D01*
X134834357Y-125087142D02*
X134786738Y-125039523D01*
X134739119Y-124896666D01*
X134739119Y-124801428D01*
X134786738Y-124658571D01*
X134881976Y-124563333D01*
X134977214Y-124515714D01*
X135167690Y-124468095D01*
X135310547Y-124468095D01*
X135501023Y-124515714D01*
X135596261Y-124563333D01*
X135691500Y-124658571D01*
X135739119Y-124801428D01*
X135739119Y-124896666D01*
X135691500Y-125039523D01*
X135643880Y-125087142D01*
X134739119Y-126039523D02*
X134739119Y-125468095D01*
X134739119Y-125753809D02*
X135739119Y-125753809D01*
X135596261Y-125658571D01*
X135501023Y-125563333D01*
X135453404Y-125468095D01*
X135739119Y-126372857D02*
X135739119Y-127039523D01*
X134739119Y-126610952D01*
X138041142Y-133357880D02*
X137707809Y-132881690D01*
X137469714Y-133357880D02*
X137469714Y-132357880D01*
X137850666Y-132357880D01*
X137945904Y-132405500D01*
X137993523Y-132453119D01*
X138041142Y-132548357D01*
X138041142Y-132691214D01*
X137993523Y-132786452D01*
X137945904Y-132834071D01*
X137850666Y-132881690D01*
X137469714Y-132881690D01*
X138422095Y-132453119D02*
X138469714Y-132405500D01*
X138564952Y-132357880D01*
X138803047Y-132357880D01*
X138898285Y-132405500D01*
X138945904Y-132453119D01*
X138993523Y-132548357D01*
X138993523Y-132643595D01*
X138945904Y-132786452D01*
X138374476Y-133357880D01*
X138993523Y-133357880D01*
X139850666Y-132691214D02*
X139850666Y-133357880D01*
X139612571Y-132310261D02*
X139374476Y-133024547D01*
X139993523Y-133024547D01*
X143549642Y-114593666D02*
X143597261Y-114641285D01*
X143644880Y-114784142D01*
X143644880Y-114879380D01*
X143597261Y-115022238D01*
X143502023Y-115117476D01*
X143406785Y-115165095D01*
X143216309Y-115212714D01*
X143073452Y-115212714D01*
X142882976Y-115165095D01*
X142787738Y-115117476D01*
X142692500Y-115022238D01*
X142644880Y-114879380D01*
X142644880Y-114784142D01*
X142692500Y-114641285D01*
X142740119Y-114593666D01*
X142644880Y-114260333D02*
X142644880Y-113593666D01*
X143644880Y-114022238D01*
X143009880Y-110370857D02*
X142533690Y-110704190D01*
X143009880Y-110942285D02*
X142009880Y-110942285D01*
X142009880Y-110561333D01*
X142057500Y-110466095D01*
X142105119Y-110418476D01*
X142200357Y-110370857D01*
X142343214Y-110370857D01*
X142438452Y-110418476D01*
X142486071Y-110466095D01*
X142533690Y-110561333D01*
X142533690Y-110942285D01*
X143009880Y-109418476D02*
X143009880Y-109989904D01*
X143009880Y-109704190D02*
X142009880Y-109704190D01*
X142152738Y-109799428D01*
X142247976Y-109894666D01*
X142295595Y-109989904D01*
X143009880Y-108466095D02*
X143009880Y-109037523D01*
X143009880Y-108751809D02*
X142009880Y-108751809D01*
X142152738Y-108847047D01*
X142247976Y-108942285D01*
X142295595Y-109037523D01*
X135961380Y-122308857D02*
X135485190Y-122642190D01*
X135961380Y-122880285D02*
X134961380Y-122880285D01*
X134961380Y-122499333D01*
X135009000Y-122404095D01*
X135056619Y-122356476D01*
X135151857Y-122308857D01*
X135294714Y-122308857D01*
X135389952Y-122356476D01*
X135437571Y-122404095D01*
X135485190Y-122499333D01*
X135485190Y-122880285D01*
X135056619Y-121927904D02*
X135009000Y-121880285D01*
X134961380Y-121785047D01*
X134961380Y-121546952D01*
X135009000Y-121451714D01*
X135056619Y-121404095D01*
X135151857Y-121356476D01*
X135247095Y-121356476D01*
X135389952Y-121404095D01*
X135961380Y-121975523D01*
X135961380Y-121356476D01*
X135056619Y-120975523D02*
X135009000Y-120927904D01*
X134961380Y-120832666D01*
X134961380Y-120594571D01*
X135009000Y-120499333D01*
X135056619Y-120451714D01*
X135151857Y-120404095D01*
X135247095Y-120404095D01*
X135389952Y-120451714D01*
X135961380Y-121023142D01*
X135961380Y-120404095D01*
X139883140Y-120059746D02*
X139883140Y-120535937D01*
X138883140Y-120535937D01*
X139883140Y-119202603D02*
X139883140Y-119774032D01*
X139883140Y-119488318D02*
X138883140Y-119488318D01*
X139025998Y-119583556D01*
X139121236Y-119678794D01*
X139168855Y-119774032D01*
X139438142Y-137644142D02*
X139390523Y-137691761D01*
X139247666Y-137739380D01*
X139152428Y-137739380D01*
X139009571Y-137691761D01*
X138914333Y-137596523D01*
X138866714Y-137501285D01*
X138819095Y-137310809D01*
X138819095Y-137167952D01*
X138866714Y-136977476D01*
X138914333Y-136882238D01*
X139009571Y-136787000D01*
X139152428Y-136739380D01*
X139247666Y-136739380D01*
X139390523Y-136787000D01*
X139438142Y-136834619D01*
X140390523Y-137739380D02*
X139819095Y-137739380D01*
X140104809Y-137739380D02*
X140104809Y-136739380D01*
X140009571Y-136882238D01*
X139914333Y-136977476D01*
X139819095Y-137025095D01*
X140723857Y-136739380D02*
X141342904Y-136739380D01*
X141009571Y-137120333D01*
X141152428Y-137120333D01*
X141247666Y-137167952D01*
X141295285Y-137215571D01*
X141342904Y-137310809D01*
X141342904Y-137548904D01*
X141295285Y-137644142D01*
X141247666Y-137691761D01*
X141152428Y-137739380D01*
X140866714Y-137739380D01*
X140771476Y-137691761D01*
X140723857Y-137644142D01*
X136100867Y-133081068D02*
X136862772Y-133081068D01*
X136481820Y-133462020D02*
X136481820Y-132700116D01*
X135739142Y-130182857D02*
X135786761Y-130230476D01*
X135834380Y-130373333D01*
X135834380Y-130468571D01*
X135786761Y-130611428D01*
X135691523Y-130706666D01*
X135596285Y-130754285D01*
X135405809Y-130801904D01*
X135262952Y-130801904D01*
X135072476Y-130754285D01*
X134977238Y-130706666D01*
X134882000Y-130611428D01*
X134834380Y-130468571D01*
X134834380Y-130373333D01*
X134882000Y-130230476D01*
X134929619Y-130182857D01*
X135834380Y-129230476D02*
X135834380Y-129801904D01*
X135834380Y-129516190D02*
X134834380Y-129516190D01*
X134977238Y-129611428D01*
X135072476Y-129706666D01*
X135120095Y-129801904D01*
X135262952Y-128659047D02*
X135215333Y-128754285D01*
X135167714Y-128801904D01*
X135072476Y-128849523D01*
X135024857Y-128849523D01*
X134929619Y-128801904D01*
X134882000Y-128754285D01*
X134834380Y-128659047D01*
X134834380Y-128468571D01*
X134882000Y-128373333D01*
X134929619Y-128325714D01*
X135024857Y-128278095D01*
X135072476Y-128278095D01*
X135167714Y-128325714D01*
X135215333Y-128373333D01*
X135262952Y-128468571D01*
X135262952Y-128659047D01*
X135310571Y-128754285D01*
X135358190Y-128801904D01*
X135453428Y-128849523D01*
X135643904Y-128849523D01*
X135739142Y-128801904D01*
X135786761Y-128754285D01*
X135834380Y-128659047D01*
X135834380Y-128468571D01*
X135786761Y-128373333D01*
X135739142Y-128325714D01*
X135643904Y-128278095D01*
X135453428Y-128278095D01*
X135358190Y-128325714D01*
X135310571Y-128373333D01*
X135262952Y-128468571D01*
X135612142Y-115927166D02*
X135659761Y-115974785D01*
X135707380Y-116117642D01*
X135707380Y-116212880D01*
X135659761Y-116355738D01*
X135564523Y-116450976D01*
X135469285Y-116498595D01*
X135278809Y-116546214D01*
X135135952Y-116546214D01*
X134945476Y-116498595D01*
X134850238Y-116450976D01*
X134755000Y-116355738D01*
X134707380Y-116212880D01*
X134707380Y-116117642D01*
X134755000Y-115974785D01*
X134802619Y-115927166D01*
X135135952Y-115355738D02*
X135088333Y-115450976D01*
X135040714Y-115498595D01*
X134945476Y-115546214D01*
X134897857Y-115546214D01*
X134802619Y-115498595D01*
X134755000Y-115450976D01*
X134707380Y-115355738D01*
X134707380Y-115165261D01*
X134755000Y-115070023D01*
X134802619Y-115022404D01*
X134897857Y-114974785D01*
X134945476Y-114974785D01*
X135040714Y-115022404D01*
X135088333Y-115070023D01*
X135135952Y-115165261D01*
X135135952Y-115355738D01*
X135183571Y-115450976D01*
X135231190Y-115498595D01*
X135326428Y-115546214D01*
X135516904Y-115546214D01*
X135612142Y-115498595D01*
X135659761Y-115450976D01*
X135707380Y-115355738D01*
X135707380Y-115165261D01*
X135659761Y-115070023D01*
X135612142Y-115022404D01*
X135516904Y-114974785D01*
X135326428Y-114974785D01*
X135231190Y-115022404D01*
X135183571Y-115070023D01*
X135135952Y-115165261D01*
X152381142Y-128238857D02*
X152428761Y-128286476D01*
X152476380Y-128429333D01*
X152476380Y-128524571D01*
X152428761Y-128667428D01*
X152333523Y-128762666D01*
X152238285Y-128810285D01*
X152047809Y-128857904D01*
X151904952Y-128857904D01*
X151714476Y-128810285D01*
X151619238Y-128762666D01*
X151524000Y-128667428D01*
X151476380Y-128524571D01*
X151476380Y-128429333D01*
X151524000Y-128286476D01*
X151571619Y-128238857D01*
X151571619Y-127857904D02*
X151524000Y-127810285D01*
X151476380Y-127715047D01*
X151476380Y-127476952D01*
X151524000Y-127381714D01*
X151571619Y-127334095D01*
X151666857Y-127286476D01*
X151762095Y-127286476D01*
X151904952Y-127334095D01*
X152476380Y-127905523D01*
X152476380Y-127286476D01*
X151476380Y-126429333D02*
X151476380Y-126619809D01*
X151524000Y-126715047D01*
X151571619Y-126762666D01*
X151714476Y-126857904D01*
X151904952Y-126905523D01*
X152285904Y-126905523D01*
X152381142Y-126857904D01*
X152428761Y-126810285D01*
X152476380Y-126715047D01*
X152476380Y-126524571D01*
X152428761Y-126429333D01*
X152381142Y-126381714D01*
X152285904Y-126334095D01*
X152047809Y-126334095D01*
X151952571Y-126381714D01*
X151904952Y-126429333D01*
X151857333Y-126524571D01*
X151857333Y-126715047D01*
X151904952Y-126810285D01*
X151952571Y-126857904D01*
X152047809Y-126905523D01*
X146089642Y-115260357D02*
X146137261Y-115307976D01*
X146184880Y-115450833D01*
X146184880Y-115546071D01*
X146137261Y-115688928D01*
X146042023Y-115784166D01*
X145946785Y-115831785D01*
X145756309Y-115879404D01*
X145613452Y-115879404D01*
X145422976Y-115831785D01*
X145327738Y-115784166D01*
X145232500Y-115688928D01*
X145184880Y-115546071D01*
X145184880Y-115450833D01*
X145232500Y-115307976D01*
X145280119Y-115260357D01*
X146184880Y-114307976D02*
X146184880Y-114879404D01*
X146184880Y-114593690D02*
X145184880Y-114593690D01*
X145327738Y-114688928D01*
X145422976Y-114784166D01*
X145470595Y-114879404D01*
X145184880Y-113688928D02*
X145184880Y-113593690D01*
X145232500Y-113498452D01*
X145280119Y-113450833D01*
X145375357Y-113403214D01*
X145565833Y-113355595D01*
X145803928Y-113355595D01*
X145994404Y-113403214D01*
X146089642Y-113450833D01*
X146137261Y-113498452D01*
X146184880Y-113593690D01*
X146184880Y-113688928D01*
X146137261Y-113784166D01*
X146089642Y-113831785D01*
X145994404Y-113879404D01*
X145803928Y-113927023D01*
X145565833Y-113927023D01*
X145375357Y-113879404D01*
X145280119Y-113831785D01*
X145232500Y-113784166D01*
X145184880Y-113688928D01*
X141533642Y-133357880D02*
X141200309Y-132881690D01*
X140962214Y-133357880D02*
X140962214Y-132357880D01*
X141343166Y-132357880D01*
X141438404Y-132405500D01*
X141486023Y-132453119D01*
X141533642Y-132548357D01*
X141533642Y-132691214D01*
X141486023Y-132786452D01*
X141438404Y-132834071D01*
X141343166Y-132881690D01*
X140962214Y-132881690D01*
X142486023Y-133357880D02*
X141914595Y-133357880D01*
X142200309Y-133357880D02*
X142200309Y-132357880D01*
X142105071Y-132500738D01*
X142009833Y-132595976D01*
X141914595Y-132643595D01*
X142819357Y-132357880D02*
X143486023Y-132357880D01*
X143057452Y-133357880D01*
X135643880Y-113228357D02*
X135167690Y-113561690D01*
X135643880Y-113799785D02*
X134643880Y-113799785D01*
X134643880Y-113418833D01*
X134691500Y-113323595D01*
X134739119Y-113275976D01*
X134834357Y-113228357D01*
X134977214Y-113228357D01*
X135072452Y-113275976D01*
X135120071Y-113323595D01*
X135167690Y-113418833D01*
X135167690Y-113799785D01*
X135643880Y-112275976D02*
X135643880Y-112847404D01*
X135643880Y-112561690D02*
X134643880Y-112561690D01*
X134786738Y-112656928D01*
X134881976Y-112752166D01*
X134929595Y-112847404D01*
X134643880Y-111656928D02*
X134643880Y-111561690D01*
X134691500Y-111466452D01*
X134739119Y-111418833D01*
X134834357Y-111371214D01*
X135024833Y-111323595D01*
X135262928Y-111323595D01*
X135453404Y-111371214D01*
X135548642Y-111418833D01*
X135596261Y-111466452D01*
X135643880Y-111561690D01*
X135643880Y-111656928D01*
X135596261Y-111752166D01*
X135548642Y-111799785D01*
X135453404Y-111847404D01*
X135262928Y-111895023D01*
X135024833Y-111895023D01*
X134834357Y-111847404D01*
X134739119Y-111799785D01*
X134691500Y-111752166D01*
X134643880Y-111656928D01*
X159773880Y-115800095D02*
X158773880Y-115800095D01*
X158773880Y-115419142D01*
X158821500Y-115323904D01*
X158869119Y-115276285D01*
X158964357Y-115228666D01*
X159107214Y-115228666D01*
X159202452Y-115276285D01*
X159250071Y-115323904D01*
X159297690Y-115419142D01*
X159297690Y-115800095D01*
X158773880Y-114323904D02*
X158773880Y-114800095D01*
X159250071Y-114847714D01*
X159202452Y-114800095D01*
X159154833Y-114704857D01*
X159154833Y-114466761D01*
X159202452Y-114371523D01*
X159250071Y-114323904D01*
X159345309Y-114276285D01*
X159583404Y-114276285D01*
X159678642Y-114323904D01*
X159726261Y-114371523D01*
X159773880Y-114466761D01*
X159773880Y-114704857D01*
X159726261Y-114800095D01*
X159678642Y-114847714D01*
X162433095Y-112037880D02*
X162433095Y-112847404D01*
X162480714Y-112942642D01*
X162528333Y-112990261D01*
X162623571Y-113037880D01*
X162814047Y-113037880D01*
X162909285Y-112990261D01*
X162956904Y-112942642D01*
X163004523Y-112847404D01*
X163004523Y-112037880D01*
X164004523Y-113037880D02*
X163433095Y-113037880D01*
X163718809Y-113037880D02*
X163718809Y-112037880D01*
X163623571Y-112180738D01*
X163528333Y-112275976D01*
X163433095Y-112323595D01*
X135707380Y-109735857D02*
X135231190Y-110069190D01*
X135707380Y-110307285D02*
X134707380Y-110307285D01*
X134707380Y-109926333D01*
X134755000Y-109831095D01*
X134802619Y-109783476D01*
X134897857Y-109735857D01*
X135040714Y-109735857D01*
X135135952Y-109783476D01*
X135183571Y-109831095D01*
X135231190Y-109926333D01*
X135231190Y-110307285D01*
X135707380Y-108783476D02*
X135707380Y-109354904D01*
X135707380Y-109069190D02*
X134707380Y-109069190D01*
X134850238Y-109164428D01*
X134945476Y-109259666D01*
X134993095Y-109354904D01*
X134802619Y-108402523D02*
X134755000Y-108354904D01*
X134707380Y-108259666D01*
X134707380Y-108021571D01*
X134755000Y-107926333D01*
X134802619Y-107878714D01*
X134897857Y-107831095D01*
X134993095Y-107831095D01*
X135135952Y-107878714D01*
X135707380Y-108450142D01*
X135707380Y-107831095D01*
X149899642Y-112402857D02*
X149947261Y-112450476D01*
X149994880Y-112593333D01*
X149994880Y-112688571D01*
X149947261Y-112831428D01*
X149852023Y-112926666D01*
X149756785Y-112974285D01*
X149566309Y-113021904D01*
X149423452Y-113021904D01*
X149232976Y-112974285D01*
X149137738Y-112926666D01*
X149042500Y-112831428D01*
X148994880Y-112688571D01*
X148994880Y-112593333D01*
X149042500Y-112450476D01*
X149090119Y-112402857D01*
X149090119Y-112021904D02*
X149042500Y-111974285D01*
X148994880Y-111879047D01*
X148994880Y-111640952D01*
X149042500Y-111545714D01*
X149090119Y-111498095D01*
X149185357Y-111450476D01*
X149280595Y-111450476D01*
X149423452Y-111498095D01*
X149994880Y-112069523D01*
X149994880Y-111450476D01*
X148994880Y-111117142D02*
X148994880Y-110498095D01*
X149375833Y-110831428D01*
X149375833Y-110688571D01*
X149423452Y-110593333D01*
X149471071Y-110545714D01*
X149566309Y-110498095D01*
X149804404Y-110498095D01*
X149899642Y-110545714D01*
X149947261Y-110593333D01*
X149994880Y-110688571D01*
X149994880Y-110974285D01*
X149947261Y-111069523D01*
X149899642Y-111117142D01*
X113736380Y-123674095D02*
X112736380Y-123674095D01*
X112736380Y-123293142D01*
X112784000Y-123197904D01*
X112831619Y-123150285D01*
X112926857Y-123102666D01*
X113069714Y-123102666D01*
X113164952Y-123150285D01*
X113212571Y-123197904D01*
X113260190Y-123293142D01*
X113260190Y-123674095D01*
X112736380Y-122769333D02*
X112736380Y-122150285D01*
X113117333Y-122483619D01*
X113117333Y-122340761D01*
X113164952Y-122245523D01*
X113212571Y-122197904D01*
X113307809Y-122150285D01*
X113545904Y-122150285D01*
X113641142Y-122197904D01*
X113688761Y-122245523D01*
X113736380Y-122340761D01*
X113736380Y-122626476D01*
X113688761Y-122721714D01*
X113641142Y-122769333D01*
X104560642Y-127515857D02*
X104608261Y-127563476D01*
X104655880Y-127706333D01*
X104655880Y-127801571D01*
X104608261Y-127944428D01*
X104513023Y-128039666D01*
X104417785Y-128087285D01*
X104227309Y-128134904D01*
X104084452Y-128134904D01*
X103893976Y-128087285D01*
X103798738Y-128039666D01*
X103703500Y-127944428D01*
X103655880Y-127801571D01*
X103655880Y-127706333D01*
X103703500Y-127563476D01*
X103751119Y-127515857D01*
X104655880Y-126563476D02*
X104655880Y-127134904D01*
X104655880Y-126849190D02*
X103655880Y-126849190D01*
X103798738Y-126944428D01*
X103893976Y-127039666D01*
X103941595Y-127134904D01*
X104655880Y-125611095D02*
X104655880Y-126182523D01*
X104655880Y-125896809D02*
X103655880Y-125896809D01*
X103798738Y-125992047D01*
X103893976Y-126087285D01*
X103941595Y-126182523D01*
X110017642Y-118911642D02*
X109970023Y-118959261D01*
X109827166Y-119006880D01*
X109731928Y-119006880D01*
X109589071Y-118959261D01*
X109493833Y-118864023D01*
X109446214Y-118768785D01*
X109398595Y-118578309D01*
X109398595Y-118435452D01*
X109446214Y-118244976D01*
X109493833Y-118149738D01*
X109589071Y-118054500D01*
X109731928Y-118006880D01*
X109827166Y-118006880D01*
X109970023Y-118054500D01*
X110017642Y-118102119D01*
X110398595Y-118102119D02*
X110446214Y-118054500D01*
X110541452Y-118006880D01*
X110779547Y-118006880D01*
X110874785Y-118054500D01*
X110922404Y-118102119D01*
X110970023Y-118197357D01*
X110970023Y-118292595D01*
X110922404Y-118435452D01*
X110350976Y-119006880D01*
X110970023Y-119006880D01*
X111541452Y-118435452D02*
X111446214Y-118387833D01*
X111398595Y-118340214D01*
X111350976Y-118244976D01*
X111350976Y-118197357D01*
X111398595Y-118102119D01*
X111446214Y-118054500D01*
X111541452Y-118006880D01*
X111731928Y-118006880D01*
X111827166Y-118054500D01*
X111874785Y-118102119D01*
X111922404Y-118197357D01*
X111922404Y-118244976D01*
X111874785Y-118340214D01*
X111827166Y-118387833D01*
X111731928Y-118435452D01*
X111541452Y-118435452D01*
X111446214Y-118483071D01*
X111398595Y-118530690D01*
X111350976Y-118625928D01*
X111350976Y-118816404D01*
X111398595Y-118911642D01*
X111446214Y-118959261D01*
X111541452Y-119006880D01*
X111731928Y-119006880D01*
X111827166Y-118959261D01*
X111874785Y-118911642D01*
X111922404Y-118816404D01*
X111922404Y-118625928D01*
X111874785Y-118530690D01*
X111827166Y-118483071D01*
X111731928Y-118435452D01*
X101671380Y-127452357D02*
X101195190Y-127785690D01*
X101671380Y-128023785D02*
X100671380Y-128023785D01*
X100671380Y-127642833D01*
X100719000Y-127547595D01*
X100766619Y-127499976D01*
X100861857Y-127452357D01*
X101004714Y-127452357D01*
X101099952Y-127499976D01*
X101147571Y-127547595D01*
X101195190Y-127642833D01*
X101195190Y-128023785D01*
X101671380Y-126499976D02*
X101671380Y-127071404D01*
X101671380Y-126785690D02*
X100671380Y-126785690D01*
X100814238Y-126880928D01*
X100909476Y-126976166D01*
X100957095Y-127071404D01*
X100671380Y-125642833D02*
X100671380Y-125833309D01*
X100719000Y-125928547D01*
X100766619Y-125976166D01*
X100909476Y-126071404D01*
X101099952Y-126119023D01*
X101480904Y-126119023D01*
X101576142Y-126071404D01*
X101623761Y-126023785D01*
X101671380Y-125928547D01*
X101671380Y-125738071D01*
X101623761Y-125642833D01*
X101576142Y-125595214D01*
X101480904Y-125547595D01*
X101242809Y-125547595D01*
X101147571Y-125595214D01*
X101099952Y-125642833D01*
X101052333Y-125738071D01*
X101052333Y-125928547D01*
X101099952Y-126023785D01*
X101147571Y-126071404D01*
X101242809Y-126119023D01*
X114276142Y-110116857D02*
X114323761Y-110164476D01*
X114371380Y-110307333D01*
X114371380Y-110402571D01*
X114323761Y-110545428D01*
X114228523Y-110640666D01*
X114133285Y-110688285D01*
X113942809Y-110735904D01*
X113799952Y-110735904D01*
X113609476Y-110688285D01*
X113514238Y-110640666D01*
X113419000Y-110545428D01*
X113371380Y-110402571D01*
X113371380Y-110307333D01*
X113419000Y-110164476D01*
X113466619Y-110116857D01*
X113466619Y-109735904D02*
X113419000Y-109688285D01*
X113371380Y-109593047D01*
X113371380Y-109354952D01*
X113419000Y-109259714D01*
X113466619Y-109212095D01*
X113561857Y-109164476D01*
X113657095Y-109164476D01*
X113799952Y-109212095D01*
X114371380Y-109783523D01*
X114371380Y-109164476D01*
X113371380Y-108831142D02*
X113371380Y-108164476D01*
X114371380Y-108593047D01*
X102211142Y-117800357D02*
X102258761Y-117847976D01*
X102306380Y-117990833D01*
X102306380Y-118086071D01*
X102258761Y-118228928D01*
X102163523Y-118324166D01*
X102068285Y-118371785D01*
X101877809Y-118419404D01*
X101734952Y-118419404D01*
X101544476Y-118371785D01*
X101449238Y-118324166D01*
X101354000Y-118228928D01*
X101306380Y-118086071D01*
X101306380Y-117990833D01*
X101354000Y-117847976D01*
X101401619Y-117800357D01*
X102306380Y-116847976D02*
X102306380Y-117419404D01*
X102306380Y-117133690D02*
X101306380Y-117133690D01*
X101449238Y-117228928D01*
X101544476Y-117324166D01*
X101592095Y-117419404D01*
X101401619Y-116467023D02*
X101354000Y-116419404D01*
X101306380Y-116324166D01*
X101306380Y-116086071D01*
X101354000Y-115990833D01*
X101401619Y-115943214D01*
X101496857Y-115895595D01*
X101592095Y-115895595D01*
X101734952Y-115943214D01*
X102306380Y-116514642D01*
X102306380Y-115895595D01*
X93432357Y-125087142D02*
X93384738Y-125039523D01*
X93337119Y-124896666D01*
X93337119Y-124801428D01*
X93384738Y-124658571D01*
X93479976Y-124563333D01*
X93575214Y-124515714D01*
X93765690Y-124468095D01*
X93908547Y-124468095D01*
X94099023Y-124515714D01*
X94194261Y-124563333D01*
X94289500Y-124658571D01*
X94337119Y-124801428D01*
X94337119Y-124896666D01*
X94289500Y-125039523D01*
X94241880Y-125087142D01*
X93337119Y-126039523D02*
X93337119Y-125468095D01*
X93337119Y-125753809D02*
X94337119Y-125753809D01*
X94194261Y-125658571D01*
X94099023Y-125563333D01*
X94051404Y-125468095D01*
X94337119Y-126372857D02*
X94337119Y-127039523D01*
X93337119Y-126610952D01*
X96639142Y-133357880D02*
X96305809Y-132881690D01*
X96067714Y-133357880D02*
X96067714Y-132357880D01*
X96448666Y-132357880D01*
X96543904Y-132405500D01*
X96591523Y-132453119D01*
X96639142Y-132548357D01*
X96639142Y-132691214D01*
X96591523Y-132786452D01*
X96543904Y-132834071D01*
X96448666Y-132881690D01*
X96067714Y-132881690D01*
X97020095Y-132453119D02*
X97067714Y-132405500D01*
X97162952Y-132357880D01*
X97401047Y-132357880D01*
X97496285Y-132405500D01*
X97543904Y-132453119D01*
X97591523Y-132548357D01*
X97591523Y-132643595D01*
X97543904Y-132786452D01*
X96972476Y-133357880D01*
X97591523Y-133357880D01*
X98448666Y-132691214D02*
X98448666Y-133357880D01*
X98210571Y-132310261D02*
X97972476Y-133024547D01*
X98591523Y-133024547D01*
X102147642Y-114593666D02*
X102195261Y-114641285D01*
X102242880Y-114784142D01*
X102242880Y-114879380D01*
X102195261Y-115022238D01*
X102100023Y-115117476D01*
X102004785Y-115165095D01*
X101814309Y-115212714D01*
X101671452Y-115212714D01*
X101480976Y-115165095D01*
X101385738Y-115117476D01*
X101290500Y-115022238D01*
X101242880Y-114879380D01*
X101242880Y-114784142D01*
X101290500Y-114641285D01*
X101338119Y-114593666D01*
X101242880Y-114260333D02*
X101242880Y-113593666D01*
X102242880Y-114022238D01*
X101607880Y-110370857D02*
X101131690Y-110704190D01*
X101607880Y-110942285D02*
X100607880Y-110942285D01*
X100607880Y-110561333D01*
X100655500Y-110466095D01*
X100703119Y-110418476D01*
X100798357Y-110370857D01*
X100941214Y-110370857D01*
X101036452Y-110418476D01*
X101084071Y-110466095D01*
X101131690Y-110561333D01*
X101131690Y-110942285D01*
X101607880Y-109418476D02*
X101607880Y-109989904D01*
X101607880Y-109704190D02*
X100607880Y-109704190D01*
X100750738Y-109799428D01*
X100845976Y-109894666D01*
X100893595Y-109989904D01*
X101607880Y-108466095D02*
X101607880Y-109037523D01*
X101607880Y-108751809D02*
X100607880Y-108751809D01*
X100750738Y-108847047D01*
X100845976Y-108942285D01*
X100893595Y-109037523D01*
X94559380Y-122308857D02*
X94083190Y-122642190D01*
X94559380Y-122880285D02*
X93559380Y-122880285D01*
X93559380Y-122499333D01*
X93607000Y-122404095D01*
X93654619Y-122356476D01*
X93749857Y-122308857D01*
X93892714Y-122308857D01*
X93987952Y-122356476D01*
X94035571Y-122404095D01*
X94083190Y-122499333D01*
X94083190Y-122880285D01*
X93654619Y-121927904D02*
X93607000Y-121880285D01*
X93559380Y-121785047D01*
X93559380Y-121546952D01*
X93607000Y-121451714D01*
X93654619Y-121404095D01*
X93749857Y-121356476D01*
X93845095Y-121356476D01*
X93987952Y-121404095D01*
X94559380Y-121975523D01*
X94559380Y-121356476D01*
X93654619Y-120975523D02*
X93607000Y-120927904D01*
X93559380Y-120832666D01*
X93559380Y-120594571D01*
X93607000Y-120499333D01*
X93654619Y-120451714D01*
X93749857Y-120404095D01*
X93845095Y-120404095D01*
X93987952Y-120451714D01*
X94559380Y-121023142D01*
X94559380Y-120404095D01*
X98481140Y-120059746D02*
X98481140Y-120535937D01*
X97481140Y-120535937D01*
X98481140Y-119202603D02*
X98481140Y-119774032D01*
X98481140Y-119488318D02*
X97481140Y-119488318D01*
X97623998Y-119583556D01*
X97719236Y-119678794D01*
X97766855Y-119774032D01*
X98036142Y-137644142D02*
X97988523Y-137691761D01*
X97845666Y-137739380D01*
X97750428Y-137739380D01*
X97607571Y-137691761D01*
X97512333Y-137596523D01*
X97464714Y-137501285D01*
X97417095Y-137310809D01*
X97417095Y-137167952D01*
X97464714Y-136977476D01*
X97512333Y-136882238D01*
X97607571Y-136787000D01*
X97750428Y-136739380D01*
X97845666Y-136739380D01*
X97988523Y-136787000D01*
X98036142Y-136834619D01*
X98988523Y-137739380D02*
X98417095Y-137739380D01*
X98702809Y-137739380D02*
X98702809Y-136739380D01*
X98607571Y-136882238D01*
X98512333Y-136977476D01*
X98417095Y-137025095D01*
X99321857Y-136739380D02*
X99940904Y-136739380D01*
X99607571Y-137120333D01*
X99750428Y-137120333D01*
X99845666Y-137167952D01*
X99893285Y-137215571D01*
X99940904Y-137310809D01*
X99940904Y-137548904D01*
X99893285Y-137644142D01*
X99845666Y-137691761D01*
X99750428Y-137739380D01*
X99464714Y-137739380D01*
X99369476Y-137691761D01*
X99321857Y-137644142D01*
X94698867Y-133081068D02*
X95460772Y-133081068D01*
X95079820Y-133462020D02*
X95079820Y-132700116D01*
X94337142Y-130182857D02*
X94384761Y-130230476D01*
X94432380Y-130373333D01*
X94432380Y-130468571D01*
X94384761Y-130611428D01*
X94289523Y-130706666D01*
X94194285Y-130754285D01*
X94003809Y-130801904D01*
X93860952Y-130801904D01*
X93670476Y-130754285D01*
X93575238Y-130706666D01*
X93480000Y-130611428D01*
X93432380Y-130468571D01*
X93432380Y-130373333D01*
X93480000Y-130230476D01*
X93527619Y-130182857D01*
X94432380Y-129230476D02*
X94432380Y-129801904D01*
X94432380Y-129516190D02*
X93432380Y-129516190D01*
X93575238Y-129611428D01*
X93670476Y-129706666D01*
X93718095Y-129801904D01*
X93860952Y-128659047D02*
X93813333Y-128754285D01*
X93765714Y-128801904D01*
X93670476Y-128849523D01*
X93622857Y-128849523D01*
X93527619Y-128801904D01*
X93480000Y-128754285D01*
X93432380Y-128659047D01*
X93432380Y-128468571D01*
X93480000Y-128373333D01*
X93527619Y-128325714D01*
X93622857Y-128278095D01*
X93670476Y-128278095D01*
X93765714Y-128325714D01*
X93813333Y-128373333D01*
X93860952Y-128468571D01*
X93860952Y-128659047D01*
X93908571Y-128754285D01*
X93956190Y-128801904D01*
X94051428Y-128849523D01*
X94241904Y-128849523D01*
X94337142Y-128801904D01*
X94384761Y-128754285D01*
X94432380Y-128659047D01*
X94432380Y-128468571D01*
X94384761Y-128373333D01*
X94337142Y-128325714D01*
X94241904Y-128278095D01*
X94051428Y-128278095D01*
X93956190Y-128325714D01*
X93908571Y-128373333D01*
X93860952Y-128468571D01*
X94210142Y-115927166D02*
X94257761Y-115974785D01*
X94305380Y-116117642D01*
X94305380Y-116212880D01*
X94257761Y-116355738D01*
X94162523Y-116450976D01*
X94067285Y-116498595D01*
X93876809Y-116546214D01*
X93733952Y-116546214D01*
X93543476Y-116498595D01*
X93448238Y-116450976D01*
X93353000Y-116355738D01*
X93305380Y-116212880D01*
X93305380Y-116117642D01*
X93353000Y-115974785D01*
X93400619Y-115927166D01*
X93733952Y-115355738D02*
X93686333Y-115450976D01*
X93638714Y-115498595D01*
X93543476Y-115546214D01*
X93495857Y-115546214D01*
X93400619Y-115498595D01*
X93353000Y-115450976D01*
X93305380Y-115355738D01*
X93305380Y-115165261D01*
X93353000Y-115070023D01*
X93400619Y-115022404D01*
X93495857Y-114974785D01*
X93543476Y-114974785D01*
X93638714Y-115022404D01*
X93686333Y-115070023D01*
X93733952Y-115165261D01*
X93733952Y-115355738D01*
X93781571Y-115450976D01*
X93829190Y-115498595D01*
X93924428Y-115546214D01*
X94114904Y-115546214D01*
X94210142Y-115498595D01*
X94257761Y-115450976D01*
X94305380Y-115355738D01*
X94305380Y-115165261D01*
X94257761Y-115070023D01*
X94210142Y-115022404D01*
X94114904Y-114974785D01*
X93924428Y-114974785D01*
X93829190Y-115022404D01*
X93781571Y-115070023D01*
X93733952Y-115165261D01*
X110979142Y-128238857D02*
X111026761Y-128286476D01*
X111074380Y-128429333D01*
X111074380Y-128524571D01*
X111026761Y-128667428D01*
X110931523Y-128762666D01*
X110836285Y-128810285D01*
X110645809Y-128857904D01*
X110502952Y-128857904D01*
X110312476Y-128810285D01*
X110217238Y-128762666D01*
X110122000Y-128667428D01*
X110074380Y-128524571D01*
X110074380Y-128429333D01*
X110122000Y-128286476D01*
X110169619Y-128238857D01*
X110169619Y-127857904D02*
X110122000Y-127810285D01*
X110074380Y-127715047D01*
X110074380Y-127476952D01*
X110122000Y-127381714D01*
X110169619Y-127334095D01*
X110264857Y-127286476D01*
X110360095Y-127286476D01*
X110502952Y-127334095D01*
X111074380Y-127905523D01*
X111074380Y-127286476D01*
X110074380Y-126429333D02*
X110074380Y-126619809D01*
X110122000Y-126715047D01*
X110169619Y-126762666D01*
X110312476Y-126857904D01*
X110502952Y-126905523D01*
X110883904Y-126905523D01*
X110979142Y-126857904D01*
X111026761Y-126810285D01*
X111074380Y-126715047D01*
X111074380Y-126524571D01*
X111026761Y-126429333D01*
X110979142Y-126381714D01*
X110883904Y-126334095D01*
X110645809Y-126334095D01*
X110550571Y-126381714D01*
X110502952Y-126429333D01*
X110455333Y-126524571D01*
X110455333Y-126715047D01*
X110502952Y-126810285D01*
X110550571Y-126857904D01*
X110645809Y-126905523D01*
X104687642Y-115260357D02*
X104735261Y-115307976D01*
X104782880Y-115450833D01*
X104782880Y-115546071D01*
X104735261Y-115688928D01*
X104640023Y-115784166D01*
X104544785Y-115831785D01*
X104354309Y-115879404D01*
X104211452Y-115879404D01*
X104020976Y-115831785D01*
X103925738Y-115784166D01*
X103830500Y-115688928D01*
X103782880Y-115546071D01*
X103782880Y-115450833D01*
X103830500Y-115307976D01*
X103878119Y-115260357D01*
X104782880Y-114307976D02*
X104782880Y-114879404D01*
X104782880Y-114593690D02*
X103782880Y-114593690D01*
X103925738Y-114688928D01*
X104020976Y-114784166D01*
X104068595Y-114879404D01*
X103782880Y-113688928D02*
X103782880Y-113593690D01*
X103830500Y-113498452D01*
X103878119Y-113450833D01*
X103973357Y-113403214D01*
X104163833Y-113355595D01*
X104401928Y-113355595D01*
X104592404Y-113403214D01*
X104687642Y-113450833D01*
X104735261Y-113498452D01*
X104782880Y-113593690D01*
X104782880Y-113688928D01*
X104735261Y-113784166D01*
X104687642Y-113831785D01*
X104592404Y-113879404D01*
X104401928Y-113927023D01*
X104163833Y-113927023D01*
X103973357Y-113879404D01*
X103878119Y-113831785D01*
X103830500Y-113784166D01*
X103782880Y-113688928D01*
X100131642Y-133357880D02*
X99798309Y-132881690D01*
X99560214Y-133357880D02*
X99560214Y-132357880D01*
X99941166Y-132357880D01*
X100036404Y-132405500D01*
X100084023Y-132453119D01*
X100131642Y-132548357D01*
X100131642Y-132691214D01*
X100084023Y-132786452D01*
X100036404Y-132834071D01*
X99941166Y-132881690D01*
X99560214Y-132881690D01*
X101084023Y-133357880D02*
X100512595Y-133357880D01*
X100798309Y-133357880D02*
X100798309Y-132357880D01*
X100703071Y-132500738D01*
X100607833Y-132595976D01*
X100512595Y-132643595D01*
X101417357Y-132357880D02*
X102084023Y-132357880D01*
X101655452Y-133357880D01*
X94241880Y-113228357D02*
X93765690Y-113561690D01*
X94241880Y-113799785D02*
X93241880Y-113799785D01*
X93241880Y-113418833D01*
X93289500Y-113323595D01*
X93337119Y-113275976D01*
X93432357Y-113228357D01*
X93575214Y-113228357D01*
X93670452Y-113275976D01*
X93718071Y-113323595D01*
X93765690Y-113418833D01*
X93765690Y-113799785D01*
X94241880Y-112275976D02*
X94241880Y-112847404D01*
X94241880Y-112561690D02*
X93241880Y-112561690D01*
X93384738Y-112656928D01*
X93479976Y-112752166D01*
X93527595Y-112847404D01*
X93241880Y-111656928D02*
X93241880Y-111561690D01*
X93289500Y-111466452D01*
X93337119Y-111418833D01*
X93432357Y-111371214D01*
X93622833Y-111323595D01*
X93860928Y-111323595D01*
X94051404Y-111371214D01*
X94146642Y-111418833D01*
X94194261Y-111466452D01*
X94241880Y-111561690D01*
X94241880Y-111656928D01*
X94194261Y-111752166D01*
X94146642Y-111799785D01*
X94051404Y-111847404D01*
X93860928Y-111895023D01*
X93622833Y-111895023D01*
X93432357Y-111847404D01*
X93337119Y-111799785D01*
X93289500Y-111752166D01*
X93241880Y-111656928D01*
X118371880Y-115800095D02*
X117371880Y-115800095D01*
X117371880Y-115419142D01*
X117419500Y-115323904D01*
X117467119Y-115276285D01*
X117562357Y-115228666D01*
X117705214Y-115228666D01*
X117800452Y-115276285D01*
X117848071Y-115323904D01*
X117895690Y-115419142D01*
X117895690Y-115800095D01*
X117371880Y-114323904D02*
X117371880Y-114800095D01*
X117848071Y-114847714D01*
X117800452Y-114800095D01*
X117752833Y-114704857D01*
X117752833Y-114466761D01*
X117800452Y-114371523D01*
X117848071Y-114323904D01*
X117943309Y-114276285D01*
X118181404Y-114276285D01*
X118276642Y-114323904D01*
X118324261Y-114371523D01*
X118371880Y-114466761D01*
X118371880Y-114704857D01*
X118324261Y-114800095D01*
X118276642Y-114847714D01*
X121031095Y-112037880D02*
X121031095Y-112847404D01*
X121078714Y-112942642D01*
X121126333Y-112990261D01*
X121221571Y-113037880D01*
X121412047Y-113037880D01*
X121507285Y-112990261D01*
X121554904Y-112942642D01*
X121602523Y-112847404D01*
X121602523Y-112037880D01*
X122602523Y-113037880D02*
X122031095Y-113037880D01*
X122316809Y-113037880D02*
X122316809Y-112037880D01*
X122221571Y-112180738D01*
X122126333Y-112275976D01*
X122031095Y-112323595D01*
X94305380Y-109735857D02*
X93829190Y-110069190D01*
X94305380Y-110307285D02*
X93305380Y-110307285D01*
X93305380Y-109926333D01*
X93353000Y-109831095D01*
X93400619Y-109783476D01*
X93495857Y-109735857D01*
X93638714Y-109735857D01*
X93733952Y-109783476D01*
X93781571Y-109831095D01*
X93829190Y-109926333D01*
X93829190Y-110307285D01*
X94305380Y-108783476D02*
X94305380Y-109354904D01*
X94305380Y-109069190D02*
X93305380Y-109069190D01*
X93448238Y-109164428D01*
X93543476Y-109259666D01*
X93591095Y-109354904D01*
X93400619Y-108402523D02*
X93353000Y-108354904D01*
X93305380Y-108259666D01*
X93305380Y-108021571D01*
X93353000Y-107926333D01*
X93400619Y-107878714D01*
X93495857Y-107831095D01*
X93591095Y-107831095D01*
X93733952Y-107878714D01*
X94305380Y-108450142D01*
X94305380Y-107831095D01*
X108497642Y-112402857D02*
X108545261Y-112450476D01*
X108592880Y-112593333D01*
X108592880Y-112688571D01*
X108545261Y-112831428D01*
X108450023Y-112926666D01*
X108354785Y-112974285D01*
X108164309Y-113021904D01*
X108021452Y-113021904D01*
X107830976Y-112974285D01*
X107735738Y-112926666D01*
X107640500Y-112831428D01*
X107592880Y-112688571D01*
X107592880Y-112593333D01*
X107640500Y-112450476D01*
X107688119Y-112402857D01*
X107688119Y-112021904D02*
X107640500Y-111974285D01*
X107592880Y-111879047D01*
X107592880Y-111640952D01*
X107640500Y-111545714D01*
X107688119Y-111498095D01*
X107783357Y-111450476D01*
X107878595Y-111450476D01*
X108021452Y-111498095D01*
X108592880Y-112069523D01*
X108592880Y-111450476D01*
X107592880Y-111117142D02*
X107592880Y-110498095D01*
X107973833Y-110831428D01*
X107973833Y-110688571D01*
X108021452Y-110593333D01*
X108069071Y-110545714D01*
X108164309Y-110498095D01*
X108402404Y-110498095D01*
X108497642Y-110545714D01*
X108545261Y-110593333D01*
X108592880Y-110688571D01*
X108592880Y-110974285D01*
X108545261Y-111069523D01*
X108497642Y-111117142D01*
X155138380Y-87606095D02*
X154138380Y-87606095D01*
X154138380Y-87225142D01*
X154186000Y-87129904D01*
X154233619Y-87082285D01*
X154328857Y-87034666D01*
X154471714Y-87034666D01*
X154566952Y-87082285D01*
X154614571Y-87129904D01*
X154662190Y-87225142D01*
X154662190Y-87606095D01*
X154138380Y-86701333D02*
X154138380Y-86082285D01*
X154519333Y-86415619D01*
X154519333Y-86272761D01*
X154566952Y-86177523D01*
X154614571Y-86129904D01*
X154709809Y-86082285D01*
X154947904Y-86082285D01*
X155043142Y-86129904D01*
X155090761Y-86177523D01*
X155138380Y-86272761D01*
X155138380Y-86558476D01*
X155090761Y-86653714D01*
X155043142Y-86701333D01*
X145962642Y-91447857D02*
X146010261Y-91495476D01*
X146057880Y-91638333D01*
X146057880Y-91733571D01*
X146010261Y-91876428D01*
X145915023Y-91971666D01*
X145819785Y-92019285D01*
X145629309Y-92066904D01*
X145486452Y-92066904D01*
X145295976Y-92019285D01*
X145200738Y-91971666D01*
X145105500Y-91876428D01*
X145057880Y-91733571D01*
X145057880Y-91638333D01*
X145105500Y-91495476D01*
X145153119Y-91447857D01*
X146057880Y-90495476D02*
X146057880Y-91066904D01*
X146057880Y-90781190D02*
X145057880Y-90781190D01*
X145200738Y-90876428D01*
X145295976Y-90971666D01*
X145343595Y-91066904D01*
X146057880Y-89543095D02*
X146057880Y-90114523D01*
X146057880Y-89828809D02*
X145057880Y-89828809D01*
X145200738Y-89924047D01*
X145295976Y-90019285D01*
X145343595Y-90114523D01*
X151419642Y-82843642D02*
X151372023Y-82891261D01*
X151229166Y-82938880D01*
X151133928Y-82938880D01*
X150991071Y-82891261D01*
X150895833Y-82796023D01*
X150848214Y-82700785D01*
X150800595Y-82510309D01*
X150800595Y-82367452D01*
X150848214Y-82176976D01*
X150895833Y-82081738D01*
X150991071Y-81986500D01*
X151133928Y-81938880D01*
X151229166Y-81938880D01*
X151372023Y-81986500D01*
X151419642Y-82034119D01*
X151800595Y-82034119D02*
X151848214Y-81986500D01*
X151943452Y-81938880D01*
X152181547Y-81938880D01*
X152276785Y-81986500D01*
X152324404Y-82034119D01*
X152372023Y-82129357D01*
X152372023Y-82224595D01*
X152324404Y-82367452D01*
X151752976Y-82938880D01*
X152372023Y-82938880D01*
X152943452Y-82367452D02*
X152848214Y-82319833D01*
X152800595Y-82272214D01*
X152752976Y-82176976D01*
X152752976Y-82129357D01*
X152800595Y-82034119D01*
X152848214Y-81986500D01*
X152943452Y-81938880D01*
X153133928Y-81938880D01*
X153229166Y-81986500D01*
X153276785Y-82034119D01*
X153324404Y-82129357D01*
X153324404Y-82176976D01*
X153276785Y-82272214D01*
X153229166Y-82319833D01*
X153133928Y-82367452D01*
X152943452Y-82367452D01*
X152848214Y-82415071D01*
X152800595Y-82462690D01*
X152752976Y-82557928D01*
X152752976Y-82748404D01*
X152800595Y-82843642D01*
X152848214Y-82891261D01*
X152943452Y-82938880D01*
X153133928Y-82938880D01*
X153229166Y-82891261D01*
X153276785Y-82843642D01*
X153324404Y-82748404D01*
X153324404Y-82557928D01*
X153276785Y-82462690D01*
X153229166Y-82415071D01*
X153133928Y-82367452D01*
X143073380Y-91384357D02*
X142597190Y-91717690D01*
X143073380Y-91955785D02*
X142073380Y-91955785D01*
X142073380Y-91574833D01*
X142121000Y-91479595D01*
X142168619Y-91431976D01*
X142263857Y-91384357D01*
X142406714Y-91384357D01*
X142501952Y-91431976D01*
X142549571Y-91479595D01*
X142597190Y-91574833D01*
X142597190Y-91955785D01*
X143073380Y-90431976D02*
X143073380Y-91003404D01*
X143073380Y-90717690D02*
X142073380Y-90717690D01*
X142216238Y-90812928D01*
X142311476Y-90908166D01*
X142359095Y-91003404D01*
X142073380Y-89574833D02*
X142073380Y-89765309D01*
X142121000Y-89860547D01*
X142168619Y-89908166D01*
X142311476Y-90003404D01*
X142501952Y-90051023D01*
X142882904Y-90051023D01*
X142978142Y-90003404D01*
X143025761Y-89955785D01*
X143073380Y-89860547D01*
X143073380Y-89670071D01*
X143025761Y-89574833D01*
X142978142Y-89527214D01*
X142882904Y-89479595D01*
X142644809Y-89479595D01*
X142549571Y-89527214D01*
X142501952Y-89574833D01*
X142454333Y-89670071D01*
X142454333Y-89860547D01*
X142501952Y-89955785D01*
X142549571Y-90003404D01*
X142644809Y-90051023D01*
X155678142Y-74048857D02*
X155725761Y-74096476D01*
X155773380Y-74239333D01*
X155773380Y-74334571D01*
X155725761Y-74477428D01*
X155630523Y-74572666D01*
X155535285Y-74620285D01*
X155344809Y-74667904D01*
X155201952Y-74667904D01*
X155011476Y-74620285D01*
X154916238Y-74572666D01*
X154821000Y-74477428D01*
X154773380Y-74334571D01*
X154773380Y-74239333D01*
X154821000Y-74096476D01*
X154868619Y-74048857D01*
X154868619Y-73667904D02*
X154821000Y-73620285D01*
X154773380Y-73525047D01*
X154773380Y-73286952D01*
X154821000Y-73191714D01*
X154868619Y-73144095D01*
X154963857Y-73096476D01*
X155059095Y-73096476D01*
X155201952Y-73144095D01*
X155773380Y-73715523D01*
X155773380Y-73096476D01*
X154773380Y-72763142D02*
X154773380Y-72096476D01*
X155773380Y-72525047D01*
X143613142Y-81732357D02*
X143660761Y-81779976D01*
X143708380Y-81922833D01*
X143708380Y-82018071D01*
X143660761Y-82160928D01*
X143565523Y-82256166D01*
X143470285Y-82303785D01*
X143279809Y-82351404D01*
X143136952Y-82351404D01*
X142946476Y-82303785D01*
X142851238Y-82256166D01*
X142756000Y-82160928D01*
X142708380Y-82018071D01*
X142708380Y-81922833D01*
X142756000Y-81779976D01*
X142803619Y-81732357D01*
X143708380Y-80779976D02*
X143708380Y-81351404D01*
X143708380Y-81065690D02*
X142708380Y-81065690D01*
X142851238Y-81160928D01*
X142946476Y-81256166D01*
X142994095Y-81351404D01*
X142803619Y-80399023D02*
X142756000Y-80351404D01*
X142708380Y-80256166D01*
X142708380Y-80018071D01*
X142756000Y-79922833D01*
X142803619Y-79875214D01*
X142898857Y-79827595D01*
X142994095Y-79827595D01*
X143136952Y-79875214D01*
X143708380Y-80446642D01*
X143708380Y-79827595D01*
X134834357Y-89019142D02*
X134786738Y-88971523D01*
X134739119Y-88828666D01*
X134739119Y-88733428D01*
X134786738Y-88590571D01*
X134881976Y-88495333D01*
X134977214Y-88447714D01*
X135167690Y-88400095D01*
X135310547Y-88400095D01*
X135501023Y-88447714D01*
X135596261Y-88495333D01*
X135691500Y-88590571D01*
X135739119Y-88733428D01*
X135739119Y-88828666D01*
X135691500Y-88971523D01*
X135643880Y-89019142D01*
X134739119Y-89971523D02*
X134739119Y-89400095D01*
X134739119Y-89685809D02*
X135739119Y-89685809D01*
X135596261Y-89590571D01*
X135501023Y-89495333D01*
X135453404Y-89400095D01*
X135739119Y-90304857D02*
X135739119Y-90971523D01*
X134739119Y-90542952D01*
X138041142Y-97289880D02*
X137707809Y-96813690D01*
X137469714Y-97289880D02*
X137469714Y-96289880D01*
X137850666Y-96289880D01*
X137945904Y-96337500D01*
X137993523Y-96385119D01*
X138041142Y-96480357D01*
X138041142Y-96623214D01*
X137993523Y-96718452D01*
X137945904Y-96766071D01*
X137850666Y-96813690D01*
X137469714Y-96813690D01*
X138422095Y-96385119D02*
X138469714Y-96337500D01*
X138564952Y-96289880D01*
X138803047Y-96289880D01*
X138898285Y-96337500D01*
X138945904Y-96385119D01*
X138993523Y-96480357D01*
X138993523Y-96575595D01*
X138945904Y-96718452D01*
X138374476Y-97289880D01*
X138993523Y-97289880D01*
X139850666Y-96623214D02*
X139850666Y-97289880D01*
X139612571Y-96242261D02*
X139374476Y-96956547D01*
X139993523Y-96956547D01*
X143549642Y-78525666D02*
X143597261Y-78573285D01*
X143644880Y-78716142D01*
X143644880Y-78811380D01*
X143597261Y-78954238D01*
X143502023Y-79049476D01*
X143406785Y-79097095D01*
X143216309Y-79144714D01*
X143073452Y-79144714D01*
X142882976Y-79097095D01*
X142787738Y-79049476D01*
X142692500Y-78954238D01*
X142644880Y-78811380D01*
X142644880Y-78716142D01*
X142692500Y-78573285D01*
X142740119Y-78525666D01*
X142644880Y-78192333D02*
X142644880Y-77525666D01*
X143644880Y-77954238D01*
X143009880Y-74302857D02*
X142533690Y-74636190D01*
X143009880Y-74874285D02*
X142009880Y-74874285D01*
X142009880Y-74493333D01*
X142057500Y-74398095D01*
X142105119Y-74350476D01*
X142200357Y-74302857D01*
X142343214Y-74302857D01*
X142438452Y-74350476D01*
X142486071Y-74398095D01*
X142533690Y-74493333D01*
X142533690Y-74874285D01*
X143009880Y-73350476D02*
X143009880Y-73921904D01*
X143009880Y-73636190D02*
X142009880Y-73636190D01*
X142152738Y-73731428D01*
X142247976Y-73826666D01*
X142295595Y-73921904D01*
X143009880Y-72398095D02*
X143009880Y-72969523D01*
X143009880Y-72683809D02*
X142009880Y-72683809D01*
X142152738Y-72779047D01*
X142247976Y-72874285D01*
X142295595Y-72969523D01*
X135961380Y-86240857D02*
X135485190Y-86574190D01*
X135961380Y-86812285D02*
X134961380Y-86812285D01*
X134961380Y-86431333D01*
X135009000Y-86336095D01*
X135056619Y-86288476D01*
X135151857Y-86240857D01*
X135294714Y-86240857D01*
X135389952Y-86288476D01*
X135437571Y-86336095D01*
X135485190Y-86431333D01*
X135485190Y-86812285D01*
X135056619Y-85859904D02*
X135009000Y-85812285D01*
X134961380Y-85717047D01*
X134961380Y-85478952D01*
X135009000Y-85383714D01*
X135056619Y-85336095D01*
X135151857Y-85288476D01*
X135247095Y-85288476D01*
X135389952Y-85336095D01*
X135961380Y-85907523D01*
X135961380Y-85288476D01*
X135056619Y-84907523D02*
X135009000Y-84859904D01*
X134961380Y-84764666D01*
X134961380Y-84526571D01*
X135009000Y-84431333D01*
X135056619Y-84383714D01*
X135151857Y-84336095D01*
X135247095Y-84336095D01*
X135389952Y-84383714D01*
X135961380Y-84955142D01*
X135961380Y-84336095D01*
X139883140Y-83991746D02*
X139883140Y-84467937D01*
X138883140Y-84467937D01*
X139883140Y-83134603D02*
X139883140Y-83706032D01*
X139883140Y-83420318D02*
X138883140Y-83420318D01*
X139025998Y-83515556D01*
X139121236Y-83610794D01*
X139168855Y-83706032D01*
X139438142Y-101576142D02*
X139390523Y-101623761D01*
X139247666Y-101671380D01*
X139152428Y-101671380D01*
X139009571Y-101623761D01*
X138914333Y-101528523D01*
X138866714Y-101433285D01*
X138819095Y-101242809D01*
X138819095Y-101099952D01*
X138866714Y-100909476D01*
X138914333Y-100814238D01*
X139009571Y-100719000D01*
X139152428Y-100671380D01*
X139247666Y-100671380D01*
X139390523Y-100719000D01*
X139438142Y-100766619D01*
X140390523Y-101671380D02*
X139819095Y-101671380D01*
X140104809Y-101671380D02*
X140104809Y-100671380D01*
X140009571Y-100814238D01*
X139914333Y-100909476D01*
X139819095Y-100957095D01*
X140723857Y-100671380D02*
X141342904Y-100671380D01*
X141009571Y-101052333D01*
X141152428Y-101052333D01*
X141247666Y-101099952D01*
X141295285Y-101147571D01*
X141342904Y-101242809D01*
X141342904Y-101480904D01*
X141295285Y-101576142D01*
X141247666Y-101623761D01*
X141152428Y-101671380D01*
X140866714Y-101671380D01*
X140771476Y-101623761D01*
X140723857Y-101576142D01*
X136100867Y-97013068D02*
X136862772Y-97013068D01*
X136481820Y-97394020D02*
X136481820Y-96632116D01*
X135739142Y-94114857D02*
X135786761Y-94162476D01*
X135834380Y-94305333D01*
X135834380Y-94400571D01*
X135786761Y-94543428D01*
X135691523Y-94638666D01*
X135596285Y-94686285D01*
X135405809Y-94733904D01*
X135262952Y-94733904D01*
X135072476Y-94686285D01*
X134977238Y-94638666D01*
X134882000Y-94543428D01*
X134834380Y-94400571D01*
X134834380Y-94305333D01*
X134882000Y-94162476D01*
X134929619Y-94114857D01*
X135834380Y-93162476D02*
X135834380Y-93733904D01*
X135834380Y-93448190D02*
X134834380Y-93448190D01*
X134977238Y-93543428D01*
X135072476Y-93638666D01*
X135120095Y-93733904D01*
X135262952Y-92591047D02*
X135215333Y-92686285D01*
X135167714Y-92733904D01*
X135072476Y-92781523D01*
X135024857Y-92781523D01*
X134929619Y-92733904D01*
X134882000Y-92686285D01*
X134834380Y-92591047D01*
X134834380Y-92400571D01*
X134882000Y-92305333D01*
X134929619Y-92257714D01*
X135024857Y-92210095D01*
X135072476Y-92210095D01*
X135167714Y-92257714D01*
X135215333Y-92305333D01*
X135262952Y-92400571D01*
X135262952Y-92591047D01*
X135310571Y-92686285D01*
X135358190Y-92733904D01*
X135453428Y-92781523D01*
X135643904Y-92781523D01*
X135739142Y-92733904D01*
X135786761Y-92686285D01*
X135834380Y-92591047D01*
X135834380Y-92400571D01*
X135786761Y-92305333D01*
X135739142Y-92257714D01*
X135643904Y-92210095D01*
X135453428Y-92210095D01*
X135358190Y-92257714D01*
X135310571Y-92305333D01*
X135262952Y-92400571D01*
X135612142Y-79859166D02*
X135659761Y-79906785D01*
X135707380Y-80049642D01*
X135707380Y-80144880D01*
X135659761Y-80287738D01*
X135564523Y-80382976D01*
X135469285Y-80430595D01*
X135278809Y-80478214D01*
X135135952Y-80478214D01*
X134945476Y-80430595D01*
X134850238Y-80382976D01*
X134755000Y-80287738D01*
X134707380Y-80144880D01*
X134707380Y-80049642D01*
X134755000Y-79906785D01*
X134802619Y-79859166D01*
X135135952Y-79287738D02*
X135088333Y-79382976D01*
X135040714Y-79430595D01*
X134945476Y-79478214D01*
X134897857Y-79478214D01*
X134802619Y-79430595D01*
X134755000Y-79382976D01*
X134707380Y-79287738D01*
X134707380Y-79097261D01*
X134755000Y-79002023D01*
X134802619Y-78954404D01*
X134897857Y-78906785D01*
X134945476Y-78906785D01*
X135040714Y-78954404D01*
X135088333Y-79002023D01*
X135135952Y-79097261D01*
X135135952Y-79287738D01*
X135183571Y-79382976D01*
X135231190Y-79430595D01*
X135326428Y-79478214D01*
X135516904Y-79478214D01*
X135612142Y-79430595D01*
X135659761Y-79382976D01*
X135707380Y-79287738D01*
X135707380Y-79097261D01*
X135659761Y-79002023D01*
X135612142Y-78954404D01*
X135516904Y-78906785D01*
X135326428Y-78906785D01*
X135231190Y-78954404D01*
X135183571Y-79002023D01*
X135135952Y-79097261D01*
X152381142Y-92170857D02*
X152428761Y-92218476D01*
X152476380Y-92361333D01*
X152476380Y-92456571D01*
X152428761Y-92599428D01*
X152333523Y-92694666D01*
X152238285Y-92742285D01*
X152047809Y-92789904D01*
X151904952Y-92789904D01*
X151714476Y-92742285D01*
X151619238Y-92694666D01*
X151524000Y-92599428D01*
X151476380Y-92456571D01*
X151476380Y-92361333D01*
X151524000Y-92218476D01*
X151571619Y-92170857D01*
X151571619Y-91789904D02*
X151524000Y-91742285D01*
X151476380Y-91647047D01*
X151476380Y-91408952D01*
X151524000Y-91313714D01*
X151571619Y-91266095D01*
X151666857Y-91218476D01*
X151762095Y-91218476D01*
X151904952Y-91266095D01*
X152476380Y-91837523D01*
X152476380Y-91218476D01*
X151476380Y-90361333D02*
X151476380Y-90551809D01*
X151524000Y-90647047D01*
X151571619Y-90694666D01*
X151714476Y-90789904D01*
X151904952Y-90837523D01*
X152285904Y-90837523D01*
X152381142Y-90789904D01*
X152428761Y-90742285D01*
X152476380Y-90647047D01*
X152476380Y-90456571D01*
X152428761Y-90361333D01*
X152381142Y-90313714D01*
X152285904Y-90266095D01*
X152047809Y-90266095D01*
X151952571Y-90313714D01*
X151904952Y-90361333D01*
X151857333Y-90456571D01*
X151857333Y-90647047D01*
X151904952Y-90742285D01*
X151952571Y-90789904D01*
X152047809Y-90837523D01*
X146089642Y-79192357D02*
X146137261Y-79239976D01*
X146184880Y-79382833D01*
X146184880Y-79478071D01*
X146137261Y-79620928D01*
X146042023Y-79716166D01*
X145946785Y-79763785D01*
X145756309Y-79811404D01*
X145613452Y-79811404D01*
X145422976Y-79763785D01*
X145327738Y-79716166D01*
X145232500Y-79620928D01*
X145184880Y-79478071D01*
X145184880Y-79382833D01*
X145232500Y-79239976D01*
X145280119Y-79192357D01*
X146184880Y-78239976D02*
X146184880Y-78811404D01*
X146184880Y-78525690D02*
X145184880Y-78525690D01*
X145327738Y-78620928D01*
X145422976Y-78716166D01*
X145470595Y-78811404D01*
X145184880Y-77620928D02*
X145184880Y-77525690D01*
X145232500Y-77430452D01*
X145280119Y-77382833D01*
X145375357Y-77335214D01*
X145565833Y-77287595D01*
X145803928Y-77287595D01*
X145994404Y-77335214D01*
X146089642Y-77382833D01*
X146137261Y-77430452D01*
X146184880Y-77525690D01*
X146184880Y-77620928D01*
X146137261Y-77716166D01*
X146089642Y-77763785D01*
X145994404Y-77811404D01*
X145803928Y-77859023D01*
X145565833Y-77859023D01*
X145375357Y-77811404D01*
X145280119Y-77763785D01*
X145232500Y-77716166D01*
X145184880Y-77620928D01*
X141533642Y-97289880D02*
X141200309Y-96813690D01*
X140962214Y-97289880D02*
X140962214Y-96289880D01*
X141343166Y-96289880D01*
X141438404Y-96337500D01*
X141486023Y-96385119D01*
X141533642Y-96480357D01*
X141533642Y-96623214D01*
X141486023Y-96718452D01*
X141438404Y-96766071D01*
X141343166Y-96813690D01*
X140962214Y-96813690D01*
X142486023Y-97289880D02*
X141914595Y-97289880D01*
X142200309Y-97289880D02*
X142200309Y-96289880D01*
X142105071Y-96432738D01*
X142009833Y-96527976D01*
X141914595Y-96575595D01*
X142819357Y-96289880D02*
X143486023Y-96289880D01*
X143057452Y-97289880D01*
X135643880Y-77160357D02*
X135167690Y-77493690D01*
X135643880Y-77731785D02*
X134643880Y-77731785D01*
X134643880Y-77350833D01*
X134691500Y-77255595D01*
X134739119Y-77207976D01*
X134834357Y-77160357D01*
X134977214Y-77160357D01*
X135072452Y-77207976D01*
X135120071Y-77255595D01*
X135167690Y-77350833D01*
X135167690Y-77731785D01*
X135643880Y-76207976D02*
X135643880Y-76779404D01*
X135643880Y-76493690D02*
X134643880Y-76493690D01*
X134786738Y-76588928D01*
X134881976Y-76684166D01*
X134929595Y-76779404D01*
X134643880Y-75588928D02*
X134643880Y-75493690D01*
X134691500Y-75398452D01*
X134739119Y-75350833D01*
X134834357Y-75303214D01*
X135024833Y-75255595D01*
X135262928Y-75255595D01*
X135453404Y-75303214D01*
X135548642Y-75350833D01*
X135596261Y-75398452D01*
X135643880Y-75493690D01*
X135643880Y-75588928D01*
X135596261Y-75684166D01*
X135548642Y-75731785D01*
X135453404Y-75779404D01*
X135262928Y-75827023D01*
X135024833Y-75827023D01*
X134834357Y-75779404D01*
X134739119Y-75731785D01*
X134691500Y-75684166D01*
X134643880Y-75588928D01*
X159773880Y-79732095D02*
X158773880Y-79732095D01*
X158773880Y-79351142D01*
X158821500Y-79255904D01*
X158869119Y-79208285D01*
X158964357Y-79160666D01*
X159107214Y-79160666D01*
X159202452Y-79208285D01*
X159250071Y-79255904D01*
X159297690Y-79351142D01*
X159297690Y-79732095D01*
X158773880Y-78255904D02*
X158773880Y-78732095D01*
X159250071Y-78779714D01*
X159202452Y-78732095D01*
X159154833Y-78636857D01*
X159154833Y-78398761D01*
X159202452Y-78303523D01*
X159250071Y-78255904D01*
X159345309Y-78208285D01*
X159583404Y-78208285D01*
X159678642Y-78255904D01*
X159726261Y-78303523D01*
X159773880Y-78398761D01*
X159773880Y-78636857D01*
X159726261Y-78732095D01*
X159678642Y-78779714D01*
X162433095Y-75969880D02*
X162433095Y-76779404D01*
X162480714Y-76874642D01*
X162528333Y-76922261D01*
X162623571Y-76969880D01*
X162814047Y-76969880D01*
X162909285Y-76922261D01*
X162956904Y-76874642D01*
X163004523Y-76779404D01*
X163004523Y-75969880D01*
X164004523Y-76969880D02*
X163433095Y-76969880D01*
X163718809Y-76969880D02*
X163718809Y-75969880D01*
X163623571Y-76112738D01*
X163528333Y-76207976D01*
X163433095Y-76255595D01*
X135707380Y-73667857D02*
X135231190Y-74001190D01*
X135707380Y-74239285D02*
X134707380Y-74239285D01*
X134707380Y-73858333D01*
X134755000Y-73763095D01*
X134802619Y-73715476D01*
X134897857Y-73667857D01*
X135040714Y-73667857D01*
X135135952Y-73715476D01*
X135183571Y-73763095D01*
X135231190Y-73858333D01*
X135231190Y-74239285D01*
X135707380Y-72715476D02*
X135707380Y-73286904D01*
X135707380Y-73001190D02*
X134707380Y-73001190D01*
X134850238Y-73096428D01*
X134945476Y-73191666D01*
X134993095Y-73286904D01*
X134802619Y-72334523D02*
X134755000Y-72286904D01*
X134707380Y-72191666D01*
X134707380Y-71953571D01*
X134755000Y-71858333D01*
X134802619Y-71810714D01*
X134897857Y-71763095D01*
X134993095Y-71763095D01*
X135135952Y-71810714D01*
X135707380Y-72382142D01*
X135707380Y-71763095D01*
X149899642Y-76334857D02*
X149947261Y-76382476D01*
X149994880Y-76525333D01*
X149994880Y-76620571D01*
X149947261Y-76763428D01*
X149852023Y-76858666D01*
X149756785Y-76906285D01*
X149566309Y-76953904D01*
X149423452Y-76953904D01*
X149232976Y-76906285D01*
X149137738Y-76858666D01*
X149042500Y-76763428D01*
X148994880Y-76620571D01*
X148994880Y-76525333D01*
X149042500Y-76382476D01*
X149090119Y-76334857D01*
X149090119Y-75953904D02*
X149042500Y-75906285D01*
X148994880Y-75811047D01*
X148994880Y-75572952D01*
X149042500Y-75477714D01*
X149090119Y-75430095D01*
X149185357Y-75382476D01*
X149280595Y-75382476D01*
X149423452Y-75430095D01*
X149994880Y-76001523D01*
X149994880Y-75382476D01*
X148994880Y-75049142D02*
X148994880Y-74430095D01*
X149375833Y-74763428D01*
X149375833Y-74620571D01*
X149423452Y-74525333D01*
X149471071Y-74477714D01*
X149566309Y-74430095D01*
X149804404Y-74430095D01*
X149899642Y-74477714D01*
X149947261Y-74525333D01*
X149994880Y-74620571D01*
X149994880Y-74906285D01*
X149947261Y-75001523D01*
X149899642Y-75049142D01*
X121031095Y-75969880D02*
X121031095Y-76779404D01*
X121078714Y-76874642D01*
X121126333Y-76922261D01*
X121221571Y-76969880D01*
X121412047Y-76969880D01*
X121507285Y-76922261D01*
X121554904Y-76874642D01*
X121602523Y-76779404D01*
X121602523Y-75969880D01*
X122602523Y-76969880D02*
X122031095Y-76969880D01*
X122316809Y-76969880D02*
X122316809Y-75969880D01*
X122221571Y-76112738D01*
X122126333Y-76207976D01*
X122031095Y-76255595D01*
X98036142Y-101576142D02*
X97988523Y-101623761D01*
X97845666Y-101671380D01*
X97750428Y-101671380D01*
X97607571Y-101623761D01*
X97512333Y-101528523D01*
X97464714Y-101433285D01*
X97417095Y-101242809D01*
X97417095Y-101099952D01*
X97464714Y-100909476D01*
X97512333Y-100814238D01*
X97607571Y-100719000D01*
X97750428Y-100671380D01*
X97845666Y-100671380D01*
X97988523Y-100719000D01*
X98036142Y-100766619D01*
X98988523Y-101671380D02*
X98417095Y-101671380D01*
X98702809Y-101671380D02*
X98702809Y-100671380D01*
X98607571Y-100814238D01*
X98512333Y-100909476D01*
X98417095Y-100957095D01*
X99321857Y-100671380D02*
X99940904Y-100671380D01*
X99607571Y-101052333D01*
X99750428Y-101052333D01*
X99845666Y-101099952D01*
X99893285Y-101147571D01*
X99940904Y-101242809D01*
X99940904Y-101480904D01*
X99893285Y-101576142D01*
X99845666Y-101623761D01*
X99750428Y-101671380D01*
X99464714Y-101671380D01*
X99369476Y-101623761D01*
X99321857Y-101576142D01*
X94698867Y-97013068D02*
X95460772Y-97013068D01*
X95079820Y-97394020D02*
X95079820Y-96632116D01*
X104560642Y-91447857D02*
X104608261Y-91495476D01*
X104655880Y-91638333D01*
X104655880Y-91733571D01*
X104608261Y-91876428D01*
X104513023Y-91971666D01*
X104417785Y-92019285D01*
X104227309Y-92066904D01*
X104084452Y-92066904D01*
X103893976Y-92019285D01*
X103798738Y-91971666D01*
X103703500Y-91876428D01*
X103655880Y-91733571D01*
X103655880Y-91638333D01*
X103703500Y-91495476D01*
X103751119Y-91447857D01*
X104655880Y-90495476D02*
X104655880Y-91066904D01*
X104655880Y-90781190D02*
X103655880Y-90781190D01*
X103798738Y-90876428D01*
X103893976Y-90971666D01*
X103941595Y-91066904D01*
X104655880Y-89543095D02*
X104655880Y-90114523D01*
X104655880Y-89828809D02*
X103655880Y-89828809D01*
X103798738Y-89924047D01*
X103893976Y-90019285D01*
X103941595Y-90114523D01*
X104687642Y-79192357D02*
X104735261Y-79239976D01*
X104782880Y-79382833D01*
X104782880Y-79478071D01*
X104735261Y-79620928D01*
X104640023Y-79716166D01*
X104544785Y-79763785D01*
X104354309Y-79811404D01*
X104211452Y-79811404D01*
X104020976Y-79763785D01*
X103925738Y-79716166D01*
X103830500Y-79620928D01*
X103782880Y-79478071D01*
X103782880Y-79382833D01*
X103830500Y-79239976D01*
X103878119Y-79192357D01*
X104782880Y-78239976D02*
X104782880Y-78811404D01*
X104782880Y-78525690D02*
X103782880Y-78525690D01*
X103925738Y-78620928D01*
X104020976Y-78716166D01*
X104068595Y-78811404D01*
X103782880Y-77620928D02*
X103782880Y-77525690D01*
X103830500Y-77430452D01*
X103878119Y-77382833D01*
X103973357Y-77335214D01*
X104163833Y-77287595D01*
X104401928Y-77287595D01*
X104592404Y-77335214D01*
X104687642Y-77382833D01*
X104735261Y-77430452D01*
X104782880Y-77525690D01*
X104782880Y-77620928D01*
X104735261Y-77716166D01*
X104687642Y-77763785D01*
X104592404Y-77811404D01*
X104401928Y-77859023D01*
X104163833Y-77859023D01*
X103973357Y-77811404D01*
X103878119Y-77763785D01*
X103830500Y-77716166D01*
X103782880Y-77620928D01*
X98481140Y-83991746D02*
X98481140Y-84467937D01*
X97481140Y-84467937D01*
X98481140Y-83134603D02*
X98481140Y-83706032D01*
X98481140Y-83420318D02*
X97481140Y-83420318D01*
X97623998Y-83515556D01*
X97719236Y-83610794D01*
X97766855Y-83706032D01*
X113736380Y-87606095D02*
X112736380Y-87606095D01*
X112736380Y-87225142D01*
X112784000Y-87129904D01*
X112831619Y-87082285D01*
X112926857Y-87034666D01*
X113069714Y-87034666D01*
X113164952Y-87082285D01*
X113212571Y-87129904D01*
X113260190Y-87225142D01*
X113260190Y-87606095D01*
X112736380Y-86701333D02*
X112736380Y-86082285D01*
X113117333Y-86415619D01*
X113117333Y-86272761D01*
X113164952Y-86177523D01*
X113212571Y-86129904D01*
X113307809Y-86082285D01*
X113545904Y-86082285D01*
X113641142Y-86129904D01*
X113688761Y-86177523D01*
X113736380Y-86272761D01*
X113736380Y-86558476D01*
X113688761Y-86653714D01*
X113641142Y-86701333D01*
X101671380Y-91384357D02*
X101195190Y-91717690D01*
X101671380Y-91955785D02*
X100671380Y-91955785D01*
X100671380Y-91574833D01*
X100719000Y-91479595D01*
X100766619Y-91431976D01*
X100861857Y-91384357D01*
X101004714Y-91384357D01*
X101099952Y-91431976D01*
X101147571Y-91479595D01*
X101195190Y-91574833D01*
X101195190Y-91955785D01*
X101671380Y-90431976D02*
X101671380Y-91003404D01*
X101671380Y-90717690D02*
X100671380Y-90717690D01*
X100814238Y-90812928D01*
X100909476Y-90908166D01*
X100957095Y-91003404D01*
X100671380Y-89574833D02*
X100671380Y-89765309D01*
X100719000Y-89860547D01*
X100766619Y-89908166D01*
X100909476Y-90003404D01*
X101099952Y-90051023D01*
X101480904Y-90051023D01*
X101576142Y-90003404D01*
X101623761Y-89955785D01*
X101671380Y-89860547D01*
X101671380Y-89670071D01*
X101623761Y-89574833D01*
X101576142Y-89527214D01*
X101480904Y-89479595D01*
X101242809Y-89479595D01*
X101147571Y-89527214D01*
X101099952Y-89574833D01*
X101052333Y-89670071D01*
X101052333Y-89860547D01*
X101099952Y-89955785D01*
X101147571Y-90003404D01*
X101242809Y-90051023D01*
X100131642Y-97289880D02*
X99798309Y-96813690D01*
X99560214Y-97289880D02*
X99560214Y-96289880D01*
X99941166Y-96289880D01*
X100036404Y-96337500D01*
X100084023Y-96385119D01*
X100131642Y-96480357D01*
X100131642Y-96623214D01*
X100084023Y-96718452D01*
X100036404Y-96766071D01*
X99941166Y-96813690D01*
X99560214Y-96813690D01*
X101084023Y-97289880D02*
X100512595Y-97289880D01*
X100798309Y-97289880D02*
X100798309Y-96289880D01*
X100703071Y-96432738D01*
X100607833Y-96527976D01*
X100512595Y-96575595D01*
X101417357Y-96289880D02*
X102084023Y-96289880D01*
X101655452Y-97289880D01*
X108497642Y-76334857D02*
X108545261Y-76382476D01*
X108592880Y-76525333D01*
X108592880Y-76620571D01*
X108545261Y-76763428D01*
X108450023Y-76858666D01*
X108354785Y-76906285D01*
X108164309Y-76953904D01*
X108021452Y-76953904D01*
X107830976Y-76906285D01*
X107735738Y-76858666D01*
X107640500Y-76763428D01*
X107592880Y-76620571D01*
X107592880Y-76525333D01*
X107640500Y-76382476D01*
X107688119Y-76334857D01*
X107688119Y-75953904D02*
X107640500Y-75906285D01*
X107592880Y-75811047D01*
X107592880Y-75572952D01*
X107640500Y-75477714D01*
X107688119Y-75430095D01*
X107783357Y-75382476D01*
X107878595Y-75382476D01*
X108021452Y-75430095D01*
X108592880Y-76001523D01*
X108592880Y-75382476D01*
X107592880Y-75049142D02*
X107592880Y-74430095D01*
X107973833Y-74763428D01*
X107973833Y-74620571D01*
X108021452Y-74525333D01*
X108069071Y-74477714D01*
X108164309Y-74430095D01*
X108402404Y-74430095D01*
X108497642Y-74477714D01*
X108545261Y-74525333D01*
X108592880Y-74620571D01*
X108592880Y-74906285D01*
X108545261Y-75001523D01*
X108497642Y-75049142D01*
X114276142Y-74048857D02*
X114323761Y-74096476D01*
X114371380Y-74239333D01*
X114371380Y-74334571D01*
X114323761Y-74477428D01*
X114228523Y-74572666D01*
X114133285Y-74620285D01*
X113942809Y-74667904D01*
X113799952Y-74667904D01*
X113609476Y-74620285D01*
X113514238Y-74572666D01*
X113419000Y-74477428D01*
X113371380Y-74334571D01*
X113371380Y-74239333D01*
X113419000Y-74096476D01*
X113466619Y-74048857D01*
X113466619Y-73667904D02*
X113419000Y-73620285D01*
X113371380Y-73525047D01*
X113371380Y-73286952D01*
X113419000Y-73191714D01*
X113466619Y-73144095D01*
X113561857Y-73096476D01*
X113657095Y-73096476D01*
X113799952Y-73144095D01*
X114371380Y-73715523D01*
X114371380Y-73096476D01*
X113371380Y-72763142D02*
X113371380Y-72096476D01*
X114371380Y-72525047D01*
X118371880Y-79732095D02*
X117371880Y-79732095D01*
X117371880Y-79351142D01*
X117419500Y-79255904D01*
X117467119Y-79208285D01*
X117562357Y-79160666D01*
X117705214Y-79160666D01*
X117800452Y-79208285D01*
X117848071Y-79255904D01*
X117895690Y-79351142D01*
X117895690Y-79732095D01*
X117371880Y-78255904D02*
X117371880Y-78732095D01*
X117848071Y-78779714D01*
X117800452Y-78732095D01*
X117752833Y-78636857D01*
X117752833Y-78398761D01*
X117800452Y-78303523D01*
X117848071Y-78255904D01*
X117943309Y-78208285D01*
X118181404Y-78208285D01*
X118276642Y-78255904D01*
X118324261Y-78303523D01*
X118371880Y-78398761D01*
X118371880Y-78636857D01*
X118324261Y-78732095D01*
X118276642Y-78779714D01*
X110017642Y-82843642D02*
X109970023Y-82891261D01*
X109827166Y-82938880D01*
X109731928Y-82938880D01*
X109589071Y-82891261D01*
X109493833Y-82796023D01*
X109446214Y-82700785D01*
X109398595Y-82510309D01*
X109398595Y-82367452D01*
X109446214Y-82176976D01*
X109493833Y-82081738D01*
X109589071Y-81986500D01*
X109731928Y-81938880D01*
X109827166Y-81938880D01*
X109970023Y-81986500D01*
X110017642Y-82034119D01*
X110398595Y-82034119D02*
X110446214Y-81986500D01*
X110541452Y-81938880D01*
X110779547Y-81938880D01*
X110874785Y-81986500D01*
X110922404Y-82034119D01*
X110970023Y-82129357D01*
X110970023Y-82224595D01*
X110922404Y-82367452D01*
X110350976Y-82938880D01*
X110970023Y-82938880D01*
X111541452Y-82367452D02*
X111446214Y-82319833D01*
X111398595Y-82272214D01*
X111350976Y-82176976D01*
X111350976Y-82129357D01*
X111398595Y-82034119D01*
X111446214Y-81986500D01*
X111541452Y-81938880D01*
X111731928Y-81938880D01*
X111827166Y-81986500D01*
X111874785Y-82034119D01*
X111922404Y-82129357D01*
X111922404Y-82176976D01*
X111874785Y-82272214D01*
X111827166Y-82319833D01*
X111731928Y-82367452D01*
X111541452Y-82367452D01*
X111446214Y-82415071D01*
X111398595Y-82462690D01*
X111350976Y-82557928D01*
X111350976Y-82748404D01*
X111398595Y-82843642D01*
X111446214Y-82891261D01*
X111541452Y-82938880D01*
X111731928Y-82938880D01*
X111827166Y-82891261D01*
X111874785Y-82843642D01*
X111922404Y-82748404D01*
X111922404Y-82557928D01*
X111874785Y-82462690D01*
X111827166Y-82415071D01*
X111731928Y-82367452D01*
X102211142Y-81732357D02*
X102258761Y-81779976D01*
X102306380Y-81922833D01*
X102306380Y-82018071D01*
X102258761Y-82160928D01*
X102163523Y-82256166D01*
X102068285Y-82303785D01*
X101877809Y-82351404D01*
X101734952Y-82351404D01*
X101544476Y-82303785D01*
X101449238Y-82256166D01*
X101354000Y-82160928D01*
X101306380Y-82018071D01*
X101306380Y-81922833D01*
X101354000Y-81779976D01*
X101401619Y-81732357D01*
X102306380Y-80779976D02*
X102306380Y-81351404D01*
X102306380Y-81065690D02*
X101306380Y-81065690D01*
X101449238Y-81160928D01*
X101544476Y-81256166D01*
X101592095Y-81351404D01*
X101401619Y-80399023D02*
X101354000Y-80351404D01*
X101306380Y-80256166D01*
X101306380Y-80018071D01*
X101354000Y-79922833D01*
X101401619Y-79875214D01*
X101496857Y-79827595D01*
X101592095Y-79827595D01*
X101734952Y-79875214D01*
X102306380Y-80446642D01*
X102306380Y-79827595D01*
X94241880Y-77160357D02*
X93765690Y-77493690D01*
X94241880Y-77731785D02*
X93241880Y-77731785D01*
X93241880Y-77350833D01*
X93289500Y-77255595D01*
X93337119Y-77207976D01*
X93432357Y-77160357D01*
X93575214Y-77160357D01*
X93670452Y-77207976D01*
X93718071Y-77255595D01*
X93765690Y-77350833D01*
X93765690Y-77731785D01*
X94241880Y-76207976D02*
X94241880Y-76779404D01*
X94241880Y-76493690D02*
X93241880Y-76493690D01*
X93384738Y-76588928D01*
X93479976Y-76684166D01*
X93527595Y-76779404D01*
X93241880Y-75588928D02*
X93241880Y-75493690D01*
X93289500Y-75398452D01*
X93337119Y-75350833D01*
X93432357Y-75303214D01*
X93622833Y-75255595D01*
X93860928Y-75255595D01*
X94051404Y-75303214D01*
X94146642Y-75350833D01*
X94194261Y-75398452D01*
X94241880Y-75493690D01*
X94241880Y-75588928D01*
X94194261Y-75684166D01*
X94146642Y-75731785D01*
X94051404Y-75779404D01*
X93860928Y-75827023D01*
X93622833Y-75827023D01*
X93432357Y-75779404D01*
X93337119Y-75731785D01*
X93289500Y-75684166D01*
X93241880Y-75588928D01*
X101607880Y-74302857D02*
X101131690Y-74636190D01*
X101607880Y-74874285D02*
X100607880Y-74874285D01*
X100607880Y-74493333D01*
X100655500Y-74398095D01*
X100703119Y-74350476D01*
X100798357Y-74302857D01*
X100941214Y-74302857D01*
X101036452Y-74350476D01*
X101084071Y-74398095D01*
X101131690Y-74493333D01*
X101131690Y-74874285D01*
X101607880Y-73350476D02*
X101607880Y-73921904D01*
X101607880Y-73636190D02*
X100607880Y-73636190D01*
X100750738Y-73731428D01*
X100845976Y-73826666D01*
X100893595Y-73921904D01*
X101607880Y-72398095D02*
X101607880Y-72969523D01*
X101607880Y-72683809D02*
X100607880Y-72683809D01*
X100750738Y-72779047D01*
X100845976Y-72874285D01*
X100893595Y-72969523D01*
X94305380Y-73667857D02*
X93829190Y-74001190D01*
X94305380Y-74239285D02*
X93305380Y-74239285D01*
X93305380Y-73858333D01*
X93353000Y-73763095D01*
X93400619Y-73715476D01*
X93495857Y-73667857D01*
X93638714Y-73667857D01*
X93733952Y-73715476D01*
X93781571Y-73763095D01*
X93829190Y-73858333D01*
X93829190Y-74239285D01*
X94305380Y-72715476D02*
X94305380Y-73286904D01*
X94305380Y-73001190D02*
X93305380Y-73001190D01*
X93448238Y-73096428D01*
X93543476Y-73191666D01*
X93591095Y-73286904D01*
X93400619Y-72334523D02*
X93353000Y-72286904D01*
X93305380Y-72191666D01*
X93305380Y-71953571D01*
X93353000Y-71858333D01*
X93400619Y-71810714D01*
X93495857Y-71763095D01*
X93591095Y-71763095D01*
X93733952Y-71810714D01*
X94305380Y-72382142D01*
X94305380Y-71763095D01*
X93432357Y-89019142D02*
X93384738Y-88971523D01*
X93337119Y-88828666D01*
X93337119Y-88733428D01*
X93384738Y-88590571D01*
X93479976Y-88495333D01*
X93575214Y-88447714D01*
X93765690Y-88400095D01*
X93908547Y-88400095D01*
X94099023Y-88447714D01*
X94194261Y-88495333D01*
X94289500Y-88590571D01*
X94337119Y-88733428D01*
X94337119Y-88828666D01*
X94289500Y-88971523D01*
X94241880Y-89019142D01*
X93337119Y-89971523D02*
X93337119Y-89400095D01*
X93337119Y-89685809D02*
X94337119Y-89685809D01*
X94194261Y-89590571D01*
X94099023Y-89495333D01*
X94051404Y-89400095D01*
X94337119Y-90304857D02*
X94337119Y-90971523D01*
X93337119Y-90542952D01*
X94337142Y-94114857D02*
X94384761Y-94162476D01*
X94432380Y-94305333D01*
X94432380Y-94400571D01*
X94384761Y-94543428D01*
X94289523Y-94638666D01*
X94194285Y-94686285D01*
X94003809Y-94733904D01*
X93860952Y-94733904D01*
X93670476Y-94686285D01*
X93575238Y-94638666D01*
X93480000Y-94543428D01*
X93432380Y-94400571D01*
X93432380Y-94305333D01*
X93480000Y-94162476D01*
X93527619Y-94114857D01*
X94432380Y-93162476D02*
X94432380Y-93733904D01*
X94432380Y-93448190D02*
X93432380Y-93448190D01*
X93575238Y-93543428D01*
X93670476Y-93638666D01*
X93718095Y-93733904D01*
X93860952Y-92591047D02*
X93813333Y-92686285D01*
X93765714Y-92733904D01*
X93670476Y-92781523D01*
X93622857Y-92781523D01*
X93527619Y-92733904D01*
X93480000Y-92686285D01*
X93432380Y-92591047D01*
X93432380Y-92400571D01*
X93480000Y-92305333D01*
X93527619Y-92257714D01*
X93622857Y-92210095D01*
X93670476Y-92210095D01*
X93765714Y-92257714D01*
X93813333Y-92305333D01*
X93860952Y-92400571D01*
X93860952Y-92591047D01*
X93908571Y-92686285D01*
X93956190Y-92733904D01*
X94051428Y-92781523D01*
X94241904Y-92781523D01*
X94337142Y-92733904D01*
X94384761Y-92686285D01*
X94432380Y-92591047D01*
X94432380Y-92400571D01*
X94384761Y-92305333D01*
X94337142Y-92257714D01*
X94241904Y-92210095D01*
X94051428Y-92210095D01*
X93956190Y-92257714D01*
X93908571Y-92305333D01*
X93860952Y-92400571D01*
X94559380Y-86240857D02*
X94083190Y-86574190D01*
X94559380Y-86812285D02*
X93559380Y-86812285D01*
X93559380Y-86431333D01*
X93607000Y-86336095D01*
X93654619Y-86288476D01*
X93749857Y-86240857D01*
X93892714Y-86240857D01*
X93987952Y-86288476D01*
X94035571Y-86336095D01*
X94083190Y-86431333D01*
X94083190Y-86812285D01*
X93654619Y-85859904D02*
X93607000Y-85812285D01*
X93559380Y-85717047D01*
X93559380Y-85478952D01*
X93607000Y-85383714D01*
X93654619Y-85336095D01*
X93749857Y-85288476D01*
X93845095Y-85288476D01*
X93987952Y-85336095D01*
X94559380Y-85907523D01*
X94559380Y-85288476D01*
X93654619Y-84907523D02*
X93607000Y-84859904D01*
X93559380Y-84764666D01*
X93559380Y-84526571D01*
X93607000Y-84431333D01*
X93654619Y-84383714D01*
X93749857Y-84336095D01*
X93845095Y-84336095D01*
X93987952Y-84383714D01*
X94559380Y-84955142D01*
X94559380Y-84336095D01*
X96639142Y-97289880D02*
X96305809Y-96813690D01*
X96067714Y-97289880D02*
X96067714Y-96289880D01*
X96448666Y-96289880D01*
X96543904Y-96337500D01*
X96591523Y-96385119D01*
X96639142Y-96480357D01*
X96639142Y-96623214D01*
X96591523Y-96718452D01*
X96543904Y-96766071D01*
X96448666Y-96813690D01*
X96067714Y-96813690D01*
X97020095Y-96385119D02*
X97067714Y-96337500D01*
X97162952Y-96289880D01*
X97401047Y-96289880D01*
X97496285Y-96337500D01*
X97543904Y-96385119D01*
X97591523Y-96480357D01*
X97591523Y-96575595D01*
X97543904Y-96718452D01*
X96972476Y-97289880D01*
X97591523Y-97289880D01*
X98448666Y-96623214D02*
X98448666Y-97289880D01*
X98210571Y-96242261D02*
X97972476Y-96956547D01*
X98591523Y-96956547D01*
X102147642Y-78525666D02*
X102195261Y-78573285D01*
X102242880Y-78716142D01*
X102242880Y-78811380D01*
X102195261Y-78954238D01*
X102100023Y-79049476D01*
X102004785Y-79097095D01*
X101814309Y-79144714D01*
X101671452Y-79144714D01*
X101480976Y-79097095D01*
X101385738Y-79049476D01*
X101290500Y-78954238D01*
X101242880Y-78811380D01*
X101242880Y-78716142D01*
X101290500Y-78573285D01*
X101338119Y-78525666D01*
X101242880Y-78192333D02*
X101242880Y-77525666D01*
X102242880Y-77954238D01*
X94210142Y-79859166D02*
X94257761Y-79906785D01*
X94305380Y-80049642D01*
X94305380Y-80144880D01*
X94257761Y-80287738D01*
X94162523Y-80382976D01*
X94067285Y-80430595D01*
X93876809Y-80478214D01*
X93733952Y-80478214D01*
X93543476Y-80430595D01*
X93448238Y-80382976D01*
X93353000Y-80287738D01*
X93305380Y-80144880D01*
X93305380Y-80049642D01*
X93353000Y-79906785D01*
X93400619Y-79859166D01*
X93733952Y-79287738D02*
X93686333Y-79382976D01*
X93638714Y-79430595D01*
X93543476Y-79478214D01*
X93495857Y-79478214D01*
X93400619Y-79430595D01*
X93353000Y-79382976D01*
X93305380Y-79287738D01*
X93305380Y-79097261D01*
X93353000Y-79002023D01*
X93400619Y-78954404D01*
X93495857Y-78906785D01*
X93543476Y-78906785D01*
X93638714Y-78954404D01*
X93686333Y-79002023D01*
X93733952Y-79097261D01*
X93733952Y-79287738D01*
X93781571Y-79382976D01*
X93829190Y-79430595D01*
X93924428Y-79478214D01*
X94114904Y-79478214D01*
X94210142Y-79430595D01*
X94257761Y-79382976D01*
X94305380Y-79287738D01*
X94305380Y-79097261D01*
X94257761Y-79002023D01*
X94210142Y-78954404D01*
X94114904Y-78906785D01*
X93924428Y-78906785D01*
X93829190Y-78954404D01*
X93781571Y-79002023D01*
X93733952Y-79097261D01*
X110979142Y-92170857D02*
X111026761Y-92218476D01*
X111074380Y-92361333D01*
X111074380Y-92456571D01*
X111026761Y-92599428D01*
X110931523Y-92694666D01*
X110836285Y-92742285D01*
X110645809Y-92789904D01*
X110502952Y-92789904D01*
X110312476Y-92742285D01*
X110217238Y-92694666D01*
X110122000Y-92599428D01*
X110074380Y-92456571D01*
X110074380Y-92361333D01*
X110122000Y-92218476D01*
X110169619Y-92170857D01*
X110169619Y-91789904D02*
X110122000Y-91742285D01*
X110074380Y-91647047D01*
X110074380Y-91408952D01*
X110122000Y-91313714D01*
X110169619Y-91266095D01*
X110264857Y-91218476D01*
X110360095Y-91218476D01*
X110502952Y-91266095D01*
X111074380Y-91837523D01*
X111074380Y-91218476D01*
X110074380Y-90361333D02*
X110074380Y-90551809D01*
X110122000Y-90647047D01*
X110169619Y-90694666D01*
X110312476Y-90789904D01*
X110502952Y-90837523D01*
X110883904Y-90837523D01*
X110979142Y-90789904D01*
X111026761Y-90742285D01*
X111074380Y-90647047D01*
X111074380Y-90456571D01*
X111026761Y-90361333D01*
X110979142Y-90313714D01*
X110883904Y-90266095D01*
X110645809Y-90266095D01*
X110550571Y-90313714D01*
X110502952Y-90361333D01*
X110455333Y-90456571D01*
X110455333Y-90647047D01*
X110502952Y-90742285D01*
X110550571Y-90789904D01*
X110645809Y-90837523D01*
X155422000Y-118274500D02*
X158522000Y-118274500D01*
X155422000Y-119824500D02*
X155422000Y-118274500D01*
X158242000Y-121094500D02*
X155702000Y-121094500D01*
X155702000Y-128714500D02*
X158242000Y-128714500D01*
X158522000Y-118274500D02*
X158522000Y-119824500D01*
X158242000Y-121094500D02*
X158242000Y-128714500D01*
X155702000Y-121094500D02*
X155702000Y-128714500D01*
D13*
X147942000Y-121113500D02*
X143142000Y-121113500D01*
X143142000Y-121113500D02*
X143142000Y-130713500D01*
X147942000Y-121113500D02*
X147942000Y-130713500D01*
X151011000Y-117499500D02*
X152011000Y-117499500D01*
X152011000Y-115799500D02*
X151011000Y-115799500D01*
D12*
X141997400Y-124243540D02*
X141997400Y-125443540D01*
X140247400Y-125443540D02*
X140247400Y-124243540D01*
D13*
X152523000Y-110759500D02*
X152523000Y-112759500D01*
X154563000Y-112759500D02*
X154563000Y-110759500D01*
D12*
X139791820Y-117809400D02*
X140791820Y-117809400D01*
X140791820Y-116109400D02*
X139791820Y-116109400D01*
X137756000Y-125222900D02*
X137756000Y-124222900D01*
X136056000Y-124222900D02*
X136056000Y-125222900D01*
X138162060Y-130413060D02*
X138162060Y-129213060D01*
X139912060Y-129213060D02*
X139912060Y-130413060D01*
X139776580Y-115274460D02*
X140776580Y-115274460D01*
X140776580Y-113574460D02*
X139776580Y-113574460D01*
X141979620Y-110126220D02*
X141979620Y-111326220D01*
X140229620Y-111326220D02*
X140229620Y-110126220D01*
X139876500Y-124224500D02*
X139876500Y-125424500D01*
X138126500Y-125424500D02*
X138126500Y-124224500D01*
X142240000Y-121539000D02*
X142240000Y-118491000D01*
X138557000Y-118491000D02*
X136652000Y-118491000D01*
X136652000Y-118491000D02*
X136652000Y-121539000D01*
X136652000Y-121539000D02*
X138557000Y-121539000D01*
X140208000Y-121539000D02*
X142240000Y-121539000D01*
X142040000Y-121539000D02*
X142040000Y-118491000D01*
X142240000Y-118491000D02*
X140208000Y-118491000D01*
X137480040Y-136009380D02*
X142681960Y-136009380D01*
X142681960Y-133611620D02*
X137480040Y-133611620D01*
X136481820Y-132511800D02*
X136481820Y-133611620D01*
X135882380Y-133012180D02*
X137081260Y-133012180D01*
X136984740Y-133611620D02*
X136984740Y-136009380D01*
X136066160Y-129447680D02*
X136066160Y-130447680D01*
X137766160Y-130447680D02*
X137766160Y-129447680D01*
X137491840Y-116283360D02*
X137491840Y-115283360D01*
X135791840Y-115283360D02*
X135791840Y-116283360D01*
D13*
X152774000Y-127096000D02*
X152774000Y-128096000D01*
X154474000Y-128096000D02*
X154474000Y-127096000D01*
X147942000Y-108794500D02*
X143142000Y-108794500D01*
X143142000Y-108794500D02*
X143142000Y-118394500D01*
X147942000Y-108794500D02*
X147942000Y-118394500D01*
D12*
X141999940Y-129200360D02*
X141999940Y-130400360D01*
X140249940Y-130400360D02*
X140249940Y-129200360D01*
X173446440Y-122407200D02*
X173446440Y-121107200D01*
X173446440Y-121107200D02*
X159946440Y-121107200D01*
X159946440Y-121107200D02*
X159946440Y-122407200D01*
X137527000Y-110114800D02*
X137527000Y-111314800D01*
X135777000Y-111314800D02*
X135777000Y-110114800D01*
X158574000Y-117746000D02*
X155474000Y-117746000D01*
X158574000Y-116196000D02*
X158574000Y-117746000D01*
X155754000Y-114926000D02*
X158294000Y-114926000D01*
X155474000Y-117746000D02*
X155474000Y-116196000D01*
X155754000Y-109846000D02*
X155754000Y-114926000D01*
X158294000Y-109846000D02*
X155754000Y-109846000D01*
X158294000Y-114926000D02*
X158294000Y-109846000D01*
D13*
X167485500Y-114725500D02*
X161475500Y-114725500D01*
X165235500Y-107905500D02*
X161475500Y-107905500D01*
X161475500Y-114725500D02*
X161475500Y-113465500D01*
X161475500Y-107905500D02*
X161475500Y-109165500D01*
D12*
X139813000Y-110118600D02*
X139813000Y-111318600D01*
X138063000Y-111318600D02*
X138063000Y-110118600D01*
D13*
X150237000Y-110791500D02*
X150237000Y-112791500D01*
X152277000Y-112791500D02*
X152277000Y-110791500D01*
D12*
X114020000Y-118274500D02*
X117120000Y-118274500D01*
X114020000Y-119824500D02*
X114020000Y-118274500D01*
X116840000Y-121094500D02*
X114300000Y-121094500D01*
X114300000Y-128714500D02*
X116840000Y-128714500D01*
X117120000Y-118274500D02*
X117120000Y-119824500D01*
X116840000Y-121094500D02*
X116840000Y-128714500D01*
X114300000Y-121094500D02*
X114300000Y-128714500D01*
D13*
X106540000Y-121113500D02*
X101740000Y-121113500D01*
X101740000Y-121113500D02*
X101740000Y-130713500D01*
X106540000Y-121113500D02*
X106540000Y-130713500D01*
X109609000Y-117499500D02*
X110609000Y-117499500D01*
X110609000Y-115799500D02*
X109609000Y-115799500D01*
D12*
X100595400Y-124243540D02*
X100595400Y-125443540D01*
X98845400Y-125443540D02*
X98845400Y-124243540D01*
D13*
X111121000Y-110759500D02*
X111121000Y-112759500D01*
X113161000Y-112759500D02*
X113161000Y-110759500D01*
D12*
X98389820Y-117809400D02*
X99389820Y-117809400D01*
X99389820Y-116109400D02*
X98389820Y-116109400D01*
X96354000Y-125222900D02*
X96354000Y-124222900D01*
X94654000Y-124222900D02*
X94654000Y-125222900D01*
X96760060Y-130413060D02*
X96760060Y-129213060D01*
X98510060Y-129213060D02*
X98510060Y-130413060D01*
X98374580Y-115274460D02*
X99374580Y-115274460D01*
X99374580Y-113574460D02*
X98374580Y-113574460D01*
X100577620Y-110126220D02*
X100577620Y-111326220D01*
X98827620Y-111326220D02*
X98827620Y-110126220D01*
X98474500Y-124224500D02*
X98474500Y-125424500D01*
X96724500Y-125424500D02*
X96724500Y-124224500D01*
X100838000Y-121539000D02*
X100838000Y-118491000D01*
X97155000Y-118491000D02*
X95250000Y-118491000D01*
X95250000Y-118491000D02*
X95250000Y-121539000D01*
X95250000Y-121539000D02*
X97155000Y-121539000D01*
X98806000Y-121539000D02*
X100838000Y-121539000D01*
X100638000Y-121539000D02*
X100638000Y-118491000D01*
X100838000Y-118491000D02*
X98806000Y-118491000D01*
X96078040Y-136009380D02*
X101279960Y-136009380D01*
X101279960Y-133611620D02*
X96078040Y-133611620D01*
X95079820Y-132511800D02*
X95079820Y-133611620D01*
X94480380Y-133012180D02*
X95679260Y-133012180D01*
X95582740Y-133611620D02*
X95582740Y-136009380D01*
X94664160Y-129447680D02*
X94664160Y-130447680D01*
X96364160Y-130447680D02*
X96364160Y-129447680D01*
X96089840Y-116283360D02*
X96089840Y-115283360D01*
X94389840Y-115283360D02*
X94389840Y-116283360D01*
D13*
X111372000Y-127096000D02*
X111372000Y-128096000D01*
X113072000Y-128096000D02*
X113072000Y-127096000D01*
X106540000Y-108794500D02*
X101740000Y-108794500D01*
X101740000Y-108794500D02*
X101740000Y-118394500D01*
X106540000Y-108794500D02*
X106540000Y-118394500D01*
D12*
X100597940Y-129200360D02*
X100597940Y-130400360D01*
X98847940Y-130400360D02*
X98847940Y-129200360D01*
X132044440Y-122407200D02*
X132044440Y-121107200D01*
X132044440Y-121107200D02*
X118544440Y-121107200D01*
X118544440Y-121107200D02*
X118544440Y-122407200D01*
X96125000Y-110114800D02*
X96125000Y-111314800D01*
X94375000Y-111314800D02*
X94375000Y-110114800D01*
X117172000Y-117746000D02*
X114072000Y-117746000D01*
X117172000Y-116196000D02*
X117172000Y-117746000D01*
X114352000Y-114926000D02*
X116892000Y-114926000D01*
X114072000Y-117746000D02*
X114072000Y-116196000D01*
X114352000Y-109846000D02*
X114352000Y-114926000D01*
X116892000Y-109846000D02*
X114352000Y-109846000D01*
X116892000Y-114926000D02*
X116892000Y-109846000D01*
D13*
X126083500Y-114725500D02*
X120073500Y-114725500D01*
X123833500Y-107905500D02*
X120073500Y-107905500D01*
X120073500Y-114725500D02*
X120073500Y-113465500D01*
X120073500Y-107905500D02*
X120073500Y-109165500D01*
D12*
X98411000Y-110118600D02*
X98411000Y-111318600D01*
X96661000Y-111318600D02*
X96661000Y-110118600D01*
D13*
X108835000Y-110791500D02*
X108835000Y-112791500D01*
X110875000Y-112791500D02*
X110875000Y-110791500D01*
D12*
X155422000Y-82206500D02*
X158522000Y-82206500D01*
X155422000Y-83756500D02*
X155422000Y-82206500D01*
X158242000Y-85026500D02*
X155702000Y-85026500D01*
X155702000Y-92646500D02*
X158242000Y-92646500D01*
X158522000Y-82206500D02*
X158522000Y-83756500D01*
X158242000Y-85026500D02*
X158242000Y-92646500D01*
X155702000Y-85026500D02*
X155702000Y-92646500D01*
D13*
X147942000Y-85045500D02*
X143142000Y-85045500D01*
X143142000Y-85045500D02*
X143142000Y-94645500D01*
X147942000Y-85045500D02*
X147942000Y-94645500D01*
X151011000Y-81431500D02*
X152011000Y-81431500D01*
X152011000Y-79731500D02*
X151011000Y-79731500D01*
D12*
X141997400Y-88175540D02*
X141997400Y-89375540D01*
X140247400Y-89375540D02*
X140247400Y-88175540D01*
D13*
X152523000Y-74691500D02*
X152523000Y-76691500D01*
X154563000Y-76691500D02*
X154563000Y-74691500D01*
D12*
X139791820Y-81741400D02*
X140791820Y-81741400D01*
X140791820Y-80041400D02*
X139791820Y-80041400D01*
X137756000Y-89154900D02*
X137756000Y-88154900D01*
X136056000Y-88154900D02*
X136056000Y-89154900D01*
X138162060Y-94345060D02*
X138162060Y-93145060D01*
X139912060Y-93145060D02*
X139912060Y-94345060D01*
X139776580Y-79206460D02*
X140776580Y-79206460D01*
X140776580Y-77506460D02*
X139776580Y-77506460D01*
X141979620Y-74058220D02*
X141979620Y-75258220D01*
X140229620Y-75258220D02*
X140229620Y-74058220D01*
X139876500Y-88156500D02*
X139876500Y-89356500D01*
X138126500Y-89356500D02*
X138126500Y-88156500D01*
X142240000Y-85471000D02*
X142240000Y-82423000D01*
X138557000Y-82423000D02*
X136652000Y-82423000D01*
X136652000Y-82423000D02*
X136652000Y-85471000D01*
X136652000Y-85471000D02*
X138557000Y-85471000D01*
X140208000Y-85471000D02*
X142240000Y-85471000D01*
X142040000Y-85471000D02*
X142040000Y-82423000D01*
X142240000Y-82423000D02*
X140208000Y-82423000D01*
X137480040Y-99941380D02*
X142681960Y-99941380D01*
X142681960Y-97543620D02*
X137480040Y-97543620D01*
X136481820Y-96443800D02*
X136481820Y-97543620D01*
X135882380Y-96944180D02*
X137081260Y-96944180D01*
X136984740Y-97543620D02*
X136984740Y-99941380D01*
X136066160Y-93379680D02*
X136066160Y-94379680D01*
X137766160Y-94379680D02*
X137766160Y-93379680D01*
X137491840Y-80215360D02*
X137491840Y-79215360D01*
X135791840Y-79215360D02*
X135791840Y-80215360D01*
D13*
X152774000Y-91028000D02*
X152774000Y-92028000D01*
X154474000Y-92028000D02*
X154474000Y-91028000D01*
X147942000Y-72726500D02*
X143142000Y-72726500D01*
X143142000Y-72726500D02*
X143142000Y-82326500D01*
X147942000Y-72726500D02*
X147942000Y-82326500D01*
D12*
X141999940Y-93132360D02*
X141999940Y-94332360D01*
X140249940Y-94332360D02*
X140249940Y-93132360D01*
X173446440Y-86339200D02*
X173446440Y-85039200D01*
X173446440Y-85039200D02*
X159946440Y-85039200D01*
X159946440Y-85039200D02*
X159946440Y-86339200D01*
X137527000Y-74046800D02*
X137527000Y-75246800D01*
X135777000Y-75246800D02*
X135777000Y-74046800D01*
X158574000Y-81678000D02*
X155474000Y-81678000D01*
X158574000Y-80128000D02*
X158574000Y-81678000D01*
X155754000Y-78858000D02*
X158294000Y-78858000D01*
X155474000Y-81678000D02*
X155474000Y-80128000D01*
X155754000Y-73778000D02*
X155754000Y-78858000D01*
X158294000Y-73778000D02*
X155754000Y-73778000D01*
X158294000Y-78858000D02*
X158294000Y-73778000D01*
D13*
X167485500Y-78657500D02*
X161475500Y-78657500D01*
X165235500Y-71837500D02*
X161475500Y-71837500D01*
X161475500Y-78657500D02*
X161475500Y-77397500D01*
X161475500Y-71837500D02*
X161475500Y-73097500D01*
D12*
X139813000Y-74050600D02*
X139813000Y-75250600D01*
X138063000Y-75250600D02*
X138063000Y-74050600D01*
D13*
X150237000Y-74723500D02*
X150237000Y-76723500D01*
X152277000Y-76723500D02*
X152277000Y-74723500D01*
D12*
X118544440Y-85039200D02*
X118544440Y-86339200D01*
X132044440Y-85039200D02*
X118544440Y-85039200D01*
X132044440Y-86339200D02*
X132044440Y-85039200D01*
D13*
X120073500Y-71837500D02*
X120073500Y-73097500D01*
X120073500Y-78657500D02*
X120073500Y-77397500D01*
X123833500Y-71837500D02*
X120073500Y-71837500D01*
X126083500Y-78657500D02*
X120073500Y-78657500D01*
D12*
X95582740Y-97543620D02*
X95582740Y-99941380D01*
X94480380Y-96944180D02*
X95679260Y-96944180D01*
X95079820Y-96443800D02*
X95079820Y-97543620D01*
X101279960Y-97543620D02*
X96078040Y-97543620D01*
X96078040Y-99941380D02*
X101279960Y-99941380D01*
D13*
X106540000Y-85045500D02*
X106540000Y-94645500D01*
X101740000Y-85045500D02*
X101740000Y-94645500D01*
X106540000Y-85045500D02*
X101740000Y-85045500D01*
X106540000Y-72726500D02*
X106540000Y-82326500D01*
X101740000Y-72726500D02*
X101740000Y-82326500D01*
X106540000Y-72726500D02*
X101740000Y-72726500D01*
D12*
X100838000Y-82423000D02*
X98806000Y-82423000D01*
X100638000Y-85471000D02*
X100638000Y-82423000D01*
X98806000Y-85471000D02*
X100838000Y-85471000D01*
X95250000Y-85471000D02*
X97155000Y-85471000D01*
X95250000Y-82423000D02*
X95250000Y-85471000D01*
X97155000Y-82423000D02*
X95250000Y-82423000D01*
X100838000Y-85471000D02*
X100838000Y-82423000D01*
X114300000Y-85026500D02*
X114300000Y-92646500D01*
X116840000Y-85026500D02*
X116840000Y-92646500D01*
X117120000Y-82206500D02*
X117120000Y-83756500D01*
X114300000Y-92646500D02*
X116840000Y-92646500D01*
X116840000Y-85026500D02*
X114300000Y-85026500D01*
X114020000Y-83756500D02*
X114020000Y-82206500D01*
X114020000Y-82206500D02*
X117120000Y-82206500D01*
X98845400Y-89375540D02*
X98845400Y-88175540D01*
X100595400Y-88175540D02*
X100595400Y-89375540D01*
X98847940Y-94332360D02*
X98847940Y-93132360D01*
X100597940Y-93132360D02*
X100597940Y-94332360D01*
D13*
X110875000Y-76723500D02*
X110875000Y-74723500D01*
X108835000Y-74723500D02*
X108835000Y-76723500D01*
X113161000Y-76691500D02*
X113161000Y-74691500D01*
X111121000Y-74691500D02*
X111121000Y-76691500D01*
D12*
X116892000Y-78858000D02*
X116892000Y-73778000D01*
X116892000Y-73778000D02*
X114352000Y-73778000D01*
X114352000Y-73778000D02*
X114352000Y-78858000D01*
X114072000Y-81678000D02*
X114072000Y-80128000D01*
X114352000Y-78858000D02*
X116892000Y-78858000D01*
X117172000Y-80128000D02*
X117172000Y-81678000D01*
X117172000Y-81678000D02*
X114072000Y-81678000D01*
D13*
X110609000Y-79731500D02*
X109609000Y-79731500D01*
X109609000Y-81431500D02*
X110609000Y-81431500D01*
D12*
X99389820Y-80041400D02*
X98389820Y-80041400D01*
X98389820Y-81741400D02*
X99389820Y-81741400D01*
X94375000Y-75246800D02*
X94375000Y-74046800D01*
X96125000Y-74046800D02*
X96125000Y-75246800D01*
X98827620Y-75258220D02*
X98827620Y-74058220D01*
X100577620Y-74058220D02*
X100577620Y-75258220D01*
X96661000Y-75250600D02*
X96661000Y-74050600D01*
X98411000Y-74050600D02*
X98411000Y-75250600D01*
X94654000Y-88154900D02*
X94654000Y-89154900D01*
X96354000Y-89154900D02*
X96354000Y-88154900D01*
X96364160Y-94379680D02*
X96364160Y-93379680D01*
X94664160Y-93379680D02*
X94664160Y-94379680D01*
X96724500Y-89356500D02*
X96724500Y-88156500D01*
X98474500Y-88156500D02*
X98474500Y-89356500D01*
X98510060Y-93145060D02*
X98510060Y-94345060D01*
X96760060Y-94345060D02*
X96760060Y-93145060D01*
X99374580Y-77506460D02*
X98374580Y-77506460D01*
X98374580Y-79206460D02*
X99374580Y-79206460D01*
X94389840Y-79215360D02*
X94389840Y-80215360D01*
X96089840Y-80215360D02*
X96089840Y-79215360D01*
D13*
X113072000Y-92028000D02*
X113072000Y-91028000D01*
X111372000Y-91028000D02*
X111372000Y-92028000D01*
D14*
X156972000Y-119824500D03*
D15*
X156972000Y-122364500D03*
X156972000Y-124904500D03*
X156972000Y-127444500D03*
D14*
X157024000Y-116196000D03*
D15*
X157024000Y-113656000D03*
X157024000Y-111116000D03*
D14*
X115570000Y-119824500D03*
D15*
X115570000Y-122364500D03*
X115570000Y-124904500D03*
X115570000Y-127444500D03*
D14*
X115622000Y-116196000D03*
D15*
X115622000Y-113656000D03*
X115622000Y-111116000D03*
D14*
X156972000Y-83756500D03*
D15*
X156972000Y-86296500D03*
X156972000Y-88836500D03*
X156972000Y-91376500D03*
D14*
X157024000Y-80128000D03*
D15*
X157024000Y-77588000D03*
X157024000Y-75048000D03*
X115570000Y-91376500D03*
X115570000Y-88836500D03*
X115570000Y-86296500D03*
D14*
X115570000Y-83756500D03*
D15*
X115622000Y-75048000D03*
X115622000Y-77588000D03*
D14*
X115622000Y-80128000D03*
M02*
