M48
; DRILL file {KiCad 5.99.0-unknown-6083c08~88~ubuntu18.04.1} date Wed Apr 28 16:00:42 2021
; FORMAT={-:-/ absolute / metric / decimal}
; #@! TF.CreationDate,2021-04-28T16:00:42+02:00
; #@! TF.GenerationSoftware,Kicad,Pcbnew,5.99.0-unknown-6083c08~88~ubuntu18.04.1
FMAT,2
METRIC
T1C0.400
T2C1.000
T3C1.016
%
G90
G05
T1
X94.894Y-82.804
X94.894Y-118.872
X95.25Y-86.296
X95.25Y-122.364
X95.567Y-97.028
X95.567Y-133.096
X97.282Y-93.789
X97.282Y-129.857
X98.742Y-96.378
X98.742Y-132.446
X99.971Y-88.815
X99.971Y-124.883
X100.503Y-85.979
X100.503Y-122.047
X100.901Y-75.057
X100.901Y-111.125
X109.156Y-81.788
X109.156Y-117.856
X109.537Y-92.9
X109.537Y-128.969
X110.422Y-95.528
X110.422Y-131.596
X111.125Y-81.852
X111.125Y-117.919
X112.791Y-96.962
X112.791Y-133.03
X113.03Y-99.06
X113.03Y-135.128
X115.684Y-99.299
X115.684Y-135.367
X117.005Y-103.609
X117.005Y-139.677
X118.491Y-85.598
X118.491Y-121.666
X119.634Y-80.772
X119.634Y-116.84
X119.827Y-100.312
X119.827Y-136.38
X120.142Y-95.504
X120.142Y-131.572
X120.65Y-91.757
X120.65Y-127.825
X121.158Y-76.327
X121.158Y-112.395
X121.412Y-73.025
X121.412Y-109.093
X125.73Y-94.488
X125.73Y-130.556
X126.746Y-94.488
X126.746Y-130.556
X127.254Y-89.535
X127.254Y-125.603
X127.381Y-79.248
X127.381Y-115.316
X128.524Y-91.821
X128.524Y-127.889
X129.984Y-89.535
X129.984Y-125.603
X130.112Y-86.233
X130.112Y-122.301
X130.365Y-102.616
X130.365Y-138.684
X130.81Y-92.456
X130.81Y-93.472
X130.81Y-128.524
X130.81Y-129.54
X132.143Y-76.2
X132.143Y-112.268
X132.969Y-77.597
X132.969Y-113.665
X136.296Y-82.804
X136.296Y-118.872
X136.652Y-86.296
X136.652Y-122.364
X136.969Y-97.028
X136.969Y-133.096
X138.684Y-93.789
X138.684Y-129.857
X140.144Y-96.378
X140.144Y-132.446
X141.373Y-88.815
X141.373Y-124.883
X141.905Y-85.979
X141.905Y-122.047
X142.303Y-75.057
X142.303Y-111.125
X150.558Y-81.788
X150.558Y-117.856
X150.939Y-92.9
X150.939Y-128.969
X151.824Y-95.528
X151.824Y-131.596
X152.527Y-81.852
X152.527Y-117.919
X154.193Y-96.962
X154.193Y-133.03
X154.432Y-99.06
X154.432Y-135.128
X157.086Y-99.299
X157.086Y-135.367
X158.407Y-103.609
X158.407Y-139.677
X159.893Y-85.598
X159.893Y-121.666
X161.036Y-80.772
X161.036Y-116.84
X161.229Y-100.312
X161.229Y-136.38
X161.544Y-95.504
X161.544Y-131.572
X162.052Y-91.757
X162.052Y-127.825
X162.56Y-76.327
X162.56Y-112.395
X162.814Y-73.025
X162.814Y-109.093
X167.132Y-94.488
X167.132Y-130.556
X168.148Y-94.488
X168.148Y-130.556
X168.656Y-89.535
X168.656Y-125.603
X168.783Y-79.248
X168.783Y-115.316
X169.926Y-91.821
X169.926Y-127.889
X171.386Y-89.535
X171.386Y-125.603
X171.513Y-86.233
X171.513Y-122.301
X171.767Y-102.616
X171.767Y-138.684
X172.212Y-92.456
X172.212Y-93.472
X172.212Y-128.524
X172.212Y-129.54
X173.546Y-76.2
X173.546Y-112.268
X174.371Y-77.597
X174.371Y-113.665
T2
X136.693Y-106.71
X139.233Y-106.71
X141.773Y-106.71
X144.313Y-106.71
X146.853Y-106.71
X149.393Y-106.71
X151.933Y-106.71
X154.473Y-106.71
X157.013Y-106.71
X159.553Y-106.71
X162.093Y-106.71
X164.633Y-106.71
X136.693Y-70.642
X139.233Y-70.642
X141.773Y-70.642
X144.313Y-70.642
X146.853Y-70.642
X149.393Y-70.642
X151.933Y-70.642
X154.473Y-70.642
X157.013Y-70.642
X159.553Y-70.642
X162.093Y-70.642
X164.633Y-70.642
X95.291Y-106.71
X97.831Y-106.71
X100.371Y-106.71
X102.911Y-106.71
X105.451Y-106.71
X107.991Y-106.71
X110.531Y-106.71
X113.071Y-106.71
X115.611Y-106.71
X118.151Y-106.71
X120.691Y-106.71
X123.231Y-106.71
X95.291Y-70.642
X97.831Y-70.642
X100.371Y-70.642
X102.911Y-70.642
X105.451Y-70.642
X107.991Y-70.642
X110.531Y-70.642
X113.071Y-70.642
X115.611Y-70.642
X118.151Y-70.642
X120.691Y-70.642
X123.231Y-70.642
T3
X121.158Y-80.772
X123.698Y-80.772
X126.238Y-80.772
X128.778Y-80.772
X131.318Y-80.772
X156.972Y-119.825
X156.972Y-122.364
X156.972Y-124.904
X156.972Y-127.444
X156.972Y-83.757
X156.972Y-86.296
X156.972Y-88.837
X156.972Y-91.376
X162.56Y-116.84
X165.1Y-116.84
X167.64Y-116.84
X170.18Y-116.84
X172.72Y-116.84
X157.024Y-111.116
X157.024Y-113.656
X157.024Y-116.196
X115.622Y-75.048
X115.622Y-77.588
X115.622Y-80.128
X157.024Y-75.048
X157.024Y-77.588
X157.024Y-80.128
X115.57Y-119.825
X115.57Y-122.364
X115.57Y-124.904
X115.57Y-127.444
X162.56Y-80.772
X165.1Y-80.772
X167.64Y-80.772
X170.18Y-80.772
X172.72Y-80.772
X121.158Y-116.84
X123.698Y-116.84
X126.238Y-116.84
X128.778Y-116.84
X131.318Y-116.84
X115.622Y-111.116
X115.622Y-113.656
X115.622Y-116.196
X115.57Y-83.757
X115.57Y-86.296
X115.57Y-88.837
X115.57Y-91.376
T0
M30
