G04 #@! TF.GenerationSoftware,KiCad,Pcbnew,5.99.0-unknown-6083c08~88~ubuntu18.04.1*
G04 #@! TF.CreationDate,2021-04-28T16:00:33+02:00*
G04 #@! TF.ProjectId,vwcdpic_with_BT_panel,76776364-7069-4635-9f77-6974685f4254,rev?*
G04 #@! TF.SameCoordinates,Original*
G04 #@! TF.FileFunction,Soldermask,Bot*
G04 #@! TF.FilePolarity,Negative*
%FSLAX46Y46*%
G04 Gerber Fmt 4.6, Leading zero omitted, Abs format (unit mm)*
G04 Created by KiCad (PCBNEW 5.99.0-unknown-6083c08~88~ubuntu18.04.1) date 2021-04-28 16:00:33*
%MOMM*%
%LPD*%
G01*
G04 APERTURE LIST*
%ADD10O,2.540000X2.235200*%
%ADD11O,2.208000X2.208000*%
%ADD12O,2.235200X2.540000*%
G04 APERTURE END LIST*
G36*
G01*
X155592000Y-130518000D02*
X155592000Y-132118000D01*
G75*
G02*
X155338000Y-132372000I-254000J0D01*
G01*
X152338000Y-132372000D01*
G75*
G02*
X152084000Y-132118000I0J254000D01*
G01*
X152084000Y-130518000D01*
G75*
G02*
X152338000Y-130264000I254000J0D01*
G01*
X155338000Y-130264000D01*
G75*
G02*
X155592000Y-130518000I0J-254000D01*
G01*
G37*
G36*
G01*
X151192000Y-130518000D02*
X151192000Y-132118000D01*
G75*
G02*
X150938000Y-132372000I-254000J0D01*
G01*
X147938000Y-132372000D01*
G75*
G02*
X147684000Y-132118000I0J254000D01*
G01*
X147684000Y-130518000D01*
G75*
G02*
X147938000Y-130264000I254000J0D01*
G01*
X150938000Y-130264000D01*
G75*
G02*
X151192000Y-130518000I0J-254000D01*
G01*
G37*
G36*
G01*
X155702000Y-120688100D02*
X155702000Y-118960900D01*
G75*
G02*
X155956000Y-118706900I254000J0D01*
G01*
X157988000Y-118706900D01*
G75*
G02*
X158242000Y-118960900I0J-254000D01*
G01*
X158242000Y-120688100D01*
G75*
G02*
X157988000Y-120942100I-254000J0D01*
G01*
X155956000Y-120942100D01*
G75*
G02*
X155702000Y-120688100I0J254000D01*
G01*
G37*
D10*
X156972000Y-122364500D03*
X156972000Y-124904500D03*
X156972000Y-127444500D03*
G36*
G01*
X161044000Y-122692000D02*
X161044000Y-123942000D01*
G75*
G02*
X160790000Y-124196000I-254000J0D01*
G01*
X159290000Y-124196000D01*
G75*
G02*
X159036000Y-123942000I0J254000D01*
G01*
X159036000Y-122692000D01*
G75*
G02*
X159290000Y-122438000I254000J0D01*
G01*
X160790000Y-122438000D01*
G75*
G02*
X161044000Y-122692000I0J-254000D01*
G01*
G37*
G36*
G01*
X163544000Y-122692000D02*
X163544000Y-123942000D01*
G75*
G02*
X163290000Y-124196000I-254000J0D01*
G01*
X161790000Y-124196000D01*
G75*
G02*
X161536000Y-123942000I0J254000D01*
G01*
X161536000Y-122692000D01*
G75*
G02*
X161790000Y-122438000I254000J0D01*
G01*
X163290000Y-122438000D01*
G75*
G02*
X163544000Y-122692000I0J-254000D01*
G01*
G37*
G36*
G01*
X164623000Y-135064000D02*
X164623000Y-133064000D01*
G75*
G02*
X164877000Y-132810000I254000J0D01*
G01*
X165577000Y-132810000D01*
G75*
G02*
X165831000Y-133064000I0J-254000D01*
G01*
X165831000Y-135064000D01*
G75*
G02*
X165577000Y-135318000I-254000J0D01*
G01*
X164877000Y-135318000D01*
G75*
G02*
X164623000Y-135064000I0J254000D01*
G01*
G37*
G36*
G01*
X164623000Y-129064000D02*
X164623000Y-127064000D01*
G75*
G02*
X164877000Y-126810000I254000J0D01*
G01*
X165577000Y-126810000D01*
G75*
G02*
X165831000Y-127064000I0J-254000D01*
G01*
X165831000Y-129064000D01*
G75*
G02*
X165577000Y-129318000I-254000J0D01*
G01*
X164877000Y-129318000D01*
G75*
G02*
X164623000Y-129064000I0J254000D01*
G01*
G37*
G36*
G01*
X165893000Y-135064000D02*
X165893000Y-133064000D01*
G75*
G02*
X166147000Y-132810000I254000J0D01*
G01*
X166847000Y-132810000D01*
G75*
G02*
X167101000Y-133064000I0J-254000D01*
G01*
X167101000Y-135064000D01*
G75*
G02*
X166847000Y-135318000I-254000J0D01*
G01*
X166147000Y-135318000D01*
G75*
G02*
X165893000Y-135064000I0J254000D01*
G01*
G37*
G36*
G01*
X167163000Y-135064000D02*
X167163000Y-133064000D01*
G75*
G02*
X167417000Y-132810000I254000J0D01*
G01*
X168117000Y-132810000D01*
G75*
G02*
X168371000Y-133064000I0J-254000D01*
G01*
X168371000Y-135064000D01*
G75*
G02*
X168117000Y-135318000I-254000J0D01*
G01*
X167417000Y-135318000D01*
G75*
G02*
X167163000Y-135064000I0J254000D01*
G01*
G37*
G36*
G01*
X168433000Y-135064000D02*
X168433000Y-133064000D01*
G75*
G02*
X168687000Y-132810000I254000J0D01*
G01*
X169387000Y-132810000D01*
G75*
G02*
X169641000Y-133064000I0J-254000D01*
G01*
X169641000Y-135064000D01*
G75*
G02*
X169387000Y-135318000I-254000J0D01*
G01*
X168687000Y-135318000D01*
G75*
G02*
X168433000Y-135064000I0J254000D01*
G01*
G37*
G36*
G01*
X165893000Y-129064000D02*
X165893000Y-127064000D01*
G75*
G02*
X166147000Y-126810000I254000J0D01*
G01*
X166847000Y-126810000D01*
G75*
G02*
X167101000Y-127064000I0J-254000D01*
G01*
X167101000Y-129064000D01*
G75*
G02*
X166847000Y-129318000I-254000J0D01*
G01*
X166147000Y-129318000D01*
G75*
G02*
X165893000Y-129064000I0J254000D01*
G01*
G37*
G36*
G01*
X167163000Y-129064000D02*
X167163000Y-127064000D01*
G75*
G02*
X167417000Y-126810000I254000J0D01*
G01*
X168117000Y-126810000D01*
G75*
G02*
X168371000Y-127064000I0J-254000D01*
G01*
X168371000Y-129064000D01*
G75*
G02*
X168117000Y-129318000I-254000J0D01*
G01*
X167417000Y-129318000D01*
G75*
G02*
X167163000Y-129064000I0J254000D01*
G01*
G37*
G36*
G01*
X168433000Y-129064000D02*
X168433000Y-127064000D01*
G75*
G02*
X168687000Y-126810000I254000J0D01*
G01*
X169387000Y-126810000D01*
G75*
G02*
X169641000Y-127064000I0J-254000D01*
G01*
X169641000Y-129064000D01*
G75*
G02*
X169387000Y-129318000I-254000J0D01*
G01*
X168687000Y-129318000D01*
G75*
G02*
X168433000Y-129064000I0J254000D01*
G01*
G37*
G36*
G01*
X150811000Y-118580000D02*
X150811000Y-120180000D01*
G75*
G02*
X150557000Y-120434000I-254000J0D01*
G01*
X147557000Y-120434000D01*
G75*
G02*
X147303000Y-120180000I0J254000D01*
G01*
X147303000Y-118580000D01*
G75*
G02*
X147557000Y-118326000I254000J0D01*
G01*
X150557000Y-118326000D01*
G75*
G02*
X150811000Y-118580000I0J-254000D01*
G01*
G37*
G36*
G01*
X155211000Y-118580000D02*
X155211000Y-120180000D01*
G75*
G02*
X154957000Y-120434000I-254000J0D01*
G01*
X151957000Y-120434000D01*
G75*
G02*
X151703000Y-120180000I0J254000D01*
G01*
X151703000Y-118580000D01*
G75*
G02*
X151957000Y-118326000I254000J0D01*
G01*
X154957000Y-118326000D01*
G75*
G02*
X155211000Y-118580000I0J-254000D01*
G01*
G37*
G36*
G01*
X168310000Y-118730000D02*
X168310000Y-120030000D01*
G75*
G02*
X168056000Y-120284000I-254000J0D01*
G01*
X166556000Y-120284000D01*
G75*
G02*
X166302000Y-120030000I0J254000D01*
G01*
X166302000Y-118730000D01*
G75*
G02*
X166556000Y-118476000I254000J0D01*
G01*
X168056000Y-118476000D01*
G75*
G02*
X168310000Y-118730000I0J-254000D01*
G01*
G37*
G36*
G01*
X171010000Y-118730000D02*
X171010000Y-120030000D01*
G75*
G02*
X170756000Y-120284000I-254000J0D01*
G01*
X169256000Y-120284000D01*
G75*
G02*
X169002000Y-120030000I0J254000D01*
G01*
X169002000Y-118730000D01*
G75*
G02*
X169256000Y-118476000I254000J0D01*
G01*
X170756000Y-118476000D01*
G75*
G02*
X171010000Y-118730000I0J-254000D01*
G01*
G37*
G36*
G01*
X171846000Y-132496000D02*
X170546000Y-132496000D01*
G75*
G02*
X170292000Y-132242000I0J254000D01*
G01*
X170292000Y-130742000D01*
G75*
G02*
X170546000Y-130488000I254000J0D01*
G01*
X171846000Y-130488000D01*
G75*
G02*
X172100000Y-130742000I0J-254000D01*
G01*
X172100000Y-132242000D01*
G75*
G02*
X171846000Y-132496000I-254000J0D01*
G01*
G37*
G36*
G01*
X171846000Y-135196000D02*
X170546000Y-135196000D01*
G75*
G02*
X170292000Y-134942000I0J254000D01*
G01*
X170292000Y-133442000D01*
G75*
G02*
X170546000Y-133188000I254000J0D01*
G01*
X171846000Y-133188000D01*
G75*
G02*
X172100000Y-133442000I0J-254000D01*
G01*
X172100000Y-134942000D01*
G75*
G02*
X171846000Y-135196000I-254000J0D01*
G01*
G37*
G36*
G01*
X170340720Y-110825520D02*
X170340720Y-112125520D01*
G75*
G02*
X170086720Y-112379520I-254000J0D01*
G01*
X168586720Y-112379520D01*
G75*
G02*
X168332720Y-112125520I0J254000D01*
G01*
X168332720Y-110825520D01*
G75*
G02*
X168586720Y-110571520I254000J0D01*
G01*
X170086720Y-110571520D01*
G75*
G02*
X170340720Y-110825520I0J-254000D01*
G01*
G37*
G36*
G01*
X173040720Y-110825520D02*
X173040720Y-112125520D01*
G75*
G02*
X172786720Y-112379520I-254000J0D01*
G01*
X171286720Y-112379520D01*
G75*
G02*
X171032720Y-112125520I0J254000D01*
G01*
X171032720Y-110825520D01*
G75*
G02*
X171286720Y-110571520I254000J0D01*
G01*
X172786720Y-110571520D01*
G75*
G02*
X173040720Y-110825520I0J-254000D01*
G01*
G37*
G36*
G01*
X156397800Y-138168000D02*
X157647800Y-138168000D01*
G75*
G02*
X157901800Y-138422000I0J-254000D01*
G01*
X157901800Y-139922000D01*
G75*
G02*
X157647800Y-140176000I-254000J0D01*
G01*
X156397800Y-140176000D01*
G75*
G02*
X156143800Y-139922000I0J254000D01*
G01*
X156143800Y-138422000D01*
G75*
G02*
X156397800Y-138168000I254000J0D01*
G01*
G37*
G36*
G01*
X156397800Y-135668000D02*
X157647800Y-135668000D01*
G75*
G02*
X157901800Y-135922000I0J-254000D01*
G01*
X157901800Y-137422000D01*
G75*
G02*
X157647800Y-137676000I-254000J0D01*
G01*
X156397800Y-137676000D01*
G75*
G02*
X156143800Y-137422000I0J254000D01*
G01*
X156143800Y-135922000D01*
G75*
G02*
X156397800Y-135668000I254000J0D01*
G01*
G37*
G36*
G01*
X168310000Y-124826000D02*
X168310000Y-126126000D01*
G75*
G02*
X168056000Y-126380000I-254000J0D01*
G01*
X166556000Y-126380000D01*
G75*
G02*
X166302000Y-126126000I0J254000D01*
G01*
X166302000Y-124826000D01*
G75*
G02*
X166556000Y-124572000I254000J0D01*
G01*
X168056000Y-124572000D01*
G75*
G02*
X168310000Y-124826000I0J-254000D01*
G01*
G37*
G36*
G01*
X171010000Y-124826000D02*
X171010000Y-126126000D01*
G75*
G02*
X170756000Y-126380000I-254000J0D01*
G01*
X169256000Y-126380000D01*
G75*
G02*
X169002000Y-126126000I0J254000D01*
G01*
X169002000Y-124826000D01*
G75*
G02*
X169256000Y-124572000I254000J0D01*
G01*
X170756000Y-124572000D01*
G75*
G02*
X171010000Y-124826000I0J-254000D01*
G01*
G37*
G36*
G01*
X144768000Y-135748000D02*
X144768000Y-137048000D01*
G75*
G02*
X144514000Y-137302000I-254000J0D01*
G01*
X143014000Y-137302000D01*
G75*
G02*
X142760000Y-137048000I0J254000D01*
G01*
X142760000Y-135748000D01*
G75*
G02*
X143014000Y-135494000I254000J0D01*
G01*
X144514000Y-135494000D01*
G75*
G02*
X144768000Y-135748000I0J-254000D01*
G01*
G37*
G36*
G01*
X147468000Y-135748000D02*
X147468000Y-137048000D01*
G75*
G02*
X147214000Y-137302000I-254000J0D01*
G01*
X145714000Y-137302000D01*
G75*
G02*
X145460000Y-137048000I0J254000D01*
G01*
X145460000Y-135748000D01*
G75*
G02*
X145714000Y-135494000I254000J0D01*
G01*
X147214000Y-135494000D01*
G75*
G02*
X147468000Y-135748000I0J-254000D01*
G01*
G37*
G36*
G01*
X159396430Y-139236490D02*
X158596330Y-139236490D01*
G75*
G02*
X158342330Y-138982490I0J254000D01*
G01*
X158342330Y-138182390D01*
G75*
G02*
X158596330Y-137928390I254000J0D01*
G01*
X159396430Y-137928390D01*
G75*
G02*
X159650430Y-138182390I0J-254000D01*
G01*
X159650430Y-138982490D01*
G75*
G02*
X159396430Y-139236490I-254000J0D01*
G01*
G37*
G36*
G01*
X159396430Y-137336490D02*
X158596330Y-137336490D01*
G75*
G02*
X158342330Y-137082490I0J254000D01*
G01*
X158342330Y-136282390D01*
G75*
G02*
X158596330Y-136028390I254000J0D01*
G01*
X159396430Y-136028390D01*
G75*
G02*
X159650430Y-136282390I0J-254000D01*
G01*
X159650430Y-137082490D01*
G75*
G02*
X159396430Y-137336490I-254000J0D01*
G01*
G37*
G36*
G01*
X161395410Y-138286490D02*
X160595310Y-138286490D01*
G75*
G02*
X160341310Y-138032490I0J254000D01*
G01*
X160341310Y-137232390D01*
G75*
G02*
X160595310Y-136978390I254000J0D01*
G01*
X161395410Y-136978390D01*
G75*
G02*
X161649410Y-137232390I0J-254000D01*
G01*
X161649410Y-138032490D01*
G75*
G02*
X161395410Y-138286490I-254000J0D01*
G01*
G37*
G36*
G01*
X155566600Y-124422000D02*
X155566600Y-126022000D01*
G75*
G02*
X155312600Y-126276000I-254000J0D01*
G01*
X152312600Y-126276000D01*
G75*
G02*
X152058600Y-126022000I0J254000D01*
G01*
X152058600Y-124422000D01*
G75*
G02*
X152312600Y-124168000I254000J0D01*
G01*
X155312600Y-124168000D01*
G75*
G02*
X155566600Y-124422000I0J-254000D01*
G01*
G37*
G36*
G01*
X151166600Y-124422000D02*
X151166600Y-126022000D01*
G75*
G02*
X150912600Y-126276000I-254000J0D01*
G01*
X147912600Y-126276000D01*
G75*
G02*
X147658600Y-126022000I0J254000D01*
G01*
X147658600Y-124422000D01*
G75*
G02*
X147912600Y-124168000I254000J0D01*
G01*
X150912600Y-124168000D01*
G75*
G02*
X151166600Y-124422000I0J-254000D01*
G01*
G37*
G36*
G01*
X154093440Y-110895840D02*
X152793440Y-110895840D01*
G75*
G02*
X152539440Y-110641840I0J254000D01*
G01*
X152539440Y-109141840D01*
G75*
G02*
X152793440Y-108887840I254000J0D01*
G01*
X154093440Y-108887840D01*
G75*
G02*
X154347440Y-109141840I0J-254000D01*
G01*
X154347440Y-110641840D01*
G75*
G02*
X154093440Y-110895840I-254000J0D01*
G01*
G37*
G36*
G01*
X154093440Y-113595840D02*
X152793440Y-113595840D01*
G75*
G02*
X152539440Y-113341840I0J254000D01*
G01*
X152539440Y-111841840D01*
G75*
G02*
X152793440Y-111587840I254000J0D01*
G01*
X154093440Y-111587840D01*
G75*
G02*
X154347440Y-111841840I0J-254000D01*
G01*
X154347440Y-113341840D01*
G75*
G02*
X154093440Y-113595840I-254000J0D01*
G01*
G37*
G36*
G01*
X160454500Y-116721000D02*
X159204500Y-116721000D01*
G75*
G02*
X158950500Y-116467000I0J254000D01*
G01*
X158950500Y-114967000D01*
G75*
G02*
X159204500Y-114713000I254000J0D01*
G01*
X160454500Y-114713000D01*
G75*
G02*
X160708500Y-114967000I0J-254000D01*
G01*
X160708500Y-116467000D01*
G75*
G02*
X160454500Y-116721000I-254000J0D01*
G01*
G37*
G36*
G01*
X160454500Y-119221000D02*
X159204500Y-119221000D01*
G75*
G02*
X158950500Y-118967000I0J254000D01*
G01*
X158950500Y-117467000D01*
G75*
G02*
X159204500Y-117213000I254000J0D01*
G01*
X160454500Y-117213000D01*
G75*
G02*
X160708500Y-117467000I0J-254000D01*
G01*
X160708500Y-118967000D01*
G75*
G02*
X160454500Y-119221000I-254000J0D01*
G01*
G37*
G36*
G01*
X139204700Y-109960410D02*
X140804900Y-109960410D01*
G75*
G02*
X141058900Y-110214410I0J-254000D01*
G01*
X141058900Y-113813590D01*
G75*
G02*
X140804900Y-114067590I-254000J0D01*
G01*
X139204700Y-114067590D01*
G75*
G02*
X138950700Y-113813590I0J254000D01*
G01*
X138950700Y-110214410D01*
G75*
G02*
X139204700Y-109960410I254000J0D01*
G01*
G37*
G36*
G01*
X139204700Y-115462050D02*
X140804900Y-115462050D01*
G75*
G02*
X141058900Y-115716050I0J-254000D01*
G01*
X141058900Y-119315230D01*
G75*
G02*
X140804900Y-119569230I-254000J0D01*
G01*
X139204700Y-119569230D01*
G75*
G02*
X138950700Y-119315230I0J254000D01*
G01*
X138950700Y-115716050D01*
G75*
G02*
X139204700Y-115462050I254000J0D01*
G01*
G37*
G36*
G01*
X144637200Y-124318000D02*
X144637200Y-125618000D01*
G75*
G02*
X144383200Y-125872000I-254000J0D01*
G01*
X142883200Y-125872000D01*
G75*
G02*
X142629200Y-125618000I0J254000D01*
G01*
X142629200Y-124318000D01*
G75*
G02*
X142883200Y-124064000I254000J0D01*
G01*
X144383200Y-124064000D01*
G75*
G02*
X144637200Y-124318000I0J-254000D01*
G01*
G37*
G36*
G01*
X147337200Y-124318000D02*
X147337200Y-125618000D01*
G75*
G02*
X147083200Y-125872000I-254000J0D01*
G01*
X145583200Y-125872000D01*
G75*
G02*
X145329200Y-125618000I0J254000D01*
G01*
X145329200Y-124318000D01*
G75*
G02*
X145583200Y-124064000I254000J0D01*
G01*
X147083200Y-124064000D01*
G75*
G02*
X147337200Y-124318000I0J-254000D01*
G01*
G37*
G36*
G01*
X163731500Y-126126000D02*
X163731500Y-124826000D01*
G75*
G02*
X163985500Y-124572000I254000J0D01*
G01*
X165485500Y-124572000D01*
G75*
G02*
X165739500Y-124826000I0J-254000D01*
G01*
X165739500Y-126126000D01*
G75*
G02*
X165485500Y-126380000I-254000J0D01*
G01*
X163985500Y-126380000D01*
G75*
G02*
X163731500Y-126126000I0J254000D01*
G01*
G37*
G36*
G01*
X161031500Y-126126000D02*
X161031500Y-124826000D01*
G75*
G02*
X161285500Y-124572000I254000J0D01*
G01*
X162785500Y-124572000D01*
G75*
G02*
X163039500Y-124826000I0J-254000D01*
G01*
X163039500Y-126126000D01*
G75*
G02*
X162785500Y-126380000I-254000J0D01*
G01*
X161285500Y-126380000D01*
G75*
G02*
X161031500Y-126126000I0J254000D01*
G01*
G37*
G36*
G01*
X158020120Y-131731840D02*
X156320120Y-131731840D01*
G75*
G02*
X156066120Y-131477840I0J254000D01*
G01*
X156066120Y-130177840D01*
G75*
G02*
X156320120Y-129923840I254000J0D01*
G01*
X158020120Y-129923840D01*
G75*
G02*
X158274120Y-130177840I0J-254000D01*
G01*
X158274120Y-131477840D01*
G75*
G02*
X158020120Y-131731840I-254000J0D01*
G01*
G37*
G36*
G01*
X158020120Y-135231840D02*
X156320120Y-135231840D01*
G75*
G02*
X156066120Y-134977840I0J254000D01*
G01*
X156066120Y-133677840D01*
G75*
G02*
X156320120Y-133423840I254000J0D01*
G01*
X158020120Y-133423840D01*
G75*
G02*
X158274120Y-133677840I0J-254000D01*
G01*
X158274120Y-134977840D01*
G75*
G02*
X158020120Y-135231840I-254000J0D01*
G01*
G37*
G36*
G01*
X143608500Y-119746000D02*
X143608500Y-121046000D01*
G75*
G02*
X143354500Y-121300000I-254000J0D01*
G01*
X141854500Y-121300000D01*
G75*
G02*
X141600500Y-121046000I0J254000D01*
G01*
X141600500Y-119746000D01*
G75*
G02*
X141854500Y-119492000I254000J0D01*
G01*
X143354500Y-119492000D01*
G75*
G02*
X143608500Y-119746000I0J-254000D01*
G01*
G37*
G36*
G01*
X146308500Y-119746000D02*
X146308500Y-121046000D01*
G75*
G02*
X146054500Y-121300000I-254000J0D01*
G01*
X144554500Y-121300000D01*
G75*
G02*
X144300500Y-121046000I0J254000D01*
G01*
X144300500Y-119746000D01*
G75*
G02*
X144554500Y-119492000I254000J0D01*
G01*
X146054500Y-119492000D01*
G75*
G02*
X146308500Y-119746000I0J-254000D01*
G01*
G37*
G36*
G01*
X139484100Y-139820650D02*
X137883900Y-139820650D01*
G75*
G02*
X137629900Y-139566650I0J254000D01*
G01*
X137629900Y-135967470D01*
G75*
G02*
X137883900Y-135713470I254000J0D01*
G01*
X139484100Y-135713470D01*
G75*
G02*
X139738100Y-135967470I0J-254000D01*
G01*
X139738100Y-139566650D01*
G75*
G02*
X139484100Y-139820650I-254000J0D01*
G01*
G37*
G36*
G01*
X139484100Y-134319010D02*
X137883900Y-134319010D01*
G75*
G02*
X137629900Y-134065010I0J254000D01*
G01*
X137629900Y-130465830D01*
G75*
G02*
X137883900Y-130211830I254000J0D01*
G01*
X139484100Y-130211830D01*
G75*
G02*
X139738100Y-130465830I0J-254000D01*
G01*
X139738100Y-134065010D01*
G75*
G02*
X139484100Y-134319010I-254000J0D01*
G01*
G37*
G36*
G01*
X145178400Y-123307000D02*
X145178400Y-122057000D01*
G75*
G02*
X145432400Y-121803000I254000J0D01*
G01*
X146932400Y-121803000D01*
G75*
G02*
X147186400Y-122057000I0J-254000D01*
G01*
X147186400Y-123307000D01*
G75*
G02*
X146932400Y-123561000I-254000J0D01*
G01*
X145432400Y-123561000D01*
G75*
G02*
X145178400Y-123307000I0J254000D01*
G01*
G37*
G36*
G01*
X142678400Y-123307000D02*
X142678400Y-122057000D01*
G75*
G02*
X142932400Y-121803000I254000J0D01*
G01*
X144432400Y-121803000D01*
G75*
G02*
X144686400Y-122057000I0J-254000D01*
G01*
X144686400Y-123307000D01*
G75*
G02*
X144432400Y-123561000I-254000J0D01*
G01*
X142932400Y-123561000D01*
G75*
G02*
X142678400Y-123307000I0J254000D01*
G01*
G37*
G36*
G01*
X150797500Y-111598000D02*
X152097500Y-111598000D01*
G75*
G02*
X152351500Y-111852000I0J-254000D01*
G01*
X152351500Y-113352000D01*
G75*
G02*
X152097500Y-113606000I-254000J0D01*
G01*
X150797500Y-113606000D01*
G75*
G02*
X150543500Y-113352000I0J254000D01*
G01*
X150543500Y-111852000D01*
G75*
G02*
X150797500Y-111598000I254000J0D01*
G01*
G37*
G36*
G01*
X150797500Y-108898000D02*
X152097500Y-108898000D01*
G75*
G02*
X152351500Y-109152000I0J-254000D01*
G01*
X152351500Y-110652000D01*
G75*
G02*
X152097500Y-110906000I-254000J0D01*
G01*
X150797500Y-110906000D01*
G75*
G02*
X150543500Y-110652000I0J254000D01*
G01*
X150543500Y-109152000D01*
G75*
G02*
X150797500Y-108898000I254000J0D01*
G01*
G37*
G36*
G01*
X166028920Y-112125520D02*
X166028920Y-110825520D01*
G75*
G02*
X166282920Y-110571520I254000J0D01*
G01*
X167782920Y-110571520D01*
G75*
G02*
X168036920Y-110825520I0J-254000D01*
G01*
X168036920Y-112125520D01*
G75*
G02*
X167782920Y-112379520I-254000J0D01*
G01*
X166282920Y-112379520D01*
G75*
G02*
X166028920Y-112125520I0J254000D01*
G01*
G37*
G36*
G01*
X163328920Y-112125520D02*
X163328920Y-110825520D01*
G75*
G02*
X163582920Y-110571520I254000J0D01*
G01*
X165082920Y-110571520D01*
G75*
G02*
X165336920Y-110825520I0J-254000D01*
G01*
X165336920Y-112125520D01*
G75*
G02*
X165082920Y-112379520I-254000J0D01*
G01*
X163582920Y-112379520D01*
G75*
G02*
X163328920Y-112125520I0J254000D01*
G01*
G37*
G36*
G01*
X163344160Y-114208320D02*
X163344160Y-112908320D01*
G75*
G02*
X163598160Y-112654320I254000J0D01*
G01*
X165098160Y-112654320D01*
G75*
G02*
X165352160Y-112908320I0J-254000D01*
G01*
X165352160Y-114208320D01*
G75*
G02*
X165098160Y-114462320I-254000J0D01*
G01*
X163598160Y-114462320D01*
G75*
G02*
X163344160Y-114208320I0J254000D01*
G01*
G37*
G36*
G01*
X166044160Y-114208320D02*
X166044160Y-112908320D01*
G75*
G02*
X166298160Y-112654320I254000J0D01*
G01*
X167798160Y-112654320D01*
G75*
G02*
X168052160Y-112908320I0J-254000D01*
G01*
X168052160Y-114208320D01*
G75*
G02*
X167798160Y-114462320I-254000J0D01*
G01*
X166298160Y-114462320D01*
G75*
G02*
X166044160Y-114208320I0J254000D01*
G01*
G37*
G36*
G01*
X173061040Y-112933720D02*
X173061040Y-114233720D01*
G75*
G02*
X172807040Y-114487720I-254000J0D01*
G01*
X171307040Y-114487720D01*
G75*
G02*
X171053040Y-114233720I0J254000D01*
G01*
X171053040Y-112933720D01*
G75*
G02*
X171307040Y-112679720I254000J0D01*
G01*
X172807040Y-112679720D01*
G75*
G02*
X173061040Y-112933720I0J-254000D01*
G01*
G37*
G36*
G01*
X170361040Y-112933720D02*
X170361040Y-114233720D01*
G75*
G02*
X170107040Y-114487720I-254000J0D01*
G01*
X168607040Y-114487720D01*
G75*
G02*
X168353040Y-114233720I0J254000D01*
G01*
X168353040Y-112933720D01*
G75*
G02*
X168607040Y-112679720I254000J0D01*
G01*
X170107040Y-112679720D01*
G75*
G02*
X170361040Y-112933720I0J-254000D01*
G01*
G37*
G36*
G01*
X160228040Y-135000420D02*
X158928040Y-135000420D01*
G75*
G02*
X158674040Y-134746420I0J254000D01*
G01*
X158674040Y-133246420D01*
G75*
G02*
X158928040Y-132992420I254000J0D01*
G01*
X160228040Y-132992420D01*
G75*
G02*
X160482040Y-133246420I0J-254000D01*
G01*
X160482040Y-134746420D01*
G75*
G02*
X160228040Y-135000420I-254000J0D01*
G01*
G37*
G36*
G01*
X160228040Y-132300420D02*
X158928040Y-132300420D01*
G75*
G02*
X158674040Y-132046420I0J254000D01*
G01*
X158674040Y-130546420D01*
G75*
G02*
X158928040Y-130292420I254000J0D01*
G01*
X160228040Y-130292420D01*
G75*
G02*
X160482040Y-130546420I0J-254000D01*
G01*
X160482040Y-132046420D01*
G75*
G02*
X160228040Y-132300420I-254000J0D01*
G01*
G37*
G36*
G01*
X143164000Y-109027200D02*
X143164000Y-110327200D01*
G75*
G02*
X142910000Y-110581200I-254000J0D01*
G01*
X141410000Y-110581200D01*
G75*
G02*
X141156000Y-110327200I0J254000D01*
G01*
X141156000Y-109027200D01*
G75*
G02*
X141410000Y-108773200I254000J0D01*
G01*
X142910000Y-108773200D01*
G75*
G02*
X143164000Y-109027200I0J-254000D01*
G01*
G37*
G36*
G01*
X145864000Y-109027200D02*
X145864000Y-110327200D01*
G75*
G02*
X145610000Y-110581200I-254000J0D01*
G01*
X144110000Y-110581200D01*
G75*
G02*
X143856000Y-110327200I0J254000D01*
G01*
X143856000Y-109027200D01*
G75*
G02*
X144110000Y-108773200I254000J0D01*
G01*
X145610000Y-108773200D01*
G75*
G02*
X145864000Y-109027200I0J-254000D01*
G01*
G37*
G36*
G01*
X159268000Y-112514000D02*
X160518000Y-112514000D01*
G75*
G02*
X160772000Y-112768000I0J-254000D01*
G01*
X160772000Y-114268000D01*
G75*
G02*
X160518000Y-114522000I-254000J0D01*
G01*
X159268000Y-114522000D01*
G75*
G02*
X159014000Y-114268000I0J254000D01*
G01*
X159014000Y-112768000D01*
G75*
G02*
X159268000Y-112514000I254000J0D01*
G01*
G37*
G36*
G01*
X159268000Y-110014000D02*
X160518000Y-110014000D01*
G75*
G02*
X160772000Y-110268000I0J-254000D01*
G01*
X160772000Y-111768000D01*
G75*
G02*
X160518000Y-112022000I-254000J0D01*
G01*
X159268000Y-112022000D01*
G75*
G02*
X159014000Y-111768000I0J254000D01*
G01*
X159014000Y-110268000D01*
G75*
G02*
X159268000Y-110014000I254000J0D01*
G01*
G37*
G36*
G01*
X135842640Y-105606480D02*
X137542640Y-105606480D01*
G75*
G02*
X137796640Y-105860480I0J-254000D01*
G01*
X137796640Y-107560480D01*
G75*
G02*
X137542640Y-107814480I-254000J0D01*
G01*
X135842640Y-107814480D01*
G75*
G02*
X135588640Y-107560480I0J254000D01*
G01*
X135588640Y-105860480D01*
G75*
G02*
X135842640Y-105606480I254000J0D01*
G01*
G37*
D11*
X139232640Y-106710480D03*
X141772640Y-106710480D03*
X144312640Y-106710480D03*
X146852640Y-106710480D03*
X149392640Y-106710480D03*
X151932640Y-106710480D03*
X154472640Y-106710480D03*
X157012640Y-106710480D03*
X159552640Y-106710480D03*
X162092640Y-106710480D03*
X164632640Y-106710480D03*
G36*
G01*
X144768000Y-131176000D02*
X144768000Y-132476000D01*
G75*
G02*
X144514000Y-132730000I-254000J0D01*
G01*
X143014000Y-132730000D01*
G75*
G02*
X142760000Y-132476000I0J254000D01*
G01*
X142760000Y-131176000D01*
G75*
G02*
X143014000Y-130922000I254000J0D01*
G01*
X144514000Y-130922000D01*
G75*
G02*
X144768000Y-131176000I0J-254000D01*
G01*
G37*
G36*
G01*
X147468000Y-131176000D02*
X147468000Y-132476000D01*
G75*
G02*
X147214000Y-132730000I-254000J0D01*
G01*
X145714000Y-132730000D01*
G75*
G02*
X145460000Y-132476000I0J254000D01*
G01*
X145460000Y-131176000D01*
G75*
G02*
X145714000Y-130922000I254000J0D01*
G01*
X147214000Y-130922000D01*
G75*
G02*
X147468000Y-131176000I0J-254000D01*
G01*
G37*
G36*
G01*
X145260000Y-134737000D02*
X145260000Y-133487000D01*
G75*
G02*
X145514000Y-133233000I254000J0D01*
G01*
X147014000Y-133233000D01*
G75*
G02*
X147268000Y-133487000I0J-254000D01*
G01*
X147268000Y-134737000D01*
G75*
G02*
X147014000Y-134991000I-254000J0D01*
G01*
X145514000Y-134991000D01*
G75*
G02*
X145260000Y-134737000I0J254000D01*
G01*
G37*
G36*
G01*
X142760000Y-134737000D02*
X142760000Y-133487000D01*
G75*
G02*
X143014000Y-133233000I254000J0D01*
G01*
X144514000Y-133233000D01*
G75*
G02*
X144768000Y-133487000I0J-254000D01*
G01*
X144768000Y-134737000D01*
G75*
G02*
X144514000Y-134991000I-254000J0D01*
G01*
X143014000Y-134991000D01*
G75*
G02*
X142760000Y-134737000I0J254000D01*
G01*
G37*
G36*
G01*
X155632640Y-136187280D02*
X155632640Y-137787280D01*
G75*
G02*
X155378640Y-138041280I-254000J0D01*
G01*
X152378640Y-138041280D01*
G75*
G02*
X152124640Y-137787280I0J254000D01*
G01*
X152124640Y-136187280D01*
G75*
G02*
X152378640Y-135933280I254000J0D01*
G01*
X155378640Y-135933280D01*
G75*
G02*
X155632640Y-136187280I0J-254000D01*
G01*
G37*
G36*
G01*
X151232640Y-136187280D02*
X151232640Y-137787280D01*
G75*
G02*
X150978640Y-138041280I-254000J0D01*
G01*
X147978640Y-138041280D01*
G75*
G02*
X147724640Y-137787280I0J254000D01*
G01*
X147724640Y-136187280D01*
G75*
G02*
X147978640Y-135933280I254000J0D01*
G01*
X150978640Y-135933280D01*
G75*
G02*
X151232640Y-136187280I0J-254000D01*
G01*
G37*
G36*
G01*
X161696400Y-115570000D02*
X163423600Y-115570000D01*
G75*
G02*
X163677600Y-115824000I0J-254000D01*
G01*
X163677600Y-117856000D01*
G75*
G02*
X163423600Y-118110000I-254000J0D01*
G01*
X161696400Y-118110000D01*
G75*
G02*
X161442400Y-117856000I0J254000D01*
G01*
X161442400Y-115824000D01*
G75*
G02*
X161696400Y-115570000I254000J0D01*
G01*
G37*
D12*
X165100000Y-116840000D03*
X167640000Y-116840000D03*
X170180000Y-116840000D03*
X172720000Y-116840000D03*
G36*
G01*
X145354600Y-127904000D02*
X145354600Y-126604000D01*
G75*
G02*
X145608600Y-126350000I254000J0D01*
G01*
X147108600Y-126350000D01*
G75*
G02*
X147362600Y-126604000I0J-254000D01*
G01*
X147362600Y-127904000D01*
G75*
G02*
X147108600Y-128158000I-254000J0D01*
G01*
X145608600Y-128158000D01*
G75*
G02*
X145354600Y-127904000I0J254000D01*
G01*
G37*
G36*
G01*
X142654600Y-127904000D02*
X142654600Y-126604000D01*
G75*
G02*
X142908600Y-126350000I254000J0D01*
G01*
X144408600Y-126350000D01*
G75*
G02*
X144662600Y-126604000I0J-254000D01*
G01*
X144662600Y-127904000D01*
G75*
G02*
X144408600Y-128158000I-254000J0D01*
G01*
X142908600Y-128158000D01*
G75*
G02*
X142654600Y-127904000I0J254000D01*
G01*
G37*
G36*
G01*
X141732000Y-128120140D02*
X141732000Y-129263140D01*
G75*
G02*
X141478000Y-129517140I-254000J0D01*
G01*
X140970000Y-129517140D01*
G75*
G02*
X140716000Y-129263140I0J254000D01*
G01*
X140716000Y-128120140D01*
G75*
G02*
X140970000Y-127866140I254000J0D01*
G01*
X141478000Y-127866140D01*
G75*
G02*
X141732000Y-128120140I0J-254000D01*
G01*
G37*
G36*
G01*
X140462000Y-128120140D02*
X140462000Y-129263140D01*
G75*
G02*
X140208000Y-129517140I-254000J0D01*
G01*
X139700000Y-129517140D01*
G75*
G02*
X139446000Y-129263140I0J254000D01*
G01*
X139446000Y-128120140D01*
G75*
G02*
X139700000Y-127866140I254000J0D01*
G01*
X140208000Y-127866140D01*
G75*
G02*
X140462000Y-128120140I0J-254000D01*
G01*
G37*
G36*
G01*
X139192000Y-128120140D02*
X139192000Y-129263140D01*
G75*
G02*
X138938000Y-129517140I-254000J0D01*
G01*
X138430000Y-129517140D01*
G75*
G02*
X138176000Y-129263140I0J254000D01*
G01*
X138176000Y-128120140D01*
G75*
G02*
X138430000Y-127866140I254000J0D01*
G01*
X138938000Y-127866140D01*
G75*
G02*
X139192000Y-128120140I0J-254000D01*
G01*
G37*
G36*
G01*
X137922000Y-128120140D02*
X137922000Y-129263140D01*
G75*
G02*
X137668000Y-129517140I-254000J0D01*
G01*
X137160000Y-129517140D01*
G75*
G02*
X136906000Y-129263140I0J254000D01*
G01*
X136906000Y-128120140D01*
G75*
G02*
X137160000Y-127866140I254000J0D01*
G01*
X137668000Y-127866140D01*
G75*
G02*
X137922000Y-128120140I0J-254000D01*
G01*
G37*
G36*
G01*
X137922000Y-121770140D02*
X137922000Y-122913140D01*
G75*
G02*
X137668000Y-123167140I-254000J0D01*
G01*
X137160000Y-123167140D01*
G75*
G02*
X136906000Y-122913140I0J254000D01*
G01*
X136906000Y-121770140D01*
G75*
G02*
X137160000Y-121516140I254000J0D01*
G01*
X137668000Y-121516140D01*
G75*
G02*
X137922000Y-121770140I0J-254000D01*
G01*
G37*
G36*
G01*
X139192000Y-121770140D02*
X139192000Y-122913140D01*
G75*
G02*
X138938000Y-123167140I-254000J0D01*
G01*
X138430000Y-123167140D01*
G75*
G02*
X138176000Y-122913140I0J254000D01*
G01*
X138176000Y-121770140D01*
G75*
G02*
X138430000Y-121516140I254000J0D01*
G01*
X138938000Y-121516140D01*
G75*
G02*
X139192000Y-121770140I0J-254000D01*
G01*
G37*
G36*
G01*
X140462000Y-121770140D02*
X140462000Y-122913140D01*
G75*
G02*
X140208000Y-123167140I-254000J0D01*
G01*
X139700000Y-123167140D01*
G75*
G02*
X139446000Y-122913140I0J254000D01*
G01*
X139446000Y-121770140D01*
G75*
G02*
X139700000Y-121516140I254000J0D01*
G01*
X140208000Y-121516140D01*
G75*
G02*
X140462000Y-121770140I0J-254000D01*
G01*
G37*
G36*
G01*
X141732000Y-121770140D02*
X141732000Y-122913140D01*
G75*
G02*
X141478000Y-123167140I-254000J0D01*
G01*
X140970000Y-123167140D01*
G75*
G02*
X140716000Y-122913140I0J254000D01*
G01*
X140716000Y-121770140D01*
G75*
G02*
X140970000Y-121516140I254000J0D01*
G01*
X141478000Y-121516140D01*
G75*
G02*
X141732000Y-121770140I0J-254000D01*
G01*
G37*
G36*
G01*
X158294000Y-115332400D02*
X158294000Y-117059600D01*
G75*
G02*
X158040000Y-117313600I-254000J0D01*
G01*
X156008000Y-117313600D01*
G75*
G02*
X155754000Y-117059600I0J254000D01*
G01*
X155754000Y-115332400D01*
G75*
G02*
X156008000Y-115078400I254000J0D01*
G01*
X158040000Y-115078400D01*
G75*
G02*
X158294000Y-115332400I0J-254000D01*
G01*
G37*
D10*
X157024000Y-113656000D03*
X157024000Y-111116000D03*
G36*
G01*
X152295860Y-115812571D02*
X152295860Y-114311429D01*
G75*
G02*
X152549859Y-114057430I253999J0D01*
G01*
X154698701Y-114057430D01*
G75*
G02*
X154952700Y-114311429I0J-253999D01*
G01*
X154952700Y-115812571D01*
G75*
G02*
X154698701Y-116066570I-253999J0D01*
G01*
X152549859Y-116066570D01*
G75*
G02*
X152295860Y-115812571I0J253999D01*
G01*
G37*
G36*
G01*
X149293580Y-115812571D02*
X149293580Y-114311429D01*
G75*
G02*
X149547579Y-114057430I253999J0D01*
G01*
X151696421Y-114057430D01*
G75*
G02*
X151950420Y-114311429I0J-253999D01*
G01*
X151950420Y-115812571D01*
G75*
G02*
X151696421Y-116066570I-253999J0D01*
G01*
X149547579Y-116066570D01*
G75*
G02*
X149293580Y-115812571I0J253999D01*
G01*
G37*
G36*
G01*
X162506500Y-133278500D02*
X163756500Y-133278500D01*
G75*
G02*
X164010500Y-133532500I0J-254000D01*
G01*
X164010500Y-135032500D01*
G75*
G02*
X163756500Y-135286500I-254000J0D01*
G01*
X162506500Y-135286500D01*
G75*
G02*
X162252500Y-135032500I0J254000D01*
G01*
X162252500Y-133532500D01*
G75*
G02*
X162506500Y-133278500I254000J0D01*
G01*
G37*
G36*
G01*
X162506500Y-130778500D02*
X163756500Y-130778500D01*
G75*
G02*
X164010500Y-131032500I0J-254000D01*
G01*
X164010500Y-132532500D01*
G75*
G02*
X163756500Y-132786500I-254000J0D01*
G01*
X162506500Y-132786500D01*
G75*
G02*
X162252500Y-132532500I0J254000D01*
G01*
X162252500Y-131032500D01*
G75*
G02*
X162506500Y-130778500I254000J0D01*
G01*
G37*
G36*
G01*
X145460000Y-130190000D02*
X145460000Y-128890000D01*
G75*
G02*
X145714000Y-128636000I254000J0D01*
G01*
X147214000Y-128636000D01*
G75*
G02*
X147468000Y-128890000I0J-254000D01*
G01*
X147468000Y-130190000D01*
G75*
G02*
X147214000Y-130444000I-254000J0D01*
G01*
X145714000Y-130444000D01*
G75*
G02*
X145460000Y-130190000I0J254000D01*
G01*
G37*
G36*
G01*
X142760000Y-130190000D02*
X142760000Y-128890000D01*
G75*
G02*
X143014000Y-128636000I254000J0D01*
G01*
X144514000Y-128636000D01*
G75*
G02*
X144768000Y-128890000I0J-254000D01*
G01*
X144768000Y-130190000D01*
G75*
G02*
X144514000Y-130444000I-254000J0D01*
G01*
X143014000Y-130444000D01*
G75*
G02*
X142760000Y-130190000I0J254000D01*
G01*
G37*
G36*
G01*
X168310000Y-120762000D02*
X168310000Y-122062000D01*
G75*
G02*
X168056000Y-122316000I-254000J0D01*
G01*
X166556000Y-122316000D01*
G75*
G02*
X166302000Y-122062000I0J254000D01*
G01*
X166302000Y-120762000D01*
G75*
G02*
X166556000Y-120508000I254000J0D01*
G01*
X168056000Y-120508000D01*
G75*
G02*
X168310000Y-120762000I0J-254000D01*
G01*
G37*
G36*
G01*
X171010000Y-120762000D02*
X171010000Y-122062000D01*
G75*
G02*
X170756000Y-122316000I-254000J0D01*
G01*
X169256000Y-122316000D01*
G75*
G02*
X169002000Y-122062000I0J254000D01*
G01*
X169002000Y-120762000D01*
G75*
G02*
X169256000Y-120508000I254000J0D01*
G01*
X170756000Y-120508000D01*
G75*
G02*
X171010000Y-120762000I0J-254000D01*
G01*
G37*
G36*
G01*
X168310000Y-122794000D02*
X168310000Y-124094000D01*
G75*
G02*
X168056000Y-124348000I-254000J0D01*
G01*
X166556000Y-124348000D01*
G75*
G02*
X166302000Y-124094000I0J254000D01*
G01*
X166302000Y-122794000D01*
G75*
G02*
X166556000Y-122540000I254000J0D01*
G01*
X168056000Y-122540000D01*
G75*
G02*
X168310000Y-122794000I0J-254000D01*
G01*
G37*
G36*
G01*
X171010000Y-122794000D02*
X171010000Y-124094000D01*
G75*
G02*
X170756000Y-124348000I-254000J0D01*
G01*
X169256000Y-124348000D01*
G75*
G02*
X169002000Y-124094000I0J254000D01*
G01*
X169002000Y-122794000D01*
G75*
G02*
X169256000Y-122540000I254000J0D01*
G01*
X170756000Y-122540000D01*
G75*
G02*
X171010000Y-122794000I0J-254000D01*
G01*
G37*
G36*
G01*
X160634500Y-127420000D02*
X160634500Y-129120000D01*
G75*
G02*
X160380500Y-129374000I-254000J0D01*
G01*
X159080500Y-129374000D01*
G75*
G02*
X158826500Y-129120000I0J254000D01*
G01*
X158826500Y-127420000D01*
G75*
G02*
X159080500Y-127166000I254000J0D01*
G01*
X160380500Y-127166000D01*
G75*
G02*
X160634500Y-127420000I0J-254000D01*
G01*
G37*
G36*
G01*
X164134500Y-127420000D02*
X164134500Y-129120000D01*
G75*
G02*
X163880500Y-129374000I-254000J0D01*
G01*
X162580500Y-129374000D01*
G75*
G02*
X162326500Y-129120000I0J254000D01*
G01*
X162326500Y-127420000D01*
G75*
G02*
X162580500Y-127166000I254000J0D01*
G01*
X163880500Y-127166000D01*
G75*
G02*
X164134500Y-127420000I0J-254000D01*
G01*
G37*
G36*
G01*
X114190000Y-130518000D02*
X114190000Y-132118000D01*
G75*
G02*
X113936000Y-132372000I-254000J0D01*
G01*
X110936000Y-132372000D01*
G75*
G02*
X110682000Y-132118000I0J254000D01*
G01*
X110682000Y-130518000D01*
G75*
G02*
X110936000Y-130264000I254000J0D01*
G01*
X113936000Y-130264000D01*
G75*
G02*
X114190000Y-130518000I0J-254000D01*
G01*
G37*
G36*
G01*
X109790000Y-130518000D02*
X109790000Y-132118000D01*
G75*
G02*
X109536000Y-132372000I-254000J0D01*
G01*
X106536000Y-132372000D01*
G75*
G02*
X106282000Y-132118000I0J254000D01*
G01*
X106282000Y-130518000D01*
G75*
G02*
X106536000Y-130264000I254000J0D01*
G01*
X109536000Y-130264000D01*
G75*
G02*
X109790000Y-130518000I0J-254000D01*
G01*
G37*
G36*
G01*
X114300000Y-120688100D02*
X114300000Y-118960900D01*
G75*
G02*
X114554000Y-118706900I254000J0D01*
G01*
X116586000Y-118706900D01*
G75*
G02*
X116840000Y-118960900I0J-254000D01*
G01*
X116840000Y-120688100D01*
G75*
G02*
X116586000Y-120942100I-254000J0D01*
G01*
X114554000Y-120942100D01*
G75*
G02*
X114300000Y-120688100I0J254000D01*
G01*
G37*
X115570000Y-122364500D03*
X115570000Y-124904500D03*
X115570000Y-127444500D03*
G36*
G01*
X119642000Y-122692000D02*
X119642000Y-123942000D01*
G75*
G02*
X119388000Y-124196000I-254000J0D01*
G01*
X117888000Y-124196000D01*
G75*
G02*
X117634000Y-123942000I0J254000D01*
G01*
X117634000Y-122692000D01*
G75*
G02*
X117888000Y-122438000I254000J0D01*
G01*
X119388000Y-122438000D01*
G75*
G02*
X119642000Y-122692000I0J-254000D01*
G01*
G37*
G36*
G01*
X122142000Y-122692000D02*
X122142000Y-123942000D01*
G75*
G02*
X121888000Y-124196000I-254000J0D01*
G01*
X120388000Y-124196000D01*
G75*
G02*
X120134000Y-123942000I0J254000D01*
G01*
X120134000Y-122692000D01*
G75*
G02*
X120388000Y-122438000I254000J0D01*
G01*
X121888000Y-122438000D01*
G75*
G02*
X122142000Y-122692000I0J-254000D01*
G01*
G37*
G36*
G01*
X123221000Y-135064000D02*
X123221000Y-133064000D01*
G75*
G02*
X123475000Y-132810000I254000J0D01*
G01*
X124175000Y-132810000D01*
G75*
G02*
X124429000Y-133064000I0J-254000D01*
G01*
X124429000Y-135064000D01*
G75*
G02*
X124175000Y-135318000I-254000J0D01*
G01*
X123475000Y-135318000D01*
G75*
G02*
X123221000Y-135064000I0J254000D01*
G01*
G37*
G36*
G01*
X123221000Y-129064000D02*
X123221000Y-127064000D01*
G75*
G02*
X123475000Y-126810000I254000J0D01*
G01*
X124175000Y-126810000D01*
G75*
G02*
X124429000Y-127064000I0J-254000D01*
G01*
X124429000Y-129064000D01*
G75*
G02*
X124175000Y-129318000I-254000J0D01*
G01*
X123475000Y-129318000D01*
G75*
G02*
X123221000Y-129064000I0J254000D01*
G01*
G37*
G36*
G01*
X124491000Y-135064000D02*
X124491000Y-133064000D01*
G75*
G02*
X124745000Y-132810000I254000J0D01*
G01*
X125445000Y-132810000D01*
G75*
G02*
X125699000Y-133064000I0J-254000D01*
G01*
X125699000Y-135064000D01*
G75*
G02*
X125445000Y-135318000I-254000J0D01*
G01*
X124745000Y-135318000D01*
G75*
G02*
X124491000Y-135064000I0J254000D01*
G01*
G37*
G36*
G01*
X125761000Y-135064000D02*
X125761000Y-133064000D01*
G75*
G02*
X126015000Y-132810000I254000J0D01*
G01*
X126715000Y-132810000D01*
G75*
G02*
X126969000Y-133064000I0J-254000D01*
G01*
X126969000Y-135064000D01*
G75*
G02*
X126715000Y-135318000I-254000J0D01*
G01*
X126015000Y-135318000D01*
G75*
G02*
X125761000Y-135064000I0J254000D01*
G01*
G37*
G36*
G01*
X127031000Y-135064000D02*
X127031000Y-133064000D01*
G75*
G02*
X127285000Y-132810000I254000J0D01*
G01*
X127985000Y-132810000D01*
G75*
G02*
X128239000Y-133064000I0J-254000D01*
G01*
X128239000Y-135064000D01*
G75*
G02*
X127985000Y-135318000I-254000J0D01*
G01*
X127285000Y-135318000D01*
G75*
G02*
X127031000Y-135064000I0J254000D01*
G01*
G37*
G36*
G01*
X124491000Y-129064000D02*
X124491000Y-127064000D01*
G75*
G02*
X124745000Y-126810000I254000J0D01*
G01*
X125445000Y-126810000D01*
G75*
G02*
X125699000Y-127064000I0J-254000D01*
G01*
X125699000Y-129064000D01*
G75*
G02*
X125445000Y-129318000I-254000J0D01*
G01*
X124745000Y-129318000D01*
G75*
G02*
X124491000Y-129064000I0J254000D01*
G01*
G37*
G36*
G01*
X125761000Y-129064000D02*
X125761000Y-127064000D01*
G75*
G02*
X126015000Y-126810000I254000J0D01*
G01*
X126715000Y-126810000D01*
G75*
G02*
X126969000Y-127064000I0J-254000D01*
G01*
X126969000Y-129064000D01*
G75*
G02*
X126715000Y-129318000I-254000J0D01*
G01*
X126015000Y-129318000D01*
G75*
G02*
X125761000Y-129064000I0J254000D01*
G01*
G37*
G36*
G01*
X127031000Y-129064000D02*
X127031000Y-127064000D01*
G75*
G02*
X127285000Y-126810000I254000J0D01*
G01*
X127985000Y-126810000D01*
G75*
G02*
X128239000Y-127064000I0J-254000D01*
G01*
X128239000Y-129064000D01*
G75*
G02*
X127985000Y-129318000I-254000J0D01*
G01*
X127285000Y-129318000D01*
G75*
G02*
X127031000Y-129064000I0J254000D01*
G01*
G37*
G36*
G01*
X109409000Y-118580000D02*
X109409000Y-120180000D01*
G75*
G02*
X109155000Y-120434000I-254000J0D01*
G01*
X106155000Y-120434000D01*
G75*
G02*
X105901000Y-120180000I0J254000D01*
G01*
X105901000Y-118580000D01*
G75*
G02*
X106155000Y-118326000I254000J0D01*
G01*
X109155000Y-118326000D01*
G75*
G02*
X109409000Y-118580000I0J-254000D01*
G01*
G37*
G36*
G01*
X113809000Y-118580000D02*
X113809000Y-120180000D01*
G75*
G02*
X113555000Y-120434000I-254000J0D01*
G01*
X110555000Y-120434000D01*
G75*
G02*
X110301000Y-120180000I0J254000D01*
G01*
X110301000Y-118580000D01*
G75*
G02*
X110555000Y-118326000I254000J0D01*
G01*
X113555000Y-118326000D01*
G75*
G02*
X113809000Y-118580000I0J-254000D01*
G01*
G37*
G36*
G01*
X126908000Y-118730000D02*
X126908000Y-120030000D01*
G75*
G02*
X126654000Y-120284000I-254000J0D01*
G01*
X125154000Y-120284000D01*
G75*
G02*
X124900000Y-120030000I0J254000D01*
G01*
X124900000Y-118730000D01*
G75*
G02*
X125154000Y-118476000I254000J0D01*
G01*
X126654000Y-118476000D01*
G75*
G02*
X126908000Y-118730000I0J-254000D01*
G01*
G37*
G36*
G01*
X129608000Y-118730000D02*
X129608000Y-120030000D01*
G75*
G02*
X129354000Y-120284000I-254000J0D01*
G01*
X127854000Y-120284000D01*
G75*
G02*
X127600000Y-120030000I0J254000D01*
G01*
X127600000Y-118730000D01*
G75*
G02*
X127854000Y-118476000I254000J0D01*
G01*
X129354000Y-118476000D01*
G75*
G02*
X129608000Y-118730000I0J-254000D01*
G01*
G37*
G36*
G01*
X130444000Y-132496000D02*
X129144000Y-132496000D01*
G75*
G02*
X128890000Y-132242000I0J254000D01*
G01*
X128890000Y-130742000D01*
G75*
G02*
X129144000Y-130488000I254000J0D01*
G01*
X130444000Y-130488000D01*
G75*
G02*
X130698000Y-130742000I0J-254000D01*
G01*
X130698000Y-132242000D01*
G75*
G02*
X130444000Y-132496000I-254000J0D01*
G01*
G37*
G36*
G01*
X130444000Y-135196000D02*
X129144000Y-135196000D01*
G75*
G02*
X128890000Y-134942000I0J254000D01*
G01*
X128890000Y-133442000D01*
G75*
G02*
X129144000Y-133188000I254000J0D01*
G01*
X130444000Y-133188000D01*
G75*
G02*
X130698000Y-133442000I0J-254000D01*
G01*
X130698000Y-134942000D01*
G75*
G02*
X130444000Y-135196000I-254000J0D01*
G01*
G37*
G36*
G01*
X128938720Y-110825520D02*
X128938720Y-112125520D01*
G75*
G02*
X128684720Y-112379520I-254000J0D01*
G01*
X127184720Y-112379520D01*
G75*
G02*
X126930720Y-112125520I0J254000D01*
G01*
X126930720Y-110825520D01*
G75*
G02*
X127184720Y-110571520I254000J0D01*
G01*
X128684720Y-110571520D01*
G75*
G02*
X128938720Y-110825520I0J-254000D01*
G01*
G37*
G36*
G01*
X131638720Y-110825520D02*
X131638720Y-112125520D01*
G75*
G02*
X131384720Y-112379520I-254000J0D01*
G01*
X129884720Y-112379520D01*
G75*
G02*
X129630720Y-112125520I0J254000D01*
G01*
X129630720Y-110825520D01*
G75*
G02*
X129884720Y-110571520I254000J0D01*
G01*
X131384720Y-110571520D01*
G75*
G02*
X131638720Y-110825520I0J-254000D01*
G01*
G37*
G36*
G01*
X114995800Y-138168000D02*
X116245800Y-138168000D01*
G75*
G02*
X116499800Y-138422000I0J-254000D01*
G01*
X116499800Y-139922000D01*
G75*
G02*
X116245800Y-140176000I-254000J0D01*
G01*
X114995800Y-140176000D01*
G75*
G02*
X114741800Y-139922000I0J254000D01*
G01*
X114741800Y-138422000D01*
G75*
G02*
X114995800Y-138168000I254000J0D01*
G01*
G37*
G36*
G01*
X114995800Y-135668000D02*
X116245800Y-135668000D01*
G75*
G02*
X116499800Y-135922000I0J-254000D01*
G01*
X116499800Y-137422000D01*
G75*
G02*
X116245800Y-137676000I-254000J0D01*
G01*
X114995800Y-137676000D01*
G75*
G02*
X114741800Y-137422000I0J254000D01*
G01*
X114741800Y-135922000D01*
G75*
G02*
X114995800Y-135668000I254000J0D01*
G01*
G37*
G36*
G01*
X126908000Y-124826000D02*
X126908000Y-126126000D01*
G75*
G02*
X126654000Y-126380000I-254000J0D01*
G01*
X125154000Y-126380000D01*
G75*
G02*
X124900000Y-126126000I0J254000D01*
G01*
X124900000Y-124826000D01*
G75*
G02*
X125154000Y-124572000I254000J0D01*
G01*
X126654000Y-124572000D01*
G75*
G02*
X126908000Y-124826000I0J-254000D01*
G01*
G37*
G36*
G01*
X129608000Y-124826000D02*
X129608000Y-126126000D01*
G75*
G02*
X129354000Y-126380000I-254000J0D01*
G01*
X127854000Y-126380000D01*
G75*
G02*
X127600000Y-126126000I0J254000D01*
G01*
X127600000Y-124826000D01*
G75*
G02*
X127854000Y-124572000I254000J0D01*
G01*
X129354000Y-124572000D01*
G75*
G02*
X129608000Y-124826000I0J-254000D01*
G01*
G37*
G36*
G01*
X103366000Y-135748000D02*
X103366000Y-137048000D01*
G75*
G02*
X103112000Y-137302000I-254000J0D01*
G01*
X101612000Y-137302000D01*
G75*
G02*
X101358000Y-137048000I0J254000D01*
G01*
X101358000Y-135748000D01*
G75*
G02*
X101612000Y-135494000I254000J0D01*
G01*
X103112000Y-135494000D01*
G75*
G02*
X103366000Y-135748000I0J-254000D01*
G01*
G37*
G36*
G01*
X106066000Y-135748000D02*
X106066000Y-137048000D01*
G75*
G02*
X105812000Y-137302000I-254000J0D01*
G01*
X104312000Y-137302000D01*
G75*
G02*
X104058000Y-137048000I0J254000D01*
G01*
X104058000Y-135748000D01*
G75*
G02*
X104312000Y-135494000I254000J0D01*
G01*
X105812000Y-135494000D01*
G75*
G02*
X106066000Y-135748000I0J-254000D01*
G01*
G37*
G36*
G01*
X117994430Y-139236490D02*
X117194330Y-139236490D01*
G75*
G02*
X116940330Y-138982490I0J254000D01*
G01*
X116940330Y-138182390D01*
G75*
G02*
X117194330Y-137928390I254000J0D01*
G01*
X117994430Y-137928390D01*
G75*
G02*
X118248430Y-138182390I0J-254000D01*
G01*
X118248430Y-138982490D01*
G75*
G02*
X117994430Y-139236490I-254000J0D01*
G01*
G37*
G36*
G01*
X117994430Y-137336490D02*
X117194330Y-137336490D01*
G75*
G02*
X116940330Y-137082490I0J254000D01*
G01*
X116940330Y-136282390D01*
G75*
G02*
X117194330Y-136028390I254000J0D01*
G01*
X117994430Y-136028390D01*
G75*
G02*
X118248430Y-136282390I0J-254000D01*
G01*
X118248430Y-137082490D01*
G75*
G02*
X117994430Y-137336490I-254000J0D01*
G01*
G37*
G36*
G01*
X119993410Y-138286490D02*
X119193310Y-138286490D01*
G75*
G02*
X118939310Y-138032490I0J254000D01*
G01*
X118939310Y-137232390D01*
G75*
G02*
X119193310Y-136978390I254000J0D01*
G01*
X119993410Y-136978390D01*
G75*
G02*
X120247410Y-137232390I0J-254000D01*
G01*
X120247410Y-138032490D01*
G75*
G02*
X119993410Y-138286490I-254000J0D01*
G01*
G37*
G36*
G01*
X114164600Y-124422000D02*
X114164600Y-126022000D01*
G75*
G02*
X113910600Y-126276000I-254000J0D01*
G01*
X110910600Y-126276000D01*
G75*
G02*
X110656600Y-126022000I0J254000D01*
G01*
X110656600Y-124422000D01*
G75*
G02*
X110910600Y-124168000I254000J0D01*
G01*
X113910600Y-124168000D01*
G75*
G02*
X114164600Y-124422000I0J-254000D01*
G01*
G37*
G36*
G01*
X109764600Y-124422000D02*
X109764600Y-126022000D01*
G75*
G02*
X109510600Y-126276000I-254000J0D01*
G01*
X106510600Y-126276000D01*
G75*
G02*
X106256600Y-126022000I0J254000D01*
G01*
X106256600Y-124422000D01*
G75*
G02*
X106510600Y-124168000I254000J0D01*
G01*
X109510600Y-124168000D01*
G75*
G02*
X109764600Y-124422000I0J-254000D01*
G01*
G37*
G36*
G01*
X112691440Y-110895840D02*
X111391440Y-110895840D01*
G75*
G02*
X111137440Y-110641840I0J254000D01*
G01*
X111137440Y-109141840D01*
G75*
G02*
X111391440Y-108887840I254000J0D01*
G01*
X112691440Y-108887840D01*
G75*
G02*
X112945440Y-109141840I0J-254000D01*
G01*
X112945440Y-110641840D01*
G75*
G02*
X112691440Y-110895840I-254000J0D01*
G01*
G37*
G36*
G01*
X112691440Y-113595840D02*
X111391440Y-113595840D01*
G75*
G02*
X111137440Y-113341840I0J254000D01*
G01*
X111137440Y-111841840D01*
G75*
G02*
X111391440Y-111587840I254000J0D01*
G01*
X112691440Y-111587840D01*
G75*
G02*
X112945440Y-111841840I0J-254000D01*
G01*
X112945440Y-113341840D01*
G75*
G02*
X112691440Y-113595840I-254000J0D01*
G01*
G37*
G36*
G01*
X119052500Y-116721000D02*
X117802500Y-116721000D01*
G75*
G02*
X117548500Y-116467000I0J254000D01*
G01*
X117548500Y-114967000D01*
G75*
G02*
X117802500Y-114713000I254000J0D01*
G01*
X119052500Y-114713000D01*
G75*
G02*
X119306500Y-114967000I0J-254000D01*
G01*
X119306500Y-116467000D01*
G75*
G02*
X119052500Y-116721000I-254000J0D01*
G01*
G37*
G36*
G01*
X119052500Y-119221000D02*
X117802500Y-119221000D01*
G75*
G02*
X117548500Y-118967000I0J254000D01*
G01*
X117548500Y-117467000D01*
G75*
G02*
X117802500Y-117213000I254000J0D01*
G01*
X119052500Y-117213000D01*
G75*
G02*
X119306500Y-117467000I0J-254000D01*
G01*
X119306500Y-118967000D01*
G75*
G02*
X119052500Y-119221000I-254000J0D01*
G01*
G37*
G36*
G01*
X97802700Y-109960410D02*
X99402900Y-109960410D01*
G75*
G02*
X99656900Y-110214410I0J-254000D01*
G01*
X99656900Y-113813590D01*
G75*
G02*
X99402900Y-114067590I-254000J0D01*
G01*
X97802700Y-114067590D01*
G75*
G02*
X97548700Y-113813590I0J254000D01*
G01*
X97548700Y-110214410D01*
G75*
G02*
X97802700Y-109960410I254000J0D01*
G01*
G37*
G36*
G01*
X97802700Y-115462050D02*
X99402900Y-115462050D01*
G75*
G02*
X99656900Y-115716050I0J-254000D01*
G01*
X99656900Y-119315230D01*
G75*
G02*
X99402900Y-119569230I-254000J0D01*
G01*
X97802700Y-119569230D01*
G75*
G02*
X97548700Y-119315230I0J254000D01*
G01*
X97548700Y-115716050D01*
G75*
G02*
X97802700Y-115462050I254000J0D01*
G01*
G37*
G36*
G01*
X103235200Y-124318000D02*
X103235200Y-125618000D01*
G75*
G02*
X102981200Y-125872000I-254000J0D01*
G01*
X101481200Y-125872000D01*
G75*
G02*
X101227200Y-125618000I0J254000D01*
G01*
X101227200Y-124318000D01*
G75*
G02*
X101481200Y-124064000I254000J0D01*
G01*
X102981200Y-124064000D01*
G75*
G02*
X103235200Y-124318000I0J-254000D01*
G01*
G37*
G36*
G01*
X105935200Y-124318000D02*
X105935200Y-125618000D01*
G75*
G02*
X105681200Y-125872000I-254000J0D01*
G01*
X104181200Y-125872000D01*
G75*
G02*
X103927200Y-125618000I0J254000D01*
G01*
X103927200Y-124318000D01*
G75*
G02*
X104181200Y-124064000I254000J0D01*
G01*
X105681200Y-124064000D01*
G75*
G02*
X105935200Y-124318000I0J-254000D01*
G01*
G37*
G36*
G01*
X122329500Y-126126000D02*
X122329500Y-124826000D01*
G75*
G02*
X122583500Y-124572000I254000J0D01*
G01*
X124083500Y-124572000D01*
G75*
G02*
X124337500Y-124826000I0J-254000D01*
G01*
X124337500Y-126126000D01*
G75*
G02*
X124083500Y-126380000I-254000J0D01*
G01*
X122583500Y-126380000D01*
G75*
G02*
X122329500Y-126126000I0J254000D01*
G01*
G37*
G36*
G01*
X119629500Y-126126000D02*
X119629500Y-124826000D01*
G75*
G02*
X119883500Y-124572000I254000J0D01*
G01*
X121383500Y-124572000D01*
G75*
G02*
X121637500Y-124826000I0J-254000D01*
G01*
X121637500Y-126126000D01*
G75*
G02*
X121383500Y-126380000I-254000J0D01*
G01*
X119883500Y-126380000D01*
G75*
G02*
X119629500Y-126126000I0J254000D01*
G01*
G37*
G36*
G01*
X116618120Y-131731840D02*
X114918120Y-131731840D01*
G75*
G02*
X114664120Y-131477840I0J254000D01*
G01*
X114664120Y-130177840D01*
G75*
G02*
X114918120Y-129923840I254000J0D01*
G01*
X116618120Y-129923840D01*
G75*
G02*
X116872120Y-130177840I0J-254000D01*
G01*
X116872120Y-131477840D01*
G75*
G02*
X116618120Y-131731840I-254000J0D01*
G01*
G37*
G36*
G01*
X116618120Y-135231840D02*
X114918120Y-135231840D01*
G75*
G02*
X114664120Y-134977840I0J254000D01*
G01*
X114664120Y-133677840D01*
G75*
G02*
X114918120Y-133423840I254000J0D01*
G01*
X116618120Y-133423840D01*
G75*
G02*
X116872120Y-133677840I0J-254000D01*
G01*
X116872120Y-134977840D01*
G75*
G02*
X116618120Y-135231840I-254000J0D01*
G01*
G37*
G36*
G01*
X102206500Y-119746000D02*
X102206500Y-121046000D01*
G75*
G02*
X101952500Y-121300000I-254000J0D01*
G01*
X100452500Y-121300000D01*
G75*
G02*
X100198500Y-121046000I0J254000D01*
G01*
X100198500Y-119746000D01*
G75*
G02*
X100452500Y-119492000I254000J0D01*
G01*
X101952500Y-119492000D01*
G75*
G02*
X102206500Y-119746000I0J-254000D01*
G01*
G37*
G36*
G01*
X104906500Y-119746000D02*
X104906500Y-121046000D01*
G75*
G02*
X104652500Y-121300000I-254000J0D01*
G01*
X103152500Y-121300000D01*
G75*
G02*
X102898500Y-121046000I0J254000D01*
G01*
X102898500Y-119746000D01*
G75*
G02*
X103152500Y-119492000I254000J0D01*
G01*
X104652500Y-119492000D01*
G75*
G02*
X104906500Y-119746000I0J-254000D01*
G01*
G37*
G36*
G01*
X98082100Y-139820650D02*
X96481900Y-139820650D01*
G75*
G02*
X96227900Y-139566650I0J254000D01*
G01*
X96227900Y-135967470D01*
G75*
G02*
X96481900Y-135713470I254000J0D01*
G01*
X98082100Y-135713470D01*
G75*
G02*
X98336100Y-135967470I0J-254000D01*
G01*
X98336100Y-139566650D01*
G75*
G02*
X98082100Y-139820650I-254000J0D01*
G01*
G37*
G36*
G01*
X98082100Y-134319010D02*
X96481900Y-134319010D01*
G75*
G02*
X96227900Y-134065010I0J254000D01*
G01*
X96227900Y-130465830D01*
G75*
G02*
X96481900Y-130211830I254000J0D01*
G01*
X98082100Y-130211830D01*
G75*
G02*
X98336100Y-130465830I0J-254000D01*
G01*
X98336100Y-134065010D01*
G75*
G02*
X98082100Y-134319010I-254000J0D01*
G01*
G37*
G36*
G01*
X103776400Y-123307000D02*
X103776400Y-122057000D01*
G75*
G02*
X104030400Y-121803000I254000J0D01*
G01*
X105530400Y-121803000D01*
G75*
G02*
X105784400Y-122057000I0J-254000D01*
G01*
X105784400Y-123307000D01*
G75*
G02*
X105530400Y-123561000I-254000J0D01*
G01*
X104030400Y-123561000D01*
G75*
G02*
X103776400Y-123307000I0J254000D01*
G01*
G37*
G36*
G01*
X101276400Y-123307000D02*
X101276400Y-122057000D01*
G75*
G02*
X101530400Y-121803000I254000J0D01*
G01*
X103030400Y-121803000D01*
G75*
G02*
X103284400Y-122057000I0J-254000D01*
G01*
X103284400Y-123307000D01*
G75*
G02*
X103030400Y-123561000I-254000J0D01*
G01*
X101530400Y-123561000D01*
G75*
G02*
X101276400Y-123307000I0J254000D01*
G01*
G37*
G36*
G01*
X109395500Y-111598000D02*
X110695500Y-111598000D01*
G75*
G02*
X110949500Y-111852000I0J-254000D01*
G01*
X110949500Y-113352000D01*
G75*
G02*
X110695500Y-113606000I-254000J0D01*
G01*
X109395500Y-113606000D01*
G75*
G02*
X109141500Y-113352000I0J254000D01*
G01*
X109141500Y-111852000D01*
G75*
G02*
X109395500Y-111598000I254000J0D01*
G01*
G37*
G36*
G01*
X109395500Y-108898000D02*
X110695500Y-108898000D01*
G75*
G02*
X110949500Y-109152000I0J-254000D01*
G01*
X110949500Y-110652000D01*
G75*
G02*
X110695500Y-110906000I-254000J0D01*
G01*
X109395500Y-110906000D01*
G75*
G02*
X109141500Y-110652000I0J254000D01*
G01*
X109141500Y-109152000D01*
G75*
G02*
X109395500Y-108898000I254000J0D01*
G01*
G37*
G36*
G01*
X124626920Y-112125520D02*
X124626920Y-110825520D01*
G75*
G02*
X124880920Y-110571520I254000J0D01*
G01*
X126380920Y-110571520D01*
G75*
G02*
X126634920Y-110825520I0J-254000D01*
G01*
X126634920Y-112125520D01*
G75*
G02*
X126380920Y-112379520I-254000J0D01*
G01*
X124880920Y-112379520D01*
G75*
G02*
X124626920Y-112125520I0J254000D01*
G01*
G37*
G36*
G01*
X121926920Y-112125520D02*
X121926920Y-110825520D01*
G75*
G02*
X122180920Y-110571520I254000J0D01*
G01*
X123680920Y-110571520D01*
G75*
G02*
X123934920Y-110825520I0J-254000D01*
G01*
X123934920Y-112125520D01*
G75*
G02*
X123680920Y-112379520I-254000J0D01*
G01*
X122180920Y-112379520D01*
G75*
G02*
X121926920Y-112125520I0J254000D01*
G01*
G37*
G36*
G01*
X121942160Y-114208320D02*
X121942160Y-112908320D01*
G75*
G02*
X122196160Y-112654320I254000J0D01*
G01*
X123696160Y-112654320D01*
G75*
G02*
X123950160Y-112908320I0J-254000D01*
G01*
X123950160Y-114208320D01*
G75*
G02*
X123696160Y-114462320I-254000J0D01*
G01*
X122196160Y-114462320D01*
G75*
G02*
X121942160Y-114208320I0J254000D01*
G01*
G37*
G36*
G01*
X124642160Y-114208320D02*
X124642160Y-112908320D01*
G75*
G02*
X124896160Y-112654320I254000J0D01*
G01*
X126396160Y-112654320D01*
G75*
G02*
X126650160Y-112908320I0J-254000D01*
G01*
X126650160Y-114208320D01*
G75*
G02*
X126396160Y-114462320I-254000J0D01*
G01*
X124896160Y-114462320D01*
G75*
G02*
X124642160Y-114208320I0J254000D01*
G01*
G37*
G36*
G01*
X131659040Y-112933720D02*
X131659040Y-114233720D01*
G75*
G02*
X131405040Y-114487720I-254000J0D01*
G01*
X129905040Y-114487720D01*
G75*
G02*
X129651040Y-114233720I0J254000D01*
G01*
X129651040Y-112933720D01*
G75*
G02*
X129905040Y-112679720I254000J0D01*
G01*
X131405040Y-112679720D01*
G75*
G02*
X131659040Y-112933720I0J-254000D01*
G01*
G37*
G36*
G01*
X128959040Y-112933720D02*
X128959040Y-114233720D01*
G75*
G02*
X128705040Y-114487720I-254000J0D01*
G01*
X127205040Y-114487720D01*
G75*
G02*
X126951040Y-114233720I0J254000D01*
G01*
X126951040Y-112933720D01*
G75*
G02*
X127205040Y-112679720I254000J0D01*
G01*
X128705040Y-112679720D01*
G75*
G02*
X128959040Y-112933720I0J-254000D01*
G01*
G37*
G36*
G01*
X118826040Y-135000420D02*
X117526040Y-135000420D01*
G75*
G02*
X117272040Y-134746420I0J254000D01*
G01*
X117272040Y-133246420D01*
G75*
G02*
X117526040Y-132992420I254000J0D01*
G01*
X118826040Y-132992420D01*
G75*
G02*
X119080040Y-133246420I0J-254000D01*
G01*
X119080040Y-134746420D01*
G75*
G02*
X118826040Y-135000420I-254000J0D01*
G01*
G37*
G36*
G01*
X118826040Y-132300420D02*
X117526040Y-132300420D01*
G75*
G02*
X117272040Y-132046420I0J254000D01*
G01*
X117272040Y-130546420D01*
G75*
G02*
X117526040Y-130292420I254000J0D01*
G01*
X118826040Y-130292420D01*
G75*
G02*
X119080040Y-130546420I0J-254000D01*
G01*
X119080040Y-132046420D01*
G75*
G02*
X118826040Y-132300420I-254000J0D01*
G01*
G37*
G36*
G01*
X101762000Y-109027200D02*
X101762000Y-110327200D01*
G75*
G02*
X101508000Y-110581200I-254000J0D01*
G01*
X100008000Y-110581200D01*
G75*
G02*
X99754000Y-110327200I0J254000D01*
G01*
X99754000Y-109027200D01*
G75*
G02*
X100008000Y-108773200I254000J0D01*
G01*
X101508000Y-108773200D01*
G75*
G02*
X101762000Y-109027200I0J-254000D01*
G01*
G37*
G36*
G01*
X104462000Y-109027200D02*
X104462000Y-110327200D01*
G75*
G02*
X104208000Y-110581200I-254000J0D01*
G01*
X102708000Y-110581200D01*
G75*
G02*
X102454000Y-110327200I0J254000D01*
G01*
X102454000Y-109027200D01*
G75*
G02*
X102708000Y-108773200I254000J0D01*
G01*
X104208000Y-108773200D01*
G75*
G02*
X104462000Y-109027200I0J-254000D01*
G01*
G37*
G36*
G01*
X117866000Y-112514000D02*
X119116000Y-112514000D01*
G75*
G02*
X119370000Y-112768000I0J-254000D01*
G01*
X119370000Y-114268000D01*
G75*
G02*
X119116000Y-114522000I-254000J0D01*
G01*
X117866000Y-114522000D01*
G75*
G02*
X117612000Y-114268000I0J254000D01*
G01*
X117612000Y-112768000D01*
G75*
G02*
X117866000Y-112514000I254000J0D01*
G01*
G37*
G36*
G01*
X117866000Y-110014000D02*
X119116000Y-110014000D01*
G75*
G02*
X119370000Y-110268000I0J-254000D01*
G01*
X119370000Y-111768000D01*
G75*
G02*
X119116000Y-112022000I-254000J0D01*
G01*
X117866000Y-112022000D01*
G75*
G02*
X117612000Y-111768000I0J254000D01*
G01*
X117612000Y-110268000D01*
G75*
G02*
X117866000Y-110014000I254000J0D01*
G01*
G37*
G36*
G01*
X94440640Y-105606480D02*
X96140640Y-105606480D01*
G75*
G02*
X96394640Y-105860480I0J-254000D01*
G01*
X96394640Y-107560480D01*
G75*
G02*
X96140640Y-107814480I-254000J0D01*
G01*
X94440640Y-107814480D01*
G75*
G02*
X94186640Y-107560480I0J254000D01*
G01*
X94186640Y-105860480D01*
G75*
G02*
X94440640Y-105606480I254000J0D01*
G01*
G37*
D11*
X97830640Y-106710480D03*
X100370640Y-106710480D03*
X102910640Y-106710480D03*
X105450640Y-106710480D03*
X107990640Y-106710480D03*
X110530640Y-106710480D03*
X113070640Y-106710480D03*
X115610640Y-106710480D03*
X118150640Y-106710480D03*
X120690640Y-106710480D03*
X123230640Y-106710480D03*
G36*
G01*
X103366000Y-131176000D02*
X103366000Y-132476000D01*
G75*
G02*
X103112000Y-132730000I-254000J0D01*
G01*
X101612000Y-132730000D01*
G75*
G02*
X101358000Y-132476000I0J254000D01*
G01*
X101358000Y-131176000D01*
G75*
G02*
X101612000Y-130922000I254000J0D01*
G01*
X103112000Y-130922000D01*
G75*
G02*
X103366000Y-131176000I0J-254000D01*
G01*
G37*
G36*
G01*
X106066000Y-131176000D02*
X106066000Y-132476000D01*
G75*
G02*
X105812000Y-132730000I-254000J0D01*
G01*
X104312000Y-132730000D01*
G75*
G02*
X104058000Y-132476000I0J254000D01*
G01*
X104058000Y-131176000D01*
G75*
G02*
X104312000Y-130922000I254000J0D01*
G01*
X105812000Y-130922000D01*
G75*
G02*
X106066000Y-131176000I0J-254000D01*
G01*
G37*
G36*
G01*
X103858000Y-134737000D02*
X103858000Y-133487000D01*
G75*
G02*
X104112000Y-133233000I254000J0D01*
G01*
X105612000Y-133233000D01*
G75*
G02*
X105866000Y-133487000I0J-254000D01*
G01*
X105866000Y-134737000D01*
G75*
G02*
X105612000Y-134991000I-254000J0D01*
G01*
X104112000Y-134991000D01*
G75*
G02*
X103858000Y-134737000I0J254000D01*
G01*
G37*
G36*
G01*
X101358000Y-134737000D02*
X101358000Y-133487000D01*
G75*
G02*
X101612000Y-133233000I254000J0D01*
G01*
X103112000Y-133233000D01*
G75*
G02*
X103366000Y-133487000I0J-254000D01*
G01*
X103366000Y-134737000D01*
G75*
G02*
X103112000Y-134991000I-254000J0D01*
G01*
X101612000Y-134991000D01*
G75*
G02*
X101358000Y-134737000I0J254000D01*
G01*
G37*
G36*
G01*
X114230640Y-136187280D02*
X114230640Y-137787280D01*
G75*
G02*
X113976640Y-138041280I-254000J0D01*
G01*
X110976640Y-138041280D01*
G75*
G02*
X110722640Y-137787280I0J254000D01*
G01*
X110722640Y-136187280D01*
G75*
G02*
X110976640Y-135933280I254000J0D01*
G01*
X113976640Y-135933280D01*
G75*
G02*
X114230640Y-136187280I0J-254000D01*
G01*
G37*
G36*
G01*
X109830640Y-136187280D02*
X109830640Y-137787280D01*
G75*
G02*
X109576640Y-138041280I-254000J0D01*
G01*
X106576640Y-138041280D01*
G75*
G02*
X106322640Y-137787280I0J254000D01*
G01*
X106322640Y-136187280D01*
G75*
G02*
X106576640Y-135933280I254000J0D01*
G01*
X109576640Y-135933280D01*
G75*
G02*
X109830640Y-136187280I0J-254000D01*
G01*
G37*
G36*
G01*
X120294400Y-115570000D02*
X122021600Y-115570000D01*
G75*
G02*
X122275600Y-115824000I0J-254000D01*
G01*
X122275600Y-117856000D01*
G75*
G02*
X122021600Y-118110000I-254000J0D01*
G01*
X120294400Y-118110000D01*
G75*
G02*
X120040400Y-117856000I0J254000D01*
G01*
X120040400Y-115824000D01*
G75*
G02*
X120294400Y-115570000I254000J0D01*
G01*
G37*
D12*
X123698000Y-116840000D03*
X126238000Y-116840000D03*
X128778000Y-116840000D03*
X131318000Y-116840000D03*
G36*
G01*
X103952600Y-127904000D02*
X103952600Y-126604000D01*
G75*
G02*
X104206600Y-126350000I254000J0D01*
G01*
X105706600Y-126350000D01*
G75*
G02*
X105960600Y-126604000I0J-254000D01*
G01*
X105960600Y-127904000D01*
G75*
G02*
X105706600Y-128158000I-254000J0D01*
G01*
X104206600Y-128158000D01*
G75*
G02*
X103952600Y-127904000I0J254000D01*
G01*
G37*
G36*
G01*
X101252600Y-127904000D02*
X101252600Y-126604000D01*
G75*
G02*
X101506600Y-126350000I254000J0D01*
G01*
X103006600Y-126350000D01*
G75*
G02*
X103260600Y-126604000I0J-254000D01*
G01*
X103260600Y-127904000D01*
G75*
G02*
X103006600Y-128158000I-254000J0D01*
G01*
X101506600Y-128158000D01*
G75*
G02*
X101252600Y-127904000I0J254000D01*
G01*
G37*
G36*
G01*
X100330000Y-128120140D02*
X100330000Y-129263140D01*
G75*
G02*
X100076000Y-129517140I-254000J0D01*
G01*
X99568000Y-129517140D01*
G75*
G02*
X99314000Y-129263140I0J254000D01*
G01*
X99314000Y-128120140D01*
G75*
G02*
X99568000Y-127866140I254000J0D01*
G01*
X100076000Y-127866140D01*
G75*
G02*
X100330000Y-128120140I0J-254000D01*
G01*
G37*
G36*
G01*
X99060000Y-128120140D02*
X99060000Y-129263140D01*
G75*
G02*
X98806000Y-129517140I-254000J0D01*
G01*
X98298000Y-129517140D01*
G75*
G02*
X98044000Y-129263140I0J254000D01*
G01*
X98044000Y-128120140D01*
G75*
G02*
X98298000Y-127866140I254000J0D01*
G01*
X98806000Y-127866140D01*
G75*
G02*
X99060000Y-128120140I0J-254000D01*
G01*
G37*
G36*
G01*
X97790000Y-128120140D02*
X97790000Y-129263140D01*
G75*
G02*
X97536000Y-129517140I-254000J0D01*
G01*
X97028000Y-129517140D01*
G75*
G02*
X96774000Y-129263140I0J254000D01*
G01*
X96774000Y-128120140D01*
G75*
G02*
X97028000Y-127866140I254000J0D01*
G01*
X97536000Y-127866140D01*
G75*
G02*
X97790000Y-128120140I0J-254000D01*
G01*
G37*
G36*
G01*
X96520000Y-128120140D02*
X96520000Y-129263140D01*
G75*
G02*
X96266000Y-129517140I-254000J0D01*
G01*
X95758000Y-129517140D01*
G75*
G02*
X95504000Y-129263140I0J254000D01*
G01*
X95504000Y-128120140D01*
G75*
G02*
X95758000Y-127866140I254000J0D01*
G01*
X96266000Y-127866140D01*
G75*
G02*
X96520000Y-128120140I0J-254000D01*
G01*
G37*
G36*
G01*
X96520000Y-121770140D02*
X96520000Y-122913140D01*
G75*
G02*
X96266000Y-123167140I-254000J0D01*
G01*
X95758000Y-123167140D01*
G75*
G02*
X95504000Y-122913140I0J254000D01*
G01*
X95504000Y-121770140D01*
G75*
G02*
X95758000Y-121516140I254000J0D01*
G01*
X96266000Y-121516140D01*
G75*
G02*
X96520000Y-121770140I0J-254000D01*
G01*
G37*
G36*
G01*
X97790000Y-121770140D02*
X97790000Y-122913140D01*
G75*
G02*
X97536000Y-123167140I-254000J0D01*
G01*
X97028000Y-123167140D01*
G75*
G02*
X96774000Y-122913140I0J254000D01*
G01*
X96774000Y-121770140D01*
G75*
G02*
X97028000Y-121516140I254000J0D01*
G01*
X97536000Y-121516140D01*
G75*
G02*
X97790000Y-121770140I0J-254000D01*
G01*
G37*
G36*
G01*
X99060000Y-121770140D02*
X99060000Y-122913140D01*
G75*
G02*
X98806000Y-123167140I-254000J0D01*
G01*
X98298000Y-123167140D01*
G75*
G02*
X98044000Y-122913140I0J254000D01*
G01*
X98044000Y-121770140D01*
G75*
G02*
X98298000Y-121516140I254000J0D01*
G01*
X98806000Y-121516140D01*
G75*
G02*
X99060000Y-121770140I0J-254000D01*
G01*
G37*
G36*
G01*
X100330000Y-121770140D02*
X100330000Y-122913140D01*
G75*
G02*
X100076000Y-123167140I-254000J0D01*
G01*
X99568000Y-123167140D01*
G75*
G02*
X99314000Y-122913140I0J254000D01*
G01*
X99314000Y-121770140D01*
G75*
G02*
X99568000Y-121516140I254000J0D01*
G01*
X100076000Y-121516140D01*
G75*
G02*
X100330000Y-121770140I0J-254000D01*
G01*
G37*
G36*
G01*
X116892000Y-115332400D02*
X116892000Y-117059600D01*
G75*
G02*
X116638000Y-117313600I-254000J0D01*
G01*
X114606000Y-117313600D01*
G75*
G02*
X114352000Y-117059600I0J254000D01*
G01*
X114352000Y-115332400D01*
G75*
G02*
X114606000Y-115078400I254000J0D01*
G01*
X116638000Y-115078400D01*
G75*
G02*
X116892000Y-115332400I0J-254000D01*
G01*
G37*
D10*
X115622000Y-113656000D03*
X115622000Y-111116000D03*
G36*
G01*
X110893860Y-115812571D02*
X110893860Y-114311429D01*
G75*
G02*
X111147859Y-114057430I253999J0D01*
G01*
X113296701Y-114057430D01*
G75*
G02*
X113550700Y-114311429I0J-253999D01*
G01*
X113550700Y-115812571D01*
G75*
G02*
X113296701Y-116066570I-253999J0D01*
G01*
X111147859Y-116066570D01*
G75*
G02*
X110893860Y-115812571I0J253999D01*
G01*
G37*
G36*
G01*
X107891580Y-115812571D02*
X107891580Y-114311429D01*
G75*
G02*
X108145579Y-114057430I253999J0D01*
G01*
X110294421Y-114057430D01*
G75*
G02*
X110548420Y-114311429I0J-253999D01*
G01*
X110548420Y-115812571D01*
G75*
G02*
X110294421Y-116066570I-253999J0D01*
G01*
X108145579Y-116066570D01*
G75*
G02*
X107891580Y-115812571I0J253999D01*
G01*
G37*
G36*
G01*
X121104500Y-133278500D02*
X122354500Y-133278500D01*
G75*
G02*
X122608500Y-133532500I0J-254000D01*
G01*
X122608500Y-135032500D01*
G75*
G02*
X122354500Y-135286500I-254000J0D01*
G01*
X121104500Y-135286500D01*
G75*
G02*
X120850500Y-135032500I0J254000D01*
G01*
X120850500Y-133532500D01*
G75*
G02*
X121104500Y-133278500I254000J0D01*
G01*
G37*
G36*
G01*
X121104500Y-130778500D02*
X122354500Y-130778500D01*
G75*
G02*
X122608500Y-131032500I0J-254000D01*
G01*
X122608500Y-132532500D01*
G75*
G02*
X122354500Y-132786500I-254000J0D01*
G01*
X121104500Y-132786500D01*
G75*
G02*
X120850500Y-132532500I0J254000D01*
G01*
X120850500Y-131032500D01*
G75*
G02*
X121104500Y-130778500I254000J0D01*
G01*
G37*
G36*
G01*
X104058000Y-130190000D02*
X104058000Y-128890000D01*
G75*
G02*
X104312000Y-128636000I254000J0D01*
G01*
X105812000Y-128636000D01*
G75*
G02*
X106066000Y-128890000I0J-254000D01*
G01*
X106066000Y-130190000D01*
G75*
G02*
X105812000Y-130444000I-254000J0D01*
G01*
X104312000Y-130444000D01*
G75*
G02*
X104058000Y-130190000I0J254000D01*
G01*
G37*
G36*
G01*
X101358000Y-130190000D02*
X101358000Y-128890000D01*
G75*
G02*
X101612000Y-128636000I254000J0D01*
G01*
X103112000Y-128636000D01*
G75*
G02*
X103366000Y-128890000I0J-254000D01*
G01*
X103366000Y-130190000D01*
G75*
G02*
X103112000Y-130444000I-254000J0D01*
G01*
X101612000Y-130444000D01*
G75*
G02*
X101358000Y-130190000I0J254000D01*
G01*
G37*
G36*
G01*
X126908000Y-120762000D02*
X126908000Y-122062000D01*
G75*
G02*
X126654000Y-122316000I-254000J0D01*
G01*
X125154000Y-122316000D01*
G75*
G02*
X124900000Y-122062000I0J254000D01*
G01*
X124900000Y-120762000D01*
G75*
G02*
X125154000Y-120508000I254000J0D01*
G01*
X126654000Y-120508000D01*
G75*
G02*
X126908000Y-120762000I0J-254000D01*
G01*
G37*
G36*
G01*
X129608000Y-120762000D02*
X129608000Y-122062000D01*
G75*
G02*
X129354000Y-122316000I-254000J0D01*
G01*
X127854000Y-122316000D01*
G75*
G02*
X127600000Y-122062000I0J254000D01*
G01*
X127600000Y-120762000D01*
G75*
G02*
X127854000Y-120508000I254000J0D01*
G01*
X129354000Y-120508000D01*
G75*
G02*
X129608000Y-120762000I0J-254000D01*
G01*
G37*
G36*
G01*
X126908000Y-122794000D02*
X126908000Y-124094000D01*
G75*
G02*
X126654000Y-124348000I-254000J0D01*
G01*
X125154000Y-124348000D01*
G75*
G02*
X124900000Y-124094000I0J254000D01*
G01*
X124900000Y-122794000D01*
G75*
G02*
X125154000Y-122540000I254000J0D01*
G01*
X126654000Y-122540000D01*
G75*
G02*
X126908000Y-122794000I0J-254000D01*
G01*
G37*
G36*
G01*
X129608000Y-122794000D02*
X129608000Y-124094000D01*
G75*
G02*
X129354000Y-124348000I-254000J0D01*
G01*
X127854000Y-124348000D01*
G75*
G02*
X127600000Y-124094000I0J254000D01*
G01*
X127600000Y-122794000D01*
G75*
G02*
X127854000Y-122540000I254000J0D01*
G01*
X129354000Y-122540000D01*
G75*
G02*
X129608000Y-122794000I0J-254000D01*
G01*
G37*
G36*
G01*
X119232500Y-127420000D02*
X119232500Y-129120000D01*
G75*
G02*
X118978500Y-129374000I-254000J0D01*
G01*
X117678500Y-129374000D01*
G75*
G02*
X117424500Y-129120000I0J254000D01*
G01*
X117424500Y-127420000D01*
G75*
G02*
X117678500Y-127166000I254000J0D01*
G01*
X118978500Y-127166000D01*
G75*
G02*
X119232500Y-127420000I0J-254000D01*
G01*
G37*
G36*
G01*
X122732500Y-127420000D02*
X122732500Y-129120000D01*
G75*
G02*
X122478500Y-129374000I-254000J0D01*
G01*
X121178500Y-129374000D01*
G75*
G02*
X120924500Y-129120000I0J254000D01*
G01*
X120924500Y-127420000D01*
G75*
G02*
X121178500Y-127166000I254000J0D01*
G01*
X122478500Y-127166000D01*
G75*
G02*
X122732500Y-127420000I0J-254000D01*
G01*
G37*
G36*
G01*
X155592000Y-94450000D02*
X155592000Y-96050000D01*
G75*
G02*
X155338000Y-96304000I-254000J0D01*
G01*
X152338000Y-96304000D01*
G75*
G02*
X152084000Y-96050000I0J254000D01*
G01*
X152084000Y-94450000D01*
G75*
G02*
X152338000Y-94196000I254000J0D01*
G01*
X155338000Y-94196000D01*
G75*
G02*
X155592000Y-94450000I0J-254000D01*
G01*
G37*
G36*
G01*
X151192000Y-94450000D02*
X151192000Y-96050000D01*
G75*
G02*
X150938000Y-96304000I-254000J0D01*
G01*
X147938000Y-96304000D01*
G75*
G02*
X147684000Y-96050000I0J254000D01*
G01*
X147684000Y-94450000D01*
G75*
G02*
X147938000Y-94196000I254000J0D01*
G01*
X150938000Y-94196000D01*
G75*
G02*
X151192000Y-94450000I0J-254000D01*
G01*
G37*
G36*
G01*
X155702000Y-84620100D02*
X155702000Y-82892900D01*
G75*
G02*
X155956000Y-82638900I254000J0D01*
G01*
X157988000Y-82638900D01*
G75*
G02*
X158242000Y-82892900I0J-254000D01*
G01*
X158242000Y-84620100D01*
G75*
G02*
X157988000Y-84874100I-254000J0D01*
G01*
X155956000Y-84874100D01*
G75*
G02*
X155702000Y-84620100I0J254000D01*
G01*
G37*
X156972000Y-86296500D03*
X156972000Y-88836500D03*
X156972000Y-91376500D03*
G36*
G01*
X161044000Y-86624000D02*
X161044000Y-87874000D01*
G75*
G02*
X160790000Y-88128000I-254000J0D01*
G01*
X159290000Y-88128000D01*
G75*
G02*
X159036000Y-87874000I0J254000D01*
G01*
X159036000Y-86624000D01*
G75*
G02*
X159290000Y-86370000I254000J0D01*
G01*
X160790000Y-86370000D01*
G75*
G02*
X161044000Y-86624000I0J-254000D01*
G01*
G37*
G36*
G01*
X163544000Y-86624000D02*
X163544000Y-87874000D01*
G75*
G02*
X163290000Y-88128000I-254000J0D01*
G01*
X161790000Y-88128000D01*
G75*
G02*
X161536000Y-87874000I0J254000D01*
G01*
X161536000Y-86624000D01*
G75*
G02*
X161790000Y-86370000I254000J0D01*
G01*
X163290000Y-86370000D01*
G75*
G02*
X163544000Y-86624000I0J-254000D01*
G01*
G37*
G36*
G01*
X164623000Y-98996000D02*
X164623000Y-96996000D01*
G75*
G02*
X164877000Y-96742000I254000J0D01*
G01*
X165577000Y-96742000D01*
G75*
G02*
X165831000Y-96996000I0J-254000D01*
G01*
X165831000Y-98996000D01*
G75*
G02*
X165577000Y-99250000I-254000J0D01*
G01*
X164877000Y-99250000D01*
G75*
G02*
X164623000Y-98996000I0J254000D01*
G01*
G37*
G36*
G01*
X164623000Y-92996000D02*
X164623000Y-90996000D01*
G75*
G02*
X164877000Y-90742000I254000J0D01*
G01*
X165577000Y-90742000D01*
G75*
G02*
X165831000Y-90996000I0J-254000D01*
G01*
X165831000Y-92996000D01*
G75*
G02*
X165577000Y-93250000I-254000J0D01*
G01*
X164877000Y-93250000D01*
G75*
G02*
X164623000Y-92996000I0J254000D01*
G01*
G37*
G36*
G01*
X165893000Y-98996000D02*
X165893000Y-96996000D01*
G75*
G02*
X166147000Y-96742000I254000J0D01*
G01*
X166847000Y-96742000D01*
G75*
G02*
X167101000Y-96996000I0J-254000D01*
G01*
X167101000Y-98996000D01*
G75*
G02*
X166847000Y-99250000I-254000J0D01*
G01*
X166147000Y-99250000D01*
G75*
G02*
X165893000Y-98996000I0J254000D01*
G01*
G37*
G36*
G01*
X167163000Y-98996000D02*
X167163000Y-96996000D01*
G75*
G02*
X167417000Y-96742000I254000J0D01*
G01*
X168117000Y-96742000D01*
G75*
G02*
X168371000Y-96996000I0J-254000D01*
G01*
X168371000Y-98996000D01*
G75*
G02*
X168117000Y-99250000I-254000J0D01*
G01*
X167417000Y-99250000D01*
G75*
G02*
X167163000Y-98996000I0J254000D01*
G01*
G37*
G36*
G01*
X168433000Y-98996000D02*
X168433000Y-96996000D01*
G75*
G02*
X168687000Y-96742000I254000J0D01*
G01*
X169387000Y-96742000D01*
G75*
G02*
X169641000Y-96996000I0J-254000D01*
G01*
X169641000Y-98996000D01*
G75*
G02*
X169387000Y-99250000I-254000J0D01*
G01*
X168687000Y-99250000D01*
G75*
G02*
X168433000Y-98996000I0J254000D01*
G01*
G37*
G36*
G01*
X165893000Y-92996000D02*
X165893000Y-90996000D01*
G75*
G02*
X166147000Y-90742000I254000J0D01*
G01*
X166847000Y-90742000D01*
G75*
G02*
X167101000Y-90996000I0J-254000D01*
G01*
X167101000Y-92996000D01*
G75*
G02*
X166847000Y-93250000I-254000J0D01*
G01*
X166147000Y-93250000D01*
G75*
G02*
X165893000Y-92996000I0J254000D01*
G01*
G37*
G36*
G01*
X167163000Y-92996000D02*
X167163000Y-90996000D01*
G75*
G02*
X167417000Y-90742000I254000J0D01*
G01*
X168117000Y-90742000D01*
G75*
G02*
X168371000Y-90996000I0J-254000D01*
G01*
X168371000Y-92996000D01*
G75*
G02*
X168117000Y-93250000I-254000J0D01*
G01*
X167417000Y-93250000D01*
G75*
G02*
X167163000Y-92996000I0J254000D01*
G01*
G37*
G36*
G01*
X168433000Y-92996000D02*
X168433000Y-90996000D01*
G75*
G02*
X168687000Y-90742000I254000J0D01*
G01*
X169387000Y-90742000D01*
G75*
G02*
X169641000Y-90996000I0J-254000D01*
G01*
X169641000Y-92996000D01*
G75*
G02*
X169387000Y-93250000I-254000J0D01*
G01*
X168687000Y-93250000D01*
G75*
G02*
X168433000Y-92996000I0J254000D01*
G01*
G37*
G36*
G01*
X150811000Y-82512000D02*
X150811000Y-84112000D01*
G75*
G02*
X150557000Y-84366000I-254000J0D01*
G01*
X147557000Y-84366000D01*
G75*
G02*
X147303000Y-84112000I0J254000D01*
G01*
X147303000Y-82512000D01*
G75*
G02*
X147557000Y-82258000I254000J0D01*
G01*
X150557000Y-82258000D01*
G75*
G02*
X150811000Y-82512000I0J-254000D01*
G01*
G37*
G36*
G01*
X155211000Y-82512000D02*
X155211000Y-84112000D01*
G75*
G02*
X154957000Y-84366000I-254000J0D01*
G01*
X151957000Y-84366000D01*
G75*
G02*
X151703000Y-84112000I0J254000D01*
G01*
X151703000Y-82512000D01*
G75*
G02*
X151957000Y-82258000I254000J0D01*
G01*
X154957000Y-82258000D01*
G75*
G02*
X155211000Y-82512000I0J-254000D01*
G01*
G37*
G36*
G01*
X168310000Y-82662000D02*
X168310000Y-83962000D01*
G75*
G02*
X168056000Y-84216000I-254000J0D01*
G01*
X166556000Y-84216000D01*
G75*
G02*
X166302000Y-83962000I0J254000D01*
G01*
X166302000Y-82662000D01*
G75*
G02*
X166556000Y-82408000I254000J0D01*
G01*
X168056000Y-82408000D01*
G75*
G02*
X168310000Y-82662000I0J-254000D01*
G01*
G37*
G36*
G01*
X171010000Y-82662000D02*
X171010000Y-83962000D01*
G75*
G02*
X170756000Y-84216000I-254000J0D01*
G01*
X169256000Y-84216000D01*
G75*
G02*
X169002000Y-83962000I0J254000D01*
G01*
X169002000Y-82662000D01*
G75*
G02*
X169256000Y-82408000I254000J0D01*
G01*
X170756000Y-82408000D01*
G75*
G02*
X171010000Y-82662000I0J-254000D01*
G01*
G37*
G36*
G01*
X171846000Y-96428000D02*
X170546000Y-96428000D01*
G75*
G02*
X170292000Y-96174000I0J254000D01*
G01*
X170292000Y-94674000D01*
G75*
G02*
X170546000Y-94420000I254000J0D01*
G01*
X171846000Y-94420000D01*
G75*
G02*
X172100000Y-94674000I0J-254000D01*
G01*
X172100000Y-96174000D01*
G75*
G02*
X171846000Y-96428000I-254000J0D01*
G01*
G37*
G36*
G01*
X171846000Y-99128000D02*
X170546000Y-99128000D01*
G75*
G02*
X170292000Y-98874000I0J254000D01*
G01*
X170292000Y-97374000D01*
G75*
G02*
X170546000Y-97120000I254000J0D01*
G01*
X171846000Y-97120000D01*
G75*
G02*
X172100000Y-97374000I0J-254000D01*
G01*
X172100000Y-98874000D01*
G75*
G02*
X171846000Y-99128000I-254000J0D01*
G01*
G37*
G36*
G01*
X170340720Y-74757520D02*
X170340720Y-76057520D01*
G75*
G02*
X170086720Y-76311520I-254000J0D01*
G01*
X168586720Y-76311520D01*
G75*
G02*
X168332720Y-76057520I0J254000D01*
G01*
X168332720Y-74757520D01*
G75*
G02*
X168586720Y-74503520I254000J0D01*
G01*
X170086720Y-74503520D01*
G75*
G02*
X170340720Y-74757520I0J-254000D01*
G01*
G37*
G36*
G01*
X173040720Y-74757520D02*
X173040720Y-76057520D01*
G75*
G02*
X172786720Y-76311520I-254000J0D01*
G01*
X171286720Y-76311520D01*
G75*
G02*
X171032720Y-76057520I0J254000D01*
G01*
X171032720Y-74757520D01*
G75*
G02*
X171286720Y-74503520I254000J0D01*
G01*
X172786720Y-74503520D01*
G75*
G02*
X173040720Y-74757520I0J-254000D01*
G01*
G37*
G36*
G01*
X156397800Y-102100000D02*
X157647800Y-102100000D01*
G75*
G02*
X157901800Y-102354000I0J-254000D01*
G01*
X157901800Y-103854000D01*
G75*
G02*
X157647800Y-104108000I-254000J0D01*
G01*
X156397800Y-104108000D01*
G75*
G02*
X156143800Y-103854000I0J254000D01*
G01*
X156143800Y-102354000D01*
G75*
G02*
X156397800Y-102100000I254000J0D01*
G01*
G37*
G36*
G01*
X156397800Y-99600000D02*
X157647800Y-99600000D01*
G75*
G02*
X157901800Y-99854000I0J-254000D01*
G01*
X157901800Y-101354000D01*
G75*
G02*
X157647800Y-101608000I-254000J0D01*
G01*
X156397800Y-101608000D01*
G75*
G02*
X156143800Y-101354000I0J254000D01*
G01*
X156143800Y-99854000D01*
G75*
G02*
X156397800Y-99600000I254000J0D01*
G01*
G37*
G36*
G01*
X168310000Y-88758000D02*
X168310000Y-90058000D01*
G75*
G02*
X168056000Y-90312000I-254000J0D01*
G01*
X166556000Y-90312000D01*
G75*
G02*
X166302000Y-90058000I0J254000D01*
G01*
X166302000Y-88758000D01*
G75*
G02*
X166556000Y-88504000I254000J0D01*
G01*
X168056000Y-88504000D01*
G75*
G02*
X168310000Y-88758000I0J-254000D01*
G01*
G37*
G36*
G01*
X171010000Y-88758000D02*
X171010000Y-90058000D01*
G75*
G02*
X170756000Y-90312000I-254000J0D01*
G01*
X169256000Y-90312000D01*
G75*
G02*
X169002000Y-90058000I0J254000D01*
G01*
X169002000Y-88758000D01*
G75*
G02*
X169256000Y-88504000I254000J0D01*
G01*
X170756000Y-88504000D01*
G75*
G02*
X171010000Y-88758000I0J-254000D01*
G01*
G37*
G36*
G01*
X144768000Y-99680000D02*
X144768000Y-100980000D01*
G75*
G02*
X144514000Y-101234000I-254000J0D01*
G01*
X143014000Y-101234000D01*
G75*
G02*
X142760000Y-100980000I0J254000D01*
G01*
X142760000Y-99680000D01*
G75*
G02*
X143014000Y-99426000I254000J0D01*
G01*
X144514000Y-99426000D01*
G75*
G02*
X144768000Y-99680000I0J-254000D01*
G01*
G37*
G36*
G01*
X147468000Y-99680000D02*
X147468000Y-100980000D01*
G75*
G02*
X147214000Y-101234000I-254000J0D01*
G01*
X145714000Y-101234000D01*
G75*
G02*
X145460000Y-100980000I0J254000D01*
G01*
X145460000Y-99680000D01*
G75*
G02*
X145714000Y-99426000I254000J0D01*
G01*
X147214000Y-99426000D01*
G75*
G02*
X147468000Y-99680000I0J-254000D01*
G01*
G37*
G36*
G01*
X159396430Y-103168490D02*
X158596330Y-103168490D01*
G75*
G02*
X158342330Y-102914490I0J254000D01*
G01*
X158342330Y-102114390D01*
G75*
G02*
X158596330Y-101860390I254000J0D01*
G01*
X159396430Y-101860390D01*
G75*
G02*
X159650430Y-102114390I0J-254000D01*
G01*
X159650430Y-102914490D01*
G75*
G02*
X159396430Y-103168490I-254000J0D01*
G01*
G37*
G36*
G01*
X159396430Y-101268490D02*
X158596330Y-101268490D01*
G75*
G02*
X158342330Y-101014490I0J254000D01*
G01*
X158342330Y-100214390D01*
G75*
G02*
X158596330Y-99960390I254000J0D01*
G01*
X159396430Y-99960390D01*
G75*
G02*
X159650430Y-100214390I0J-254000D01*
G01*
X159650430Y-101014490D01*
G75*
G02*
X159396430Y-101268490I-254000J0D01*
G01*
G37*
G36*
G01*
X161395410Y-102218490D02*
X160595310Y-102218490D01*
G75*
G02*
X160341310Y-101964490I0J254000D01*
G01*
X160341310Y-101164390D01*
G75*
G02*
X160595310Y-100910390I254000J0D01*
G01*
X161395410Y-100910390D01*
G75*
G02*
X161649410Y-101164390I0J-254000D01*
G01*
X161649410Y-101964490D01*
G75*
G02*
X161395410Y-102218490I-254000J0D01*
G01*
G37*
G36*
G01*
X155566600Y-88354000D02*
X155566600Y-89954000D01*
G75*
G02*
X155312600Y-90208000I-254000J0D01*
G01*
X152312600Y-90208000D01*
G75*
G02*
X152058600Y-89954000I0J254000D01*
G01*
X152058600Y-88354000D01*
G75*
G02*
X152312600Y-88100000I254000J0D01*
G01*
X155312600Y-88100000D01*
G75*
G02*
X155566600Y-88354000I0J-254000D01*
G01*
G37*
G36*
G01*
X151166600Y-88354000D02*
X151166600Y-89954000D01*
G75*
G02*
X150912600Y-90208000I-254000J0D01*
G01*
X147912600Y-90208000D01*
G75*
G02*
X147658600Y-89954000I0J254000D01*
G01*
X147658600Y-88354000D01*
G75*
G02*
X147912600Y-88100000I254000J0D01*
G01*
X150912600Y-88100000D01*
G75*
G02*
X151166600Y-88354000I0J-254000D01*
G01*
G37*
G36*
G01*
X154093440Y-74827840D02*
X152793440Y-74827840D01*
G75*
G02*
X152539440Y-74573840I0J254000D01*
G01*
X152539440Y-73073840D01*
G75*
G02*
X152793440Y-72819840I254000J0D01*
G01*
X154093440Y-72819840D01*
G75*
G02*
X154347440Y-73073840I0J-254000D01*
G01*
X154347440Y-74573840D01*
G75*
G02*
X154093440Y-74827840I-254000J0D01*
G01*
G37*
G36*
G01*
X154093440Y-77527840D02*
X152793440Y-77527840D01*
G75*
G02*
X152539440Y-77273840I0J254000D01*
G01*
X152539440Y-75773840D01*
G75*
G02*
X152793440Y-75519840I254000J0D01*
G01*
X154093440Y-75519840D01*
G75*
G02*
X154347440Y-75773840I0J-254000D01*
G01*
X154347440Y-77273840D01*
G75*
G02*
X154093440Y-77527840I-254000J0D01*
G01*
G37*
G36*
G01*
X160454500Y-80653000D02*
X159204500Y-80653000D01*
G75*
G02*
X158950500Y-80399000I0J254000D01*
G01*
X158950500Y-78899000D01*
G75*
G02*
X159204500Y-78645000I254000J0D01*
G01*
X160454500Y-78645000D01*
G75*
G02*
X160708500Y-78899000I0J-254000D01*
G01*
X160708500Y-80399000D01*
G75*
G02*
X160454500Y-80653000I-254000J0D01*
G01*
G37*
G36*
G01*
X160454500Y-83153000D02*
X159204500Y-83153000D01*
G75*
G02*
X158950500Y-82899000I0J254000D01*
G01*
X158950500Y-81399000D01*
G75*
G02*
X159204500Y-81145000I254000J0D01*
G01*
X160454500Y-81145000D01*
G75*
G02*
X160708500Y-81399000I0J-254000D01*
G01*
X160708500Y-82899000D01*
G75*
G02*
X160454500Y-83153000I-254000J0D01*
G01*
G37*
G36*
G01*
X139204700Y-73892410D02*
X140804900Y-73892410D01*
G75*
G02*
X141058900Y-74146410I0J-254000D01*
G01*
X141058900Y-77745590D01*
G75*
G02*
X140804900Y-77999590I-254000J0D01*
G01*
X139204700Y-77999590D01*
G75*
G02*
X138950700Y-77745590I0J254000D01*
G01*
X138950700Y-74146410D01*
G75*
G02*
X139204700Y-73892410I254000J0D01*
G01*
G37*
G36*
G01*
X139204700Y-79394050D02*
X140804900Y-79394050D01*
G75*
G02*
X141058900Y-79648050I0J-254000D01*
G01*
X141058900Y-83247230D01*
G75*
G02*
X140804900Y-83501230I-254000J0D01*
G01*
X139204700Y-83501230D01*
G75*
G02*
X138950700Y-83247230I0J254000D01*
G01*
X138950700Y-79648050D01*
G75*
G02*
X139204700Y-79394050I254000J0D01*
G01*
G37*
G36*
G01*
X144637200Y-88250000D02*
X144637200Y-89550000D01*
G75*
G02*
X144383200Y-89804000I-254000J0D01*
G01*
X142883200Y-89804000D01*
G75*
G02*
X142629200Y-89550000I0J254000D01*
G01*
X142629200Y-88250000D01*
G75*
G02*
X142883200Y-87996000I254000J0D01*
G01*
X144383200Y-87996000D01*
G75*
G02*
X144637200Y-88250000I0J-254000D01*
G01*
G37*
G36*
G01*
X147337200Y-88250000D02*
X147337200Y-89550000D01*
G75*
G02*
X147083200Y-89804000I-254000J0D01*
G01*
X145583200Y-89804000D01*
G75*
G02*
X145329200Y-89550000I0J254000D01*
G01*
X145329200Y-88250000D01*
G75*
G02*
X145583200Y-87996000I254000J0D01*
G01*
X147083200Y-87996000D01*
G75*
G02*
X147337200Y-88250000I0J-254000D01*
G01*
G37*
G36*
G01*
X163731500Y-90058000D02*
X163731500Y-88758000D01*
G75*
G02*
X163985500Y-88504000I254000J0D01*
G01*
X165485500Y-88504000D01*
G75*
G02*
X165739500Y-88758000I0J-254000D01*
G01*
X165739500Y-90058000D01*
G75*
G02*
X165485500Y-90312000I-254000J0D01*
G01*
X163985500Y-90312000D01*
G75*
G02*
X163731500Y-90058000I0J254000D01*
G01*
G37*
G36*
G01*
X161031500Y-90058000D02*
X161031500Y-88758000D01*
G75*
G02*
X161285500Y-88504000I254000J0D01*
G01*
X162785500Y-88504000D01*
G75*
G02*
X163039500Y-88758000I0J-254000D01*
G01*
X163039500Y-90058000D01*
G75*
G02*
X162785500Y-90312000I-254000J0D01*
G01*
X161285500Y-90312000D01*
G75*
G02*
X161031500Y-90058000I0J254000D01*
G01*
G37*
G36*
G01*
X158020120Y-95663840D02*
X156320120Y-95663840D01*
G75*
G02*
X156066120Y-95409840I0J254000D01*
G01*
X156066120Y-94109840D01*
G75*
G02*
X156320120Y-93855840I254000J0D01*
G01*
X158020120Y-93855840D01*
G75*
G02*
X158274120Y-94109840I0J-254000D01*
G01*
X158274120Y-95409840D01*
G75*
G02*
X158020120Y-95663840I-254000J0D01*
G01*
G37*
G36*
G01*
X158020120Y-99163840D02*
X156320120Y-99163840D01*
G75*
G02*
X156066120Y-98909840I0J254000D01*
G01*
X156066120Y-97609840D01*
G75*
G02*
X156320120Y-97355840I254000J0D01*
G01*
X158020120Y-97355840D01*
G75*
G02*
X158274120Y-97609840I0J-254000D01*
G01*
X158274120Y-98909840D01*
G75*
G02*
X158020120Y-99163840I-254000J0D01*
G01*
G37*
G36*
G01*
X143608500Y-83678000D02*
X143608500Y-84978000D01*
G75*
G02*
X143354500Y-85232000I-254000J0D01*
G01*
X141854500Y-85232000D01*
G75*
G02*
X141600500Y-84978000I0J254000D01*
G01*
X141600500Y-83678000D01*
G75*
G02*
X141854500Y-83424000I254000J0D01*
G01*
X143354500Y-83424000D01*
G75*
G02*
X143608500Y-83678000I0J-254000D01*
G01*
G37*
G36*
G01*
X146308500Y-83678000D02*
X146308500Y-84978000D01*
G75*
G02*
X146054500Y-85232000I-254000J0D01*
G01*
X144554500Y-85232000D01*
G75*
G02*
X144300500Y-84978000I0J254000D01*
G01*
X144300500Y-83678000D01*
G75*
G02*
X144554500Y-83424000I254000J0D01*
G01*
X146054500Y-83424000D01*
G75*
G02*
X146308500Y-83678000I0J-254000D01*
G01*
G37*
G36*
G01*
X139484100Y-103752650D02*
X137883900Y-103752650D01*
G75*
G02*
X137629900Y-103498650I0J254000D01*
G01*
X137629900Y-99899470D01*
G75*
G02*
X137883900Y-99645470I254000J0D01*
G01*
X139484100Y-99645470D01*
G75*
G02*
X139738100Y-99899470I0J-254000D01*
G01*
X139738100Y-103498650D01*
G75*
G02*
X139484100Y-103752650I-254000J0D01*
G01*
G37*
G36*
G01*
X139484100Y-98251010D02*
X137883900Y-98251010D01*
G75*
G02*
X137629900Y-97997010I0J254000D01*
G01*
X137629900Y-94397830D01*
G75*
G02*
X137883900Y-94143830I254000J0D01*
G01*
X139484100Y-94143830D01*
G75*
G02*
X139738100Y-94397830I0J-254000D01*
G01*
X139738100Y-97997010D01*
G75*
G02*
X139484100Y-98251010I-254000J0D01*
G01*
G37*
G36*
G01*
X145178400Y-87239000D02*
X145178400Y-85989000D01*
G75*
G02*
X145432400Y-85735000I254000J0D01*
G01*
X146932400Y-85735000D01*
G75*
G02*
X147186400Y-85989000I0J-254000D01*
G01*
X147186400Y-87239000D01*
G75*
G02*
X146932400Y-87493000I-254000J0D01*
G01*
X145432400Y-87493000D01*
G75*
G02*
X145178400Y-87239000I0J254000D01*
G01*
G37*
G36*
G01*
X142678400Y-87239000D02*
X142678400Y-85989000D01*
G75*
G02*
X142932400Y-85735000I254000J0D01*
G01*
X144432400Y-85735000D01*
G75*
G02*
X144686400Y-85989000I0J-254000D01*
G01*
X144686400Y-87239000D01*
G75*
G02*
X144432400Y-87493000I-254000J0D01*
G01*
X142932400Y-87493000D01*
G75*
G02*
X142678400Y-87239000I0J254000D01*
G01*
G37*
G36*
G01*
X150797500Y-75530000D02*
X152097500Y-75530000D01*
G75*
G02*
X152351500Y-75784000I0J-254000D01*
G01*
X152351500Y-77284000D01*
G75*
G02*
X152097500Y-77538000I-254000J0D01*
G01*
X150797500Y-77538000D01*
G75*
G02*
X150543500Y-77284000I0J254000D01*
G01*
X150543500Y-75784000D01*
G75*
G02*
X150797500Y-75530000I254000J0D01*
G01*
G37*
G36*
G01*
X150797500Y-72830000D02*
X152097500Y-72830000D01*
G75*
G02*
X152351500Y-73084000I0J-254000D01*
G01*
X152351500Y-74584000D01*
G75*
G02*
X152097500Y-74838000I-254000J0D01*
G01*
X150797500Y-74838000D01*
G75*
G02*
X150543500Y-74584000I0J254000D01*
G01*
X150543500Y-73084000D01*
G75*
G02*
X150797500Y-72830000I254000J0D01*
G01*
G37*
G36*
G01*
X166028920Y-76057520D02*
X166028920Y-74757520D01*
G75*
G02*
X166282920Y-74503520I254000J0D01*
G01*
X167782920Y-74503520D01*
G75*
G02*
X168036920Y-74757520I0J-254000D01*
G01*
X168036920Y-76057520D01*
G75*
G02*
X167782920Y-76311520I-254000J0D01*
G01*
X166282920Y-76311520D01*
G75*
G02*
X166028920Y-76057520I0J254000D01*
G01*
G37*
G36*
G01*
X163328920Y-76057520D02*
X163328920Y-74757520D01*
G75*
G02*
X163582920Y-74503520I254000J0D01*
G01*
X165082920Y-74503520D01*
G75*
G02*
X165336920Y-74757520I0J-254000D01*
G01*
X165336920Y-76057520D01*
G75*
G02*
X165082920Y-76311520I-254000J0D01*
G01*
X163582920Y-76311520D01*
G75*
G02*
X163328920Y-76057520I0J254000D01*
G01*
G37*
G36*
G01*
X163344160Y-78140320D02*
X163344160Y-76840320D01*
G75*
G02*
X163598160Y-76586320I254000J0D01*
G01*
X165098160Y-76586320D01*
G75*
G02*
X165352160Y-76840320I0J-254000D01*
G01*
X165352160Y-78140320D01*
G75*
G02*
X165098160Y-78394320I-254000J0D01*
G01*
X163598160Y-78394320D01*
G75*
G02*
X163344160Y-78140320I0J254000D01*
G01*
G37*
G36*
G01*
X166044160Y-78140320D02*
X166044160Y-76840320D01*
G75*
G02*
X166298160Y-76586320I254000J0D01*
G01*
X167798160Y-76586320D01*
G75*
G02*
X168052160Y-76840320I0J-254000D01*
G01*
X168052160Y-78140320D01*
G75*
G02*
X167798160Y-78394320I-254000J0D01*
G01*
X166298160Y-78394320D01*
G75*
G02*
X166044160Y-78140320I0J254000D01*
G01*
G37*
G36*
G01*
X173061040Y-76865720D02*
X173061040Y-78165720D01*
G75*
G02*
X172807040Y-78419720I-254000J0D01*
G01*
X171307040Y-78419720D01*
G75*
G02*
X171053040Y-78165720I0J254000D01*
G01*
X171053040Y-76865720D01*
G75*
G02*
X171307040Y-76611720I254000J0D01*
G01*
X172807040Y-76611720D01*
G75*
G02*
X173061040Y-76865720I0J-254000D01*
G01*
G37*
G36*
G01*
X170361040Y-76865720D02*
X170361040Y-78165720D01*
G75*
G02*
X170107040Y-78419720I-254000J0D01*
G01*
X168607040Y-78419720D01*
G75*
G02*
X168353040Y-78165720I0J254000D01*
G01*
X168353040Y-76865720D01*
G75*
G02*
X168607040Y-76611720I254000J0D01*
G01*
X170107040Y-76611720D01*
G75*
G02*
X170361040Y-76865720I0J-254000D01*
G01*
G37*
G36*
G01*
X160228040Y-98932420D02*
X158928040Y-98932420D01*
G75*
G02*
X158674040Y-98678420I0J254000D01*
G01*
X158674040Y-97178420D01*
G75*
G02*
X158928040Y-96924420I254000J0D01*
G01*
X160228040Y-96924420D01*
G75*
G02*
X160482040Y-97178420I0J-254000D01*
G01*
X160482040Y-98678420D01*
G75*
G02*
X160228040Y-98932420I-254000J0D01*
G01*
G37*
G36*
G01*
X160228040Y-96232420D02*
X158928040Y-96232420D01*
G75*
G02*
X158674040Y-95978420I0J254000D01*
G01*
X158674040Y-94478420D01*
G75*
G02*
X158928040Y-94224420I254000J0D01*
G01*
X160228040Y-94224420D01*
G75*
G02*
X160482040Y-94478420I0J-254000D01*
G01*
X160482040Y-95978420D01*
G75*
G02*
X160228040Y-96232420I-254000J0D01*
G01*
G37*
G36*
G01*
X143164000Y-72959200D02*
X143164000Y-74259200D01*
G75*
G02*
X142910000Y-74513200I-254000J0D01*
G01*
X141410000Y-74513200D01*
G75*
G02*
X141156000Y-74259200I0J254000D01*
G01*
X141156000Y-72959200D01*
G75*
G02*
X141410000Y-72705200I254000J0D01*
G01*
X142910000Y-72705200D01*
G75*
G02*
X143164000Y-72959200I0J-254000D01*
G01*
G37*
G36*
G01*
X145864000Y-72959200D02*
X145864000Y-74259200D01*
G75*
G02*
X145610000Y-74513200I-254000J0D01*
G01*
X144110000Y-74513200D01*
G75*
G02*
X143856000Y-74259200I0J254000D01*
G01*
X143856000Y-72959200D01*
G75*
G02*
X144110000Y-72705200I254000J0D01*
G01*
X145610000Y-72705200D01*
G75*
G02*
X145864000Y-72959200I0J-254000D01*
G01*
G37*
G36*
G01*
X159268000Y-76446000D02*
X160518000Y-76446000D01*
G75*
G02*
X160772000Y-76700000I0J-254000D01*
G01*
X160772000Y-78200000D01*
G75*
G02*
X160518000Y-78454000I-254000J0D01*
G01*
X159268000Y-78454000D01*
G75*
G02*
X159014000Y-78200000I0J254000D01*
G01*
X159014000Y-76700000D01*
G75*
G02*
X159268000Y-76446000I254000J0D01*
G01*
G37*
G36*
G01*
X159268000Y-73946000D02*
X160518000Y-73946000D01*
G75*
G02*
X160772000Y-74200000I0J-254000D01*
G01*
X160772000Y-75700000D01*
G75*
G02*
X160518000Y-75954000I-254000J0D01*
G01*
X159268000Y-75954000D01*
G75*
G02*
X159014000Y-75700000I0J254000D01*
G01*
X159014000Y-74200000D01*
G75*
G02*
X159268000Y-73946000I254000J0D01*
G01*
G37*
G36*
G01*
X135842640Y-69538480D02*
X137542640Y-69538480D01*
G75*
G02*
X137796640Y-69792480I0J-254000D01*
G01*
X137796640Y-71492480D01*
G75*
G02*
X137542640Y-71746480I-254000J0D01*
G01*
X135842640Y-71746480D01*
G75*
G02*
X135588640Y-71492480I0J254000D01*
G01*
X135588640Y-69792480D01*
G75*
G02*
X135842640Y-69538480I254000J0D01*
G01*
G37*
D11*
X139232640Y-70642480D03*
X141772640Y-70642480D03*
X144312640Y-70642480D03*
X146852640Y-70642480D03*
X149392640Y-70642480D03*
X151932640Y-70642480D03*
X154472640Y-70642480D03*
X157012640Y-70642480D03*
X159552640Y-70642480D03*
X162092640Y-70642480D03*
X164632640Y-70642480D03*
G36*
G01*
X144768000Y-95108000D02*
X144768000Y-96408000D01*
G75*
G02*
X144514000Y-96662000I-254000J0D01*
G01*
X143014000Y-96662000D01*
G75*
G02*
X142760000Y-96408000I0J254000D01*
G01*
X142760000Y-95108000D01*
G75*
G02*
X143014000Y-94854000I254000J0D01*
G01*
X144514000Y-94854000D01*
G75*
G02*
X144768000Y-95108000I0J-254000D01*
G01*
G37*
G36*
G01*
X147468000Y-95108000D02*
X147468000Y-96408000D01*
G75*
G02*
X147214000Y-96662000I-254000J0D01*
G01*
X145714000Y-96662000D01*
G75*
G02*
X145460000Y-96408000I0J254000D01*
G01*
X145460000Y-95108000D01*
G75*
G02*
X145714000Y-94854000I254000J0D01*
G01*
X147214000Y-94854000D01*
G75*
G02*
X147468000Y-95108000I0J-254000D01*
G01*
G37*
G36*
G01*
X145260000Y-98669000D02*
X145260000Y-97419000D01*
G75*
G02*
X145514000Y-97165000I254000J0D01*
G01*
X147014000Y-97165000D01*
G75*
G02*
X147268000Y-97419000I0J-254000D01*
G01*
X147268000Y-98669000D01*
G75*
G02*
X147014000Y-98923000I-254000J0D01*
G01*
X145514000Y-98923000D01*
G75*
G02*
X145260000Y-98669000I0J254000D01*
G01*
G37*
G36*
G01*
X142760000Y-98669000D02*
X142760000Y-97419000D01*
G75*
G02*
X143014000Y-97165000I254000J0D01*
G01*
X144514000Y-97165000D01*
G75*
G02*
X144768000Y-97419000I0J-254000D01*
G01*
X144768000Y-98669000D01*
G75*
G02*
X144514000Y-98923000I-254000J0D01*
G01*
X143014000Y-98923000D01*
G75*
G02*
X142760000Y-98669000I0J254000D01*
G01*
G37*
G36*
G01*
X155632640Y-100119280D02*
X155632640Y-101719280D01*
G75*
G02*
X155378640Y-101973280I-254000J0D01*
G01*
X152378640Y-101973280D01*
G75*
G02*
X152124640Y-101719280I0J254000D01*
G01*
X152124640Y-100119280D01*
G75*
G02*
X152378640Y-99865280I254000J0D01*
G01*
X155378640Y-99865280D01*
G75*
G02*
X155632640Y-100119280I0J-254000D01*
G01*
G37*
G36*
G01*
X151232640Y-100119280D02*
X151232640Y-101719280D01*
G75*
G02*
X150978640Y-101973280I-254000J0D01*
G01*
X147978640Y-101973280D01*
G75*
G02*
X147724640Y-101719280I0J254000D01*
G01*
X147724640Y-100119280D01*
G75*
G02*
X147978640Y-99865280I254000J0D01*
G01*
X150978640Y-99865280D01*
G75*
G02*
X151232640Y-100119280I0J-254000D01*
G01*
G37*
G36*
G01*
X161696400Y-79502000D02*
X163423600Y-79502000D01*
G75*
G02*
X163677600Y-79756000I0J-254000D01*
G01*
X163677600Y-81788000D01*
G75*
G02*
X163423600Y-82042000I-254000J0D01*
G01*
X161696400Y-82042000D01*
G75*
G02*
X161442400Y-81788000I0J254000D01*
G01*
X161442400Y-79756000D01*
G75*
G02*
X161696400Y-79502000I254000J0D01*
G01*
G37*
D12*
X165100000Y-80772000D03*
X167640000Y-80772000D03*
X170180000Y-80772000D03*
X172720000Y-80772000D03*
G36*
G01*
X145354600Y-91836000D02*
X145354600Y-90536000D01*
G75*
G02*
X145608600Y-90282000I254000J0D01*
G01*
X147108600Y-90282000D01*
G75*
G02*
X147362600Y-90536000I0J-254000D01*
G01*
X147362600Y-91836000D01*
G75*
G02*
X147108600Y-92090000I-254000J0D01*
G01*
X145608600Y-92090000D01*
G75*
G02*
X145354600Y-91836000I0J254000D01*
G01*
G37*
G36*
G01*
X142654600Y-91836000D02*
X142654600Y-90536000D01*
G75*
G02*
X142908600Y-90282000I254000J0D01*
G01*
X144408600Y-90282000D01*
G75*
G02*
X144662600Y-90536000I0J-254000D01*
G01*
X144662600Y-91836000D01*
G75*
G02*
X144408600Y-92090000I-254000J0D01*
G01*
X142908600Y-92090000D01*
G75*
G02*
X142654600Y-91836000I0J254000D01*
G01*
G37*
G36*
G01*
X141732000Y-92052140D02*
X141732000Y-93195140D01*
G75*
G02*
X141478000Y-93449140I-254000J0D01*
G01*
X140970000Y-93449140D01*
G75*
G02*
X140716000Y-93195140I0J254000D01*
G01*
X140716000Y-92052140D01*
G75*
G02*
X140970000Y-91798140I254000J0D01*
G01*
X141478000Y-91798140D01*
G75*
G02*
X141732000Y-92052140I0J-254000D01*
G01*
G37*
G36*
G01*
X140462000Y-92052140D02*
X140462000Y-93195140D01*
G75*
G02*
X140208000Y-93449140I-254000J0D01*
G01*
X139700000Y-93449140D01*
G75*
G02*
X139446000Y-93195140I0J254000D01*
G01*
X139446000Y-92052140D01*
G75*
G02*
X139700000Y-91798140I254000J0D01*
G01*
X140208000Y-91798140D01*
G75*
G02*
X140462000Y-92052140I0J-254000D01*
G01*
G37*
G36*
G01*
X139192000Y-92052140D02*
X139192000Y-93195140D01*
G75*
G02*
X138938000Y-93449140I-254000J0D01*
G01*
X138430000Y-93449140D01*
G75*
G02*
X138176000Y-93195140I0J254000D01*
G01*
X138176000Y-92052140D01*
G75*
G02*
X138430000Y-91798140I254000J0D01*
G01*
X138938000Y-91798140D01*
G75*
G02*
X139192000Y-92052140I0J-254000D01*
G01*
G37*
G36*
G01*
X137922000Y-92052140D02*
X137922000Y-93195140D01*
G75*
G02*
X137668000Y-93449140I-254000J0D01*
G01*
X137160000Y-93449140D01*
G75*
G02*
X136906000Y-93195140I0J254000D01*
G01*
X136906000Y-92052140D01*
G75*
G02*
X137160000Y-91798140I254000J0D01*
G01*
X137668000Y-91798140D01*
G75*
G02*
X137922000Y-92052140I0J-254000D01*
G01*
G37*
G36*
G01*
X137922000Y-85702140D02*
X137922000Y-86845140D01*
G75*
G02*
X137668000Y-87099140I-254000J0D01*
G01*
X137160000Y-87099140D01*
G75*
G02*
X136906000Y-86845140I0J254000D01*
G01*
X136906000Y-85702140D01*
G75*
G02*
X137160000Y-85448140I254000J0D01*
G01*
X137668000Y-85448140D01*
G75*
G02*
X137922000Y-85702140I0J-254000D01*
G01*
G37*
G36*
G01*
X139192000Y-85702140D02*
X139192000Y-86845140D01*
G75*
G02*
X138938000Y-87099140I-254000J0D01*
G01*
X138430000Y-87099140D01*
G75*
G02*
X138176000Y-86845140I0J254000D01*
G01*
X138176000Y-85702140D01*
G75*
G02*
X138430000Y-85448140I254000J0D01*
G01*
X138938000Y-85448140D01*
G75*
G02*
X139192000Y-85702140I0J-254000D01*
G01*
G37*
G36*
G01*
X140462000Y-85702140D02*
X140462000Y-86845140D01*
G75*
G02*
X140208000Y-87099140I-254000J0D01*
G01*
X139700000Y-87099140D01*
G75*
G02*
X139446000Y-86845140I0J254000D01*
G01*
X139446000Y-85702140D01*
G75*
G02*
X139700000Y-85448140I254000J0D01*
G01*
X140208000Y-85448140D01*
G75*
G02*
X140462000Y-85702140I0J-254000D01*
G01*
G37*
G36*
G01*
X141732000Y-85702140D02*
X141732000Y-86845140D01*
G75*
G02*
X141478000Y-87099140I-254000J0D01*
G01*
X140970000Y-87099140D01*
G75*
G02*
X140716000Y-86845140I0J254000D01*
G01*
X140716000Y-85702140D01*
G75*
G02*
X140970000Y-85448140I254000J0D01*
G01*
X141478000Y-85448140D01*
G75*
G02*
X141732000Y-85702140I0J-254000D01*
G01*
G37*
G36*
G01*
X158294000Y-79264400D02*
X158294000Y-80991600D01*
G75*
G02*
X158040000Y-81245600I-254000J0D01*
G01*
X156008000Y-81245600D01*
G75*
G02*
X155754000Y-80991600I0J254000D01*
G01*
X155754000Y-79264400D01*
G75*
G02*
X156008000Y-79010400I254000J0D01*
G01*
X158040000Y-79010400D01*
G75*
G02*
X158294000Y-79264400I0J-254000D01*
G01*
G37*
D10*
X157024000Y-77588000D03*
X157024000Y-75048000D03*
G36*
G01*
X152295860Y-79744571D02*
X152295860Y-78243429D01*
G75*
G02*
X152549859Y-77989430I253999J0D01*
G01*
X154698701Y-77989430D01*
G75*
G02*
X154952700Y-78243429I0J-253999D01*
G01*
X154952700Y-79744571D01*
G75*
G02*
X154698701Y-79998570I-253999J0D01*
G01*
X152549859Y-79998570D01*
G75*
G02*
X152295860Y-79744571I0J253999D01*
G01*
G37*
G36*
G01*
X149293580Y-79744571D02*
X149293580Y-78243429D01*
G75*
G02*
X149547579Y-77989430I253999J0D01*
G01*
X151696421Y-77989430D01*
G75*
G02*
X151950420Y-78243429I0J-253999D01*
G01*
X151950420Y-79744571D01*
G75*
G02*
X151696421Y-79998570I-253999J0D01*
G01*
X149547579Y-79998570D01*
G75*
G02*
X149293580Y-79744571I0J253999D01*
G01*
G37*
G36*
G01*
X162506500Y-97210500D02*
X163756500Y-97210500D01*
G75*
G02*
X164010500Y-97464500I0J-254000D01*
G01*
X164010500Y-98964500D01*
G75*
G02*
X163756500Y-99218500I-254000J0D01*
G01*
X162506500Y-99218500D01*
G75*
G02*
X162252500Y-98964500I0J254000D01*
G01*
X162252500Y-97464500D01*
G75*
G02*
X162506500Y-97210500I254000J0D01*
G01*
G37*
G36*
G01*
X162506500Y-94710500D02*
X163756500Y-94710500D01*
G75*
G02*
X164010500Y-94964500I0J-254000D01*
G01*
X164010500Y-96464500D01*
G75*
G02*
X163756500Y-96718500I-254000J0D01*
G01*
X162506500Y-96718500D01*
G75*
G02*
X162252500Y-96464500I0J254000D01*
G01*
X162252500Y-94964500D01*
G75*
G02*
X162506500Y-94710500I254000J0D01*
G01*
G37*
G36*
G01*
X145460000Y-94122000D02*
X145460000Y-92822000D01*
G75*
G02*
X145714000Y-92568000I254000J0D01*
G01*
X147214000Y-92568000D01*
G75*
G02*
X147468000Y-92822000I0J-254000D01*
G01*
X147468000Y-94122000D01*
G75*
G02*
X147214000Y-94376000I-254000J0D01*
G01*
X145714000Y-94376000D01*
G75*
G02*
X145460000Y-94122000I0J254000D01*
G01*
G37*
G36*
G01*
X142760000Y-94122000D02*
X142760000Y-92822000D01*
G75*
G02*
X143014000Y-92568000I254000J0D01*
G01*
X144514000Y-92568000D01*
G75*
G02*
X144768000Y-92822000I0J-254000D01*
G01*
X144768000Y-94122000D01*
G75*
G02*
X144514000Y-94376000I-254000J0D01*
G01*
X143014000Y-94376000D01*
G75*
G02*
X142760000Y-94122000I0J254000D01*
G01*
G37*
G36*
G01*
X168310000Y-84694000D02*
X168310000Y-85994000D01*
G75*
G02*
X168056000Y-86248000I-254000J0D01*
G01*
X166556000Y-86248000D01*
G75*
G02*
X166302000Y-85994000I0J254000D01*
G01*
X166302000Y-84694000D01*
G75*
G02*
X166556000Y-84440000I254000J0D01*
G01*
X168056000Y-84440000D01*
G75*
G02*
X168310000Y-84694000I0J-254000D01*
G01*
G37*
G36*
G01*
X171010000Y-84694000D02*
X171010000Y-85994000D01*
G75*
G02*
X170756000Y-86248000I-254000J0D01*
G01*
X169256000Y-86248000D01*
G75*
G02*
X169002000Y-85994000I0J254000D01*
G01*
X169002000Y-84694000D01*
G75*
G02*
X169256000Y-84440000I254000J0D01*
G01*
X170756000Y-84440000D01*
G75*
G02*
X171010000Y-84694000I0J-254000D01*
G01*
G37*
G36*
G01*
X168310000Y-86726000D02*
X168310000Y-88026000D01*
G75*
G02*
X168056000Y-88280000I-254000J0D01*
G01*
X166556000Y-88280000D01*
G75*
G02*
X166302000Y-88026000I0J254000D01*
G01*
X166302000Y-86726000D01*
G75*
G02*
X166556000Y-86472000I254000J0D01*
G01*
X168056000Y-86472000D01*
G75*
G02*
X168310000Y-86726000I0J-254000D01*
G01*
G37*
G36*
G01*
X171010000Y-86726000D02*
X171010000Y-88026000D01*
G75*
G02*
X170756000Y-88280000I-254000J0D01*
G01*
X169256000Y-88280000D01*
G75*
G02*
X169002000Y-88026000I0J254000D01*
G01*
X169002000Y-86726000D01*
G75*
G02*
X169256000Y-86472000I254000J0D01*
G01*
X170756000Y-86472000D01*
G75*
G02*
X171010000Y-86726000I0J-254000D01*
G01*
G37*
G36*
G01*
X160634500Y-91352000D02*
X160634500Y-93052000D01*
G75*
G02*
X160380500Y-93306000I-254000J0D01*
G01*
X159080500Y-93306000D01*
G75*
G02*
X158826500Y-93052000I0J254000D01*
G01*
X158826500Y-91352000D01*
G75*
G02*
X159080500Y-91098000I254000J0D01*
G01*
X160380500Y-91098000D01*
G75*
G02*
X160634500Y-91352000I0J-254000D01*
G01*
G37*
G36*
G01*
X164134500Y-91352000D02*
X164134500Y-93052000D01*
G75*
G02*
X163880500Y-93306000I-254000J0D01*
G01*
X162580500Y-93306000D01*
G75*
G02*
X162326500Y-93052000I0J254000D01*
G01*
X162326500Y-91352000D01*
G75*
G02*
X162580500Y-91098000I254000J0D01*
G01*
X163880500Y-91098000D01*
G75*
G02*
X164134500Y-91352000I0J-254000D01*
G01*
G37*
G36*
G01*
X119629500Y-90058000D02*
X119629500Y-88758000D01*
G75*
G02*
X119883500Y-88504000I254000J0D01*
G01*
X121383500Y-88504000D01*
G75*
G02*
X121637500Y-88758000I0J-254000D01*
G01*
X121637500Y-90058000D01*
G75*
G02*
X121383500Y-90312000I-254000J0D01*
G01*
X119883500Y-90312000D01*
G75*
G02*
X119629500Y-90058000I0J254000D01*
G01*
G37*
G36*
G01*
X122329500Y-90058000D02*
X122329500Y-88758000D01*
G75*
G02*
X122583500Y-88504000I254000J0D01*
G01*
X124083500Y-88504000D01*
G75*
G02*
X124337500Y-88758000I0J-254000D01*
G01*
X124337500Y-90058000D01*
G75*
G02*
X124083500Y-90312000I-254000J0D01*
G01*
X122583500Y-90312000D01*
G75*
G02*
X122329500Y-90058000I0J254000D01*
G01*
G37*
G36*
G01*
X130444000Y-99128000D02*
X129144000Y-99128000D01*
G75*
G02*
X128890000Y-98874000I0J254000D01*
G01*
X128890000Y-97374000D01*
G75*
G02*
X129144000Y-97120000I254000J0D01*
G01*
X130444000Y-97120000D01*
G75*
G02*
X130698000Y-97374000I0J-254000D01*
G01*
X130698000Y-98874000D01*
G75*
G02*
X130444000Y-99128000I-254000J0D01*
G01*
G37*
G36*
G01*
X130444000Y-96428000D02*
X129144000Y-96428000D01*
G75*
G02*
X128890000Y-96174000I0J254000D01*
G01*
X128890000Y-94674000D01*
G75*
G02*
X129144000Y-94420000I254000J0D01*
G01*
X130444000Y-94420000D01*
G75*
G02*
X130698000Y-94674000I0J-254000D01*
G01*
X130698000Y-96174000D01*
G75*
G02*
X130444000Y-96428000I-254000J0D01*
G01*
G37*
G36*
G01*
X129608000Y-88758000D02*
X129608000Y-90058000D01*
G75*
G02*
X129354000Y-90312000I-254000J0D01*
G01*
X127854000Y-90312000D01*
G75*
G02*
X127600000Y-90058000I0J254000D01*
G01*
X127600000Y-88758000D01*
G75*
G02*
X127854000Y-88504000I254000J0D01*
G01*
X129354000Y-88504000D01*
G75*
G02*
X129608000Y-88758000I0J-254000D01*
G01*
G37*
G36*
G01*
X126908000Y-88758000D02*
X126908000Y-90058000D01*
G75*
G02*
X126654000Y-90312000I-254000J0D01*
G01*
X125154000Y-90312000D01*
G75*
G02*
X124900000Y-90058000I0J254000D01*
G01*
X124900000Y-88758000D01*
G75*
G02*
X125154000Y-88504000I254000J0D01*
G01*
X126654000Y-88504000D01*
G75*
G02*
X126908000Y-88758000I0J-254000D01*
G01*
G37*
G36*
G01*
X129608000Y-86726000D02*
X129608000Y-88026000D01*
G75*
G02*
X129354000Y-88280000I-254000J0D01*
G01*
X127854000Y-88280000D01*
G75*
G02*
X127600000Y-88026000I0J254000D01*
G01*
X127600000Y-86726000D01*
G75*
G02*
X127854000Y-86472000I254000J0D01*
G01*
X129354000Y-86472000D01*
G75*
G02*
X129608000Y-86726000I0J-254000D01*
G01*
G37*
G36*
G01*
X126908000Y-86726000D02*
X126908000Y-88026000D01*
G75*
G02*
X126654000Y-88280000I-254000J0D01*
G01*
X125154000Y-88280000D01*
G75*
G02*
X124900000Y-88026000I0J254000D01*
G01*
X124900000Y-86726000D01*
G75*
G02*
X125154000Y-86472000I254000J0D01*
G01*
X126654000Y-86472000D01*
G75*
G02*
X126908000Y-86726000I0J-254000D01*
G01*
G37*
G36*
G01*
X129608000Y-84694000D02*
X129608000Y-85994000D01*
G75*
G02*
X129354000Y-86248000I-254000J0D01*
G01*
X127854000Y-86248000D01*
G75*
G02*
X127600000Y-85994000I0J254000D01*
G01*
X127600000Y-84694000D01*
G75*
G02*
X127854000Y-84440000I254000J0D01*
G01*
X129354000Y-84440000D01*
G75*
G02*
X129608000Y-84694000I0J-254000D01*
G01*
G37*
G36*
G01*
X126908000Y-84694000D02*
X126908000Y-85994000D01*
G75*
G02*
X126654000Y-86248000I-254000J0D01*
G01*
X125154000Y-86248000D01*
G75*
G02*
X124900000Y-85994000I0J254000D01*
G01*
X124900000Y-84694000D01*
G75*
G02*
X125154000Y-84440000I254000J0D01*
G01*
X126654000Y-84440000D01*
G75*
G02*
X126908000Y-84694000I0J-254000D01*
G01*
G37*
G36*
G01*
X129608000Y-82662000D02*
X129608000Y-83962000D01*
G75*
G02*
X129354000Y-84216000I-254000J0D01*
G01*
X127854000Y-84216000D01*
G75*
G02*
X127600000Y-83962000I0J254000D01*
G01*
X127600000Y-82662000D01*
G75*
G02*
X127854000Y-82408000I254000J0D01*
G01*
X129354000Y-82408000D01*
G75*
G02*
X129608000Y-82662000I0J-254000D01*
G01*
G37*
G36*
G01*
X126908000Y-82662000D02*
X126908000Y-83962000D01*
G75*
G02*
X126654000Y-84216000I-254000J0D01*
G01*
X125154000Y-84216000D01*
G75*
G02*
X124900000Y-83962000I0J254000D01*
G01*
X124900000Y-82662000D01*
G75*
G02*
X125154000Y-82408000I254000J0D01*
G01*
X126654000Y-82408000D01*
G75*
G02*
X126908000Y-82662000I0J-254000D01*
G01*
G37*
D12*
X131318000Y-80772000D03*
X128778000Y-80772000D03*
X126238000Y-80772000D03*
X123698000Y-80772000D03*
G36*
G01*
X120294400Y-79502000D02*
X122021600Y-79502000D01*
G75*
G02*
X122275600Y-79756000I0J-254000D01*
G01*
X122275600Y-81788000D01*
G75*
G02*
X122021600Y-82042000I-254000J0D01*
G01*
X120294400Y-82042000D01*
G75*
G02*
X120040400Y-81788000I0J254000D01*
G01*
X120040400Y-79756000D01*
G75*
G02*
X120294400Y-79502000I254000J0D01*
G01*
G37*
G36*
G01*
X127031000Y-92996000D02*
X127031000Y-90996000D01*
G75*
G02*
X127285000Y-90742000I254000J0D01*
G01*
X127985000Y-90742000D01*
G75*
G02*
X128239000Y-90996000I0J-254000D01*
G01*
X128239000Y-92996000D01*
G75*
G02*
X127985000Y-93250000I-254000J0D01*
G01*
X127285000Y-93250000D01*
G75*
G02*
X127031000Y-92996000I0J254000D01*
G01*
G37*
G36*
G01*
X125761000Y-92996000D02*
X125761000Y-90996000D01*
G75*
G02*
X126015000Y-90742000I254000J0D01*
G01*
X126715000Y-90742000D01*
G75*
G02*
X126969000Y-90996000I0J-254000D01*
G01*
X126969000Y-92996000D01*
G75*
G02*
X126715000Y-93250000I-254000J0D01*
G01*
X126015000Y-93250000D01*
G75*
G02*
X125761000Y-92996000I0J254000D01*
G01*
G37*
G36*
G01*
X124491000Y-92996000D02*
X124491000Y-90996000D01*
G75*
G02*
X124745000Y-90742000I254000J0D01*
G01*
X125445000Y-90742000D01*
G75*
G02*
X125699000Y-90996000I0J-254000D01*
G01*
X125699000Y-92996000D01*
G75*
G02*
X125445000Y-93250000I-254000J0D01*
G01*
X124745000Y-93250000D01*
G75*
G02*
X124491000Y-92996000I0J254000D01*
G01*
G37*
G36*
G01*
X127031000Y-98996000D02*
X127031000Y-96996000D01*
G75*
G02*
X127285000Y-96742000I254000J0D01*
G01*
X127985000Y-96742000D01*
G75*
G02*
X128239000Y-96996000I0J-254000D01*
G01*
X128239000Y-98996000D01*
G75*
G02*
X127985000Y-99250000I-254000J0D01*
G01*
X127285000Y-99250000D01*
G75*
G02*
X127031000Y-98996000I0J254000D01*
G01*
G37*
G36*
G01*
X125761000Y-98996000D02*
X125761000Y-96996000D01*
G75*
G02*
X126015000Y-96742000I254000J0D01*
G01*
X126715000Y-96742000D01*
G75*
G02*
X126969000Y-96996000I0J-254000D01*
G01*
X126969000Y-98996000D01*
G75*
G02*
X126715000Y-99250000I-254000J0D01*
G01*
X126015000Y-99250000D01*
G75*
G02*
X125761000Y-98996000I0J254000D01*
G01*
G37*
G36*
G01*
X124491000Y-98996000D02*
X124491000Y-96996000D01*
G75*
G02*
X124745000Y-96742000I254000J0D01*
G01*
X125445000Y-96742000D01*
G75*
G02*
X125699000Y-96996000I0J-254000D01*
G01*
X125699000Y-98996000D01*
G75*
G02*
X125445000Y-99250000I-254000J0D01*
G01*
X124745000Y-99250000D01*
G75*
G02*
X124491000Y-98996000I0J254000D01*
G01*
G37*
G36*
G01*
X123221000Y-92996000D02*
X123221000Y-90996000D01*
G75*
G02*
X123475000Y-90742000I254000J0D01*
G01*
X124175000Y-90742000D01*
G75*
G02*
X124429000Y-90996000I0J-254000D01*
G01*
X124429000Y-92996000D01*
G75*
G02*
X124175000Y-93250000I-254000J0D01*
G01*
X123475000Y-93250000D01*
G75*
G02*
X123221000Y-92996000I0J254000D01*
G01*
G37*
G36*
G01*
X123221000Y-98996000D02*
X123221000Y-96996000D01*
G75*
G02*
X123475000Y-96742000I254000J0D01*
G01*
X124175000Y-96742000D01*
G75*
G02*
X124429000Y-96996000I0J-254000D01*
G01*
X124429000Y-98996000D01*
G75*
G02*
X124175000Y-99250000I-254000J0D01*
G01*
X123475000Y-99250000D01*
G75*
G02*
X123221000Y-98996000I0J254000D01*
G01*
G37*
G36*
G01*
X122732500Y-91352000D02*
X122732500Y-93052000D01*
G75*
G02*
X122478500Y-93306000I-254000J0D01*
G01*
X121178500Y-93306000D01*
G75*
G02*
X120924500Y-93052000I0J254000D01*
G01*
X120924500Y-91352000D01*
G75*
G02*
X121178500Y-91098000I254000J0D01*
G01*
X122478500Y-91098000D01*
G75*
G02*
X122732500Y-91352000I0J-254000D01*
G01*
G37*
G36*
G01*
X119232500Y-91352000D02*
X119232500Y-93052000D01*
G75*
G02*
X118978500Y-93306000I-254000J0D01*
G01*
X117678500Y-93306000D01*
G75*
G02*
X117424500Y-93052000I0J254000D01*
G01*
X117424500Y-91352000D01*
G75*
G02*
X117678500Y-91098000I254000J0D01*
G01*
X118978500Y-91098000D01*
G75*
G02*
X119232500Y-91352000I0J-254000D01*
G01*
G37*
G36*
G01*
X122142000Y-86624000D02*
X122142000Y-87874000D01*
G75*
G02*
X121888000Y-88128000I-254000J0D01*
G01*
X120388000Y-88128000D01*
G75*
G02*
X120134000Y-87874000I0J254000D01*
G01*
X120134000Y-86624000D01*
G75*
G02*
X120388000Y-86370000I254000J0D01*
G01*
X121888000Y-86370000D01*
G75*
G02*
X122142000Y-86624000I0J-254000D01*
G01*
G37*
G36*
G01*
X119642000Y-86624000D02*
X119642000Y-87874000D01*
G75*
G02*
X119388000Y-88128000I-254000J0D01*
G01*
X117888000Y-88128000D01*
G75*
G02*
X117634000Y-87874000I0J254000D01*
G01*
X117634000Y-86624000D01*
G75*
G02*
X117888000Y-86370000I254000J0D01*
G01*
X119388000Y-86370000D01*
G75*
G02*
X119642000Y-86624000I0J-254000D01*
G01*
G37*
G36*
G01*
X109830640Y-100119280D02*
X109830640Y-101719280D01*
G75*
G02*
X109576640Y-101973280I-254000J0D01*
G01*
X106576640Y-101973280D01*
G75*
G02*
X106322640Y-101719280I0J254000D01*
G01*
X106322640Y-100119280D01*
G75*
G02*
X106576640Y-99865280I254000J0D01*
G01*
X109576640Y-99865280D01*
G75*
G02*
X109830640Y-100119280I0J-254000D01*
G01*
G37*
G36*
G01*
X114230640Y-100119280D02*
X114230640Y-101719280D01*
G75*
G02*
X113976640Y-101973280I-254000J0D01*
G01*
X110976640Y-101973280D01*
G75*
G02*
X110722640Y-101719280I0J254000D01*
G01*
X110722640Y-100119280D01*
G75*
G02*
X110976640Y-99865280I254000J0D01*
G01*
X113976640Y-99865280D01*
G75*
G02*
X114230640Y-100119280I0J-254000D01*
G01*
G37*
G36*
G01*
X109764600Y-88354000D02*
X109764600Y-89954000D01*
G75*
G02*
X109510600Y-90208000I-254000J0D01*
G01*
X106510600Y-90208000D01*
G75*
G02*
X106256600Y-89954000I0J254000D01*
G01*
X106256600Y-88354000D01*
G75*
G02*
X106510600Y-88100000I254000J0D01*
G01*
X109510600Y-88100000D01*
G75*
G02*
X109764600Y-88354000I0J-254000D01*
G01*
G37*
G36*
G01*
X114164600Y-88354000D02*
X114164600Y-89954000D01*
G75*
G02*
X113910600Y-90208000I-254000J0D01*
G01*
X110910600Y-90208000D01*
G75*
G02*
X110656600Y-89954000I0J254000D01*
G01*
X110656600Y-88354000D01*
G75*
G02*
X110910600Y-88100000I254000J0D01*
G01*
X113910600Y-88100000D01*
G75*
G02*
X114164600Y-88354000I0J-254000D01*
G01*
G37*
G36*
G01*
X109790000Y-94450000D02*
X109790000Y-96050000D01*
G75*
G02*
X109536000Y-96304000I-254000J0D01*
G01*
X106536000Y-96304000D01*
G75*
G02*
X106282000Y-96050000I0J254000D01*
G01*
X106282000Y-94450000D01*
G75*
G02*
X106536000Y-94196000I254000J0D01*
G01*
X109536000Y-94196000D01*
G75*
G02*
X109790000Y-94450000I0J-254000D01*
G01*
G37*
G36*
G01*
X114190000Y-94450000D02*
X114190000Y-96050000D01*
G75*
G02*
X113936000Y-96304000I-254000J0D01*
G01*
X110936000Y-96304000D01*
G75*
G02*
X110682000Y-96050000I0J254000D01*
G01*
X110682000Y-94450000D01*
G75*
G02*
X110936000Y-94196000I254000J0D01*
G01*
X113936000Y-94196000D01*
G75*
G02*
X114190000Y-94450000I0J-254000D01*
G01*
G37*
D10*
X115570000Y-91376500D03*
X115570000Y-88836500D03*
X115570000Y-86296500D03*
G36*
G01*
X114300000Y-84620100D02*
X114300000Y-82892900D01*
G75*
G02*
X114554000Y-82638900I254000J0D01*
G01*
X116586000Y-82638900D01*
G75*
G02*
X116840000Y-82892900I0J-254000D01*
G01*
X116840000Y-84620100D01*
G75*
G02*
X116586000Y-84874100I-254000J0D01*
G01*
X114554000Y-84874100D01*
G75*
G02*
X114300000Y-84620100I0J254000D01*
G01*
G37*
G36*
G01*
X119052500Y-83153000D02*
X117802500Y-83153000D01*
G75*
G02*
X117548500Y-82899000I0J254000D01*
G01*
X117548500Y-81399000D01*
G75*
G02*
X117802500Y-81145000I254000J0D01*
G01*
X119052500Y-81145000D01*
G75*
G02*
X119306500Y-81399000I0J-254000D01*
G01*
X119306500Y-82899000D01*
G75*
G02*
X119052500Y-83153000I-254000J0D01*
G01*
G37*
G36*
G01*
X119052500Y-80653000D02*
X117802500Y-80653000D01*
G75*
G02*
X117548500Y-80399000I0J254000D01*
G01*
X117548500Y-78899000D01*
G75*
G02*
X117802500Y-78645000I254000J0D01*
G01*
X119052500Y-78645000D01*
G75*
G02*
X119306500Y-78899000I0J-254000D01*
G01*
X119306500Y-80399000D01*
G75*
G02*
X119052500Y-80653000I-254000J0D01*
G01*
G37*
D11*
X123230640Y-70642480D03*
X120690640Y-70642480D03*
X118150640Y-70642480D03*
X115610640Y-70642480D03*
X113070640Y-70642480D03*
X110530640Y-70642480D03*
X107990640Y-70642480D03*
X105450640Y-70642480D03*
X102910640Y-70642480D03*
X100370640Y-70642480D03*
X97830640Y-70642480D03*
G36*
G01*
X94440640Y-69538480D02*
X96140640Y-69538480D01*
G75*
G02*
X96394640Y-69792480I0J-254000D01*
G01*
X96394640Y-71492480D01*
G75*
G02*
X96140640Y-71746480I-254000J0D01*
G01*
X94440640Y-71746480D01*
G75*
G02*
X94186640Y-71492480I0J254000D01*
G01*
X94186640Y-69792480D01*
G75*
G02*
X94440640Y-69538480I254000J0D01*
G01*
G37*
G36*
G01*
X100330000Y-85702140D02*
X100330000Y-86845140D01*
G75*
G02*
X100076000Y-87099140I-254000J0D01*
G01*
X99568000Y-87099140D01*
G75*
G02*
X99314000Y-86845140I0J254000D01*
G01*
X99314000Y-85702140D01*
G75*
G02*
X99568000Y-85448140I254000J0D01*
G01*
X100076000Y-85448140D01*
G75*
G02*
X100330000Y-85702140I0J-254000D01*
G01*
G37*
G36*
G01*
X99060000Y-85702140D02*
X99060000Y-86845140D01*
G75*
G02*
X98806000Y-87099140I-254000J0D01*
G01*
X98298000Y-87099140D01*
G75*
G02*
X98044000Y-86845140I0J254000D01*
G01*
X98044000Y-85702140D01*
G75*
G02*
X98298000Y-85448140I254000J0D01*
G01*
X98806000Y-85448140D01*
G75*
G02*
X99060000Y-85702140I0J-254000D01*
G01*
G37*
G36*
G01*
X97790000Y-85702140D02*
X97790000Y-86845140D01*
G75*
G02*
X97536000Y-87099140I-254000J0D01*
G01*
X97028000Y-87099140D01*
G75*
G02*
X96774000Y-86845140I0J254000D01*
G01*
X96774000Y-85702140D01*
G75*
G02*
X97028000Y-85448140I254000J0D01*
G01*
X97536000Y-85448140D01*
G75*
G02*
X97790000Y-85702140I0J-254000D01*
G01*
G37*
G36*
G01*
X96520000Y-85702140D02*
X96520000Y-86845140D01*
G75*
G02*
X96266000Y-87099140I-254000J0D01*
G01*
X95758000Y-87099140D01*
G75*
G02*
X95504000Y-86845140I0J254000D01*
G01*
X95504000Y-85702140D01*
G75*
G02*
X95758000Y-85448140I254000J0D01*
G01*
X96266000Y-85448140D01*
G75*
G02*
X96520000Y-85702140I0J-254000D01*
G01*
G37*
G36*
G01*
X96520000Y-92052140D02*
X96520000Y-93195140D01*
G75*
G02*
X96266000Y-93449140I-254000J0D01*
G01*
X95758000Y-93449140D01*
G75*
G02*
X95504000Y-93195140I0J254000D01*
G01*
X95504000Y-92052140D01*
G75*
G02*
X95758000Y-91798140I254000J0D01*
G01*
X96266000Y-91798140D01*
G75*
G02*
X96520000Y-92052140I0J-254000D01*
G01*
G37*
G36*
G01*
X97790000Y-92052140D02*
X97790000Y-93195140D01*
G75*
G02*
X97536000Y-93449140I-254000J0D01*
G01*
X97028000Y-93449140D01*
G75*
G02*
X96774000Y-93195140I0J254000D01*
G01*
X96774000Y-92052140D01*
G75*
G02*
X97028000Y-91798140I254000J0D01*
G01*
X97536000Y-91798140D01*
G75*
G02*
X97790000Y-92052140I0J-254000D01*
G01*
G37*
G36*
G01*
X99060000Y-92052140D02*
X99060000Y-93195140D01*
G75*
G02*
X98806000Y-93449140I-254000J0D01*
G01*
X98298000Y-93449140D01*
G75*
G02*
X98044000Y-93195140I0J254000D01*
G01*
X98044000Y-92052140D01*
G75*
G02*
X98298000Y-91798140I254000J0D01*
G01*
X98806000Y-91798140D01*
G75*
G02*
X99060000Y-92052140I0J-254000D01*
G01*
G37*
G36*
G01*
X100330000Y-92052140D02*
X100330000Y-93195140D01*
G75*
G02*
X100076000Y-93449140I-254000J0D01*
G01*
X99568000Y-93449140D01*
G75*
G02*
X99314000Y-93195140I0J254000D01*
G01*
X99314000Y-92052140D01*
G75*
G02*
X99568000Y-91798140I254000J0D01*
G01*
X100076000Y-91798140D01*
G75*
G02*
X100330000Y-92052140I0J-254000D01*
G01*
G37*
G36*
G01*
X98082100Y-98251010D02*
X96481900Y-98251010D01*
G75*
G02*
X96227900Y-97997010I0J254000D01*
G01*
X96227900Y-94397830D01*
G75*
G02*
X96481900Y-94143830I254000J0D01*
G01*
X98082100Y-94143830D01*
G75*
G02*
X98336100Y-94397830I0J-254000D01*
G01*
X98336100Y-97997010D01*
G75*
G02*
X98082100Y-98251010I-254000J0D01*
G01*
G37*
G36*
G01*
X98082100Y-103752650D02*
X96481900Y-103752650D01*
G75*
G02*
X96227900Y-103498650I0J254000D01*
G01*
X96227900Y-99899470D01*
G75*
G02*
X96481900Y-99645470I254000J0D01*
G01*
X98082100Y-99645470D01*
G75*
G02*
X98336100Y-99899470I0J-254000D01*
G01*
X98336100Y-103498650D01*
G75*
G02*
X98082100Y-103752650I-254000J0D01*
G01*
G37*
G36*
G01*
X107891580Y-79744571D02*
X107891580Y-78243429D01*
G75*
G02*
X108145579Y-77989430I253999J0D01*
G01*
X110294421Y-77989430D01*
G75*
G02*
X110548420Y-78243429I0J-253999D01*
G01*
X110548420Y-79744571D01*
G75*
G02*
X110294421Y-79998570I-253999J0D01*
G01*
X108145579Y-79998570D01*
G75*
G02*
X107891580Y-79744571I0J253999D01*
G01*
G37*
G36*
G01*
X110893860Y-79744571D02*
X110893860Y-78243429D01*
G75*
G02*
X111147859Y-77989430I253999J0D01*
G01*
X113296701Y-77989430D01*
G75*
G02*
X113550700Y-78243429I0J-253999D01*
G01*
X113550700Y-79744571D01*
G75*
G02*
X113296701Y-79998570I-253999J0D01*
G01*
X111147859Y-79998570D01*
G75*
G02*
X110893860Y-79744571I0J253999D01*
G01*
G37*
G36*
G01*
X101276400Y-87239000D02*
X101276400Y-85989000D01*
G75*
G02*
X101530400Y-85735000I254000J0D01*
G01*
X103030400Y-85735000D01*
G75*
G02*
X103284400Y-85989000I0J-254000D01*
G01*
X103284400Y-87239000D01*
G75*
G02*
X103030400Y-87493000I-254000J0D01*
G01*
X101530400Y-87493000D01*
G75*
G02*
X101276400Y-87239000I0J254000D01*
G01*
G37*
G36*
G01*
X103776400Y-87239000D02*
X103776400Y-85989000D01*
G75*
G02*
X104030400Y-85735000I254000J0D01*
G01*
X105530400Y-85735000D01*
G75*
G02*
X105784400Y-85989000I0J-254000D01*
G01*
X105784400Y-87239000D01*
G75*
G02*
X105530400Y-87493000I-254000J0D01*
G01*
X104030400Y-87493000D01*
G75*
G02*
X103776400Y-87239000I0J254000D01*
G01*
G37*
G36*
G01*
X112691440Y-77527840D02*
X111391440Y-77527840D01*
G75*
G02*
X111137440Y-77273840I0J254000D01*
G01*
X111137440Y-75773840D01*
G75*
G02*
X111391440Y-75519840I254000J0D01*
G01*
X112691440Y-75519840D01*
G75*
G02*
X112945440Y-75773840I0J-254000D01*
G01*
X112945440Y-77273840D01*
G75*
G02*
X112691440Y-77527840I-254000J0D01*
G01*
G37*
G36*
G01*
X112691440Y-74827840D02*
X111391440Y-74827840D01*
G75*
G02*
X111137440Y-74573840I0J254000D01*
G01*
X111137440Y-73073840D01*
G75*
G02*
X111391440Y-72819840I254000J0D01*
G01*
X112691440Y-72819840D01*
G75*
G02*
X112945440Y-73073840I0J-254000D01*
G01*
X112945440Y-74573840D01*
G75*
G02*
X112691440Y-74827840I-254000J0D01*
G01*
G37*
G36*
G01*
X121104500Y-94710500D02*
X122354500Y-94710500D01*
G75*
G02*
X122608500Y-94964500I0J-254000D01*
G01*
X122608500Y-96464500D01*
G75*
G02*
X122354500Y-96718500I-254000J0D01*
G01*
X121104500Y-96718500D01*
G75*
G02*
X120850500Y-96464500I0J254000D01*
G01*
X120850500Y-94964500D01*
G75*
G02*
X121104500Y-94710500I254000J0D01*
G01*
G37*
G36*
G01*
X121104500Y-97210500D02*
X122354500Y-97210500D01*
G75*
G02*
X122608500Y-97464500I0J-254000D01*
G01*
X122608500Y-98964500D01*
G75*
G02*
X122354500Y-99218500I-254000J0D01*
G01*
X121104500Y-99218500D01*
G75*
G02*
X120850500Y-98964500I0J254000D01*
G01*
X120850500Y-97464500D01*
G75*
G02*
X121104500Y-97210500I254000J0D01*
G01*
G37*
D10*
X115622000Y-75048000D03*
X115622000Y-77588000D03*
G36*
G01*
X116892000Y-79264400D02*
X116892000Y-80991600D01*
G75*
G02*
X116638000Y-81245600I-254000J0D01*
G01*
X114606000Y-81245600D01*
G75*
G02*
X114352000Y-80991600I0J254000D01*
G01*
X114352000Y-79264400D01*
G75*
G02*
X114606000Y-79010400I254000J0D01*
G01*
X116638000Y-79010400D01*
G75*
G02*
X116892000Y-79264400I0J-254000D01*
G01*
G37*
G36*
G01*
X119993410Y-102218490D02*
X119193310Y-102218490D01*
G75*
G02*
X118939310Y-101964490I0J254000D01*
G01*
X118939310Y-101164390D01*
G75*
G02*
X119193310Y-100910390I254000J0D01*
G01*
X119993410Y-100910390D01*
G75*
G02*
X120247410Y-101164390I0J-254000D01*
G01*
X120247410Y-101964490D01*
G75*
G02*
X119993410Y-102218490I-254000J0D01*
G01*
G37*
G36*
G01*
X117994430Y-101268490D02*
X117194330Y-101268490D01*
G75*
G02*
X116940330Y-101014490I0J254000D01*
G01*
X116940330Y-100214390D01*
G75*
G02*
X117194330Y-99960390I254000J0D01*
G01*
X117994430Y-99960390D01*
G75*
G02*
X118248430Y-100214390I0J-254000D01*
G01*
X118248430Y-101014490D01*
G75*
G02*
X117994430Y-101268490I-254000J0D01*
G01*
G37*
G36*
G01*
X117994430Y-103168490D02*
X117194330Y-103168490D01*
G75*
G02*
X116940330Y-102914490I0J254000D01*
G01*
X116940330Y-102114390D01*
G75*
G02*
X117194330Y-101860390I254000J0D01*
G01*
X117994430Y-101860390D01*
G75*
G02*
X118248430Y-102114390I0J-254000D01*
G01*
X118248430Y-102914490D01*
G75*
G02*
X117994430Y-103168490I-254000J0D01*
G01*
G37*
G36*
G01*
X114995800Y-99600000D02*
X116245800Y-99600000D01*
G75*
G02*
X116499800Y-99854000I0J-254000D01*
G01*
X116499800Y-101354000D01*
G75*
G02*
X116245800Y-101608000I-254000J0D01*
G01*
X114995800Y-101608000D01*
G75*
G02*
X114741800Y-101354000I0J254000D01*
G01*
X114741800Y-99854000D01*
G75*
G02*
X114995800Y-99600000I254000J0D01*
G01*
G37*
G36*
G01*
X114995800Y-102100000D02*
X116245800Y-102100000D01*
G75*
G02*
X116499800Y-102354000I0J-254000D01*
G01*
X116499800Y-103854000D01*
G75*
G02*
X116245800Y-104108000I-254000J0D01*
G01*
X114995800Y-104108000D01*
G75*
G02*
X114741800Y-103854000I0J254000D01*
G01*
X114741800Y-102354000D01*
G75*
G02*
X114995800Y-102100000I254000J0D01*
G01*
G37*
G36*
G01*
X116618120Y-99163840D02*
X114918120Y-99163840D01*
G75*
G02*
X114664120Y-98909840I0J254000D01*
G01*
X114664120Y-97609840D01*
G75*
G02*
X114918120Y-97355840I254000J0D01*
G01*
X116618120Y-97355840D01*
G75*
G02*
X116872120Y-97609840I0J-254000D01*
G01*
X116872120Y-98909840D01*
G75*
G02*
X116618120Y-99163840I-254000J0D01*
G01*
G37*
G36*
G01*
X116618120Y-95663840D02*
X114918120Y-95663840D01*
G75*
G02*
X114664120Y-95409840I0J254000D01*
G01*
X114664120Y-94109840D01*
G75*
G02*
X114918120Y-93855840I254000J0D01*
G01*
X116618120Y-93855840D01*
G75*
G02*
X116872120Y-94109840I0J-254000D01*
G01*
X116872120Y-95409840D01*
G75*
G02*
X116618120Y-95663840I-254000J0D01*
G01*
G37*
G36*
G01*
X113809000Y-82512000D02*
X113809000Y-84112000D01*
G75*
G02*
X113555000Y-84366000I-254000J0D01*
G01*
X110555000Y-84366000D01*
G75*
G02*
X110301000Y-84112000I0J254000D01*
G01*
X110301000Y-82512000D01*
G75*
G02*
X110555000Y-82258000I254000J0D01*
G01*
X113555000Y-82258000D01*
G75*
G02*
X113809000Y-82512000I0J-254000D01*
G01*
G37*
G36*
G01*
X109409000Y-82512000D02*
X109409000Y-84112000D01*
G75*
G02*
X109155000Y-84366000I-254000J0D01*
G01*
X106155000Y-84366000D01*
G75*
G02*
X105901000Y-84112000I0J254000D01*
G01*
X105901000Y-82512000D01*
G75*
G02*
X106155000Y-82258000I254000J0D01*
G01*
X109155000Y-82258000D01*
G75*
G02*
X109409000Y-82512000I0J-254000D01*
G01*
G37*
G36*
G01*
X106066000Y-99680000D02*
X106066000Y-100980000D01*
G75*
G02*
X105812000Y-101234000I-254000J0D01*
G01*
X104312000Y-101234000D01*
G75*
G02*
X104058000Y-100980000I0J254000D01*
G01*
X104058000Y-99680000D01*
G75*
G02*
X104312000Y-99426000I254000J0D01*
G01*
X105812000Y-99426000D01*
G75*
G02*
X106066000Y-99680000I0J-254000D01*
G01*
G37*
G36*
G01*
X103366000Y-99680000D02*
X103366000Y-100980000D01*
G75*
G02*
X103112000Y-101234000I-254000J0D01*
G01*
X101612000Y-101234000D01*
G75*
G02*
X101358000Y-100980000I0J254000D01*
G01*
X101358000Y-99680000D01*
G75*
G02*
X101612000Y-99426000I254000J0D01*
G01*
X103112000Y-99426000D01*
G75*
G02*
X103366000Y-99680000I0J-254000D01*
G01*
G37*
G36*
G01*
X117866000Y-73946000D02*
X119116000Y-73946000D01*
G75*
G02*
X119370000Y-74200000I0J-254000D01*
G01*
X119370000Y-75700000D01*
G75*
G02*
X119116000Y-75954000I-254000J0D01*
G01*
X117866000Y-75954000D01*
G75*
G02*
X117612000Y-75700000I0J254000D01*
G01*
X117612000Y-74200000D01*
G75*
G02*
X117866000Y-73946000I254000J0D01*
G01*
G37*
G36*
G01*
X117866000Y-76446000D02*
X119116000Y-76446000D01*
G75*
G02*
X119370000Y-76700000I0J-254000D01*
G01*
X119370000Y-78200000D01*
G75*
G02*
X119116000Y-78454000I-254000J0D01*
G01*
X117866000Y-78454000D01*
G75*
G02*
X117612000Y-78200000I0J254000D01*
G01*
X117612000Y-76700000D01*
G75*
G02*
X117866000Y-76446000I254000J0D01*
G01*
G37*
G36*
G01*
X97802700Y-79394050D02*
X99402900Y-79394050D01*
G75*
G02*
X99656900Y-79648050I0J-254000D01*
G01*
X99656900Y-83247230D01*
G75*
G02*
X99402900Y-83501230I-254000J0D01*
G01*
X97802700Y-83501230D01*
G75*
G02*
X97548700Y-83247230I0J254000D01*
G01*
X97548700Y-79648050D01*
G75*
G02*
X97802700Y-79394050I254000J0D01*
G01*
G37*
G36*
G01*
X97802700Y-73892410D02*
X99402900Y-73892410D01*
G75*
G02*
X99656900Y-74146410I0J-254000D01*
G01*
X99656900Y-77745590D01*
G75*
G02*
X99402900Y-77999590I-254000J0D01*
G01*
X97802700Y-77999590D01*
G75*
G02*
X97548700Y-77745590I0J254000D01*
G01*
X97548700Y-74146410D01*
G75*
G02*
X97802700Y-73892410I254000J0D01*
G01*
G37*
G36*
G01*
X101358000Y-94122000D02*
X101358000Y-92822000D01*
G75*
G02*
X101612000Y-92568000I254000J0D01*
G01*
X103112000Y-92568000D01*
G75*
G02*
X103366000Y-92822000I0J-254000D01*
G01*
X103366000Y-94122000D01*
G75*
G02*
X103112000Y-94376000I-254000J0D01*
G01*
X101612000Y-94376000D01*
G75*
G02*
X101358000Y-94122000I0J254000D01*
G01*
G37*
G36*
G01*
X104058000Y-94122000D02*
X104058000Y-92822000D01*
G75*
G02*
X104312000Y-92568000I254000J0D01*
G01*
X105812000Y-92568000D01*
G75*
G02*
X106066000Y-92822000I0J-254000D01*
G01*
X106066000Y-94122000D01*
G75*
G02*
X105812000Y-94376000I-254000J0D01*
G01*
X104312000Y-94376000D01*
G75*
G02*
X104058000Y-94122000I0J254000D01*
G01*
G37*
G36*
G01*
X104462000Y-72959200D02*
X104462000Y-74259200D01*
G75*
G02*
X104208000Y-74513200I-254000J0D01*
G01*
X102708000Y-74513200D01*
G75*
G02*
X102454000Y-74259200I0J254000D01*
G01*
X102454000Y-72959200D01*
G75*
G02*
X102708000Y-72705200I254000J0D01*
G01*
X104208000Y-72705200D01*
G75*
G02*
X104462000Y-72959200I0J-254000D01*
G01*
G37*
G36*
G01*
X101762000Y-72959200D02*
X101762000Y-74259200D01*
G75*
G02*
X101508000Y-74513200I-254000J0D01*
G01*
X100008000Y-74513200D01*
G75*
G02*
X99754000Y-74259200I0J254000D01*
G01*
X99754000Y-72959200D01*
G75*
G02*
X100008000Y-72705200I254000J0D01*
G01*
X101508000Y-72705200D01*
G75*
G02*
X101762000Y-72959200I0J-254000D01*
G01*
G37*
G36*
G01*
X105935200Y-88250000D02*
X105935200Y-89550000D01*
G75*
G02*
X105681200Y-89804000I-254000J0D01*
G01*
X104181200Y-89804000D01*
G75*
G02*
X103927200Y-89550000I0J254000D01*
G01*
X103927200Y-88250000D01*
G75*
G02*
X104181200Y-87996000I254000J0D01*
G01*
X105681200Y-87996000D01*
G75*
G02*
X105935200Y-88250000I0J-254000D01*
G01*
G37*
G36*
G01*
X103235200Y-88250000D02*
X103235200Y-89550000D01*
G75*
G02*
X102981200Y-89804000I-254000J0D01*
G01*
X101481200Y-89804000D01*
G75*
G02*
X101227200Y-89550000I0J254000D01*
G01*
X101227200Y-88250000D01*
G75*
G02*
X101481200Y-87996000I254000J0D01*
G01*
X102981200Y-87996000D01*
G75*
G02*
X103235200Y-88250000I0J-254000D01*
G01*
G37*
G36*
G01*
X101358000Y-98669000D02*
X101358000Y-97419000D01*
G75*
G02*
X101612000Y-97165000I254000J0D01*
G01*
X103112000Y-97165000D01*
G75*
G02*
X103366000Y-97419000I0J-254000D01*
G01*
X103366000Y-98669000D01*
G75*
G02*
X103112000Y-98923000I-254000J0D01*
G01*
X101612000Y-98923000D01*
G75*
G02*
X101358000Y-98669000I0J254000D01*
G01*
G37*
G36*
G01*
X103858000Y-98669000D02*
X103858000Y-97419000D01*
G75*
G02*
X104112000Y-97165000I254000J0D01*
G01*
X105612000Y-97165000D01*
G75*
G02*
X105866000Y-97419000I0J-254000D01*
G01*
X105866000Y-98669000D01*
G75*
G02*
X105612000Y-98923000I-254000J0D01*
G01*
X104112000Y-98923000D01*
G75*
G02*
X103858000Y-98669000I0J254000D01*
G01*
G37*
G36*
G01*
X106066000Y-95108000D02*
X106066000Y-96408000D01*
G75*
G02*
X105812000Y-96662000I-254000J0D01*
G01*
X104312000Y-96662000D01*
G75*
G02*
X104058000Y-96408000I0J254000D01*
G01*
X104058000Y-95108000D01*
G75*
G02*
X104312000Y-94854000I254000J0D01*
G01*
X105812000Y-94854000D01*
G75*
G02*
X106066000Y-95108000I0J-254000D01*
G01*
G37*
G36*
G01*
X103366000Y-95108000D02*
X103366000Y-96408000D01*
G75*
G02*
X103112000Y-96662000I-254000J0D01*
G01*
X101612000Y-96662000D01*
G75*
G02*
X101358000Y-96408000I0J254000D01*
G01*
X101358000Y-95108000D01*
G75*
G02*
X101612000Y-94854000I254000J0D01*
G01*
X103112000Y-94854000D01*
G75*
G02*
X103366000Y-95108000I0J-254000D01*
G01*
G37*
G36*
G01*
X104906500Y-83678000D02*
X104906500Y-84978000D01*
G75*
G02*
X104652500Y-85232000I-254000J0D01*
G01*
X103152500Y-85232000D01*
G75*
G02*
X102898500Y-84978000I0J254000D01*
G01*
X102898500Y-83678000D01*
G75*
G02*
X103152500Y-83424000I254000J0D01*
G01*
X104652500Y-83424000D01*
G75*
G02*
X104906500Y-83678000I0J-254000D01*
G01*
G37*
G36*
G01*
X102206500Y-83678000D02*
X102206500Y-84978000D01*
G75*
G02*
X101952500Y-85232000I-254000J0D01*
G01*
X100452500Y-85232000D01*
G75*
G02*
X100198500Y-84978000I0J254000D01*
G01*
X100198500Y-83678000D01*
G75*
G02*
X100452500Y-83424000I254000J0D01*
G01*
X101952500Y-83424000D01*
G75*
G02*
X102206500Y-83678000I0J-254000D01*
G01*
G37*
G36*
G01*
X101252600Y-91836000D02*
X101252600Y-90536000D01*
G75*
G02*
X101506600Y-90282000I254000J0D01*
G01*
X103006600Y-90282000D01*
G75*
G02*
X103260600Y-90536000I0J-254000D01*
G01*
X103260600Y-91836000D01*
G75*
G02*
X103006600Y-92090000I-254000J0D01*
G01*
X101506600Y-92090000D01*
G75*
G02*
X101252600Y-91836000I0J254000D01*
G01*
G37*
G36*
G01*
X103952600Y-91836000D02*
X103952600Y-90536000D01*
G75*
G02*
X104206600Y-90282000I254000J0D01*
G01*
X105706600Y-90282000D01*
G75*
G02*
X105960600Y-90536000I0J-254000D01*
G01*
X105960600Y-91836000D01*
G75*
G02*
X105706600Y-92090000I-254000J0D01*
G01*
X104206600Y-92090000D01*
G75*
G02*
X103952600Y-91836000I0J254000D01*
G01*
G37*
G36*
G01*
X131638720Y-74757520D02*
X131638720Y-76057520D01*
G75*
G02*
X131384720Y-76311520I-254000J0D01*
G01*
X129884720Y-76311520D01*
G75*
G02*
X129630720Y-76057520I0J254000D01*
G01*
X129630720Y-74757520D01*
G75*
G02*
X129884720Y-74503520I254000J0D01*
G01*
X131384720Y-74503520D01*
G75*
G02*
X131638720Y-74757520I0J-254000D01*
G01*
G37*
G36*
G01*
X128938720Y-74757520D02*
X128938720Y-76057520D01*
G75*
G02*
X128684720Y-76311520I-254000J0D01*
G01*
X127184720Y-76311520D01*
G75*
G02*
X126930720Y-76057520I0J254000D01*
G01*
X126930720Y-74757520D01*
G75*
G02*
X127184720Y-74503520I254000J0D01*
G01*
X128684720Y-74503520D01*
G75*
G02*
X128938720Y-74757520I0J-254000D01*
G01*
G37*
G36*
G01*
X109395500Y-72830000D02*
X110695500Y-72830000D01*
G75*
G02*
X110949500Y-73084000I0J-254000D01*
G01*
X110949500Y-74584000D01*
G75*
G02*
X110695500Y-74838000I-254000J0D01*
G01*
X109395500Y-74838000D01*
G75*
G02*
X109141500Y-74584000I0J254000D01*
G01*
X109141500Y-73084000D01*
G75*
G02*
X109395500Y-72830000I254000J0D01*
G01*
G37*
G36*
G01*
X109395500Y-75530000D02*
X110695500Y-75530000D01*
G75*
G02*
X110949500Y-75784000I0J-254000D01*
G01*
X110949500Y-77284000D01*
G75*
G02*
X110695500Y-77538000I-254000J0D01*
G01*
X109395500Y-77538000D01*
G75*
G02*
X109141500Y-77284000I0J254000D01*
G01*
X109141500Y-75784000D01*
G75*
G02*
X109395500Y-75530000I254000J0D01*
G01*
G37*
G36*
G01*
X121926920Y-76057520D02*
X121926920Y-74757520D01*
G75*
G02*
X122180920Y-74503520I254000J0D01*
G01*
X123680920Y-74503520D01*
G75*
G02*
X123934920Y-74757520I0J-254000D01*
G01*
X123934920Y-76057520D01*
G75*
G02*
X123680920Y-76311520I-254000J0D01*
G01*
X122180920Y-76311520D01*
G75*
G02*
X121926920Y-76057520I0J254000D01*
G01*
G37*
G36*
G01*
X124626920Y-76057520D02*
X124626920Y-74757520D01*
G75*
G02*
X124880920Y-74503520I254000J0D01*
G01*
X126380920Y-74503520D01*
G75*
G02*
X126634920Y-74757520I0J-254000D01*
G01*
X126634920Y-76057520D01*
G75*
G02*
X126380920Y-76311520I-254000J0D01*
G01*
X124880920Y-76311520D01*
G75*
G02*
X124626920Y-76057520I0J254000D01*
G01*
G37*
G36*
G01*
X124642160Y-78140320D02*
X124642160Y-76840320D01*
G75*
G02*
X124896160Y-76586320I254000J0D01*
G01*
X126396160Y-76586320D01*
G75*
G02*
X126650160Y-76840320I0J-254000D01*
G01*
X126650160Y-78140320D01*
G75*
G02*
X126396160Y-78394320I-254000J0D01*
G01*
X124896160Y-78394320D01*
G75*
G02*
X124642160Y-78140320I0J254000D01*
G01*
G37*
G36*
G01*
X121942160Y-78140320D02*
X121942160Y-76840320D01*
G75*
G02*
X122196160Y-76586320I254000J0D01*
G01*
X123696160Y-76586320D01*
G75*
G02*
X123950160Y-76840320I0J-254000D01*
G01*
X123950160Y-78140320D01*
G75*
G02*
X123696160Y-78394320I-254000J0D01*
G01*
X122196160Y-78394320D01*
G75*
G02*
X121942160Y-78140320I0J254000D01*
G01*
G37*
G36*
G01*
X128959040Y-76865720D02*
X128959040Y-78165720D01*
G75*
G02*
X128705040Y-78419720I-254000J0D01*
G01*
X127205040Y-78419720D01*
G75*
G02*
X126951040Y-78165720I0J254000D01*
G01*
X126951040Y-76865720D01*
G75*
G02*
X127205040Y-76611720I254000J0D01*
G01*
X128705040Y-76611720D01*
G75*
G02*
X128959040Y-76865720I0J-254000D01*
G01*
G37*
G36*
G01*
X131659040Y-76865720D02*
X131659040Y-78165720D01*
G75*
G02*
X131405040Y-78419720I-254000J0D01*
G01*
X129905040Y-78419720D01*
G75*
G02*
X129651040Y-78165720I0J254000D01*
G01*
X129651040Y-76865720D01*
G75*
G02*
X129905040Y-76611720I254000J0D01*
G01*
X131405040Y-76611720D01*
G75*
G02*
X131659040Y-76865720I0J-254000D01*
G01*
G37*
G36*
G01*
X118826040Y-96232420D02*
X117526040Y-96232420D01*
G75*
G02*
X117272040Y-95978420I0J254000D01*
G01*
X117272040Y-94478420D01*
G75*
G02*
X117526040Y-94224420I254000J0D01*
G01*
X118826040Y-94224420D01*
G75*
G02*
X119080040Y-94478420I0J-254000D01*
G01*
X119080040Y-95978420D01*
G75*
G02*
X118826040Y-96232420I-254000J0D01*
G01*
G37*
G36*
G01*
X118826040Y-98932420D02*
X117526040Y-98932420D01*
G75*
G02*
X117272040Y-98678420I0J254000D01*
G01*
X117272040Y-97178420D01*
G75*
G02*
X117526040Y-96924420I254000J0D01*
G01*
X118826040Y-96924420D01*
G75*
G02*
X119080040Y-97178420I0J-254000D01*
G01*
X119080040Y-98678420D01*
G75*
G02*
X118826040Y-98932420I-254000J0D01*
G01*
G37*
M02*
