M48
; DRILL file {KiCad 6.0.5-a6ca702e91~116~ubuntu20.04.1} date St 15. jún 2022, 21:10:54
; FORMAT={-:-/ absolute / metric / decimal}
; #@! TF.CreationDate,2022-06-15T21:10:54+02:00
; #@! TF.GenerationSoftware,Kicad,Pcbnew,6.0.5-a6ca702e91~116~ubuntu20.04.1
; #@! TF.FileFunction,MixedPlating,1,2
FMAT,2
METRIC
; #@! TA.AperFunction,Plated,PTH,ViaDrill
T1C0.300
; #@! TA.AperFunction,Plated,PTH,ViaDrill
T2C0.400
; #@! TA.AperFunction,Plated,PTH,ComponentDrill
T3C0.800
; #@! TA.AperFunction,Plated,PTH,ComponentDrill
T4C1.016
; #@! TA.AperFunction,NonPlated,NPTH,ComponentDrill
T5C1.500
; #@! TA.AperFunction,NonPlated,NPTH,ComponentDrill
T6C2.000
%
G90
G05
T1
X67.584Y-49.743
X68.803Y-51.317
X69.794Y-53.629
X72.136Y-45.72
X74.213Y-51.19
X74.319Y-53.68
X76.88Y-52.84
X77.04Y-50.63
X77.53Y-52.19
X77.84Y-49.94
X78.13Y-51.58
X78.76Y-49.03
X79.33Y-48.46
X79.86Y-47.93
X80.16Y-45.76
X80.393Y-66.573
X81.16Y-46.61
X81.2Y-48.74
X81.55Y-48.19
X81.78Y-45.99
X82.39Y-45.38
X83.12Y-44.91
X83.746Y-71.044
X84.17Y-46.35
X84.323Y-48.096
X84.48Y-44.96
X85.61Y-44.94
X86.72Y-44.93
X86.88Y-46.31
X90.16Y-44.87
X90.18Y-46.48
X91.21Y-46.4
X92.202Y-61.976
X92.99Y-46.39
X93.06Y-76.19
X93.11Y-75.17
X93.53Y-44.86
X93.726Y-66.802
X93.726Y-72.898
X93.726Y-78.994
X93.75Y-71.64
X93.78Y-67.79
X93.78Y-68.7
X93.8Y-64.72
X93.8Y-65.63
X93.8Y-69.73
X93.8Y-70.64
X93.85Y-62.0
X93.85Y-62.91
X93.912Y-76.223
X93.92Y-46.4
X94.01Y-75.09
X94.27Y-78.38
X94.31Y-79.64
X94.46Y-44.85
X94.52Y-72.31
X94.52Y-73.49
X94.55Y-61.18
X94.63Y-57.06
X94.65Y-49.75
X94.65Y-51.61
X94.65Y-52.52
X94.65Y-53.37
X94.65Y-55.23
X94.65Y-56.14
X94.66Y-50.68
X94.66Y-54.3
X94.83Y-46.4
X94.85Y-77.79
X94.94Y-76.21
X95.02Y-75.1
X95.22Y-79.02
X95.39Y-44.86
X95.46Y-61.18
X95.5Y-73.45
X95.5Y-77.12
X95.56Y-72.29
X95.58Y-46.75
X95.86Y-75.08
X95.9Y-59.32
X95.9Y-60.23
X95.91Y-58.39
X95.99Y-47.52
X95.99Y-48.43
X95.99Y-78.23
X96.23Y-76.38
X96.25Y-45.39
X96.56Y-73.48
X96.6Y-72.32
X96.66Y-74.32
X96.66Y-77.58
X96.71Y-60.75
X96.97Y-75.63
X96.98Y-45.07
X97.28Y-76.97
X97.37Y-66.36
X97.5Y-72.01
X97.56Y-73.46
X97.62Y-67.35
X97.65Y-44.73
X97.66Y-68.68
X97.67Y-70.07
X97.69Y-71.22
X97.93Y-74.71
X98.05Y-65.52
X98.12Y-76.1
X98.32Y-63.67
X98.32Y-66.34
X98.39Y-72.71
X98.41Y-71.19
X98.48Y-67.35
X98.54Y-68.69
X98.56Y-70.06
X98.64Y-61.93
X98.64Y-62.86
X98.66Y-74.0
X98.78Y-64.87
X98.95Y-79.18
X98.95Y-81.04
X98.95Y-81.95
X98.96Y-80.11
X98.97Y-75.34
X98.97Y-77.2
X98.97Y-78.11
X98.98Y-76.27
X99.12Y-71.94
X99.29Y-66.39
X99.29Y-68.13
X99.38Y-73.27
X99.39Y-69.95
X99.634Y-42.55
X99.73Y-61.93
X99.73Y-62.86
X99.73Y-63.7
X99.73Y-64.75
X99.73Y-65.59
X99.94Y-71.14
X99.98Y-67.46
X100.09Y-82.03
X100.13Y-72.51
X100.18Y-69.18
X100.33Y-45.212
X100.81Y-64.73
X100.81Y-65.57
X100.81Y-70.29
X100.82Y-61.93
X100.82Y-62.86
X100.82Y-63.7
X100.82Y-66.34
X100.82Y-67.33
X100.83Y-68.5
X101.02Y-82.02
X101.03Y-71.62
X101.145Y-45.192
X101.59Y-42.576
X101.66Y-69.41
X101.83Y-70.78
X101.88Y-67.53
X101.9Y-61.93
X101.9Y-62.86
X101.9Y-63.7
X101.9Y-64.74
X101.9Y-65.9
X101.95Y-82.03
X102.6Y-45.09
X102.86Y-78.3
X102.86Y-80.16
X102.86Y-81.07
X102.86Y-82.03
X102.87Y-79.23
X103.0Y-66.49
X103.0Y-68.12
X103.0Y-69.67
X103.01Y-64.78
X103.02Y-61.93
X103.02Y-62.86
X103.02Y-63.7
X103.53Y-45.08
X103.632Y-48.006
X103.8Y-80.29
X104.13Y-65.55
X104.13Y-66.95
X104.15Y-61.93
X104.15Y-62.86
X104.15Y-63.7
X104.19Y-68.53
X104.21Y-44.53
X104.416Y-75.3
X104.441Y-72.582
X104.648Y-45.212
X104.73Y-80.28
X105.02Y-44.48
X105.2Y-61.94
X105.2Y-62.87
X105.2Y-63.71
X105.22Y-66.65
X105.29Y-67.75
X105.46Y-45.08
X105.66Y-80.29
X105.664Y-65.024
X106.16Y-67.77
X106.18Y-43.29
X106.18Y-44.2
X106.19Y-42.36
X106.32Y-61.93
X106.32Y-62.86
X106.32Y-63.7
X106.346Y-69.89
X106.38Y-66.65
X106.39Y-45.07
X106.49Y-65.47
X106.57Y-80.29
X106.934Y-64.262
X107.25Y-67.77
X107.32Y-45.08
X107.4Y-66.63
X107.41Y-42.23
X107.43Y-64.84
X107.43Y-65.51
X107.44Y-61.93
X107.44Y-62.86
X107.44Y-63.7
X107.6Y-80.31
X107.96Y-68.33
X108.34Y-42.22
X108.49Y-61.93
X108.49Y-62.86
X108.49Y-63.7
X108.5Y-64.57
X108.5Y-65.5
X108.53Y-80.3
X108.54Y-66.72
X108.63Y-67.82
X108.92Y-68.47
X108.966Y-66.04
X109.27Y-42.23
X109.46Y-80.31
X109.56Y-61.93
X109.56Y-62.86
X109.56Y-63.7
X109.654Y-58.552
X109.85Y-68.46
X110.18Y-42.23
X110.37Y-80.31
X110.78Y-68.47
X111.15Y-80.28
X111.18Y-42.23
X111.69Y-68.47
X112.08Y-80.29
X112.11Y-42.22
X112.245Y-58.654
X112.71Y-68.44
X112.99Y-80.29
X113.04Y-42.23
X113.64Y-68.43
X113.82Y-58.654
X113.95Y-42.23
X114.554Y-61.722
X114.57Y-68.44
X114.89Y-43.77
X114.89Y-44.68
X114.9Y-42.84
X115.48Y-68.44
X116.59Y-68.44
X117.52Y-68.43
X118.45Y-68.44
X119.36Y-68.44
X120.31Y-68.43
X121.24Y-68.42
X122.17Y-68.43
X123.08Y-68.43
T2
X58.22Y-62.06
X62.23Y-60.98
X66.205Y-41.147
X69.227Y-40.929
X70.197Y-38.383
X70.523Y-37.414
X71.361Y-43.078
X75.792Y-67.793
X76.2Y-57.658
X84.45Y-50.306
X90.158Y-51.296
X107.47Y-76.758
X111.084Y-61.686
T4
X63.055Y-47.248
X63.055Y-49.788
X63.055Y-52.328
X63.055Y-54.868
X63.055Y-57.408
X63.092Y-62.555
X63.092Y-65.095
X63.092Y-67.635
X63.092Y-70.175
X63.092Y-72.715
X66.334Y-47.558
X68.874Y-47.558
X71.414Y-47.558
X73.954Y-47.558
X75.349Y-37.5
X75.349Y-40.04
X75.349Y-42.58
X76.494Y-47.558
X95.758Y-62.992
X95.758Y-65.532
X95.758Y-68.072
X95.758Y-70.612
X100.866Y-74.843
X100.866Y-77.383
X100.866Y-79.923
T5
X115.062Y-74.97
X120.062Y-69.97
X120.062Y-79.97
T6
X58.753Y-74.706
X121.253Y-42.906
T3
G00X115.412Y-69.97
M15
G01X114.712Y-69.97
M16
G05
G00X115.412Y-72.47
M15
G01X114.712Y-72.47
M16
G05
G00X115.412Y-77.47
M15
G01X114.712Y-77.47
M16
G05
G00X115.412Y-79.97
M15
G01X114.712Y-79.97
M16
G05
G00X120.062Y-74.62
M15
G01X120.062Y-75.32
M16
G05
T0
M30
