%TF.GenerationSoftware,KiCad,Pcbnew,6.0.5-a6ca702e91~116~ubuntu20.04.1*%
%TF.CreationDate,2022-06-15T21:10:52+02:00*%
%TF.ProjectId,vwcdpic_with_BT,76776364-7069-4635-9f77-6974685f4254,rev?*%
%TF.SameCoordinates,Original*%
%TF.FileFunction,Legend,Top*%
%TF.FilePolarity,Positive*%
%FSLAX46Y46*%
G04 Gerber Fmt 4.6, Leading zero omitted, Abs format (unit mm)*
G04 Created by KiCad (PCBNEW 6.0.5-a6ca702e91~116~ubuntu20.04.1) date 2022-06-15 21:10:52*
%MOMM*%
%LPD*%
G01*
G04 APERTURE LIST*
%ADD10C,0.200000*%
%ADD11C,0.100000*%
%ADD12C,0.150000*%
%ADD13C,0.050800*%
%ADD14C,0.076200*%
%ADD15C,0.152400*%
%ADD16C,0.120000*%
%ADD17C,3.000000*%
%ADD18C,0.250000*%
%ADD19C,0.127000*%
%ADD20R,2.032000X1.727200*%
%ADD21O,2.032000X1.727200*%
%ADD22R,1.727200X2.032000*%
%ADD23O,1.727200X2.032000*%
%ADD24C,1.500000*%
%ADD25O,2.000000X2.600000*%
%ADD26O,2.600000X2.000000*%
G04 APERTURE END LIST*
D10*
X66440000Y-64470000D02*
X69910000Y-64480000D01*
X66360000Y-74690000D02*
X69970000Y-74680000D01*
D11*
X57912857Y-71743333D02*
X58293809Y-71743333D01*
X57836666Y-71971904D02*
X58103333Y-71171904D01*
X58370000Y-71971904D01*
X58789047Y-71171904D02*
X58941428Y-71171904D01*
X59017619Y-71210000D01*
X59093809Y-71286190D01*
X59131904Y-71438571D01*
X59131904Y-71705238D01*
X59093809Y-71857619D01*
X59017619Y-71933809D01*
X58941428Y-71971904D01*
X58789047Y-71971904D01*
X58712857Y-71933809D01*
X58636666Y-71857619D01*
X58598571Y-71705238D01*
X58598571Y-71438571D01*
X58636666Y-71286190D01*
X58712857Y-71210000D01*
X58789047Y-71171904D01*
X59474761Y-71171904D02*
X59474761Y-71819523D01*
X59512857Y-71895714D01*
X59550952Y-71933809D01*
X59627142Y-71971904D01*
X59779523Y-71971904D01*
X59855714Y-71933809D01*
X59893809Y-71895714D01*
X59931904Y-71819523D01*
X59931904Y-71171904D01*
X60198571Y-71171904D02*
X60655714Y-71171904D01*
X60427142Y-71971904D02*
X60427142Y-71171904D01*
X61303333Y-71971904D02*
X60922380Y-71971904D01*
X60922380Y-71171904D01*
X77150476Y-39850000D02*
X77074285Y-39811904D01*
X76960000Y-39811904D01*
X76845714Y-39850000D01*
X76769523Y-39926190D01*
X76731428Y-40002380D01*
X76693333Y-40154761D01*
X76693333Y-40269047D01*
X76731428Y-40421428D01*
X76769523Y-40497619D01*
X76845714Y-40573809D01*
X76960000Y-40611904D01*
X77036190Y-40611904D01*
X77150476Y-40573809D01*
X77188571Y-40535714D01*
X77188571Y-40269047D01*
X77036190Y-40269047D01*
X77531428Y-40611904D02*
X77531428Y-39811904D01*
X77988571Y-40611904D01*
X77988571Y-39811904D01*
X78369523Y-40611904D02*
X78369523Y-39811904D01*
X78560000Y-39811904D01*
X78674285Y-39850000D01*
X78750476Y-39926190D01*
X78788571Y-40002380D01*
X78826666Y-40154761D01*
X78826666Y-40269047D01*
X78788571Y-40421428D01*
X78750476Y-40497619D01*
X78674285Y-40573809D01*
X78560000Y-40611904D01*
X78369523Y-40611904D01*
X57904761Y-55345714D02*
X57866666Y-55383809D01*
X57752380Y-55421904D01*
X57676190Y-55421904D01*
X57561904Y-55383809D01*
X57485714Y-55307619D01*
X57447619Y-55231428D01*
X57409523Y-55079047D01*
X57409523Y-54964761D01*
X57447619Y-54812380D01*
X57485714Y-54736190D01*
X57561904Y-54660000D01*
X57676190Y-54621904D01*
X57752380Y-54621904D01*
X57866666Y-54660000D01*
X57904761Y-54698095D01*
X58628571Y-55421904D02*
X58247619Y-55421904D01*
X58247619Y-54621904D01*
X59047619Y-54621904D02*
X59200000Y-54621904D01*
X59276190Y-54660000D01*
X59352380Y-54736190D01*
X59390476Y-54888571D01*
X59390476Y-55155238D01*
X59352380Y-55307619D01*
X59276190Y-55383809D01*
X59200000Y-55421904D01*
X59047619Y-55421904D01*
X58971428Y-55383809D01*
X58895238Y-55307619D01*
X58857142Y-55155238D01*
X58857142Y-54888571D01*
X58895238Y-54736190D01*
X58971428Y-54660000D01*
X59047619Y-54621904D01*
X60190476Y-55345714D02*
X60152380Y-55383809D01*
X60038095Y-55421904D01*
X59961904Y-55421904D01*
X59847619Y-55383809D01*
X59771428Y-55307619D01*
X59733333Y-55231428D01*
X59695238Y-55079047D01*
X59695238Y-54964761D01*
X59733333Y-54812380D01*
X59771428Y-54736190D01*
X59847619Y-54660000D01*
X59961904Y-54621904D01*
X60038095Y-54621904D01*
X60152380Y-54660000D01*
X60190476Y-54698095D01*
X60533333Y-55421904D02*
X60533333Y-54621904D01*
X60990476Y-55421904D02*
X60647619Y-54964761D01*
X60990476Y-54621904D02*
X60533333Y-55079047D01*
X95948095Y-77961904D02*
X95948095Y-77161904D01*
X96214761Y-77733333D01*
X96481428Y-77161904D01*
X96481428Y-77961904D01*
X96862380Y-77961904D02*
X96862380Y-77161904D01*
X97700476Y-77885714D02*
X97662380Y-77923809D01*
X97548095Y-77961904D01*
X97471904Y-77961904D01*
X97357619Y-77923809D01*
X97281428Y-77847619D01*
X97243333Y-77771428D01*
X97205238Y-77619047D01*
X97205238Y-77504761D01*
X97243333Y-77352380D01*
X97281428Y-77276190D01*
X97357619Y-77200000D01*
X97471904Y-77161904D01*
X97548095Y-77161904D01*
X97662380Y-77200000D01*
X97700476Y-77238095D01*
X97852857Y-78038095D02*
X98462380Y-78038095D01*
X98652857Y-77961904D02*
X98652857Y-77161904D01*
X98957619Y-77161904D01*
X99033809Y-77200000D01*
X99071904Y-77238095D01*
X99110000Y-77314285D01*
X99110000Y-77428571D01*
X99071904Y-77504761D01*
X99033809Y-77542857D01*
X98957619Y-77580952D01*
X98652857Y-77580952D01*
X97370476Y-74570000D02*
X97294285Y-74531904D01*
X97180000Y-74531904D01*
X97065714Y-74570000D01*
X96989523Y-74646190D01*
X96951428Y-74722380D01*
X96913333Y-74874761D01*
X96913333Y-74989047D01*
X96951428Y-75141428D01*
X96989523Y-75217619D01*
X97065714Y-75293809D01*
X97180000Y-75331904D01*
X97256190Y-75331904D01*
X97370476Y-75293809D01*
X97408571Y-75255714D01*
X97408571Y-74989047D01*
X97256190Y-74989047D01*
X97751428Y-75331904D02*
X97751428Y-74531904D01*
X98208571Y-75331904D01*
X98208571Y-74531904D01*
X98589523Y-75331904D02*
X98589523Y-74531904D01*
X98780000Y-74531904D01*
X98894285Y-74570000D01*
X98970476Y-74646190D01*
X99008571Y-74722380D01*
X99046666Y-74874761D01*
X99046666Y-74989047D01*
X99008571Y-75141428D01*
X98970476Y-75217619D01*
X98894285Y-75293809D01*
X98780000Y-75331904D01*
X98589523Y-75331904D01*
X59664761Y-62991904D02*
X59207619Y-62991904D01*
X59436190Y-62991904D02*
X59436190Y-62191904D01*
X59360000Y-62306190D01*
X59283809Y-62382380D01*
X59207619Y-62420476D01*
X59969523Y-62268095D02*
X60007619Y-62230000D01*
X60083809Y-62191904D01*
X60274285Y-62191904D01*
X60350476Y-62230000D01*
X60388571Y-62268095D01*
X60426666Y-62344285D01*
X60426666Y-62420476D01*
X60388571Y-62534761D01*
X59931428Y-62991904D01*
X60426666Y-62991904D01*
X60655238Y-62191904D02*
X60921904Y-62991904D01*
X61188571Y-62191904D01*
X57089047Y-47725714D02*
X57050952Y-47763809D01*
X56936666Y-47801904D01*
X56860476Y-47801904D01*
X56746190Y-47763809D01*
X56670000Y-47687619D01*
X56631904Y-47611428D01*
X56593809Y-47459047D01*
X56593809Y-47344761D01*
X56631904Y-47192380D01*
X56670000Y-47116190D01*
X56746190Y-47040000D01*
X56860476Y-47001904D01*
X56936666Y-47001904D01*
X57050952Y-47040000D01*
X57089047Y-47078095D01*
X57431904Y-47801904D02*
X57431904Y-47001904D01*
X57622380Y-47001904D01*
X57736666Y-47040000D01*
X57812857Y-47116190D01*
X57850952Y-47192380D01*
X57889047Y-47344761D01*
X57889047Y-47459047D01*
X57850952Y-47611428D01*
X57812857Y-47687619D01*
X57736666Y-47763809D01*
X57622380Y-47801904D01*
X57431904Y-47801904D01*
X58689047Y-47725714D02*
X58650952Y-47763809D01*
X58536666Y-47801904D01*
X58460476Y-47801904D01*
X58346190Y-47763809D01*
X58270000Y-47687619D01*
X58231904Y-47611428D01*
X58193809Y-47459047D01*
X58193809Y-47344761D01*
X58231904Y-47192380D01*
X58270000Y-47116190D01*
X58346190Y-47040000D01*
X58460476Y-47001904D01*
X58536666Y-47001904D01*
X58650952Y-47040000D01*
X58689047Y-47078095D01*
X58841428Y-47878095D02*
X59450952Y-47878095D01*
X59641428Y-47382857D02*
X59908095Y-47382857D01*
X60022380Y-47801904D02*
X59641428Y-47801904D01*
X59641428Y-47001904D01*
X60022380Y-47001904D01*
X60365238Y-47801904D02*
X60365238Y-47001904D01*
X60822380Y-47801904D01*
X60822380Y-47001904D01*
X61165238Y-47573333D02*
X61546190Y-47573333D01*
X61089047Y-47801904D02*
X61355714Y-47001904D01*
X61622380Y-47801904D01*
X57260476Y-52561904D02*
X57260476Y-51761904D01*
X57450952Y-51761904D01*
X57565238Y-51800000D01*
X57641428Y-51876190D01*
X57679523Y-51952380D01*
X57717619Y-52104761D01*
X57717619Y-52219047D01*
X57679523Y-52371428D01*
X57641428Y-52447619D01*
X57565238Y-52523809D01*
X57450952Y-52561904D01*
X57260476Y-52561904D01*
X58022380Y-52333333D02*
X58403333Y-52333333D01*
X57946190Y-52561904D02*
X58212857Y-51761904D01*
X58479523Y-52561904D01*
X58631904Y-51761904D02*
X59089047Y-51761904D01*
X58860476Y-52561904D02*
X58860476Y-51761904D01*
X59317619Y-52333333D02*
X59698571Y-52333333D01*
X59241428Y-52561904D02*
X59508095Y-51761904D01*
X59774761Y-52561904D01*
X60041428Y-52561904D02*
X60041428Y-51761904D01*
X60422380Y-52561904D02*
X60422380Y-51761904D01*
X60879523Y-52561904D01*
X60879523Y-51761904D01*
X97786190Y-68461904D02*
X97786190Y-67661904D01*
X98167142Y-68461904D02*
X98167142Y-67661904D01*
X98624285Y-68461904D01*
X98624285Y-67661904D01*
X98814761Y-68538095D02*
X99424285Y-68538095D01*
X100071904Y-68461904D02*
X99805238Y-68080952D01*
X99614761Y-68461904D02*
X99614761Y-67661904D01*
X99919523Y-67661904D01*
X99995714Y-67700000D01*
X100033809Y-67738095D01*
X100071904Y-67814285D01*
X100071904Y-67928571D01*
X100033809Y-68004761D01*
X99995714Y-68042857D01*
X99919523Y-68080952D01*
X99614761Y-68080952D01*
X57816666Y-67813333D02*
X58197619Y-67813333D01*
X57740476Y-68041904D02*
X58007142Y-67241904D01*
X58273809Y-68041904D01*
X58692857Y-67241904D02*
X58845238Y-67241904D01*
X58921428Y-67280000D01*
X58997619Y-67356190D01*
X59035714Y-67508571D01*
X59035714Y-67775238D01*
X58997619Y-67927619D01*
X58921428Y-68003809D01*
X58845238Y-68041904D01*
X58692857Y-68041904D01*
X58616666Y-68003809D01*
X58540476Y-67927619D01*
X58502380Y-67775238D01*
X58502380Y-67508571D01*
X58540476Y-67356190D01*
X58616666Y-67280000D01*
X58692857Y-67241904D01*
X59378571Y-67241904D02*
X59378571Y-67889523D01*
X59416666Y-67965714D01*
X59454761Y-68003809D01*
X59530952Y-68041904D01*
X59683333Y-68041904D01*
X59759523Y-68003809D01*
X59797619Y-67965714D01*
X59835714Y-67889523D01*
X59835714Y-67241904D01*
X60102380Y-67241904D02*
X60559523Y-67241904D01*
X60330952Y-68041904D02*
X60330952Y-67241904D01*
X61283333Y-68041904D02*
X61016666Y-67660952D01*
X60826190Y-68041904D02*
X60826190Y-67241904D01*
X61130952Y-67241904D01*
X61207142Y-67280000D01*
X61245238Y-67318095D01*
X61283333Y-67394285D01*
X61283333Y-67508571D01*
X61245238Y-67584761D01*
X61207142Y-67622857D01*
X61130952Y-67660952D01*
X60826190Y-67660952D01*
X97932380Y-70971904D02*
X97932380Y-70171904D01*
X98313333Y-70971904D02*
X98313333Y-70171904D01*
X98770476Y-70971904D01*
X98770476Y-70171904D01*
X98960952Y-71048095D02*
X99570476Y-71048095D01*
X100141904Y-70971904D02*
X99760952Y-70971904D01*
X99760952Y-70171904D01*
X59300476Y-57150000D02*
X59224285Y-57111904D01*
X59110000Y-57111904D01*
X58995714Y-57150000D01*
X58919523Y-57226190D01*
X58881428Y-57302380D01*
X58843333Y-57454761D01*
X58843333Y-57569047D01*
X58881428Y-57721428D01*
X58919523Y-57797619D01*
X58995714Y-57873809D01*
X59110000Y-57911904D01*
X59186190Y-57911904D01*
X59300476Y-57873809D01*
X59338571Y-57835714D01*
X59338571Y-57569047D01*
X59186190Y-57569047D01*
X59681428Y-57911904D02*
X59681428Y-57111904D01*
X60138571Y-57911904D01*
X60138571Y-57111904D01*
X60519523Y-57911904D02*
X60519523Y-57111904D01*
X60710000Y-57111904D01*
X60824285Y-57150000D01*
X60900476Y-57226190D01*
X60938571Y-57302380D01*
X60976666Y-57454761D01*
X60976666Y-57569047D01*
X60938571Y-57721428D01*
X60900476Y-57797619D01*
X60824285Y-57873809D01*
X60710000Y-57911904D01*
X60519523Y-57911904D01*
X77041428Y-35777142D02*
X77650952Y-35777142D01*
X77346190Y-36081904D02*
X77346190Y-35472380D01*
X78412857Y-35281904D02*
X78031904Y-35281904D01*
X77993809Y-35662857D01*
X78031904Y-35624761D01*
X78108095Y-35586666D01*
X78298571Y-35586666D01*
X78374761Y-35624761D01*
X78412857Y-35662857D01*
X78450952Y-35739047D01*
X78450952Y-35929523D01*
X78412857Y-36005714D01*
X78374761Y-36043809D01*
X78298571Y-36081904D01*
X78108095Y-36081904D01*
X78031904Y-36043809D01*
X77993809Y-36005714D01*
X78679523Y-35281904D02*
X78946190Y-36081904D01*
X79212857Y-35281904D01*
X56867142Y-50261904D02*
X56867142Y-49461904D01*
X57057619Y-49461904D01*
X57171904Y-49500000D01*
X57248095Y-49576190D01*
X57286190Y-49652380D01*
X57324285Y-49804761D01*
X57324285Y-49919047D01*
X57286190Y-50071428D01*
X57248095Y-50147619D01*
X57171904Y-50223809D01*
X57057619Y-50261904D01*
X56867142Y-50261904D01*
X57629047Y-50033333D02*
X58010000Y-50033333D01*
X57552857Y-50261904D02*
X57819523Y-49461904D01*
X58086190Y-50261904D01*
X58238571Y-49461904D02*
X58695714Y-49461904D01*
X58467142Y-50261904D02*
X58467142Y-49461904D01*
X58924285Y-50033333D02*
X59305238Y-50033333D01*
X58848095Y-50261904D02*
X59114761Y-49461904D01*
X59381428Y-50261904D01*
X59800476Y-49461904D02*
X59952857Y-49461904D01*
X60029047Y-49500000D01*
X60105238Y-49576190D01*
X60143333Y-49728571D01*
X60143333Y-49995238D01*
X60105238Y-50147619D01*
X60029047Y-50223809D01*
X59952857Y-50261904D01*
X59800476Y-50261904D01*
X59724285Y-50223809D01*
X59648095Y-50147619D01*
X59610000Y-49995238D01*
X59610000Y-49728571D01*
X59648095Y-49576190D01*
X59724285Y-49500000D01*
X59800476Y-49461904D01*
X60486190Y-49461904D02*
X60486190Y-50109523D01*
X60524285Y-50185714D01*
X60562380Y-50223809D01*
X60638571Y-50261904D01*
X60790952Y-50261904D01*
X60867142Y-50223809D01*
X60905238Y-50185714D01*
X60943333Y-50109523D01*
X60943333Y-49461904D01*
X61210000Y-49461904D02*
X61667142Y-49461904D01*
X61438571Y-50261904D02*
X61438571Y-49461904D01*
X75638095Y-45411904D02*
X75371428Y-45030952D01*
X75180952Y-45411904D02*
X75180952Y-44611904D01*
X75485714Y-44611904D01*
X75561904Y-44650000D01*
X75600000Y-44688095D01*
X75638095Y-44764285D01*
X75638095Y-44878571D01*
X75600000Y-44954761D01*
X75561904Y-44992857D01*
X75485714Y-45030952D01*
X75180952Y-45030952D01*
X75980952Y-44992857D02*
X76247619Y-44992857D01*
X76361904Y-45411904D02*
X75980952Y-45411904D01*
X75980952Y-44611904D01*
X76361904Y-44611904D01*
X76666666Y-45373809D02*
X76780952Y-45411904D01*
X76971428Y-45411904D01*
X77047619Y-45373809D01*
X77085714Y-45335714D01*
X77123809Y-45259523D01*
X77123809Y-45183333D01*
X77085714Y-45107142D01*
X77047619Y-45069047D01*
X76971428Y-45030952D01*
X76819047Y-44992857D01*
X76742857Y-44954761D01*
X76704761Y-44916666D01*
X76666666Y-44840476D01*
X76666666Y-44764285D01*
X76704761Y-44688095D01*
X76742857Y-44650000D01*
X76819047Y-44611904D01*
X77009523Y-44611904D01*
X77123809Y-44650000D01*
X77466666Y-44992857D02*
X77733333Y-44992857D01*
X77847619Y-45411904D02*
X77466666Y-45411904D01*
X77466666Y-44611904D01*
X77847619Y-44611904D01*
X78076190Y-44611904D02*
X78533333Y-44611904D01*
X78304761Y-45411904D02*
X78304761Y-44611904D01*
X98090476Y-62530000D02*
X98014285Y-62491904D01*
X97900000Y-62491904D01*
X97785714Y-62530000D01*
X97709523Y-62606190D01*
X97671428Y-62682380D01*
X97633333Y-62834761D01*
X97633333Y-62949047D01*
X97671428Y-63101428D01*
X97709523Y-63177619D01*
X97785714Y-63253809D01*
X97900000Y-63291904D01*
X97976190Y-63291904D01*
X98090476Y-63253809D01*
X98128571Y-63215714D01*
X98128571Y-62949047D01*
X97976190Y-62949047D01*
X98471428Y-63291904D02*
X98471428Y-62491904D01*
X98928571Y-63291904D01*
X98928571Y-62491904D01*
X99309523Y-63291904D02*
X99309523Y-62491904D01*
X99500000Y-62491904D01*
X99614285Y-62530000D01*
X99690476Y-62606190D01*
X99728571Y-62682380D01*
X99766666Y-62834761D01*
X99766666Y-62949047D01*
X99728571Y-63101428D01*
X99690476Y-63177619D01*
X99614285Y-63253809D01*
X99500000Y-63291904D01*
X99309523Y-63291904D01*
X77020952Y-42101904D02*
X77287619Y-42901904D01*
X77554285Y-42101904D01*
X77820952Y-42901904D02*
X77820952Y-42368571D01*
X77820952Y-42101904D02*
X77782857Y-42140000D01*
X77820952Y-42178095D01*
X77859047Y-42140000D01*
X77820952Y-42101904D01*
X77820952Y-42178095D01*
X78201904Y-42368571D02*
X78201904Y-42901904D01*
X78201904Y-42444761D02*
X78240000Y-42406666D01*
X78316190Y-42368571D01*
X78430476Y-42368571D01*
X78506666Y-42406666D01*
X78544761Y-42482857D01*
X78544761Y-42901904D01*
X58807619Y-64750000D02*
X58731428Y-64711904D01*
X58617142Y-64711904D01*
X58502857Y-64750000D01*
X58426666Y-64826190D01*
X58388571Y-64902380D01*
X58350476Y-65054761D01*
X58350476Y-65169047D01*
X58388571Y-65321428D01*
X58426666Y-65397619D01*
X58502857Y-65473809D01*
X58617142Y-65511904D01*
X58693333Y-65511904D01*
X58807619Y-65473809D01*
X58845714Y-65435714D01*
X58845714Y-65169047D01*
X58693333Y-65169047D01*
X59188571Y-65511904D02*
X59188571Y-64711904D01*
X59645714Y-65511904D01*
X59645714Y-64711904D01*
X60026666Y-65511904D02*
X60026666Y-64711904D01*
X60217142Y-64711904D01*
X60331428Y-64750000D01*
X60407619Y-64826190D01*
X60445714Y-64902380D01*
X60483809Y-65054761D01*
X60483809Y-65169047D01*
X60445714Y-65321428D01*
X60407619Y-65397619D01*
X60331428Y-65473809D01*
X60217142Y-65511904D01*
X60026666Y-65511904D01*
X60788571Y-65283333D02*
X61169523Y-65283333D01*
X60712380Y-65511904D02*
X60979047Y-64711904D01*
X61245714Y-65511904D01*
X72811428Y-45667142D02*
X73420952Y-45667142D01*
X73116190Y-45971904D02*
X73116190Y-45362380D01*
X74182857Y-45171904D02*
X73801904Y-45171904D01*
X73763809Y-45552857D01*
X73801904Y-45514761D01*
X73878095Y-45476666D01*
X74068571Y-45476666D01*
X74144761Y-45514761D01*
X74182857Y-45552857D01*
X74220952Y-45629047D01*
X74220952Y-45819523D01*
X74182857Y-45895714D01*
X74144761Y-45933809D01*
X74068571Y-45971904D01*
X73878095Y-45971904D01*
X73801904Y-45933809D01*
X73763809Y-45895714D01*
X74449523Y-45171904D02*
X74716190Y-45971904D01*
X74982857Y-45171904D01*
X66491904Y-45803333D02*
X65691904Y-45803333D01*
X65691904Y-45498571D01*
X65730000Y-45422380D01*
X65768095Y-45384285D01*
X65844285Y-45346190D01*
X65958571Y-45346190D01*
X66034761Y-45384285D01*
X66072857Y-45422380D01*
X66110952Y-45498571D01*
X66110952Y-45803333D01*
X66415714Y-44546190D02*
X66453809Y-44584285D01*
X66491904Y-44698571D01*
X66491904Y-44774761D01*
X66453809Y-44889047D01*
X66377619Y-44965238D01*
X66301428Y-45003333D01*
X66149047Y-45041428D01*
X66034761Y-45041428D01*
X65882380Y-45003333D01*
X65806190Y-44965238D01*
X65730000Y-44889047D01*
X65691904Y-44774761D01*
X65691904Y-44698571D01*
X65730000Y-44584285D01*
X65768095Y-44546190D01*
X66491904Y-43822380D02*
X66491904Y-44203333D01*
X65691904Y-44203333D01*
X66491904Y-43555714D02*
X65691904Y-43555714D01*
X66491904Y-43098571D02*
X66034761Y-43441428D01*
X65691904Y-43098571D02*
X66149047Y-43555714D01*
X97707142Y-65841904D02*
X97707142Y-65041904D01*
X97897619Y-65041904D01*
X98011904Y-65080000D01*
X98088095Y-65156190D01*
X98126190Y-65232380D01*
X98164285Y-65384761D01*
X98164285Y-65499047D01*
X98126190Y-65651428D01*
X98088095Y-65727619D01*
X98011904Y-65803809D01*
X97897619Y-65841904D01*
X97707142Y-65841904D01*
X98507142Y-65422857D02*
X98773809Y-65422857D01*
X98888095Y-65841904D02*
X98507142Y-65841904D01*
X98507142Y-65041904D01*
X98888095Y-65041904D01*
X99116666Y-65041904D02*
X99573809Y-65041904D01*
X99345238Y-65841904D02*
X99345238Y-65041904D01*
X99840476Y-65422857D02*
X100107142Y-65422857D01*
X100221428Y-65841904D02*
X99840476Y-65841904D01*
X99840476Y-65041904D01*
X100221428Y-65041904D01*
X101021428Y-65765714D02*
X100983333Y-65803809D01*
X100869047Y-65841904D01*
X100792857Y-65841904D01*
X100678571Y-65803809D01*
X100602380Y-65727619D01*
X100564285Y-65651428D01*
X100526190Y-65499047D01*
X100526190Y-65384761D01*
X100564285Y-65232380D01*
X100602380Y-65156190D01*
X100678571Y-65080000D01*
X100792857Y-65041904D01*
X100869047Y-65041904D01*
X100983333Y-65080000D01*
X101021428Y-65118095D01*
X101250000Y-65041904D02*
X101707142Y-65041904D01*
X101478571Y-65841904D02*
X101478571Y-65041904D01*
X71350000Y-45639523D02*
X71311904Y-45715714D01*
X71311904Y-45830000D01*
X71350000Y-45944285D01*
X71426190Y-46020476D01*
X71502380Y-46058571D01*
X71654761Y-46096666D01*
X71769047Y-46096666D01*
X71921428Y-46058571D01*
X71997619Y-46020476D01*
X72073809Y-45944285D01*
X72111904Y-45830000D01*
X72111904Y-45753809D01*
X72073809Y-45639523D01*
X72035714Y-45601428D01*
X71769047Y-45601428D01*
X71769047Y-45753809D01*
X72111904Y-45258571D02*
X71311904Y-45258571D01*
X72111904Y-44801428D01*
X71311904Y-44801428D01*
X72111904Y-44420476D02*
X71311904Y-44420476D01*
X71311904Y-44230000D01*
X71350000Y-44115714D01*
X71426190Y-44039523D01*
X71502380Y-44001428D01*
X71654761Y-43963333D01*
X71769047Y-43963333D01*
X71921428Y-44001428D01*
X71997619Y-44039523D01*
X72073809Y-44115714D01*
X72111904Y-44230000D01*
X72111904Y-44420476D01*
X58877619Y-69940000D02*
X58801428Y-69901904D01*
X58687142Y-69901904D01*
X58572857Y-69940000D01*
X58496666Y-70016190D01*
X58458571Y-70092380D01*
X58420476Y-70244761D01*
X58420476Y-70359047D01*
X58458571Y-70511428D01*
X58496666Y-70587619D01*
X58572857Y-70663809D01*
X58687142Y-70701904D01*
X58763333Y-70701904D01*
X58877619Y-70663809D01*
X58915714Y-70625714D01*
X58915714Y-70359047D01*
X58763333Y-70359047D01*
X59258571Y-70701904D02*
X59258571Y-69901904D01*
X59715714Y-70701904D01*
X59715714Y-69901904D01*
X60096666Y-70701904D02*
X60096666Y-69901904D01*
X60287142Y-69901904D01*
X60401428Y-69940000D01*
X60477619Y-70016190D01*
X60515714Y-70092380D01*
X60553809Y-70244761D01*
X60553809Y-70359047D01*
X60515714Y-70511428D01*
X60477619Y-70587619D01*
X60401428Y-70663809D01*
X60287142Y-70701904D01*
X60096666Y-70701904D01*
X60858571Y-70473333D02*
X61239523Y-70473333D01*
X60782380Y-70701904D02*
X61049047Y-69901904D01*
X61315714Y-70701904D01*
X95954285Y-80351904D02*
X95954285Y-79551904D01*
X96220952Y-80123333D01*
X96487619Y-79551904D01*
X96487619Y-80351904D01*
X96868571Y-80351904D02*
X96868571Y-79551904D01*
X97706666Y-80275714D02*
X97668571Y-80313809D01*
X97554285Y-80351904D01*
X97478095Y-80351904D01*
X97363809Y-80313809D01*
X97287619Y-80237619D01*
X97249523Y-80161428D01*
X97211428Y-80009047D01*
X97211428Y-79894761D01*
X97249523Y-79742380D01*
X97287619Y-79666190D01*
X97363809Y-79590000D01*
X97478095Y-79551904D01*
X97554285Y-79551904D01*
X97668571Y-79590000D01*
X97706666Y-79628095D01*
X97859047Y-80428095D02*
X98468571Y-80428095D01*
X99040000Y-80351904D02*
X98659047Y-80351904D01*
X98659047Y-79551904D01*
X67200000Y-46051904D02*
X67200000Y-45251904D01*
X67504761Y-45251904D01*
X67580952Y-45290000D01*
X67619047Y-45328095D01*
X67657142Y-45404285D01*
X67657142Y-45518571D01*
X67619047Y-45594761D01*
X67580952Y-45632857D01*
X67504761Y-45670952D01*
X67200000Y-45670952D01*
X68000000Y-46051904D02*
X68000000Y-45251904D01*
X68190476Y-45251904D01*
X68304761Y-45290000D01*
X68380952Y-45366190D01*
X68419047Y-45442380D01*
X68457142Y-45594761D01*
X68457142Y-45709047D01*
X68419047Y-45861428D01*
X68380952Y-45937619D01*
X68304761Y-46013809D01*
X68190476Y-46051904D01*
X68000000Y-46051904D01*
X68761904Y-45823333D02*
X69142857Y-45823333D01*
X68685714Y-46051904D02*
X68952380Y-45251904D01*
X69219047Y-46051904D01*
X69371428Y-45251904D02*
X69828571Y-45251904D01*
X69600000Y-46051904D02*
X69600000Y-45251904D01*
X70057142Y-45823333D02*
X70438095Y-45823333D01*
X69980952Y-46051904D02*
X70247619Y-45251904D01*
X70514285Y-46051904D01*
D12*
%TO.C,C6*%
X85177333Y-81383142D02*
X85129714Y-81430761D01*
X84986857Y-81478380D01*
X84891619Y-81478380D01*
X84748761Y-81430761D01*
X84653523Y-81335523D01*
X84605904Y-81240285D01*
X84558285Y-81049809D01*
X84558285Y-80906952D01*
X84605904Y-80716476D01*
X84653523Y-80621238D01*
X84748761Y-80526000D01*
X84891619Y-80478380D01*
X84986857Y-80478380D01*
X85129714Y-80526000D01*
X85177333Y-80573619D01*
X86034476Y-80478380D02*
X85844000Y-80478380D01*
X85748761Y-80526000D01*
X85701142Y-80573619D01*
X85605904Y-80716476D01*
X85558285Y-80906952D01*
X85558285Y-81287904D01*
X85605904Y-81383142D01*
X85653523Y-81430761D01*
X85748761Y-81478380D01*
X85939238Y-81478380D01*
X86034476Y-81430761D01*
X86082095Y-81383142D01*
X86129714Y-81287904D01*
X86129714Y-81049809D01*
X86082095Y-80954571D01*
X86034476Y-80906952D01*
X85939238Y-80859333D01*
X85748761Y-80859333D01*
X85653523Y-80906952D01*
X85605904Y-80954571D01*
X85558285Y-81049809D01*
%TO.C,C9*%
X70003333Y-57527142D02*
X69955714Y-57574761D01*
X69812857Y-57622380D01*
X69717619Y-57622380D01*
X69574761Y-57574761D01*
X69479523Y-57479523D01*
X69431904Y-57384285D01*
X69384285Y-57193809D01*
X69384285Y-57050952D01*
X69431904Y-56860476D01*
X69479523Y-56765238D01*
X69574761Y-56670000D01*
X69717619Y-56622380D01*
X69812857Y-56622380D01*
X69955714Y-56670000D01*
X70003333Y-56717619D01*
X70479523Y-57622380D02*
X70670000Y-57622380D01*
X70765238Y-57574761D01*
X70812857Y-57527142D01*
X70908095Y-57384285D01*
X70955714Y-57193809D01*
X70955714Y-56812857D01*
X70908095Y-56717619D01*
X70860476Y-56670000D01*
X70765238Y-56622380D01*
X70574761Y-56622380D01*
X70479523Y-56670000D01*
X70431904Y-56717619D01*
X70384285Y-56812857D01*
X70384285Y-57050952D01*
X70431904Y-57146190D01*
X70479523Y-57193809D01*
X70574761Y-57241428D01*
X70765238Y-57241428D01*
X70860476Y-57193809D01*
X70908095Y-57146190D01*
X70955714Y-57050952D01*
%TO.C,R8*%
X81367333Y-78201780D02*
X81034000Y-77725590D01*
X80795904Y-78201780D02*
X80795904Y-77201780D01*
X81176857Y-77201780D01*
X81272095Y-77249400D01*
X81319714Y-77297019D01*
X81367333Y-77392257D01*
X81367333Y-77535114D01*
X81319714Y-77630352D01*
X81272095Y-77677971D01*
X81176857Y-77725590D01*
X80795904Y-77725590D01*
X81938761Y-77630352D02*
X81843523Y-77582733D01*
X81795904Y-77535114D01*
X81748285Y-77439876D01*
X81748285Y-77392257D01*
X81795904Y-77297019D01*
X81843523Y-77249400D01*
X81938761Y-77201780D01*
X82129238Y-77201780D01*
X82224476Y-77249400D01*
X82272095Y-77297019D01*
X82319714Y-77392257D01*
X82319714Y-77439876D01*
X82272095Y-77535114D01*
X82224476Y-77582733D01*
X82129238Y-77630352D01*
X81938761Y-77630352D01*
X81843523Y-77677971D01*
X81795904Y-77725590D01*
X81748285Y-77820828D01*
X81748285Y-78011304D01*
X81795904Y-78106542D01*
X81843523Y-78154161D01*
X81938761Y-78201780D01*
X82129238Y-78201780D01*
X82224476Y-78154161D01*
X82272095Y-78106542D01*
X82319714Y-78011304D01*
X82319714Y-77820828D01*
X82272095Y-77725590D01*
X82224476Y-77677971D01*
X82129238Y-77630352D01*
%TO.C,R10*%
X66142380Y-71562857D02*
X65666190Y-71896190D01*
X66142380Y-72134285D02*
X65142380Y-72134285D01*
X65142380Y-71753333D01*
X65190000Y-71658095D01*
X65237619Y-71610476D01*
X65332857Y-71562857D01*
X65475714Y-71562857D01*
X65570952Y-71610476D01*
X65618571Y-71658095D01*
X65666190Y-71753333D01*
X65666190Y-72134285D01*
X66142380Y-70610476D02*
X66142380Y-71181904D01*
X66142380Y-70896190D02*
X65142380Y-70896190D01*
X65285238Y-70991428D01*
X65380476Y-71086666D01*
X65428095Y-71181904D01*
X65142380Y-69991428D02*
X65142380Y-69896190D01*
X65190000Y-69800952D01*
X65237619Y-69753333D01*
X65332857Y-69705714D01*
X65523333Y-69658095D01*
X65761428Y-69658095D01*
X65951904Y-69705714D01*
X66047142Y-69753333D01*
X66094761Y-69800952D01*
X66142380Y-69896190D01*
X66142380Y-69991428D01*
X66094761Y-70086666D01*
X66047142Y-70134285D01*
X65951904Y-70181904D01*
X65761428Y-70229523D01*
X65523333Y-70229523D01*
X65332857Y-70181904D01*
X65237619Y-70134285D01*
X65190000Y-70086666D01*
X65142380Y-69991428D01*
%TO.C,R11*%
X66106980Y-65119257D02*
X65630790Y-65452590D01*
X66106980Y-65690685D02*
X65106980Y-65690685D01*
X65106980Y-65309733D01*
X65154600Y-65214495D01*
X65202219Y-65166876D01*
X65297457Y-65119257D01*
X65440314Y-65119257D01*
X65535552Y-65166876D01*
X65583171Y-65214495D01*
X65630790Y-65309733D01*
X65630790Y-65690685D01*
X66106980Y-64166876D02*
X66106980Y-64738304D01*
X66106980Y-64452590D02*
X65106980Y-64452590D01*
X65249838Y-64547828D01*
X65345076Y-64643066D01*
X65392695Y-64738304D01*
X66106980Y-63214495D02*
X66106980Y-63785923D01*
X66106980Y-63500209D02*
X65106980Y-63500209D01*
X65249838Y-63595447D01*
X65345076Y-63690685D01*
X65392695Y-63785923D01*
%TO.C,R15*%
X76524542Y-61107580D02*
X76191209Y-60631390D01*
X75953114Y-61107580D02*
X75953114Y-60107580D01*
X76334066Y-60107580D01*
X76429304Y-60155200D01*
X76476923Y-60202819D01*
X76524542Y-60298057D01*
X76524542Y-60440914D01*
X76476923Y-60536152D01*
X76429304Y-60583771D01*
X76334066Y-60631390D01*
X75953114Y-60631390D01*
X77476923Y-61107580D02*
X76905495Y-61107580D01*
X77191209Y-61107580D02*
X77191209Y-60107580D01*
X77095971Y-60250438D01*
X77000733Y-60345676D01*
X76905495Y-60393295D01*
X78381685Y-60107580D02*
X77905495Y-60107580D01*
X77857876Y-60583771D01*
X77905495Y-60536152D01*
X78000733Y-60488533D01*
X78238828Y-60488533D01*
X78334066Y-60536152D01*
X78381685Y-60583771D01*
X78429304Y-60679009D01*
X78429304Y-60917104D01*
X78381685Y-61012342D01*
X78334066Y-61059961D01*
X78238828Y-61107580D01*
X78000733Y-61107580D01*
X77905495Y-61059961D01*
X77857876Y-61012342D01*
%TO.C,U3*%
X80556780Y-70713504D02*
X81366304Y-70713504D01*
X81461542Y-70665885D01*
X81509161Y-70618266D01*
X81556780Y-70523028D01*
X81556780Y-70332552D01*
X81509161Y-70237314D01*
X81461542Y-70189695D01*
X81366304Y-70142076D01*
X80556780Y-70142076D01*
X80556780Y-69761123D02*
X80556780Y-69142076D01*
X80937733Y-69475409D01*
X80937733Y-69332552D01*
X80985352Y-69237314D01*
X81032971Y-69189695D01*
X81128209Y-69142076D01*
X81366304Y-69142076D01*
X81461542Y-69189695D01*
X81509161Y-69237314D01*
X81556780Y-69332552D01*
X81556780Y-69618266D01*
X81509161Y-69713504D01*
X81461542Y-69761123D01*
%TO.C,C15*%
X76499142Y-59666142D02*
X76451523Y-59713761D01*
X76308666Y-59761380D01*
X76213428Y-59761380D01*
X76070571Y-59713761D01*
X75975333Y-59618523D01*
X75927714Y-59523285D01*
X75880095Y-59332809D01*
X75880095Y-59189952D01*
X75927714Y-58999476D01*
X75975333Y-58904238D01*
X76070571Y-58809000D01*
X76213428Y-58761380D01*
X76308666Y-58761380D01*
X76451523Y-58809000D01*
X76499142Y-58856619D01*
X77451523Y-59761380D02*
X76880095Y-59761380D01*
X77165809Y-59761380D02*
X77165809Y-58761380D01*
X77070571Y-58904238D01*
X76975333Y-58999476D01*
X76880095Y-59047095D01*
X78356285Y-58761380D02*
X77880095Y-58761380D01*
X77832476Y-59237571D01*
X77880095Y-59189952D01*
X77975333Y-59142333D01*
X78213428Y-59142333D01*
X78308666Y-59189952D01*
X78356285Y-59237571D01*
X78403904Y-59332809D01*
X78403904Y-59570904D01*
X78356285Y-59666142D01*
X78308666Y-59713761D01*
X78213428Y-59761380D01*
X77975333Y-59761380D01*
X77880095Y-59713761D01*
X77832476Y-59666142D01*
%TO.C,C16*%
X76143542Y-80824342D02*
X76095923Y-80871961D01*
X75953066Y-80919580D01*
X75857828Y-80919580D01*
X75714971Y-80871961D01*
X75619733Y-80776723D01*
X75572114Y-80681485D01*
X75524495Y-80491009D01*
X75524495Y-80348152D01*
X75572114Y-80157676D01*
X75619733Y-80062438D01*
X75714971Y-79967200D01*
X75857828Y-79919580D01*
X75953066Y-79919580D01*
X76095923Y-79967200D01*
X76143542Y-80014819D01*
X77095923Y-80919580D02*
X76524495Y-80919580D01*
X76810209Y-80919580D02*
X76810209Y-79919580D01*
X76714971Y-80062438D01*
X76619733Y-80157676D01*
X76524495Y-80205295D01*
X77953066Y-79919580D02*
X77762590Y-79919580D01*
X77667352Y-79967200D01*
X77619733Y-80014819D01*
X77524495Y-80157676D01*
X77476876Y-80348152D01*
X77476876Y-80729104D01*
X77524495Y-80824342D01*
X77572114Y-80871961D01*
X77667352Y-80919580D01*
X77857828Y-80919580D01*
X77953066Y-80871961D01*
X78000685Y-80824342D01*
X78048304Y-80729104D01*
X78048304Y-80491009D01*
X78000685Y-80395771D01*
X77953066Y-80348152D01*
X77857828Y-80300533D01*
X77667352Y-80300533D01*
X77572114Y-80348152D01*
X77524495Y-80395771D01*
X77476876Y-80491009D01*
%TO.C,C20*%
X84193142Y-59081942D02*
X84145523Y-59129561D01*
X84002666Y-59177180D01*
X83907428Y-59177180D01*
X83764571Y-59129561D01*
X83669333Y-59034323D01*
X83621714Y-58939085D01*
X83574095Y-58748609D01*
X83574095Y-58605752D01*
X83621714Y-58415276D01*
X83669333Y-58320038D01*
X83764571Y-58224800D01*
X83907428Y-58177180D01*
X84002666Y-58177180D01*
X84145523Y-58224800D01*
X84193142Y-58272419D01*
X84574095Y-58272419D02*
X84621714Y-58224800D01*
X84716952Y-58177180D01*
X84955047Y-58177180D01*
X85050285Y-58224800D01*
X85097904Y-58272419D01*
X85145523Y-58367657D01*
X85145523Y-58462895D01*
X85097904Y-58605752D01*
X84526476Y-59177180D01*
X85145523Y-59177180D01*
X85764571Y-58177180D02*
X85859809Y-58177180D01*
X85955047Y-58224800D01*
X86002666Y-58272419D01*
X86050285Y-58367657D01*
X86097904Y-58558133D01*
X86097904Y-58796228D01*
X86050285Y-58986704D01*
X86002666Y-59081942D01*
X85955047Y-59129561D01*
X85859809Y-59177180D01*
X85764571Y-59177180D01*
X85669333Y-59129561D01*
X85621714Y-59081942D01*
X85574095Y-58986704D01*
X85526476Y-58796228D01*
X85526476Y-58558133D01*
X85574095Y-58367657D01*
X85621714Y-58272419D01*
X85669333Y-58224800D01*
X85764571Y-58177180D01*
%TO.C,R18*%
X76041942Y-79446380D02*
X75708609Y-78970190D01*
X75470514Y-79446380D02*
X75470514Y-78446380D01*
X75851466Y-78446380D01*
X75946704Y-78494000D01*
X75994323Y-78541619D01*
X76041942Y-78636857D01*
X76041942Y-78779714D01*
X75994323Y-78874952D01*
X75946704Y-78922571D01*
X75851466Y-78970190D01*
X75470514Y-78970190D01*
X76994323Y-79446380D02*
X76422895Y-79446380D01*
X76708609Y-79446380D02*
X76708609Y-78446380D01*
X76613371Y-78589238D01*
X76518133Y-78684476D01*
X76422895Y-78732095D01*
X77565752Y-78874952D02*
X77470514Y-78827333D01*
X77422895Y-78779714D01*
X77375276Y-78684476D01*
X77375276Y-78636857D01*
X77422895Y-78541619D01*
X77470514Y-78494000D01*
X77565752Y-78446380D01*
X77756228Y-78446380D01*
X77851466Y-78494000D01*
X77899085Y-78541619D01*
X77946704Y-78636857D01*
X77946704Y-78684476D01*
X77899085Y-78779714D01*
X77851466Y-78827333D01*
X77756228Y-78874952D01*
X77565752Y-78874952D01*
X77470514Y-78922571D01*
X77422895Y-78970190D01*
X77375276Y-79065428D01*
X77375276Y-79255904D01*
X77422895Y-79351142D01*
X77470514Y-79398761D01*
X77565752Y-79446380D01*
X77756228Y-79446380D01*
X77851466Y-79398761D01*
X77899085Y-79351142D01*
X77946704Y-79255904D01*
X77946704Y-79065428D01*
X77899085Y-78970190D01*
X77851466Y-78922571D01*
X77756228Y-78874952D01*
%TO.C,R21*%
X80891142Y-61666380D02*
X80557809Y-61190190D01*
X80319714Y-61666380D02*
X80319714Y-60666380D01*
X80700666Y-60666380D01*
X80795904Y-60714000D01*
X80843523Y-60761619D01*
X80891142Y-60856857D01*
X80891142Y-60999714D01*
X80843523Y-61094952D01*
X80795904Y-61142571D01*
X80700666Y-61190190D01*
X80319714Y-61190190D01*
X81272095Y-60761619D02*
X81319714Y-60714000D01*
X81414952Y-60666380D01*
X81653047Y-60666380D01*
X81748285Y-60714000D01*
X81795904Y-60761619D01*
X81843523Y-60856857D01*
X81843523Y-60952095D01*
X81795904Y-61094952D01*
X81224476Y-61666380D01*
X81843523Y-61666380D01*
X82795904Y-61666380D02*
X82224476Y-61666380D01*
X82510190Y-61666380D02*
X82510190Y-60666380D01*
X82414952Y-60809238D01*
X82319714Y-60904476D01*
X82224476Y-60952095D01*
%TO.C,R23*%
X81299742Y-72588380D02*
X80966409Y-72112190D01*
X80728314Y-72588380D02*
X80728314Y-71588380D01*
X81109266Y-71588380D01*
X81204504Y-71636000D01*
X81252123Y-71683619D01*
X81299742Y-71778857D01*
X81299742Y-71921714D01*
X81252123Y-72016952D01*
X81204504Y-72064571D01*
X81109266Y-72112190D01*
X80728314Y-72112190D01*
X81680695Y-71683619D02*
X81728314Y-71636000D01*
X81823552Y-71588380D01*
X82061647Y-71588380D01*
X82156885Y-71636000D01*
X82204504Y-71683619D01*
X82252123Y-71778857D01*
X82252123Y-71874095D01*
X82204504Y-72016952D01*
X81633076Y-72588380D01*
X82252123Y-72588380D01*
X82585457Y-71588380D02*
X83204504Y-71588380D01*
X82871171Y-71969333D01*
X83014028Y-71969333D01*
X83109266Y-72016952D01*
X83156885Y-72064571D01*
X83204504Y-72159809D01*
X83204504Y-72397904D01*
X83156885Y-72493142D01*
X83109266Y-72540761D01*
X83014028Y-72588380D01*
X82728314Y-72588380D01*
X82633076Y-72540761D01*
X82585457Y-72493142D01*
%TO.C,C7*%
X73964742Y-65876466D02*
X74012361Y-65924085D01*
X74059980Y-66066942D01*
X74059980Y-66162180D01*
X74012361Y-66305038D01*
X73917123Y-66400276D01*
X73821885Y-66447895D01*
X73631409Y-66495514D01*
X73488552Y-66495514D01*
X73298076Y-66447895D01*
X73202838Y-66400276D01*
X73107600Y-66305038D01*
X73059980Y-66162180D01*
X73059980Y-66066942D01*
X73107600Y-65924085D01*
X73155219Y-65876466D01*
X73059980Y-65543133D02*
X73059980Y-64876466D01*
X74059980Y-65305038D01*
%TO.C,C8*%
X74142542Y-73775866D02*
X74190161Y-73823485D01*
X74237780Y-73966342D01*
X74237780Y-74061580D01*
X74190161Y-74204438D01*
X74094923Y-74299676D01*
X73999685Y-74347295D01*
X73809209Y-74394914D01*
X73666352Y-74394914D01*
X73475876Y-74347295D01*
X73380638Y-74299676D01*
X73285400Y-74204438D01*
X73237780Y-74061580D01*
X73237780Y-73966342D01*
X73285400Y-73823485D01*
X73333019Y-73775866D01*
X73666352Y-73204438D02*
X73618733Y-73299676D01*
X73571114Y-73347295D01*
X73475876Y-73394914D01*
X73428257Y-73394914D01*
X73333019Y-73347295D01*
X73285400Y-73299676D01*
X73237780Y-73204438D01*
X73237780Y-73013961D01*
X73285400Y-72918723D01*
X73333019Y-72871104D01*
X73428257Y-72823485D01*
X73475876Y-72823485D01*
X73571114Y-72871104D01*
X73618733Y-72918723D01*
X73666352Y-73013961D01*
X73666352Y-73204438D01*
X73713971Y-73299676D01*
X73761590Y-73347295D01*
X73856828Y-73394914D01*
X74047304Y-73394914D01*
X74142542Y-73347295D01*
X74190161Y-73299676D01*
X74237780Y-73204438D01*
X74237780Y-73013961D01*
X74190161Y-72918723D01*
X74142542Y-72871104D01*
X74047304Y-72823485D01*
X73856828Y-72823485D01*
X73761590Y-72871104D01*
X73713971Y-72918723D01*
X73666352Y-73013961D01*
%TO.C,P3*%
X95252380Y-60898095D02*
X94252380Y-60898095D01*
X94252380Y-60517142D01*
X94300000Y-60421904D01*
X94347619Y-60374285D01*
X94442857Y-60326666D01*
X94585714Y-60326666D01*
X94680952Y-60374285D01*
X94728571Y-60421904D01*
X94776190Y-60517142D01*
X94776190Y-60898095D01*
X94252380Y-59993333D02*
X94252380Y-59374285D01*
X94633333Y-59707619D01*
X94633333Y-59564761D01*
X94680952Y-59469523D01*
X94728571Y-59421904D01*
X94823809Y-59374285D01*
X95061904Y-59374285D01*
X95157142Y-59421904D01*
X95204761Y-59469523D01*
X95252380Y-59564761D01*
X95252380Y-59850476D01*
X95204761Y-59945714D01*
X95157142Y-59993333D01*
%TO.C,R9*%
X66105180Y-68632266D02*
X65628990Y-68965600D01*
X66105180Y-69203695D02*
X65105180Y-69203695D01*
X65105180Y-68822742D01*
X65152800Y-68727504D01*
X65200419Y-68679885D01*
X65295657Y-68632266D01*
X65438514Y-68632266D01*
X65533752Y-68679885D01*
X65581371Y-68727504D01*
X65628990Y-68822742D01*
X65628990Y-69203695D01*
X66105180Y-68156076D02*
X66105180Y-67965600D01*
X66057561Y-67870361D01*
X66009942Y-67822742D01*
X65867085Y-67727504D01*
X65676609Y-67679885D01*
X65295657Y-67679885D01*
X65200419Y-67727504D01*
X65152800Y-67775123D01*
X65105180Y-67870361D01*
X65105180Y-68060838D01*
X65152800Y-68156076D01*
X65200419Y-68203695D01*
X65295657Y-68251314D01*
X65533752Y-68251314D01*
X65628990Y-68203695D01*
X65676609Y-68156076D01*
X65724228Y-68060838D01*
X65724228Y-67870361D01*
X65676609Y-67775123D01*
X65628990Y-67727504D01*
X65533752Y-67679885D01*
%TO.C,R12*%
X66112380Y-75282857D02*
X65636190Y-75616190D01*
X66112380Y-75854285D02*
X65112380Y-75854285D01*
X65112380Y-75473333D01*
X65160000Y-75378095D01*
X65207619Y-75330476D01*
X65302857Y-75282857D01*
X65445714Y-75282857D01*
X65540952Y-75330476D01*
X65588571Y-75378095D01*
X65636190Y-75473333D01*
X65636190Y-75854285D01*
X66112380Y-74330476D02*
X66112380Y-74901904D01*
X66112380Y-74616190D02*
X65112380Y-74616190D01*
X65255238Y-74711428D01*
X65350476Y-74806666D01*
X65398095Y-74901904D01*
X65207619Y-73949523D02*
X65160000Y-73901904D01*
X65112380Y-73806666D01*
X65112380Y-73568571D01*
X65160000Y-73473333D01*
X65207619Y-73425714D01*
X65302857Y-73378095D01*
X65398095Y-73378095D01*
X65540952Y-73425714D01*
X66112380Y-73997142D01*
X66112380Y-73378095D01*
%TO.C,C19*%
X84447142Y-69445142D02*
X84399523Y-69492761D01*
X84256666Y-69540380D01*
X84161428Y-69540380D01*
X84018571Y-69492761D01*
X83923333Y-69397523D01*
X83875714Y-69302285D01*
X83828095Y-69111809D01*
X83828095Y-68968952D01*
X83875714Y-68778476D01*
X83923333Y-68683238D01*
X84018571Y-68588000D01*
X84161428Y-68540380D01*
X84256666Y-68540380D01*
X84399523Y-68588000D01*
X84447142Y-68635619D01*
X85399523Y-69540380D02*
X84828095Y-69540380D01*
X85113809Y-69540380D02*
X85113809Y-68540380D01*
X85018571Y-68683238D01*
X84923333Y-68778476D01*
X84828095Y-68826095D01*
X85875714Y-69540380D02*
X86066190Y-69540380D01*
X86161428Y-69492761D01*
X86209047Y-69445142D01*
X86304285Y-69302285D01*
X86351904Y-69111809D01*
X86351904Y-68730857D01*
X86304285Y-68635619D01*
X86256666Y-68588000D01*
X86161428Y-68540380D01*
X85970952Y-68540380D01*
X85875714Y-68588000D01*
X85828095Y-68635619D01*
X85780476Y-68730857D01*
X85780476Y-68968952D01*
X85828095Y-69064190D01*
X85875714Y-69111809D01*
X85970952Y-69159428D01*
X86161428Y-69159428D01*
X86256666Y-69111809D01*
X86304285Y-69064190D01*
X86351904Y-68968952D01*
%TO.C,C14*%
X69387142Y-74880742D02*
X69339523Y-74928361D01*
X69196666Y-74975980D01*
X69101428Y-74975980D01*
X68958571Y-74928361D01*
X68863333Y-74833123D01*
X68815714Y-74737885D01*
X68768095Y-74547409D01*
X68768095Y-74404552D01*
X68815714Y-74214076D01*
X68863333Y-74118838D01*
X68958571Y-74023600D01*
X69101428Y-73975980D01*
X69196666Y-73975980D01*
X69339523Y-74023600D01*
X69387142Y-74071219D01*
X70339523Y-74975980D02*
X69768095Y-74975980D01*
X70053809Y-74975980D02*
X70053809Y-73975980D01*
X69958571Y-74118838D01*
X69863333Y-74214076D01*
X69768095Y-74261695D01*
X71196666Y-74309314D02*
X71196666Y-74975980D01*
X70958571Y-73928361D02*
X70720476Y-74642647D01*
X71339523Y-74642647D01*
%TO.C,C4*%
X67996153Y-56729152D02*
X67948534Y-56776771D01*
X67805677Y-56824390D01*
X67710439Y-56824390D01*
X67567581Y-56776771D01*
X67472343Y-56681533D01*
X67424724Y-56586295D01*
X67377105Y-56395819D01*
X67377105Y-56252962D01*
X67424724Y-56062486D01*
X67472343Y-55967248D01*
X67567581Y-55872010D01*
X67710439Y-55824390D01*
X67805677Y-55824390D01*
X67948534Y-55872010D01*
X67996153Y-55919629D01*
X68853296Y-56157724D02*
X68853296Y-56824390D01*
X68615200Y-55776771D02*
X68377105Y-56491057D01*
X68996153Y-56491057D01*
%TO.C,D3*%
X97787880Y-42882095D02*
X96787880Y-42882095D01*
X96787880Y-42644000D01*
X96835500Y-42501142D01*
X96930738Y-42405904D01*
X97025976Y-42358285D01*
X97216452Y-42310666D01*
X97359309Y-42310666D01*
X97549785Y-42358285D01*
X97645023Y-42405904D01*
X97740261Y-42501142D01*
X97787880Y-42644000D01*
X97787880Y-42882095D01*
X96787880Y-41977333D02*
X96787880Y-41358285D01*
X97168833Y-41691619D01*
X97168833Y-41548761D01*
X97216452Y-41453523D01*
X97264071Y-41405904D01*
X97359309Y-41358285D01*
X97597404Y-41358285D01*
X97692642Y-41405904D01*
X97740261Y-41453523D01*
X97787880Y-41548761D01*
X97787880Y-41834476D01*
X97740261Y-41929714D01*
X97692642Y-41977333D01*
%TO.C,C27*%
X103839542Y-76171657D02*
X103887161Y-76219276D01*
X103934780Y-76362133D01*
X103934780Y-76457371D01*
X103887161Y-76600228D01*
X103791923Y-76695466D01*
X103696685Y-76743085D01*
X103506209Y-76790704D01*
X103363352Y-76790704D01*
X103172876Y-76743085D01*
X103077638Y-76695466D01*
X102982400Y-76600228D01*
X102934780Y-76457371D01*
X102934780Y-76362133D01*
X102982400Y-76219276D01*
X103030019Y-76171657D01*
X103030019Y-75790704D02*
X102982400Y-75743085D01*
X102934780Y-75647847D01*
X102934780Y-75409752D01*
X102982400Y-75314514D01*
X103030019Y-75266895D01*
X103125257Y-75219276D01*
X103220495Y-75219276D01*
X103363352Y-75266895D01*
X103934780Y-75838323D01*
X103934780Y-75219276D01*
X102934780Y-74885942D02*
X102934780Y-74219276D01*
X103934780Y-74647847D01*
%TO.C,C23*%
X103814142Y-73149057D02*
X103861761Y-73196676D01*
X103909380Y-73339533D01*
X103909380Y-73434771D01*
X103861761Y-73577628D01*
X103766523Y-73672866D01*
X103671285Y-73720485D01*
X103480809Y-73768104D01*
X103337952Y-73768104D01*
X103147476Y-73720485D01*
X103052238Y-73672866D01*
X102957000Y-73577628D01*
X102909380Y-73434771D01*
X102909380Y-73339533D01*
X102957000Y-73196676D01*
X103004619Y-73149057D01*
X103004619Y-72768104D02*
X102957000Y-72720485D01*
X102909380Y-72625247D01*
X102909380Y-72387152D01*
X102957000Y-72291914D01*
X103004619Y-72244295D01*
X103099857Y-72196676D01*
X103195095Y-72196676D01*
X103337952Y-72244295D01*
X103909380Y-72815723D01*
X103909380Y-72196676D01*
X102909380Y-71863342D02*
X102909380Y-71244295D01*
X103290333Y-71577628D01*
X103290333Y-71434771D01*
X103337952Y-71339533D01*
X103385571Y-71291914D01*
X103480809Y-71244295D01*
X103718904Y-71244295D01*
X103814142Y-71291914D01*
X103861761Y-71339533D01*
X103909380Y-71434771D01*
X103909380Y-71720485D01*
X103861761Y-71815723D01*
X103814142Y-71863342D01*
%TO.C,R25*%
X104007942Y-78800580D02*
X103674609Y-78324390D01*
X103436514Y-78800580D02*
X103436514Y-77800580D01*
X103817466Y-77800580D01*
X103912704Y-77848200D01*
X103960323Y-77895819D01*
X104007942Y-77991057D01*
X104007942Y-78133914D01*
X103960323Y-78229152D01*
X103912704Y-78276771D01*
X103817466Y-78324390D01*
X103436514Y-78324390D01*
X104388895Y-77895819D02*
X104436514Y-77848200D01*
X104531752Y-77800580D01*
X104769847Y-77800580D01*
X104865085Y-77848200D01*
X104912704Y-77895819D01*
X104960323Y-77991057D01*
X104960323Y-78086295D01*
X104912704Y-78229152D01*
X104341276Y-78800580D01*
X104960323Y-78800580D01*
X105865085Y-77800580D02*
X105388895Y-77800580D01*
X105341276Y-78276771D01*
X105388895Y-78229152D01*
X105484133Y-78181533D01*
X105722228Y-78181533D01*
X105817466Y-78229152D01*
X105865085Y-78276771D01*
X105912704Y-78372009D01*
X105912704Y-78610104D01*
X105865085Y-78705342D01*
X105817466Y-78752961D01*
X105722228Y-78800580D01*
X105484133Y-78800580D01*
X105388895Y-78752961D01*
X105341276Y-78705342D01*
%TO.C,R27*%
X104084142Y-70367780D02*
X103750809Y-69891590D01*
X103512714Y-70367780D02*
X103512714Y-69367780D01*
X103893666Y-69367780D01*
X103988904Y-69415400D01*
X104036523Y-69463019D01*
X104084142Y-69558257D01*
X104084142Y-69701114D01*
X104036523Y-69796352D01*
X103988904Y-69843971D01*
X103893666Y-69891590D01*
X103512714Y-69891590D01*
X104465095Y-69463019D02*
X104512714Y-69415400D01*
X104607952Y-69367780D01*
X104846047Y-69367780D01*
X104941285Y-69415400D01*
X104988904Y-69463019D01*
X105036523Y-69558257D01*
X105036523Y-69653495D01*
X104988904Y-69796352D01*
X104417476Y-70367780D01*
X105036523Y-70367780D01*
X105369857Y-69367780D02*
X106036523Y-69367780D01*
X105607952Y-70367780D01*
%TO.C,R20*%
X81145142Y-67762380D02*
X80811809Y-67286190D01*
X80573714Y-67762380D02*
X80573714Y-66762380D01*
X80954666Y-66762380D01*
X81049904Y-66810000D01*
X81097523Y-66857619D01*
X81145142Y-66952857D01*
X81145142Y-67095714D01*
X81097523Y-67190952D01*
X81049904Y-67238571D01*
X80954666Y-67286190D01*
X80573714Y-67286190D01*
X81526095Y-66857619D02*
X81573714Y-66810000D01*
X81668952Y-66762380D01*
X81907047Y-66762380D01*
X82002285Y-66810000D01*
X82049904Y-66857619D01*
X82097523Y-66952857D01*
X82097523Y-67048095D01*
X82049904Y-67190952D01*
X81478476Y-67762380D01*
X82097523Y-67762380D01*
X82716571Y-66762380D02*
X82811809Y-66762380D01*
X82907047Y-66810000D01*
X82954666Y-66857619D01*
X83002285Y-66952857D01*
X83049904Y-67143333D01*
X83049904Y-67381428D01*
X83002285Y-67571904D01*
X82954666Y-67667142D01*
X82907047Y-67714761D01*
X82811809Y-67762380D01*
X82716571Y-67762380D01*
X82621333Y-67714761D01*
X82573714Y-67667142D01*
X82526095Y-67571904D01*
X82478476Y-67381428D01*
X82478476Y-67143333D01*
X82526095Y-66952857D01*
X82573714Y-66857619D01*
X82621333Y-66810000D01*
X82716571Y-66762380D01*
%TO.C,D2*%
X103121880Y-43644095D02*
X102121880Y-43644095D01*
X102121880Y-43406000D01*
X102169500Y-43263142D01*
X102264738Y-43167904D01*
X102359976Y-43120285D01*
X102550452Y-43072666D01*
X102693309Y-43072666D01*
X102883785Y-43120285D01*
X102979023Y-43167904D01*
X103074261Y-43263142D01*
X103121880Y-43406000D01*
X103121880Y-43644095D01*
X102217119Y-42691714D02*
X102169500Y-42644095D01*
X102121880Y-42548857D01*
X102121880Y-42310761D01*
X102169500Y-42215523D01*
X102217119Y-42167904D01*
X102312357Y-42120285D01*
X102407595Y-42120285D01*
X102550452Y-42167904D01*
X103121880Y-42739333D01*
X103121880Y-42120285D01*
%TO.C,P2*%
X79362380Y-48656190D02*
X78362380Y-48656190D01*
X79267142Y-47608571D02*
X79314761Y-47656190D01*
X79362380Y-47799047D01*
X79362380Y-47894285D01*
X79314761Y-48037142D01*
X79219523Y-48132380D01*
X79124285Y-48180000D01*
X78933809Y-48227619D01*
X78790952Y-48227619D01*
X78600476Y-48180000D01*
X78505238Y-48132380D01*
X78410000Y-48037142D01*
X78362380Y-47894285D01*
X78362380Y-47799047D01*
X78410000Y-47656190D01*
X78457619Y-47608571D01*
X79314761Y-47227619D02*
X79362380Y-47084761D01*
X79362380Y-46846666D01*
X79314761Y-46751428D01*
X79267142Y-46703809D01*
X79171904Y-46656190D01*
X79076666Y-46656190D01*
X78981428Y-46703809D01*
X78933809Y-46751428D01*
X78886190Y-46846666D01*
X78838571Y-47037142D01*
X78790952Y-47132380D01*
X78743333Y-47180000D01*
X78648095Y-47227619D01*
X78552857Y-47227619D01*
X78457619Y-47180000D01*
X78410000Y-47132380D01*
X78362380Y-47037142D01*
X78362380Y-46799047D01*
X78410000Y-46656190D01*
X79362380Y-46227619D02*
X78362380Y-46227619D01*
X78362380Y-45846666D01*
X78410000Y-45751428D01*
X78457619Y-45703809D01*
X78552857Y-45656190D01*
X78695714Y-45656190D01*
X78790952Y-45703809D01*
X78838571Y-45751428D01*
X78886190Y-45846666D01*
X78886190Y-46227619D01*
%TO.C,C12*%
X74980742Y-66352657D02*
X75028361Y-66400276D01*
X75075980Y-66543133D01*
X75075980Y-66638371D01*
X75028361Y-66781228D01*
X74933123Y-66876466D01*
X74837885Y-66924085D01*
X74647409Y-66971704D01*
X74504552Y-66971704D01*
X74314076Y-66924085D01*
X74218838Y-66876466D01*
X74123600Y-66781228D01*
X74075980Y-66638371D01*
X74075980Y-66543133D01*
X74123600Y-66400276D01*
X74171219Y-66352657D01*
X75075980Y-65400276D02*
X75075980Y-65971704D01*
X75075980Y-65685990D02*
X74075980Y-65685990D01*
X74218838Y-65781228D01*
X74314076Y-65876466D01*
X74361695Y-65971704D01*
X74171219Y-65019323D02*
X74123600Y-64971704D01*
X74075980Y-64876466D01*
X74075980Y-64638371D01*
X74123600Y-64543133D01*
X74171219Y-64495514D01*
X74266457Y-64447895D01*
X74361695Y-64447895D01*
X74504552Y-64495514D01*
X75075980Y-65066942D01*
X75075980Y-64447895D01*
%TO.C,R19*%
X81478380Y-48140857D02*
X81002190Y-48474190D01*
X81478380Y-48712285D02*
X80478380Y-48712285D01*
X80478380Y-48331333D01*
X80526000Y-48236095D01*
X80573619Y-48188476D01*
X80668857Y-48140857D01*
X80811714Y-48140857D01*
X80906952Y-48188476D01*
X80954571Y-48236095D01*
X81002190Y-48331333D01*
X81002190Y-48712285D01*
X81478380Y-47188476D02*
X81478380Y-47759904D01*
X81478380Y-47474190D02*
X80478380Y-47474190D01*
X80621238Y-47569428D01*
X80716476Y-47664666D01*
X80764095Y-47759904D01*
X81478380Y-46712285D02*
X81478380Y-46521809D01*
X81430761Y-46426571D01*
X81383142Y-46378952D01*
X81240285Y-46283714D01*
X81049809Y-46236095D01*
X80668857Y-46236095D01*
X80573619Y-46283714D01*
X80526000Y-46331333D01*
X80478380Y-46426571D01*
X80478380Y-46617047D01*
X80526000Y-46712285D01*
X80573619Y-46759904D01*
X80668857Y-46807523D01*
X80906952Y-46807523D01*
X81002190Y-46759904D01*
X81049809Y-46712285D01*
X81097428Y-46617047D01*
X81097428Y-46426571D01*
X81049809Y-46331333D01*
X81002190Y-46283714D01*
X80906952Y-46236095D01*
%TO.C,C25*%
X65016652Y-43521867D02*
X65064271Y-43569486D01*
X65111890Y-43712343D01*
X65111890Y-43807581D01*
X65064271Y-43950438D01*
X64969033Y-44045676D01*
X64873795Y-44093295D01*
X64683319Y-44140914D01*
X64540462Y-44140914D01*
X64349986Y-44093295D01*
X64254748Y-44045676D01*
X64159510Y-43950438D01*
X64111890Y-43807581D01*
X64111890Y-43712343D01*
X64159510Y-43569486D01*
X64207129Y-43521867D01*
X64207129Y-43140914D02*
X64159510Y-43093295D01*
X64111890Y-42998057D01*
X64111890Y-42759962D01*
X64159510Y-42664724D01*
X64207129Y-42617105D01*
X64302367Y-42569486D01*
X64397605Y-42569486D01*
X64540462Y-42617105D01*
X65111890Y-43188533D01*
X65111890Y-42569486D01*
X64111890Y-41664724D02*
X64111890Y-42140914D01*
X64588081Y-42188533D01*
X64540462Y-42140914D01*
X64492843Y-42045676D01*
X64492843Y-41807581D01*
X64540462Y-41712343D01*
X64588081Y-41664724D01*
X64683319Y-41617105D01*
X64921414Y-41617105D01*
X65016652Y-41664724D01*
X65064271Y-41712343D01*
X65111890Y-41807581D01*
X65111890Y-42045676D01*
X65064271Y-42140914D01*
X65016652Y-42188533D01*
%TO.C,P4*%
X100077304Y-72704580D02*
X100077304Y-71704580D01*
X100458257Y-71704580D01*
X100553495Y-71752200D01*
X100601114Y-71799819D01*
X100648733Y-71895057D01*
X100648733Y-72037914D01*
X100601114Y-72133152D01*
X100553495Y-72180771D01*
X100458257Y-72228390D01*
X100077304Y-72228390D01*
X101505876Y-72037914D02*
X101505876Y-72704580D01*
X101267780Y-71656961D02*
X101029685Y-72371247D01*
X101648733Y-72371247D01*
%TO.C,JP1*%
X75901666Y-49822380D02*
X75901666Y-50536666D01*
X75854047Y-50679523D01*
X75758809Y-50774761D01*
X75615952Y-50822380D01*
X75520714Y-50822380D01*
X76377857Y-50822380D02*
X76377857Y-49822380D01*
X76758809Y-49822380D01*
X76854047Y-49870000D01*
X76901666Y-49917619D01*
X76949285Y-50012857D01*
X76949285Y-50155714D01*
X76901666Y-50250952D01*
X76854047Y-50298571D01*
X76758809Y-50346190D01*
X76377857Y-50346190D01*
X77901666Y-50822380D02*
X77330238Y-50822380D01*
X77615952Y-50822380D02*
X77615952Y-49822380D01*
X77520714Y-49965238D01*
X77425476Y-50060476D01*
X77330238Y-50108095D01*
%TO.C,JP3*%
X56824666Y-43394380D02*
X56824666Y-44108666D01*
X56777047Y-44251523D01*
X56681809Y-44346761D01*
X56538952Y-44394380D01*
X56443714Y-44394380D01*
X57300857Y-44394380D02*
X57300857Y-43394380D01*
X57681809Y-43394380D01*
X57777047Y-43442000D01*
X57824666Y-43489619D01*
X57872285Y-43584857D01*
X57872285Y-43727714D01*
X57824666Y-43822952D01*
X57777047Y-43870571D01*
X57681809Y-43918190D01*
X57300857Y-43918190D01*
X58205619Y-43394380D02*
X58824666Y-43394380D01*
X58491333Y-43775333D01*
X58634190Y-43775333D01*
X58729428Y-43822952D01*
X58777047Y-43870571D01*
X58824666Y-43965809D01*
X58824666Y-44203904D01*
X58777047Y-44299142D01*
X58729428Y-44346761D01*
X58634190Y-44394380D01*
X58348476Y-44394380D01*
X58253238Y-44346761D01*
X58205619Y-44299142D01*
%TO.C,R28*%
X78351142Y-39568380D02*
X78017809Y-39092190D01*
X77779714Y-39568380D02*
X77779714Y-38568380D01*
X78160666Y-38568380D01*
X78255904Y-38616000D01*
X78303523Y-38663619D01*
X78351142Y-38758857D01*
X78351142Y-38901714D01*
X78303523Y-38996952D01*
X78255904Y-39044571D01*
X78160666Y-39092190D01*
X77779714Y-39092190D01*
X78732095Y-38663619D02*
X78779714Y-38616000D01*
X78874952Y-38568380D01*
X79113047Y-38568380D01*
X79208285Y-38616000D01*
X79255904Y-38663619D01*
X79303523Y-38758857D01*
X79303523Y-38854095D01*
X79255904Y-38996952D01*
X78684476Y-39568380D01*
X79303523Y-39568380D01*
X79874952Y-38996952D02*
X79779714Y-38949333D01*
X79732095Y-38901714D01*
X79684476Y-38806476D01*
X79684476Y-38758857D01*
X79732095Y-38663619D01*
X79779714Y-38616000D01*
X79874952Y-38568380D01*
X80065428Y-38568380D01*
X80160666Y-38616000D01*
X80208285Y-38663619D01*
X80255904Y-38758857D01*
X80255904Y-38806476D01*
X80208285Y-38901714D01*
X80160666Y-38949333D01*
X80065428Y-38996952D01*
X79874952Y-38996952D01*
X79779714Y-39044571D01*
X79732095Y-39092190D01*
X79684476Y-39187428D01*
X79684476Y-39377904D01*
X79732095Y-39473142D01*
X79779714Y-39520761D01*
X79874952Y-39568380D01*
X80065428Y-39568380D01*
X80160666Y-39520761D01*
X80208285Y-39473142D01*
X80255904Y-39377904D01*
X80255904Y-39187428D01*
X80208285Y-39092190D01*
X80160666Y-39044571D01*
X80065428Y-38996952D01*
%TO.C,C2*%
X90587851Y-56276244D02*
X90540232Y-56323863D01*
X90397375Y-56371482D01*
X90302137Y-56371482D01*
X90159279Y-56323863D01*
X90064041Y-56228625D01*
X90016422Y-56133387D01*
X89968803Y-55942911D01*
X89968803Y-55800054D01*
X90016422Y-55609578D01*
X90064041Y-55514340D01*
X90159279Y-55419102D01*
X90302137Y-55371482D01*
X90397375Y-55371482D01*
X90540232Y-55419102D01*
X90587851Y-55466721D01*
X90968803Y-55466721D02*
X91016422Y-55419102D01*
X91111660Y-55371482D01*
X91349756Y-55371482D01*
X91444994Y-55419102D01*
X91492613Y-55466721D01*
X91540232Y-55561959D01*
X91540232Y-55657197D01*
X91492613Y-55800054D01*
X90921184Y-56371482D01*
X91540232Y-56371482D01*
%TO.C,J4*%
X108372380Y-41063333D02*
X109086666Y-41063333D01*
X109229523Y-41110952D01*
X109324761Y-41206190D01*
X109372380Y-41349047D01*
X109372380Y-41444285D01*
X108705714Y-40158571D02*
X109372380Y-40158571D01*
X108324761Y-40396666D02*
X109039047Y-40634761D01*
X109039047Y-40015714D01*
%TO.C,C38*%
X80383142Y-59285142D02*
X80335523Y-59332761D01*
X80192666Y-59380380D01*
X80097428Y-59380380D01*
X79954571Y-59332761D01*
X79859333Y-59237523D01*
X79811714Y-59142285D01*
X79764095Y-58951809D01*
X79764095Y-58808952D01*
X79811714Y-58618476D01*
X79859333Y-58523238D01*
X79954571Y-58428000D01*
X80097428Y-58380380D01*
X80192666Y-58380380D01*
X80335523Y-58428000D01*
X80383142Y-58475619D01*
X80716476Y-58380380D02*
X81335523Y-58380380D01*
X81002190Y-58761333D01*
X81145047Y-58761333D01*
X81240285Y-58808952D01*
X81287904Y-58856571D01*
X81335523Y-58951809D01*
X81335523Y-59189904D01*
X81287904Y-59285142D01*
X81240285Y-59332761D01*
X81145047Y-59380380D01*
X80859333Y-59380380D01*
X80764095Y-59332761D01*
X80716476Y-59285142D01*
X81906952Y-58808952D02*
X81811714Y-58761333D01*
X81764095Y-58713714D01*
X81716476Y-58618476D01*
X81716476Y-58570857D01*
X81764095Y-58475619D01*
X81811714Y-58428000D01*
X81906952Y-58380380D01*
X82097428Y-58380380D01*
X82192666Y-58428000D01*
X82240285Y-58475619D01*
X82287904Y-58570857D01*
X82287904Y-58618476D01*
X82240285Y-58713714D01*
X82192666Y-58761333D01*
X82097428Y-58808952D01*
X81906952Y-58808952D01*
X81811714Y-58856571D01*
X81764095Y-58904190D01*
X81716476Y-58999428D01*
X81716476Y-59189904D01*
X81764095Y-59285142D01*
X81811714Y-59332761D01*
X81906952Y-59380380D01*
X82097428Y-59380380D01*
X82192666Y-59332761D01*
X82240285Y-59285142D01*
X82287904Y-59189904D01*
X82287904Y-58999428D01*
X82240285Y-58904190D01*
X82192666Y-58856571D01*
X82097428Y-58808952D01*
%TO.C,U5*%
X104045871Y-55700952D02*
X104045871Y-56034285D01*
X104569680Y-56034285D02*
X103569680Y-56034285D01*
X103569680Y-55558095D01*
X104188728Y-55177142D02*
X104188728Y-54415238D01*
X103569680Y-53510476D02*
X103569680Y-53700952D01*
X103617300Y-53796190D01*
X103664919Y-53843809D01*
X103807776Y-53939047D01*
X103998252Y-53986666D01*
X104379204Y-53986666D01*
X104474442Y-53939047D01*
X104522061Y-53891428D01*
X104569680Y-53796190D01*
X104569680Y-53605714D01*
X104522061Y-53510476D01*
X104474442Y-53462857D01*
X104379204Y-53415238D01*
X104141109Y-53415238D01*
X104045871Y-53462857D01*
X103998252Y-53510476D01*
X103950633Y-53605714D01*
X103950633Y-53796190D01*
X103998252Y-53891428D01*
X104045871Y-53939047D01*
X104141109Y-53986666D01*
X104569680Y-52939047D02*
X104569680Y-52748571D01*
X104522061Y-52653333D01*
X104474442Y-52605714D01*
X104331585Y-52510476D01*
X104141109Y-52462857D01*
X103760157Y-52462857D01*
X103664919Y-52510476D01*
X103617300Y-52558095D01*
X103569680Y-52653333D01*
X103569680Y-52843809D01*
X103617300Y-52939047D01*
X103664919Y-52986666D01*
X103760157Y-53034285D01*
X103998252Y-53034285D01*
X104093490Y-52986666D01*
X104141109Y-52939047D01*
X104188728Y-52843809D01*
X104188728Y-52653333D01*
X104141109Y-52558095D01*
X104093490Y-52510476D01*
X103998252Y-52462857D01*
X103998252Y-51891428D02*
X103950633Y-51986666D01*
X103903014Y-52034285D01*
X103807776Y-52081904D01*
X103760157Y-52081904D01*
X103664919Y-52034285D01*
X103617300Y-51986666D01*
X103569680Y-51891428D01*
X103569680Y-51700952D01*
X103617300Y-51605714D01*
X103664919Y-51558095D01*
X103760157Y-51510476D01*
X103807776Y-51510476D01*
X103903014Y-51558095D01*
X103950633Y-51605714D01*
X103998252Y-51700952D01*
X103998252Y-51891428D01*
X104045871Y-51986666D01*
X104093490Y-52034285D01*
X104188728Y-52081904D01*
X104379204Y-52081904D01*
X104474442Y-52034285D01*
X104522061Y-51986666D01*
X104569680Y-51891428D01*
X104569680Y-51700952D01*
X104522061Y-51605714D01*
X104474442Y-51558095D01*
X104379204Y-51510476D01*
X104188728Y-51510476D01*
X104093490Y-51558095D01*
X104045871Y-51605714D01*
X103998252Y-51700952D01*
X103998252Y-50939047D02*
X103950633Y-51034285D01*
X103903014Y-51081904D01*
X103807776Y-51129523D01*
X103760157Y-51129523D01*
X103664919Y-51081904D01*
X103617300Y-51034285D01*
X103569680Y-50939047D01*
X103569680Y-50748571D01*
X103617300Y-50653333D01*
X103664919Y-50605714D01*
X103760157Y-50558095D01*
X103807776Y-50558095D01*
X103903014Y-50605714D01*
X103950633Y-50653333D01*
X103998252Y-50748571D01*
X103998252Y-50939047D01*
X104045871Y-51034285D01*
X104093490Y-51081904D01*
X104188728Y-51129523D01*
X104379204Y-51129523D01*
X104474442Y-51081904D01*
X104522061Y-51034285D01*
X104569680Y-50939047D01*
X104569680Y-50748571D01*
X104522061Y-50653333D01*
X104474442Y-50605714D01*
X104379204Y-50558095D01*
X104188728Y-50558095D01*
X104093490Y-50605714D01*
X104045871Y-50653333D01*
X103998252Y-50748571D01*
X102334528Y-51088266D02*
X102286909Y-51231123D01*
X102239290Y-51278742D01*
X102144052Y-51326361D01*
X102001195Y-51326361D01*
X101905957Y-51278742D01*
X101858338Y-51231123D01*
X101810719Y-51135885D01*
X101810719Y-50754933D01*
X102810719Y-50754933D01*
X102810719Y-51088266D01*
X102763100Y-51183504D01*
X102715480Y-51231123D01*
X102620242Y-51278742D01*
X102525004Y-51278742D01*
X102429766Y-51231123D01*
X102382147Y-51183504D01*
X102334528Y-51088266D01*
X102334528Y-50754933D01*
X101810719Y-51754933D02*
X102810719Y-51754933D01*
X101810719Y-52326361D02*
X102382147Y-51897790D01*
X102810719Y-52326361D02*
X102239290Y-51754933D01*
X102810719Y-52659695D02*
X102810719Y-53278742D01*
X102429766Y-52945409D01*
X102429766Y-53088266D01*
X102382147Y-53183504D01*
X102334528Y-53231123D01*
X102239290Y-53278742D01*
X102001195Y-53278742D01*
X101905957Y-53231123D01*
X101858338Y-53183504D01*
X101810719Y-53088266D01*
X101810719Y-52802552D01*
X101858338Y-52707314D01*
X101905957Y-52659695D01*
X102715480Y-53659695D02*
X102763100Y-53707314D01*
X102810719Y-53802552D01*
X102810719Y-54040647D01*
X102763100Y-54135885D01*
X102715480Y-54183504D01*
X102620242Y-54231123D01*
X102525004Y-54231123D01*
X102382147Y-54183504D01*
X101810719Y-53612076D01*
X101810719Y-54231123D01*
X102810719Y-55088266D02*
X102810719Y-54897790D01*
X102763100Y-54802552D01*
X102715480Y-54754933D01*
X102572623Y-54659695D01*
X102382147Y-54612076D01*
X102001195Y-54612076D01*
X101905957Y-54659695D01*
X101858338Y-54707314D01*
X101810719Y-54802552D01*
X101810719Y-54993028D01*
X101858338Y-55088266D01*
X101905957Y-55135885D01*
X102001195Y-55183504D01*
X102239290Y-55183504D01*
X102334528Y-55135885D01*
X102382147Y-55088266D01*
X102429766Y-54993028D01*
X102429766Y-54802552D01*
X102382147Y-54707314D01*
X102334528Y-54659695D01*
X102239290Y-54612076D01*
X102810719Y-56040647D02*
X102810719Y-55850171D01*
X102763100Y-55754933D01*
X102715480Y-55707314D01*
X102572623Y-55612076D01*
X102382147Y-55564457D01*
X102001195Y-55564457D01*
X101905957Y-55612076D01*
X101858338Y-55659695D01*
X101810719Y-55754933D01*
X101810719Y-55945409D01*
X101858338Y-56040647D01*
X101905957Y-56088266D01*
X102001195Y-56135885D01*
X102239290Y-56135885D01*
X102334528Y-56088266D01*
X102382147Y-56040647D01*
X102429766Y-55945409D01*
X102429766Y-55754933D01*
X102382147Y-55659695D01*
X102334528Y-55612076D01*
X102239290Y-55564457D01*
%TO.C,J6*%
X62796666Y-74482380D02*
X62796666Y-75196666D01*
X62749047Y-75339523D01*
X62653809Y-75434761D01*
X62510952Y-75482380D01*
X62415714Y-75482380D01*
X63701428Y-74482380D02*
X63510952Y-74482380D01*
X63415714Y-74530000D01*
X63368095Y-74577619D01*
X63272857Y-74720476D01*
X63225238Y-74910952D01*
X63225238Y-75291904D01*
X63272857Y-75387142D01*
X63320476Y-75434761D01*
X63415714Y-75482380D01*
X63606190Y-75482380D01*
X63701428Y-75434761D01*
X63749047Y-75387142D01*
X63796666Y-75291904D01*
X63796666Y-75053809D01*
X63749047Y-74958571D01*
X63701428Y-74910952D01*
X63606190Y-74863333D01*
X63415714Y-74863333D01*
X63320476Y-74910952D01*
X63272857Y-74958571D01*
X63225238Y-75053809D01*
%TO.C,J1*%
X112918980Y-40936333D02*
X113633266Y-40936333D01*
X113776123Y-40983952D01*
X113871361Y-41079190D01*
X113918980Y-41222047D01*
X113918980Y-41317285D01*
X113918980Y-39936333D02*
X113918980Y-40507761D01*
X113918980Y-40222047D02*
X112918980Y-40222047D01*
X113061838Y-40317285D01*
X113157076Y-40412523D01*
X113204695Y-40507761D01*
D13*
%TO.C,J7*%
X121193620Y-77602926D02*
X121478463Y-77602926D01*
X121535431Y-77621916D01*
X121573410Y-77659895D01*
X121592400Y-77716863D01*
X121592400Y-77754842D01*
X121193620Y-77451010D02*
X121193620Y-77185157D01*
X121592400Y-77356062D01*
D12*
%TO.C,JP5*%
X56824666Y-40600380D02*
X56824666Y-41314666D01*
X56777047Y-41457523D01*
X56681809Y-41552761D01*
X56538952Y-41600380D01*
X56443714Y-41600380D01*
X57300857Y-41600380D02*
X57300857Y-40600380D01*
X57681809Y-40600380D01*
X57777047Y-40648000D01*
X57824666Y-40695619D01*
X57872285Y-40790857D01*
X57872285Y-40933714D01*
X57824666Y-41028952D01*
X57777047Y-41076571D01*
X57681809Y-41124190D01*
X57300857Y-41124190D01*
X58777047Y-40600380D02*
X58300857Y-40600380D01*
X58253238Y-41076571D01*
X58300857Y-41028952D01*
X58396095Y-40981333D01*
X58634190Y-40981333D01*
X58729428Y-41028952D01*
X58777047Y-41076571D01*
X58824666Y-41171809D01*
X58824666Y-41409904D01*
X58777047Y-41505142D01*
X58729428Y-41552761D01*
X58634190Y-41600380D01*
X58396095Y-41600380D01*
X58300857Y-41552761D01*
X58253238Y-41505142D01*
%TO.C,J5*%
X106848380Y-41114133D02*
X107562666Y-41114133D01*
X107705523Y-41161752D01*
X107800761Y-41256990D01*
X107848380Y-41399847D01*
X107848380Y-41495085D01*
X106848380Y-40161752D02*
X106848380Y-40637942D01*
X107324571Y-40685561D01*
X107276952Y-40637942D01*
X107229333Y-40542704D01*
X107229333Y-40304609D01*
X107276952Y-40209371D01*
X107324571Y-40161752D01*
X107419809Y-40114133D01*
X107657904Y-40114133D01*
X107753142Y-40161752D01*
X107800761Y-40209371D01*
X107848380Y-40304609D01*
X107848380Y-40542704D01*
X107800761Y-40637942D01*
X107753142Y-40685561D01*
%TO.C,J8*%
X62876666Y-44702380D02*
X62876666Y-45416666D01*
X62829047Y-45559523D01*
X62733809Y-45654761D01*
X62590952Y-45702380D01*
X62495714Y-45702380D01*
X63495714Y-45130952D02*
X63400476Y-45083333D01*
X63352857Y-45035714D01*
X63305238Y-44940476D01*
X63305238Y-44892857D01*
X63352857Y-44797619D01*
X63400476Y-44750000D01*
X63495714Y-44702380D01*
X63686190Y-44702380D01*
X63781428Y-44750000D01*
X63829047Y-44797619D01*
X63876666Y-44892857D01*
X63876666Y-44940476D01*
X63829047Y-45035714D01*
X63781428Y-45083333D01*
X63686190Y-45130952D01*
X63495714Y-45130952D01*
X63400476Y-45178571D01*
X63352857Y-45226190D01*
X63305238Y-45321428D01*
X63305238Y-45511904D01*
X63352857Y-45607142D01*
X63400476Y-45654761D01*
X63495714Y-45702380D01*
X63686190Y-45702380D01*
X63781428Y-45654761D01*
X63829047Y-45607142D01*
X63876666Y-45511904D01*
X63876666Y-45321428D01*
X63829047Y-45226190D01*
X63781428Y-45178571D01*
X63686190Y-45130952D01*
%TO.C,C21*%
X84447142Y-70969142D02*
X84399523Y-71016761D01*
X84256666Y-71064380D01*
X84161428Y-71064380D01*
X84018571Y-71016761D01*
X83923333Y-70921523D01*
X83875714Y-70826285D01*
X83828095Y-70635809D01*
X83828095Y-70492952D01*
X83875714Y-70302476D01*
X83923333Y-70207238D01*
X84018571Y-70112000D01*
X84161428Y-70064380D01*
X84256666Y-70064380D01*
X84399523Y-70112000D01*
X84447142Y-70159619D01*
X84828095Y-70159619D02*
X84875714Y-70112000D01*
X84970952Y-70064380D01*
X85209047Y-70064380D01*
X85304285Y-70112000D01*
X85351904Y-70159619D01*
X85399523Y-70254857D01*
X85399523Y-70350095D01*
X85351904Y-70492952D01*
X84780476Y-71064380D01*
X85399523Y-71064380D01*
X86351904Y-71064380D02*
X85780476Y-71064380D01*
X86066190Y-71064380D02*
X86066190Y-70064380D01*
X85970952Y-70207238D01*
X85875714Y-70302476D01*
X85780476Y-70350095D01*
D14*
%TO.C,U4*%
X67520723Y-35834895D02*
X67520723Y-36492876D01*
X67559428Y-36570285D01*
X67598133Y-36608990D01*
X67675542Y-36647695D01*
X67830361Y-36647695D01*
X67907771Y-36608990D01*
X67946476Y-36570285D01*
X67985180Y-36492876D01*
X67985180Y-35834895D01*
X68720571Y-36105828D02*
X68720571Y-36647695D01*
X68527047Y-35796190D02*
X68333523Y-36376761D01*
X68836685Y-36376761D01*
X67108795Y-41261876D02*
X67495843Y-41261876D01*
X67031386Y-41494105D02*
X67302319Y-40681305D01*
X67573252Y-41494105D01*
X67844186Y-41494105D02*
X67844186Y-40681305D01*
X68153824Y-40681305D01*
X68231233Y-40720010D01*
X68269938Y-40758714D01*
X68308643Y-40836124D01*
X68308643Y-40952238D01*
X68269938Y-41029648D01*
X68231233Y-41068352D01*
X68153824Y-41107057D01*
X67844186Y-41107057D01*
X69082738Y-41494105D02*
X68618281Y-41494105D01*
X68850510Y-41494105D02*
X68850510Y-40681305D01*
X68773100Y-40797419D01*
X68695690Y-40874829D01*
X68618281Y-40913533D01*
X69856833Y-41494105D02*
X69392376Y-41494105D01*
X69624605Y-41494105D02*
X69624605Y-40681305D01*
X69547195Y-40797419D01*
X69469786Y-40874829D01*
X69392376Y-40913533D01*
X70630929Y-41494105D02*
X70166471Y-41494105D01*
X70398700Y-41494105D02*
X70398700Y-40681305D01*
X70321290Y-40797419D01*
X70243881Y-40874829D01*
X70166471Y-40913533D01*
X70901862Y-40681305D02*
X71443729Y-40681305D01*
X71095386Y-41494105D01*
D12*
%TO.C,C36*%
X117177142Y-67657142D02*
X117129523Y-67704761D01*
X116986666Y-67752380D01*
X116891428Y-67752380D01*
X116748571Y-67704761D01*
X116653333Y-67609523D01*
X116605714Y-67514285D01*
X116558095Y-67323809D01*
X116558095Y-67180952D01*
X116605714Y-66990476D01*
X116653333Y-66895238D01*
X116748571Y-66800000D01*
X116891428Y-66752380D01*
X116986666Y-66752380D01*
X117129523Y-66800000D01*
X117177142Y-66847619D01*
X117510476Y-66752380D02*
X118129523Y-66752380D01*
X117796190Y-67133333D01*
X117939047Y-67133333D01*
X118034285Y-67180952D01*
X118081904Y-67228571D01*
X118129523Y-67323809D01*
X118129523Y-67561904D01*
X118081904Y-67657142D01*
X118034285Y-67704761D01*
X117939047Y-67752380D01*
X117653333Y-67752380D01*
X117558095Y-67704761D01*
X117510476Y-67657142D01*
X118986666Y-66752380D02*
X118796190Y-66752380D01*
X118700952Y-66800000D01*
X118653333Y-66847619D01*
X118558095Y-66990476D01*
X118510476Y-67180952D01*
X118510476Y-67561904D01*
X118558095Y-67657142D01*
X118605714Y-67704761D01*
X118700952Y-67752380D01*
X118891428Y-67752380D01*
X118986666Y-67704761D01*
X119034285Y-67657142D01*
X119081904Y-67561904D01*
X119081904Y-67323809D01*
X119034285Y-67228571D01*
X118986666Y-67180952D01*
X118891428Y-67133333D01*
X118700952Y-67133333D01*
X118605714Y-67180952D01*
X118558095Y-67228571D01*
X118510476Y-67323809D01*
D14*
%TO.C,U1*%
X91095041Y-48184197D02*
X91095041Y-48842178D01*
X91133746Y-48919587D01*
X91172451Y-48958292D01*
X91249860Y-48996997D01*
X91404679Y-48996997D01*
X91482089Y-48958292D01*
X91520794Y-48919587D01*
X91559498Y-48842178D01*
X91559498Y-48184197D01*
X92372298Y-48996997D02*
X91907841Y-48996997D01*
X92140070Y-48996997D02*
X92140070Y-48184197D01*
X92062660Y-48300311D01*
X91985251Y-48377721D01*
X91907841Y-48416425D01*
X89182784Y-54696273D02*
X89182784Y-54309225D01*
X89415013Y-54773682D02*
X88602213Y-54502749D01*
X89415013Y-54231816D01*
X89415013Y-53960882D02*
X88602213Y-53960882D01*
X88602213Y-53651244D01*
X88640918Y-53573835D01*
X88679622Y-53535130D01*
X88757032Y-53496425D01*
X88873146Y-53496425D01*
X88950556Y-53535130D01*
X88989260Y-53573835D01*
X89027965Y-53651244D01*
X89027965Y-53960882D01*
X89415013Y-52722330D02*
X89415013Y-53186787D01*
X89415013Y-52954559D02*
X88602213Y-52954559D01*
X88718327Y-53031968D01*
X88795737Y-53109378D01*
X88834441Y-53186787D01*
X89415013Y-51948235D02*
X89415013Y-52412692D01*
X89415013Y-52180463D02*
X88602213Y-52180463D01*
X88718327Y-52257873D01*
X88795737Y-52335282D01*
X88834441Y-52412692D01*
X89415013Y-51174140D02*
X89415013Y-51638597D01*
X89415013Y-51406368D02*
X88602213Y-51406368D01*
X88718327Y-51483778D01*
X88795737Y-51561187D01*
X88834441Y-51638597D01*
X88602213Y-50903206D02*
X88602213Y-50361340D01*
X89415013Y-50709682D01*
X89105375Y-50051702D02*
X89105375Y-49432425D01*
X88602213Y-49122787D02*
X88602213Y-48619625D01*
X88911851Y-48890559D01*
X88911851Y-48774444D01*
X88950556Y-48697035D01*
X88989260Y-48658330D01*
X89066670Y-48619625D01*
X89260194Y-48619625D01*
X89337603Y-48658330D01*
X89376308Y-48697035D01*
X89415013Y-48774444D01*
X89415013Y-49006673D01*
X89376308Y-49084082D01*
X89337603Y-49122787D01*
X88602213Y-48348692D02*
X88602213Y-47845530D01*
X88911851Y-48116463D01*
X88911851Y-48000349D01*
X88950556Y-47922940D01*
X88989260Y-47884235D01*
X89066670Y-47845530D01*
X89260194Y-47845530D01*
X89337603Y-47884235D01*
X89376308Y-47922940D01*
X89415013Y-48000349D01*
X89415013Y-48232578D01*
X89376308Y-48309987D01*
X89337603Y-48348692D01*
D12*
%TO.C,D1*%
X90622380Y-37314095D02*
X89622380Y-37314095D01*
X89622380Y-37076000D01*
X89670000Y-36933142D01*
X89765238Y-36837904D01*
X89860476Y-36790285D01*
X90050952Y-36742666D01*
X90193809Y-36742666D01*
X90384285Y-36790285D01*
X90479523Y-36837904D01*
X90574761Y-36933142D01*
X90622380Y-37076000D01*
X90622380Y-37314095D01*
X90622380Y-35790285D02*
X90622380Y-36361714D01*
X90622380Y-36076000D02*
X89622380Y-36076000D01*
X89765238Y-36171238D01*
X89860476Y-36266476D01*
X89908095Y-36361714D01*
X90293776Y-38833505D02*
X90293776Y-38357314D01*
X90579490Y-38928743D02*
X89579490Y-38595410D01*
X90579490Y-38262076D01*
X90579490Y-42457314D02*
X89579490Y-42457314D01*
X90579490Y-41885886D02*
X90008062Y-42314457D01*
X89579490Y-41885886D02*
X90150919Y-42457314D01*
%TO.C,D4*%
X94178380Y-37314095D02*
X93178380Y-37314095D01*
X93178380Y-37076000D01*
X93226000Y-36933142D01*
X93321238Y-36837904D01*
X93416476Y-36790285D01*
X93606952Y-36742666D01*
X93749809Y-36742666D01*
X93940285Y-36790285D01*
X94035523Y-36837904D01*
X94130761Y-36933142D01*
X94178380Y-37076000D01*
X94178380Y-37314095D01*
X93511714Y-35885523D02*
X94178380Y-35885523D01*
X93130761Y-36123619D02*
X93845047Y-36361714D01*
X93845047Y-35742666D01*
X94211690Y-42566534D02*
X93211690Y-42566534D01*
X94211690Y-41995106D02*
X93640262Y-42423677D01*
X93211690Y-41995106D02*
X93783119Y-42566534D01*
X93925976Y-38942725D02*
X93925976Y-38466534D01*
X94211690Y-39037963D02*
X93211690Y-38704630D01*
X94211690Y-38371296D01*
%TO.C,R13*%
X90182460Y-47125882D02*
X89849127Y-46649692D01*
X89611032Y-47125882D02*
X89611032Y-46125882D01*
X89991984Y-46125882D01*
X90087222Y-46173502D01*
X90134841Y-46221121D01*
X90182460Y-46316359D01*
X90182460Y-46459216D01*
X90134841Y-46554454D01*
X90087222Y-46602073D01*
X89991984Y-46649692D01*
X89611032Y-46649692D01*
X91134841Y-47125882D02*
X90563413Y-47125882D01*
X90849127Y-47125882D02*
X90849127Y-46125882D01*
X90753889Y-46268740D01*
X90658651Y-46363978D01*
X90563413Y-46411597D01*
X91468175Y-46125882D02*
X92087222Y-46125882D01*
X91753889Y-46506835D01*
X91896746Y-46506835D01*
X91991984Y-46554454D01*
X92039603Y-46602073D01*
X92087222Y-46697311D01*
X92087222Y-46935406D01*
X92039603Y-47030644D01*
X91991984Y-47078263D01*
X91896746Y-47125882D01*
X91611032Y-47125882D01*
X91515794Y-47078263D01*
X91468175Y-47030644D01*
%TO.C,JP2*%
X79462380Y-45537333D02*
X80176666Y-45537333D01*
X80319523Y-45584952D01*
X80414761Y-45680190D01*
X80462380Y-45823047D01*
X80462380Y-45918285D01*
X80462380Y-45061142D02*
X79462380Y-45061142D01*
X79462380Y-44680190D01*
X79510000Y-44584952D01*
X79557619Y-44537333D01*
X79652857Y-44489714D01*
X79795714Y-44489714D01*
X79890952Y-44537333D01*
X79938571Y-44584952D01*
X79986190Y-44680190D01*
X79986190Y-45061142D01*
X79557619Y-44108761D02*
X79510000Y-44061142D01*
X79462380Y-43965904D01*
X79462380Y-43727809D01*
X79510000Y-43632571D01*
X79557619Y-43584952D01*
X79652857Y-43537333D01*
X79748095Y-43537333D01*
X79890952Y-43584952D01*
X80462380Y-44156380D01*
X80462380Y-43537333D01*
%TO.C,P1*%
X73791904Y-35642380D02*
X73791904Y-34642380D01*
X74172857Y-34642380D01*
X74268095Y-34690000D01*
X74315714Y-34737619D01*
X74363333Y-34832857D01*
X74363333Y-34975714D01*
X74315714Y-35070952D01*
X74268095Y-35118571D01*
X74172857Y-35166190D01*
X73791904Y-35166190D01*
X75315714Y-35642380D02*
X74744285Y-35642380D01*
X75030000Y-35642380D02*
X75030000Y-34642380D01*
X74934761Y-34785238D01*
X74839523Y-34880476D01*
X74744285Y-34928095D01*
%TO.C,J3*%
X109845580Y-40961733D02*
X110559866Y-40961733D01*
X110702723Y-41009352D01*
X110797961Y-41104590D01*
X110845580Y-41247447D01*
X110845580Y-41342685D01*
X109845580Y-40580780D02*
X109845580Y-39961733D01*
X110226533Y-40295066D01*
X110226533Y-40152209D01*
X110274152Y-40056971D01*
X110321771Y-40009352D01*
X110417009Y-39961733D01*
X110655104Y-39961733D01*
X110750342Y-40009352D01*
X110797961Y-40056971D01*
X110845580Y-40152209D01*
X110845580Y-40437923D01*
X110797961Y-40533161D01*
X110750342Y-40580780D01*
%TO.C,C35*%
X82653142Y-42298857D02*
X82700761Y-42346476D01*
X82748380Y-42489333D01*
X82748380Y-42584571D01*
X82700761Y-42727428D01*
X82605523Y-42822666D01*
X82510285Y-42870285D01*
X82319809Y-42917904D01*
X82176952Y-42917904D01*
X81986476Y-42870285D01*
X81891238Y-42822666D01*
X81796000Y-42727428D01*
X81748380Y-42584571D01*
X81748380Y-42489333D01*
X81796000Y-42346476D01*
X81843619Y-42298857D01*
X81748380Y-41965523D02*
X81748380Y-41346476D01*
X82129333Y-41679809D01*
X82129333Y-41536952D01*
X82176952Y-41441714D01*
X82224571Y-41394095D01*
X82319809Y-41346476D01*
X82557904Y-41346476D01*
X82653142Y-41394095D01*
X82700761Y-41441714D01*
X82748380Y-41536952D01*
X82748380Y-41822666D01*
X82700761Y-41917904D01*
X82653142Y-41965523D01*
X81748380Y-40441714D02*
X81748380Y-40917904D01*
X82224571Y-40965523D01*
X82176952Y-40917904D01*
X82129333Y-40822666D01*
X82129333Y-40584571D01*
X82176952Y-40489333D01*
X82224571Y-40441714D01*
X82319809Y-40394095D01*
X82557904Y-40394095D01*
X82653142Y-40441714D01*
X82700761Y-40489333D01*
X82748380Y-40584571D01*
X82748380Y-40822666D01*
X82700761Y-40917904D01*
X82653142Y-40965523D01*
X87351588Y-36151692D02*
X87351588Y-35389787D01*
X87732540Y-35770740D02*
X86970636Y-35770740D01*
%TO.C,J2*%
X111496580Y-41114133D02*
X112210866Y-41114133D01*
X112353723Y-41161752D01*
X112448961Y-41256990D01*
X112496580Y-41399847D01*
X112496580Y-41495085D01*
X111591819Y-40685561D02*
X111544200Y-40637942D01*
X111496580Y-40542704D01*
X111496580Y-40304609D01*
X111544200Y-40209371D01*
X111591819Y-40161752D01*
X111687057Y-40114133D01*
X111782295Y-40114133D01*
X111925152Y-40161752D01*
X112496580Y-40733180D01*
X112496580Y-40114133D01*
D15*
%TO.C,U6*%
X68310071Y-53305867D02*
X69235357Y-53305867D01*
X69344214Y-53251438D01*
X69398642Y-53197010D01*
X69453071Y-53088152D01*
X69453071Y-52870438D01*
X69398642Y-52761581D01*
X69344214Y-52707152D01*
X69235357Y-52652724D01*
X68310071Y-52652724D01*
X68310071Y-51618581D02*
X68310071Y-51836295D01*
X68364500Y-51945152D01*
X68418928Y-51999581D01*
X68582214Y-52108438D01*
X68799928Y-52162867D01*
X69235357Y-52162867D01*
X69344214Y-52108438D01*
X69398642Y-52054010D01*
X69453071Y-51945152D01*
X69453071Y-51727438D01*
X69398642Y-51618581D01*
X69344214Y-51564152D01*
X69235357Y-51509724D01*
X68963214Y-51509724D01*
X68854357Y-51564152D01*
X68799928Y-51618581D01*
X68745500Y-51727438D01*
X68745500Y-51945152D01*
X68799928Y-52054010D01*
X68854357Y-52108438D01*
X68963214Y-52162867D01*
D12*
%TO.C,JP4*%
X57115666Y-37806380D02*
X57115666Y-38520666D01*
X57068047Y-38663523D01*
X56972809Y-38758761D01*
X56829952Y-38806380D01*
X56734714Y-38806380D01*
X57591857Y-38806380D02*
X57591857Y-37806380D01*
X57972809Y-37806380D01*
X58068047Y-37854000D01*
X58115666Y-37901619D01*
X58163285Y-37996857D01*
X58163285Y-38139714D01*
X58115666Y-38234952D01*
X58068047Y-38282571D01*
X57972809Y-38330190D01*
X57591857Y-38330190D01*
X59020428Y-38139714D02*
X59020428Y-38806380D01*
X58782333Y-37758761D02*
X58544238Y-38473047D01*
X59163285Y-38473047D01*
%TO.C,C6*%
X92098800Y-76250800D02*
X92098800Y-81584800D01*
X86764800Y-80822800D02*
X86764800Y-77012800D01*
X87272800Y-78917800D02*
X88034800Y-78917800D01*
X91082800Y-77266800D02*
X91082800Y-80568800D01*
X91336800Y-77520800D02*
X91336800Y-80314800D01*
X86764800Y-77012800D02*
X87526800Y-76250800D01*
X92098800Y-81584800D02*
X87526800Y-81584800D01*
X91463800Y-80187800D02*
X91463800Y-77647800D01*
X91590800Y-79806800D02*
X91590800Y-78028800D01*
X87526800Y-81584800D02*
X86764800Y-80822800D01*
X90955800Y-80695800D02*
X90955800Y-77139800D01*
X87526800Y-76250800D02*
X92098800Y-76250800D01*
X91717800Y-79552800D02*
X91717800Y-78155800D01*
X91209800Y-80441800D02*
X91209800Y-77393800D01*
X87653800Y-79298800D02*
X87653800Y-78536800D01*
X91844800Y-78917800D02*
G75*
G03*
X91844800Y-78917800I-2413000J0D01*
G01*
%TO.C,C9*%
X68011000Y-60091000D02*
X68011000Y-61869000D01*
X67503000Y-63647000D02*
X67503000Y-58313000D01*
X67884000Y-60345000D02*
X67884000Y-61742000D01*
X72837000Y-62885000D02*
X72075000Y-63647000D01*
X68646000Y-59202000D02*
X68646000Y-62758000D01*
X71948000Y-60599000D02*
X71948000Y-61361000D01*
X72075000Y-58313000D02*
X72837000Y-59075000D01*
X68519000Y-62631000D02*
X68519000Y-59329000D01*
X72075000Y-63647000D02*
X67503000Y-63647000D01*
X68138000Y-59710000D02*
X68138000Y-62250000D01*
X67503000Y-58313000D02*
X72075000Y-58313000D01*
X72329000Y-60980000D02*
X71567000Y-60980000D01*
X68265000Y-62377000D02*
X68265000Y-59583000D01*
X72837000Y-59075000D02*
X72837000Y-62885000D01*
X68392000Y-59456000D02*
X68392000Y-62504000D01*
X72583000Y-60980000D02*
G75*
G03*
X72583000Y-60980000I-2413000J0D01*
G01*
%TO.C,R8*%
X82307800Y-75096400D02*
X83507800Y-75096400D01*
X83507800Y-76846400D02*
X82307800Y-76846400D01*
%TO.C,R10*%
X68742200Y-71514400D02*
X68742200Y-72714400D01*
X66992200Y-72714400D02*
X66992200Y-71514400D01*
%TO.C,R11*%
X69045000Y-67770000D02*
X69045000Y-66570000D01*
X70795000Y-66570000D02*
X70795000Y-67770000D01*
%TO.C,R15*%
X77147800Y-63564800D02*
X78347800Y-63564800D01*
X78347800Y-65314800D02*
X77147800Y-65314800D01*
%TO.C,U3*%
X80287800Y-67487800D02*
X80287800Y-72059800D01*
X75207800Y-72059800D02*
X75207800Y-67487800D01*
X80287800Y-72059800D02*
X75207800Y-72059800D01*
X75715800Y-70281800D02*
X75207800Y-70281800D01*
X75207800Y-69011800D02*
X75715800Y-69011800D01*
X75715800Y-69011800D02*
X75715800Y-70281800D01*
X75207800Y-67487800D02*
X80287800Y-67487800D01*
%TO.C,C15*%
X78251600Y-61456200D02*
X77251600Y-61456200D01*
X77251600Y-63156200D02*
X78251600Y-63156200D01*
%TO.C,C16*%
X78277000Y-76391400D02*
X77277000Y-76391400D01*
X77277000Y-78091400D02*
X78277000Y-78091400D01*
%TO.C,C20*%
X90955800Y-62407800D02*
X90955800Y-58851800D01*
X91209800Y-62153800D02*
X91209800Y-59105800D01*
X87653800Y-61010800D02*
X87653800Y-60248800D01*
X91463800Y-61899800D02*
X91463800Y-59359800D01*
X91717800Y-61264800D02*
X91717800Y-59867800D01*
X86764800Y-58724800D02*
X87526800Y-57962800D01*
X92098800Y-63296800D02*
X87526800Y-63296800D01*
X86764800Y-62534800D02*
X86764800Y-58724800D01*
X92098800Y-57962800D02*
X92098800Y-63296800D01*
X87526800Y-57962800D02*
X92098800Y-57962800D01*
X91336800Y-59232800D02*
X91336800Y-62026800D01*
X91082800Y-58978800D02*
X91082800Y-62280800D01*
X87272800Y-60629800D02*
X88034800Y-60629800D01*
X87526800Y-63296800D02*
X86764800Y-62534800D01*
X91590800Y-61518800D02*
X91590800Y-59740800D01*
X91844800Y-60629800D02*
G75*
G03*
X91844800Y-60629800I-2413000J0D01*
G01*
%TO.C,R18*%
X78267800Y-75982800D02*
X77067800Y-75982800D01*
X77067800Y-74232800D02*
X78267800Y-74232800D01*
%TO.C,R21*%
X82003000Y-62117000D02*
X83203000Y-62117000D01*
X83203000Y-63867000D02*
X82003000Y-63867000D01*
%TO.C,R23*%
X82257000Y-72962800D02*
X83457000Y-72962800D01*
X83457000Y-74712800D02*
X82257000Y-74712800D01*
%TO.C,C7*%
X71157400Y-66563600D02*
X71157400Y-67563600D01*
X72857400Y-67563600D02*
X72857400Y-66563600D01*
%TO.C,C8*%
X71157400Y-71643600D02*
X71157400Y-72643600D01*
X72857400Y-72643600D02*
X72857400Y-71643600D01*
%TO.C,P3*%
X94488000Y-71882000D02*
X97028000Y-71882000D01*
X97028000Y-64262000D02*
X97028000Y-71882000D01*
X94208000Y-62992000D02*
X94208000Y-61442000D01*
X94208000Y-61442000D02*
X97308000Y-61442000D01*
X94488000Y-64262000D02*
X94488000Y-71882000D01*
X97028000Y-64262000D02*
X94488000Y-64262000D01*
X97308000Y-61442000D02*
X97308000Y-62992000D01*
%TO.C,R9*%
X66975000Y-67730000D02*
X66975000Y-66530000D01*
X68725000Y-66530000D02*
X68725000Y-67730000D01*
%TO.C,R12*%
X70850400Y-71543600D02*
X70850400Y-72743600D01*
X69100400Y-72743600D02*
X69100400Y-71543600D01*
%TO.C,C19*%
X87272800Y-66725800D02*
X88034800Y-66725800D01*
X87526800Y-69392800D02*
X86764800Y-68630800D01*
X92098800Y-69392800D02*
X87526800Y-69392800D01*
X91209800Y-68249800D02*
X91209800Y-65201800D01*
X91336800Y-65328800D02*
X91336800Y-68122800D01*
X91463800Y-67995800D02*
X91463800Y-65455800D01*
X90955800Y-68503800D02*
X90955800Y-64947800D01*
X87526800Y-64058800D02*
X92098800Y-64058800D01*
X86764800Y-68630800D02*
X86764800Y-64820800D01*
X91082800Y-65074800D02*
X91082800Y-68376800D01*
X92098800Y-64058800D02*
X92098800Y-69392800D01*
X91590800Y-67614800D02*
X91590800Y-65836800D01*
X86764800Y-64820800D02*
X87526800Y-64058800D01*
X91717800Y-67360800D02*
X91717800Y-65963800D01*
X87653800Y-67106800D02*
X87653800Y-66344800D01*
X91844800Y-66725800D02*
G75*
G03*
X91844800Y-66725800I-2413000J0D01*
G01*
%TO.C,C14*%
X68125000Y-79730600D02*
X68125000Y-76936600D01*
X68379000Y-79984600D02*
X68379000Y-76682600D01*
X68506000Y-76555600D02*
X68506000Y-80111600D01*
X72697000Y-76428600D02*
X72697000Y-80238600D01*
X71808000Y-77952600D02*
X71808000Y-78714600D01*
X72697000Y-80238600D02*
X71935000Y-81000600D01*
X72189000Y-78333600D02*
X71427000Y-78333600D01*
X67363000Y-81000600D02*
X67363000Y-75666600D01*
X67871000Y-77444600D02*
X67871000Y-79222600D01*
X71935000Y-81000600D02*
X67363000Y-81000600D01*
X68252000Y-76809600D02*
X68252000Y-79857600D01*
X67998000Y-77063600D02*
X67998000Y-79603600D01*
X71935000Y-75666600D02*
X72697000Y-76428600D01*
X67744000Y-77698600D02*
X67744000Y-79095600D01*
X67363000Y-75666600D02*
X71935000Y-75666600D01*
X72443000Y-78333600D02*
G75*
G03*
X72443000Y-78333600I-2413000J0D01*
G01*
%TO.C,C4*%
X72010220Y-55369610D02*
X71010220Y-55369610D01*
X71010220Y-57069610D02*
X72010220Y-57069610D01*
D16*
%TO.C,D3*%
X98401600Y-44772000D02*
X98401600Y-41572000D01*
X98401600Y-44772000D02*
X99901600Y-44772000D01*
X99901600Y-41572000D02*
X99901600Y-44772000D01*
D12*
%TO.C,C27*%
X106876600Y-76426800D02*
X108876600Y-76426800D01*
X108876600Y-74376800D02*
X106876600Y-74376800D01*
%TO.C,C23*%
X106927400Y-73531200D02*
X108927400Y-73531200D01*
X108927400Y-71481200D02*
X106927400Y-71481200D01*
%TO.C,R25*%
X109187800Y-79045400D02*
X107987800Y-79045400D01*
X107987800Y-77295400D02*
X109187800Y-77295400D01*
%TO.C,R27*%
X109518000Y-70815800D02*
X108318000Y-70815800D01*
X108318000Y-69065800D02*
X109518000Y-69065800D01*
%TO.C,R20*%
X82235400Y-64682400D02*
X83435400Y-64682400D01*
X83435400Y-66432400D02*
X82235400Y-66432400D01*
D16*
%TO.C,D2*%
X101882800Y-41597400D02*
X101882800Y-44797400D01*
X100382800Y-44797400D02*
X101882800Y-44797400D01*
X100382800Y-44797400D02*
X100382800Y-41597400D01*
D12*
%TO.C,P2*%
X75224020Y-48828210D02*
X65064020Y-48828210D01*
X75224020Y-48828210D02*
X75224020Y-46288210D01*
X76494020Y-46008210D02*
X78044020Y-46008210D01*
X78044020Y-49108210D02*
X76494020Y-49108210D01*
X65064020Y-48828210D02*
X65064020Y-46288210D01*
X78044020Y-46008210D02*
X78044020Y-49108210D01*
X65064020Y-46288210D02*
X75224020Y-46288210D01*
%TO.C,C12*%
X75041800Y-70039800D02*
X75041800Y-69039800D01*
X73341800Y-69039800D02*
X73341800Y-70039800D01*
%TO.C,R19*%
X83679000Y-48168000D02*
X83679000Y-49368000D01*
X81929000Y-49368000D02*
X81929000Y-48168000D01*
%TO.C,C25*%
X63834910Y-38543610D02*
X63834910Y-39543610D01*
X65534910Y-39543610D02*
X65534910Y-38543610D01*
%TO.C,P4*%
X99596200Y-78653000D02*
X102136200Y-78653000D01*
X99596200Y-73573000D02*
X99596200Y-78653000D01*
X102416200Y-81473000D02*
X99316200Y-81473000D01*
X102136200Y-73573000D02*
X99596200Y-73573000D01*
X102416200Y-79923000D02*
X102416200Y-81473000D01*
X99316200Y-81473000D02*
X99316200Y-79923000D01*
X102136200Y-78653000D02*
X102136200Y-73573000D01*
D16*
%TO.C,JP1*%
X81220000Y-51370000D02*
X78420000Y-51370000D01*
X78420000Y-49370000D02*
X81220000Y-49370000D01*
X81220000Y-49370000D02*
X81220000Y-51370000D01*
X78420000Y-51370000D02*
X78420000Y-49370000D01*
%TO.C,JP3*%
X62106000Y-42942000D02*
X62106000Y-44942000D01*
X62106000Y-44942000D02*
X59306000Y-44942000D01*
X59306000Y-44942000D02*
X59306000Y-42942000D01*
X59306000Y-42942000D02*
X62106000Y-42942000D01*
D12*
%TO.C,R28*%
X80676710Y-38273210D02*
X79476710Y-38273210D01*
X79476710Y-36523210D02*
X80676710Y-36523210D01*
%TO.C,C2*%
X86845518Y-56667502D02*
X87845518Y-56667502D01*
X87845518Y-54967502D02*
X86845518Y-54967502D01*
%TO.C,C38*%
X77089000Y-55118000D02*
X77851000Y-55118000D01*
X81915000Y-52451000D02*
X81915000Y-57785000D01*
X81280000Y-56388000D02*
X81280000Y-53848000D01*
X77470000Y-55499000D02*
X77470000Y-54737000D01*
X77343000Y-57785000D02*
X76581000Y-57023000D01*
X80899000Y-53467000D02*
X80899000Y-56769000D01*
X77343000Y-52451000D02*
X81915000Y-52451000D01*
X76581000Y-57023000D02*
X76581000Y-53213000D01*
X81534000Y-55753000D02*
X81534000Y-54356000D01*
X81407000Y-56007000D02*
X81407000Y-54229000D01*
X81026000Y-56642000D02*
X81026000Y-53594000D01*
X81915000Y-57785000D02*
X77343000Y-57785000D01*
X76581000Y-53213000D02*
X77343000Y-52451000D01*
X81153000Y-53721000D02*
X81153000Y-56515000D01*
X80772000Y-56896000D02*
X80772000Y-53340000D01*
X81661000Y-55118000D02*
G75*
G03*
X81661000Y-55118000I-2413000J0D01*
G01*
%TO.C,U5*%
X96474000Y-60197000D02*
X97474000Y-60197000D01*
X96474000Y-57697000D02*
X96474000Y-60197000D01*
X96474000Y-46697000D02*
X96474000Y-48997000D01*
X96474000Y-46697000D02*
X97474000Y-46697000D01*
D17*
X115016000Y-50761000D02*
G75*
G03*
X115016000Y-50761000I-1016000J0D01*
G01*
D12*
%TO.C,J6*%
X61822000Y-71444800D02*
X61822000Y-61284800D01*
X61822000Y-61284800D02*
X64362000Y-61284800D01*
X64642000Y-72714800D02*
X64642000Y-74264800D01*
X61542000Y-74264800D02*
X61542000Y-72714800D01*
X64642000Y-74264800D02*
X61542000Y-74264800D01*
X61822000Y-71444800D02*
X64362000Y-71444800D01*
X64362000Y-61284800D02*
X64362000Y-71444800D01*
D18*
%TO.C,J7*%
X111562000Y-68970000D02*
X113462000Y-68970000D01*
X123062000Y-68970000D02*
X123062000Y-80970000D01*
D12*
X126262000Y-71970000D02*
X127362000Y-77970000D01*
D18*
X111562000Y-80970000D02*
X113462000Y-80970000D01*
D12*
X124512000Y-72020000D02*
X125662000Y-77970000D01*
X129062000Y-77970000D02*
X123062000Y-77970000D01*
X126562000Y-77920000D02*
X125412000Y-71970000D01*
X123062000Y-73420000D02*
X123962000Y-77920000D01*
D18*
X116662000Y-68970000D02*
X123062000Y-68970000D01*
X111562000Y-80970000D02*
X111562000Y-68970000D01*
D12*
X129012000Y-77970000D02*
X128062000Y-71970000D01*
X123062000Y-71970000D02*
X129062000Y-71970000D01*
X128212000Y-77970000D02*
X127162000Y-72020000D01*
X129062000Y-71970000D02*
X129062000Y-77970000D01*
D18*
X116662000Y-80970000D02*
X123062000Y-80970000D01*
D12*
X124812000Y-77970000D02*
X123612000Y-71920000D01*
D16*
%TO.C,JP5*%
X62106000Y-40148000D02*
X62106000Y-42148000D01*
X59306000Y-42148000D02*
X59306000Y-40148000D01*
X59306000Y-40148000D02*
X62106000Y-40148000D01*
X62106000Y-42148000D02*
X59306000Y-42148000D01*
D12*
%TO.C,J8*%
X61504910Y-58958010D02*
X61504910Y-57408010D01*
X64604910Y-58958010D02*
X61504910Y-58958010D01*
X61784910Y-56138010D02*
X64324910Y-56138010D01*
X61784910Y-56138010D02*
X61784910Y-45978010D01*
X64604910Y-57408010D02*
X64604910Y-58958010D01*
X61784910Y-45978010D02*
X64324910Y-45978010D01*
X64324910Y-45978010D02*
X64324910Y-56138010D01*
%TO.C,C21*%
X87272800Y-72821800D02*
X88034800Y-72821800D01*
X91717800Y-73456800D02*
X91717800Y-72059800D01*
X87526800Y-75488800D02*
X86764800Y-74726800D01*
X86764800Y-70916800D02*
X87526800Y-70154800D01*
X92098800Y-70154800D02*
X92098800Y-75488800D01*
X90955800Y-74599800D02*
X90955800Y-71043800D01*
X91336800Y-71424800D02*
X91336800Y-74218800D01*
X91590800Y-73710800D02*
X91590800Y-71932800D01*
X91463800Y-74091800D02*
X91463800Y-71551800D01*
X91209800Y-74345800D02*
X91209800Y-71297800D01*
X87653800Y-73202800D02*
X87653800Y-72440800D01*
X91082800Y-71170800D02*
X91082800Y-74472800D01*
X86764800Y-74726800D02*
X86764800Y-70916800D01*
X92098800Y-75488800D02*
X87526800Y-75488800D01*
X87526800Y-70154800D02*
X92098800Y-70154800D01*
X91844800Y-72821800D02*
G75*
G03*
X91844800Y-72821800I-2413000J0D01*
G01*
D19*
%TO.C,U4*%
X66006910Y-42698610D02*
X66006910Y-39198610D01*
X72506910Y-39198610D02*
X72506910Y-42698610D01*
X72006910Y-39998610D02*
G75*
G03*
X72006910Y-39998610I-300000J0D01*
G01*
D12*
%TO.C,C36*%
X111379000Y-62357000D02*
X115951000Y-62357000D01*
X110617000Y-66929000D02*
X110617000Y-63119000D01*
X115189000Y-63627000D02*
X115189000Y-66421000D01*
X111506000Y-65405000D02*
X111506000Y-64643000D01*
X114808000Y-66802000D02*
X114808000Y-63246000D01*
X115951000Y-67691000D02*
X111379000Y-67691000D01*
X111125000Y-65024000D02*
X111887000Y-65024000D01*
X114935000Y-63373000D02*
X114935000Y-66675000D01*
X115443000Y-65913000D02*
X115443000Y-64135000D01*
X115951000Y-62357000D02*
X115951000Y-67691000D01*
X115570000Y-65659000D02*
X115570000Y-64262000D01*
X115316000Y-66294000D02*
X115316000Y-63754000D01*
X115062000Y-66548000D02*
X115062000Y-63500000D01*
X110617000Y-63119000D02*
X111379000Y-62357000D01*
X111379000Y-67691000D02*
X110617000Y-66929000D01*
X115697000Y-65024000D02*
G75*
G03*
X115697000Y-65024000I-2413000J0D01*
G01*
D19*
%TO.C,U1*%
X90467118Y-54546302D02*
X86967118Y-54546302D01*
X86967118Y-48046302D02*
X90467118Y-48046302D01*
X88067118Y-48846302D02*
G75*
G03*
X88067118Y-48846302I-300000J0D01*
G01*
D12*
%TO.C,D1*%
X88277110Y-40894990D02*
X89026410Y-40894990D01*
X88277110Y-40894990D02*
X88277110Y-41044850D01*
X87576070Y-40046630D02*
X88978150Y-40046630D01*
X88277110Y-40894990D02*
X87576070Y-40046630D01*
X88978150Y-40046630D02*
X88277110Y-40894990D01*
X88277110Y-40046630D02*
X88277110Y-39845970D01*
X88277110Y-40894990D02*
X87576070Y-40894990D01*
%TO.C,D4*%
X91208270Y-40155850D02*
X92610350Y-40155850D01*
X91909310Y-41004210D02*
X91909310Y-41154070D01*
X91909310Y-41004210D02*
X91208270Y-41004210D01*
X91909310Y-41004210D02*
X91208270Y-40155850D01*
X91909310Y-40155850D02*
X91909310Y-39955190D01*
X91909310Y-41004210D02*
X92658610Y-41004210D01*
X92610350Y-40155850D02*
X91909310Y-41004210D01*
%TO.C,R13*%
X86288318Y-46001702D02*
X87488318Y-46001702D01*
X87488318Y-47751702D02*
X86288318Y-47751702D01*
D16*
%TO.C,JP2*%
X79010000Y-43093000D02*
X79010000Y-40293000D01*
X81010000Y-40293000D02*
X81010000Y-43093000D01*
X79010000Y-40293000D02*
X81010000Y-40293000D01*
X81010000Y-43093000D02*
X79010000Y-43093000D01*
D12*
%TO.C,P1*%
X76618510Y-36229810D02*
X74078510Y-36229810D01*
X73798510Y-44129810D02*
X73798510Y-42579810D01*
X76898510Y-44129810D02*
X73798510Y-44129810D01*
X74078510Y-41309810D02*
X76618510Y-41309810D01*
X74078510Y-36229810D02*
X74078510Y-41309810D01*
X76618510Y-41309810D02*
X76618510Y-36229810D01*
X76898510Y-42579810D02*
X76898510Y-44129810D01*
%TO.C,C35*%
X87783080Y-35768200D02*
X86683260Y-35768200D01*
X86779780Y-36271120D02*
X82979940Y-36271120D01*
X86779780Y-42971640D02*
X86779780Y-37972920D01*
X82979940Y-42969100D02*
X82979940Y-37970380D01*
X87282700Y-35168760D02*
X87282700Y-36367640D01*
D19*
%TO.C,U6*%
X70333000Y-54594010D02*
X70333000Y-55102010D01*
X67920000Y-49768010D02*
X71730000Y-49768010D01*
X67920000Y-55102010D02*
X71603000Y-55102010D01*
X69317000Y-54594010D02*
X70333000Y-54594010D01*
X71730000Y-55102010D02*
X71730000Y-49768010D01*
X67920000Y-49768010D02*
X67920000Y-55102010D01*
X69317000Y-55102010D02*
X69317000Y-54594010D01*
X71603000Y-55102010D02*
X71730000Y-55102010D01*
D16*
%TO.C,JP4*%
X62143000Y-39354000D02*
X59343000Y-39354000D01*
X59343000Y-39354000D02*
X59343000Y-37354000D01*
X62143000Y-37354000D02*
X62143000Y-39354000D01*
X59343000Y-37354000D02*
X62143000Y-37354000D01*
%TD*%
D20*
%TO.C,P3*%
X95758000Y-62992000D03*
D21*
X95758000Y-65532000D03*
X95758000Y-68072000D03*
X95758000Y-70612000D03*
%TD*%
D22*
%TO.C,P2*%
X76494020Y-47558210D03*
D23*
X73954020Y-47558210D03*
X71414020Y-47558210D03*
X68874020Y-47558210D03*
X66334020Y-47558210D03*
%TD*%
D20*
%TO.C,P4*%
X100866200Y-79923000D03*
D21*
X100866200Y-77383000D03*
X100866200Y-74843000D03*
%TD*%
D20*
%TO.C,J6*%
X63092000Y-72714800D03*
D21*
X63092000Y-70174800D03*
X63092000Y-67634800D03*
X63092000Y-65094800D03*
X63092000Y-62554800D03*
%TD*%
D24*
%TO.C,J7*%
X120062000Y-79970000D03*
X120062000Y-69970000D03*
X115062000Y-74970000D03*
D25*
X120062000Y-74970000D03*
D26*
X115062000Y-79970000D03*
X115062000Y-77470000D03*
X115062000Y-72470000D03*
X115062000Y-69970000D03*
%TD*%
D20*
%TO.C,J8*%
X63054910Y-57408010D03*
D21*
X63054910Y-54868010D03*
X63054910Y-52328010D03*
X63054910Y-49788010D03*
X63054910Y-47248010D03*
%TD*%
D20*
%TO.C,P1*%
X75348510Y-42579810D03*
D21*
X75348510Y-40039810D03*
X75348510Y-37499810D03*
%TD*%
M02*
