%TF.GenerationSoftware,KiCad,Pcbnew,6.0.5-a6ca702e91~116~ubuntu20.04.1*%
%TF.CreationDate,2022-06-15T21:10:52+02:00*%
%TF.ProjectId,vwcdpic_with_BT,76776364-7069-4635-9f77-6974685f4254,rev?*%
%TF.SameCoordinates,Original*%
%TF.FileFunction,Soldermask,Top*%
%TF.FilePolarity,Negative*%
%FSLAX46Y46*%
G04 Gerber Fmt 4.6, Leading zero omitted, Abs format (unit mm)*
G04 Created by KiCad (PCBNEW 6.0.5-a6ca702e91~116~ubuntu20.04.1) date 2022-06-15 21:10:52*
%MOMM*%
%LPD*%
G01*
G04 APERTURE LIST*
G04 Aperture macros list*
%AMRoundRect*
0 Rectangle with rounded corners*
0 $1 Rounding radius*
0 $2 $3 $4 $5 $6 $7 $8 $9 X,Y pos of 4 corners*
0 Add a 4 corners polygon primitive as box body*
4,1,4,$2,$3,$4,$5,$6,$7,$8,$9,$2,$3,0*
0 Add four circle primitives for the rounded corners*
1,1,$1+$1,$2,$3*
1,1,$1+$1,$4,$5*
1,1,$1+$1,$6,$7*
1,1,$1+$1,$8,$9*
0 Add four rect primitives between the rounded corners*
20,1,$1+$1,$2,$3,$4,$5,0*
20,1,$1+$1,$4,$5,$6,$7,0*
20,1,$1+$1,$6,$7,$8,$9,0*
20,1,$1+$1,$8,$9,$2,$3,0*%
%AMFreePoly0*
4,1,23,0.597202,0.984665,0.679605,0.929605,0.711341,0.890894,1.211341,0.140894,1.249171,0.049292,1.249067,-0.049813,1.211341,-0.140894,0.711341,-0.890894,0.641336,-0.961046,0.549813,-0.999067,0.500000,-1.004000,-0.500000,-1.004000,-0.597202,-0.984665,-0.679605,-0.929605,-0.734665,-0.847202,-0.754000,-0.750000,-0.754000,0.750000,-0.734665,0.847202,-0.679605,0.929605,-0.597202,0.984665,
-0.500000,1.004000,0.500000,1.004000,0.597202,0.984665,0.597202,0.984665,$1*%
%AMFreePoly1*
4,1,26,0.597202,0.984665,0.679605,0.929605,0.734665,0.847202,0.754000,0.750000,0.754000,-0.750000,0.734665,-0.847202,0.679605,-0.929605,0.597202,-0.984665,0.500000,-1.004000,-0.650000,-1.004000,-0.747202,-0.984665,-0.829605,-0.929605,-0.884665,-0.847202,-0.904000,-0.750000,-0.884665,-0.652798,-0.861341,-0.609106,-0.455270,0.000000,-0.861341,0.609106,-0.899171,0.700708,-0.899067,0.799813,
-0.861046,0.891336,-0.790894,0.961341,-0.699292,0.999171,-0.650000,1.004000,0.500000,1.004000,0.597202,0.984665,0.597202,0.984665,$1*%
G04 Aperture macros list end*
%ADD10RoundRect,0.254000X1.499870X0.800100X-1.499870X0.800100X-1.499870X-0.800100X1.499870X-0.800100X0*%
%ADD11RoundRect,0.254000X-1.499870X-0.800100X1.499870X-0.800100X1.499870X0.800100X-1.499870X0.800100X0*%
%ADD12RoundRect,0.254000X-0.750000X-0.650000X0.750000X-0.650000X0.750000X0.650000X-0.750000X0.650000X0*%
%ADD13RoundRect,0.254000X-0.650000X0.750000X-0.650000X-0.750000X0.650000X-0.750000X0.650000X0.750000X0*%
%ADD14RoundRect,0.254000X0.650000X-0.750000X0.650000X0.750000X-0.650000X0.750000X-0.650000X-0.750000X0*%
%ADD15RoundRect,0.254000X0.750000X0.650000X-0.750000X0.650000X-0.750000X-0.650000X0.750000X-0.650000X0*%
%ADD16RoundRect,0.254000X-0.254000X-0.571500X0.254000X-0.571500X0.254000X0.571500X-0.254000X0.571500X0*%
%ADD17RoundRect,0.254000X-0.750000X-0.625000X0.750000X-0.625000X0.750000X0.625000X-0.750000X0.625000X0*%
%ADD18RoundRect,0.254000X-0.625000X0.750000X-0.625000X-0.750000X0.625000X-0.750000X0.625000X0.750000X0*%
%ADD19RoundRect,0.254000X0.625000X-0.750000X0.625000X0.750000X-0.625000X0.750000X-0.625000X-0.750000X0*%
%ADD20RoundRect,0.254000X-1.016000X-0.863600X1.016000X-0.863600X1.016000X0.863600X-1.016000X0.863600X0*%
%ADD21O,2.540000X2.235200*%
%ADD22RoundRect,0.254000X0.750000X0.625000X-0.750000X0.625000X-0.750000X-0.625000X0.750000X-0.625000X0*%
%ADD23RoundRect,0.254000X-1.000000X-0.800000X1.000000X-0.800000X1.000000X0.800000X-1.000000X0.800000X0*%
%ADD24RoundRect,0.254000X-0.863600X1.016000X-0.863600X-1.016000X0.863600X-1.016000X0.863600X1.016000X0*%
%ADD25O,2.235200X2.540000*%
%ADD26RoundRect,0.254000X1.016000X0.863600X-1.016000X0.863600X-1.016000X-0.863600X1.016000X-0.863600X0*%
%ADD27FreePoly0,0.000000*%
%ADD28FreePoly1,0.000000*%
%ADD29RoundRect,0.254000X0.500000X-0.500000X0.500000X0.500000X-0.500000X0.500000X-0.500000X-0.500000X0*%
%ADD30RoundRect,0.254000X-0.400000X1.000000X-0.400000X-1.000000X0.400000X-1.000000X0.400000X1.000000X0*%
%ADD31RoundRect,0.254000X-1.000000X0.400000X-1.000000X-0.400000X1.000000X-0.400000X1.000000X0.400000X0*%
%ADD32C,2.008000*%
%ADD33O,2.508000X3.108000*%
%ADD34O,3.108000X2.508000*%
%ADD35RoundRect,0.254000X0.475000X1.075000X-0.475000X1.075000X-0.475000X-1.075000X0.475000X-1.075000X0*%
%ADD36RoundRect,0.254000X1.625000X1.075000X-1.625000X1.075000X-1.625000X-1.075000X1.625000X-1.075000X0*%
%ADD37RoundRect,0.254000X-1.075000X0.475000X-1.075000X-0.475000X1.075000X-0.475000X1.075000X0.475000X0*%
%ADD38RoundRect,0.254000X-1.075000X1.625000X-1.075000X-1.625000X1.075000X-1.625000X1.075000X1.625000X0*%
%ADD39RoundRect,0.254000X0.849630X-1.649730X0.849630X1.649730X-0.849630X1.649730X-0.849630X-1.649730X0*%
%ADD40FreePoly0,270.000000*%
%ADD41FreePoly1,270.000000*%
%ADD42RoundRect,0.254000X-0.900430X1.574800X-0.900430X-1.574800X0.900430X-1.574800X0.900430X1.574800X0*%
%ADD43RoundRect,0.254000X1.000000X-0.350000X1.000000X0.350000X-1.000000X0.350000X-1.000000X-0.350000X0*%
%ADD44C,2.508000*%
G04 APERTURE END LIST*
D10*
%TO.C,C6*%
X87232160Y-78917800D03*
X91631440Y-78917800D03*
%TD*%
D11*
%TO.C,C9*%
X72369640Y-60980000D03*
X67970360Y-60980000D03*
%TD*%
D12*
%TO.C,R8*%
X81557800Y-75971400D03*
X84257800Y-75971400D03*
%TD*%
D13*
%TO.C,R10*%
X67867200Y-70764400D03*
X67867200Y-73464400D03*
%TD*%
D14*
%TO.C,R11*%
X69920000Y-68520000D03*
X69920000Y-65820000D03*
%TD*%
D15*
%TO.C,R15*%
X79097800Y-64439800D03*
X76397800Y-64439800D03*
%TD*%
D16*
%TO.C,U3*%
X75842800Y-72948800D03*
X77112800Y-72948800D03*
X78382800Y-72948800D03*
X79652800Y-72948800D03*
X79652800Y-66598800D03*
X78382800Y-66598800D03*
X77112800Y-66598800D03*
X75842800Y-66598800D03*
%TD*%
D17*
%TO.C,C15*%
X76501600Y-62306200D03*
X79001600Y-62306200D03*
%TD*%
%TO.C,C16*%
X76527000Y-77241400D03*
X79027000Y-77241400D03*
%TD*%
D10*
%TO.C,C20*%
X87232160Y-60629800D03*
X91631440Y-60629800D03*
%TD*%
D15*
%TO.C,R18*%
X79017800Y-75107800D03*
X76317800Y-75107800D03*
%TD*%
D12*
%TO.C,R21*%
X81253000Y-62992000D03*
X83953000Y-62992000D03*
%TD*%
D15*
%TO.C,R23*%
X84207000Y-73837800D03*
X81507000Y-73837800D03*
%TD*%
D18*
%TO.C,C7*%
X72007400Y-65813600D03*
X72007400Y-68313600D03*
%TD*%
D19*
%TO.C,C8*%
X72007400Y-73393600D03*
X72007400Y-70893600D03*
%TD*%
D20*
%TO.C,P3*%
X95758000Y-62992000D03*
D21*
X95758000Y-65532000D03*
X95758000Y-68072000D03*
X95758000Y-70612000D03*
%TD*%
D14*
%TO.C,R9*%
X67850000Y-68480000D03*
X67850000Y-65780000D03*
%TD*%
D13*
%TO.C,R12*%
X69975400Y-70793600D03*
X69975400Y-73493600D03*
%TD*%
D10*
%TO.C,C19*%
X87232160Y-66725800D03*
X91631440Y-66725800D03*
%TD*%
D11*
%TO.C,C14*%
X72229640Y-78333600D03*
X67830360Y-78333600D03*
%TD*%
D22*
%TO.C,C4*%
X72760220Y-56219610D03*
X70260220Y-56219610D03*
%TD*%
D14*
%TO.C,D3*%
X99151600Y-43922000D03*
X99151600Y-41222000D03*
%TD*%
D23*
%TO.C,C27*%
X105876600Y-75401800D03*
X109876600Y-75401800D03*
%TD*%
%TO.C,C23*%
X105927400Y-72506200D03*
X109927400Y-72506200D03*
%TD*%
D12*
%TO.C,R25*%
X107237800Y-78170400D03*
X109937800Y-78170400D03*
%TD*%
D15*
%TO.C,R27*%
X110268000Y-69940800D03*
X107568000Y-69940800D03*
%TD*%
%TO.C,R20*%
X84185400Y-65557400D03*
X81485400Y-65557400D03*
%TD*%
D14*
%TO.C,D2*%
X101132800Y-43947400D03*
X101132800Y-41247400D03*
%TD*%
D24*
%TO.C,P2*%
X76494020Y-47558210D03*
D25*
X73954020Y-47558210D03*
X71414020Y-47558210D03*
X68874020Y-47558210D03*
X66334020Y-47558210D03*
%TD*%
D18*
%TO.C,C12*%
X74191800Y-68289800D03*
X74191800Y-70789800D03*
%TD*%
D13*
%TO.C,R19*%
X82804000Y-47418000D03*
X82804000Y-50118000D03*
%TD*%
D18*
%TO.C,C25*%
X64684910Y-37793610D03*
X64684910Y-40293610D03*
%TD*%
D26*
%TO.C,P4*%
X100866200Y-79923000D03*
D21*
X100866200Y-77383000D03*
X100866200Y-74843000D03*
%TD*%
D27*
%TO.C,JP1*%
X79095000Y-50370000D03*
D28*
X80545000Y-50370000D03*
%TD*%
D27*
%TO.C,JP3*%
X59981000Y-43942000D03*
D28*
X61431000Y-43942000D03*
%TD*%
D12*
%TO.C,R28*%
X78726710Y-37398210D03*
X81426710Y-37398210D03*
%TD*%
D17*
%TO.C,C2*%
X86095518Y-55817502D03*
X88595518Y-55817502D03*
%TD*%
D29*
%TO.C,J4*%
X108966000Y-43434000D03*
%TD*%
D10*
%TO.C,C38*%
X77048360Y-55118000D03*
X81447640Y-55118000D03*
%TD*%
D30*
%TO.C,U5*%
X114574000Y-46697000D03*
X113474000Y-46697000D03*
X112374000Y-46697000D03*
X111274000Y-46697000D03*
X110174000Y-46697000D03*
X109074000Y-46697000D03*
X107974000Y-46697000D03*
X106874000Y-46697000D03*
X105774000Y-46697000D03*
X104674000Y-46697000D03*
X103574000Y-46697000D03*
X102474000Y-46697000D03*
X101374000Y-46697000D03*
X100274000Y-46697000D03*
X99174000Y-46697000D03*
X98074000Y-46697000D03*
D31*
X96474000Y-49597000D03*
X96474000Y-50697000D03*
X96474000Y-51797000D03*
X96474000Y-52897000D03*
X96474000Y-53947000D03*
X96474000Y-54997000D03*
X96474000Y-56047000D03*
X96474000Y-57096996D03*
D30*
X98074000Y-60197000D03*
X99174000Y-60197000D03*
X100274000Y-60197000D03*
X101374000Y-60197000D03*
X102474000Y-60197000D03*
X103574000Y-60197000D03*
X104674000Y-60197000D03*
X105774000Y-60197000D03*
X106874000Y-60197000D03*
X107974000Y-60197000D03*
X109074000Y-60197000D03*
X110174000Y-60197000D03*
X111274000Y-60197000D03*
X112374000Y-60197000D03*
X113474000Y-60197000D03*
X114574000Y-60197000D03*
%TD*%
D26*
%TO.C,J6*%
X63092000Y-72714800D03*
D21*
X63092000Y-70174800D03*
X63092000Y-67634800D03*
X63092000Y-65094800D03*
X63092000Y-62554800D03*
%TD*%
D29*
%TO.C,J1*%
X113538000Y-43434000D03*
%TD*%
D32*
%TO.C,J7*%
X120062000Y-79970000D03*
X120062000Y-69970000D03*
X115062000Y-74970000D03*
D33*
X120062000Y-74970000D03*
D34*
X115062000Y-79970000D03*
X115062000Y-77470000D03*
X115062000Y-72470000D03*
X115062000Y-69970000D03*
%TD*%
D27*
%TO.C,JP5*%
X59981000Y-41148000D03*
D28*
X61431000Y-41148000D03*
%TD*%
D29*
%TO.C,J5*%
X107442000Y-43434000D03*
%TD*%
D26*
%TO.C,J8*%
X63054910Y-57408010D03*
D21*
X63054910Y-54868010D03*
X63054910Y-52328010D03*
X63054910Y-49788010D03*
X63054910Y-47248010D03*
%TD*%
D10*
%TO.C,C21*%
X87232160Y-72821800D03*
X91631440Y-72821800D03*
%TD*%
D35*
%TO.C,U4*%
X71556910Y-38048610D03*
D36*
X69256910Y-43848610D03*
D35*
X69256910Y-38048610D03*
X66956910Y-38048610D03*
%TD*%
D10*
%TO.C,C36*%
X111084360Y-65024000D03*
X115483640Y-65024000D03*
%TD*%
D37*
%TO.C,U1*%
X85817118Y-48996302D03*
D38*
X91617118Y-51296302D03*
D37*
X85817118Y-51296302D03*
X85817118Y-53596302D03*
%TD*%
D39*
%TO.C,D1*%
X88277110Y-43146230D03*
X88277110Y-37644590D03*
%TD*%
%TO.C,D4*%
X91909310Y-43255450D03*
X91909310Y-37753810D03*
%TD*%
D12*
%TO.C,R13*%
X85538318Y-46876702D03*
X88238318Y-46876702D03*
%TD*%
D40*
%TO.C,JP2*%
X80010000Y-40968000D03*
D41*
X80010000Y-42418000D03*
%TD*%
D26*
%TO.C,P1*%
X75348510Y-42579810D03*
D21*
X75348510Y-40039810D03*
X75348510Y-37499810D03*
%TD*%
D29*
%TO.C,J3*%
X110490000Y-43434000D03*
%TD*%
D42*
%TO.C,C35*%
X84879860Y-38346300D03*
X84879860Y-42598260D03*
%TD*%
D29*
%TO.C,J2*%
X112014000Y-43434000D03*
%TD*%
D43*
%TO.C,U6*%
X72825000Y-54340010D03*
X72825000Y-53070010D03*
X72825000Y-51800010D03*
X72825000Y-50530010D03*
X66825000Y-50530010D03*
X66825000Y-51800010D03*
X66825000Y-53070010D03*
X66825000Y-54340010D03*
%TD*%
D27*
%TO.C,JP4*%
X60018000Y-38354000D03*
D28*
X61468000Y-38354000D03*
%TD*%
D44*
%TO.C,H1*%
X58753500Y-74705700D03*
X121253500Y-42905700D03*
%TD*%
M02*
